<?xml version="1.0" encoding="utf-8"?>
<!-- Generator: Adobe Illustrator 23.0.2, SVG Export Plug-In . SVG Version: 6.00 Build 0)  -->
<svg version="1.1" id="Layer_1" xmlns="http://www.w3.org/2000/svg" xmlns:xlink="http://www.w3.org/1999/xlink" x="0px" y="0px"
	 viewBox="0 0 1175 900" style="enable-background:new 0 0 1175 900;" xml:space="preserve">
<style type="text/css">
	.st0{clip-path:url(#SVGID_2_);}
	
		.st1{clip-path:url(#SVGID_4_);fill:none;stroke:#D40005;stroke-width:3;stroke-linecap:round;stroke-linejoin:round;stroke-miterlimit:10;stroke-dasharray:9.889,0,0,9.889,0,0;}
	.st2{clip-path:url(#SVGID_4_);fill:#FFEEB8;}
	.st3{clip-path:url(#SVGID_4_);fill:#DCDCE2;}
	.st4{clip-path:url(#SVGID_4_);fill:url(#SVGID_5_);}
	.st5{clip-path:url(#SVGID_4_);fill:url(#SVGID_6_);}
	.st6{clip-path:url(#SVGID_4_);fill:url(#SVGID_7_);}
	.st7{clip-path:url(#SVGID_4_);fill:#FFFFFF;}
	.st8{clip-path:url(#SVGID_4_);fill:#D7D7E6;}
	.st9{clip-path:url(#SVGID_4_);fill:#E0B594;}
	.st10{clip-path:url(#SVGID_4_);fill:#A4A532;}
	.st11{clip-path:url(#SVGID_4_);fill:#F7CC45;}
	.st12{clip-path:url(#SVGID_4_);fill:#FAC8BB;}
	.st13{clip-path:url(#SVGID_4_);fill:#D69F5F;}
	.st14{clip-path:url(#SVGID_4_);fill:#894D33;}
	.st15{clip-path:url(#SVGID_4_);fill:#663929;}
	.st16{clip-path:url(#SVGID_4_);fill:#353535;}
	.st17{clip-path:url(#SVGID_4_);fill:#003A8E;}
	.st18{opacity:0.4;clip-path:url(#SVGID_4_);}
	.st19{clip-path:url(#SVGID_9_);fill:#E2A69A;}
	.st20{opacity:0.6;clip-path:url(#SVGID_4_);}
	.st21{clip-path:url(#SVGID_11_);fill:#D68954;}
	.st22{clip-path:url(#SVGID_4_);}
	.st23{clip-path:url(#SVGID_4_);fill:#6A3F2C;}
	.st24{clip-path:url(#SVGID_4_);fill:#0A4C57;}
	.st25{clip-path:url(#SVGID_4_);fill:#166C70;}
	.st26{clip-path:url(#SVGID_13_);fill:#E2A69A;}
	.st27{clip-path:url(#SVGID_4_);fill:#F79F7D;}
	.st28{clip-path:url(#SVGID_4_);fill:#E98A6F;}
	.st29{clip-path:url(#SVGID_4_);fill:#F6C448;}
	.st30{clip-path:url(#SVGID_4_);fill:#F08A36;}
	.st31{clip-path:url(#SVGID_4_);fill:url(#SVGID_14_);}
	.st32{clip-path:url(#SVGID_4_);fill:#FFC12E;}
	.st33{clip-path:url(#SVGID_4_);fill:#E76F00;}
	.st34{clip-path:url(#SVGID_4_);fill:#D7E700;}
	.st35{fill:#FF9800;}
	.st36{font-family:'MyriadPro-Regular';}
	.st37{font-size:66.2798px;}
	.st38{fill:#689800;}
	.st39{font-size:46.8884px;}
	.st40{fill:#BC06FF;}
	.st41{clip-path:url(#SVGID_16_);fill:#00C140;}
	
		.st42{clip-path:url(#SVGID_16_);fill:none;stroke:#FFFFFF;stroke-width:9;stroke-linecap:round;stroke-linejoin:round;stroke-miterlimit:10;}
</style>
<g>
	<defs>
		<rect id="SVGID_1_" width="1175" height="900"/>
	</defs>
	<clipPath id="SVGID_2_">
		<use xlink:href="#SVGID_1_"  style="overflow:visible;"/>
	</clipPath>
	<g class="st0">
		<defs>
			<rect id="SVGID_3_" width="1175" height="900"/>
		</defs>
		<clipPath id="SVGID_4_">
			<use xlink:href="#SVGID_3_"  style="overflow:visible;"/>
		</clipPath>
		<path class="st1" d="M228.57,735.24c0,0,79.11,9.89,106.58,35.16c27.47,25.27,67.03,81.31,118.67,79.11
			c51.64-2.2,80.21-49.45,86.81-72.52s8.79-67.03-3.3-63.73c-12.09,3.3-13.19,47.25,17.58,63.73c30.77,16.48,73.62-12.09,87.9-53.84
			c14.28-41.75,36.26-102.19,85.71-109.88c49.45-7.69,261.51-72.52,285.69-113.18c24.17-40.66,32.96-48.35,6.59-73.62
			c-26.37-25.27-57.14-67.03-37.36-87.9c19.78-20.88,49.44,46.15-12.09,69.22c-61.53,23.07-84.61-54.94-95.6-89
			c-10.99-34.06,8.79-115.38-80.21-127.46c-89-12.09-199.98-56.04-238.44-78.01c-38.46-21.98-101.09-24.17-172.51-3.3
			c-71.42,20.88-113.42,35.83-135.15,27.47c-14.29-5.49-8.79-23.08,18.68-18.68c27.47,4.4,60.43,63.73,20.88,80.21
			c-39.56,16.48-120.87-12.09-125.26,82.41"/>
		<path class="st2" d="M545.02,437.47c0.41,1.65,6.18,17.31,9.48,16.89c3.3-0.41,27.61-2.88,29.67-12.36
			c2.06-9.48,7.42-50.27,7-49.03c-0.41,1.24-24.72,23.9-26.78,25.14C562.33,419.34,545.02,437.47,545.02,437.47"/>
		<rect x="116.28" y="285.01" class="st3" width="278.55" height="442.54"/>
		<linearGradient id="SVGID_5_" gradientUnits="userSpaceOnUse" x1="116.2842" y1="506.2788" x2="369.767" y2="506.2788">
			<stop  offset="0" style="stop-color:#F7EC1E"/>
			<stop  offset="1" style="stop-color:#E06410"/>
		</linearGradient>
		<path class="st4" d="M116.28,727.55h252.96c1.04-11.01,0.77-24.49-3.05-37.08c-8.24-27.19-62.63-103.84-144.22-140.92
			c-81.59-37.09-5.77-87.35,17.31-162.35c20.83-67.69-6.01-97.1-11.43-102.19H116.28V727.55z"/>
		<rect x="423.05" y="148.21" class="st3" width="414.52" height="210.15"/>
		<linearGradient id="SVGID_6_" gradientUnits="userSpaceOnUse" x1="423.0552" y1="293.8541" x2="837.5762" y2="293.8541">
			<stop  offset="0" style="stop-color:#2AFFCC"/>
			<stop  offset="1" style="stop-color:#0FB235"/>
		</linearGradient>
		<path class="st5" d="M837.58,358.35v-87.97c-30.16-26.48-76.28-37.82-107.96-40.59c-65.93-5.77-92.3,46.97-190.37,61.81
			c-98.07,14.83-116.2-37.08-116.2-37.08v103.84H837.58z"/>
		<rect x="716.02" y="450.65" class="st3" width="332.94" height="280.19"/>
		<linearGradient id="SVGID_7_" gradientUnits="userSpaceOnUse" x1="716.022" y1="590.7498" x2="1048.958" y2="590.7498">
			<stop  offset="0" style="stop-color:#FF3C2A"/>
			<stop  offset="1" style="stop-color:#D42AFF"/>
		</linearGradient>
		<path class="st6" d="M1048.96,450.65h-88.48c-44.29,64.1-66.84,163.92-95.71,178c-45.05,21.98-63.47-12.7-107.68-15.38
			c-16.88-1.02-30.9,3.19-41.07,7.99v109.58h332.94V450.65z"/>
		<rect x="123.29" y="293.25" class="st7" width="264.54" height="30.49"/>
		<rect x="431.3" y="153.15" class="st7" width="398.04" height="32.14"/>
		<rect x="723.44" y="457.24" class="st7" width="318.1" height="29.67"/>
		<path class="st8" d="M145.06,307.81c0,4.86-3.94,8.79-8.79,8.79c-4.86,0-8.79-3.94-8.79-8.79c0-4.85,3.93-8.79,8.79-8.79
			C141.12,299.02,145.06,302.96,145.06,307.81"/>
		<path class="st8" d="M173.08,307.81c0,4.86-3.94,8.79-8.79,8.79c-4.86,0-8.79-3.94-8.79-8.79c0-4.85,3.94-8.79,8.79-8.79
			C169.14,299.02,173.08,302.96,173.08,307.81"/>
		<path class="st8" d="M201.1,307.81c0,4.86-3.94,8.79-8.79,8.79c-4.86,0-8.79-3.94-8.79-8.79c0-4.85,3.93-8.79,8.79-8.79
			C197.16,299.02,201.1,302.96,201.1,307.81"/>
		<path class="st9" d="M454.37,169.91c0,4.86-3.94,8.79-8.79,8.79c-4.86,0-8.79-3.93-8.79-8.79c0-4.85,3.93-8.79,8.79-8.79
			C450.43,161.12,454.37,165.06,454.37,169.91"/>
		<path class="st9" d="M482.39,169.91c0,4.86-3.94,8.79-8.79,8.79c-4.86,0-8.79-3.93-8.79-8.79c0-4.85,3.93-8.79,8.79-8.79
			C478.45,161.12,482.39,165.06,482.39,169.91"/>
		<path class="st9" d="M510.41,169.91c0,4.86-3.94,8.79-8.79,8.79c-4.86,0-8.79-3.93-8.79-8.79c0-4.85,3.94-8.79,8.79-8.79
			C506.47,161.12,510.41,165.06,510.41,169.91"/>
		<path class="st10" d="M746.1,470.71c0,4.86-3.94,8.79-8.79,8.79c-4.86,0-8.79-3.94-8.79-8.79c0-4.85,3.94-8.79,8.79-8.79
			C742.17,461.92,746.1,465.85,746.1,470.71"/>
		<path class="st10" d="M774.12,470.71c0,4.86-3.94,8.79-8.79,8.79c-4.86,0-8.79-3.94-8.79-8.79c0-4.85,3.94-8.79,8.79-8.79
			C770.19,461.92,774.12,465.85,774.12,470.71"/>
		<path class="st10" d="M802.14,470.71c0,4.86-3.94,8.79-8.79,8.79c-4.86,0-8.79-3.94-8.79-8.79c0-4.85,3.93-8.79,8.79-8.79
			C798.2,461.92,802.14,465.85,802.14,470.71"/>
		<path class="st11" d="M765.64,354.23c-3.07,8,0.89,18.41-2.36,25.53c-3.32,7.22-12.44,7.73-15.72,14.41
			c-11.15,22.7,1.96,27.19,0.78,44.31c-1.33,19.13-20.98,29.25-3.84,48.96c14.11,16.23,42.12,13.17,48.08-8.7
			c-0.47-0.62-0.48-0.61-0.03,0.03c32.94,20.96,57.44-36.89,18.13-47.73c14.17-10.37,20.14-32.15,3.67-44.43
			c15.31-10.94,14.01-32.08-1.48-41.65c-2.5-1.54,7.39-22.12-13.09-23.56C784.99,320.36,769.96,343.04,765.64,354.23"/>
		<path class="st12" d="M845.41,454.52l-35.86-3.04c2.12-7.18-6.75-21.92-14.1-34.38l49.05-33.32
			C844.51,383.77,836.56,438.52,845.41,454.52"/>
		<path class="st13" d="M286.25,496.8c-1.64-0.12-80.76,15.38-89.55,24.72c-8.79,9.34-58.24,186.24-56.59,185.7
			c1.65-0.55,9.34-9.34,23.07-4.4c13.74,4.95,16.48,10.99,16.48,10.99l31.31-77.47l12.09,91.75h119.22c0,0,16.48-62.08,20.33-85.16
			c3.85-23.08,5.49-33.51,5.49-33.51s64.28,75.27,68.13,75.82c3.84,0.55,125.26-133.5,125.26-133.5s-3.84-7.69-10.44-13.73
			c-6.59-6.04-13.19-7.14-13.19-7.14l-98.34,85.71c0,0-51.64-93.95-57.69-99.44C375.81,511.64,293.95,497.35,286.25,496.8"/>
		<path class="st14" d="M141.63,705.71c-1.81,1.15-9.07,11.13-8.24,15.66c0.82,4.53,9.07,33.38,14.01,34.2
			c4.94,0.82,14.01-5.77,20.6-13.6c6.59-7.83,7-12.36,7-12.36s4.94-2.47,5.77-4.94c0.82-2.47-1.1-10.85-1.1-10.85
			S163.05,692.11,141.63,705.71"/>
		<path class="st14" d="M540.9,531c0,0,5.36-10.71,5.77-16.48c0.41-5.77,5.36-37.08,5.36-46.15c0-9.06,2.47-18.54,4.53-16.89
			c2.06,1.65,10.71,19.37,13.6,36.26c2.88,16.9,1.23,38.32-0.83,43.68c-2.06,5.36-11.12,14.01-11.12,14.01S551.61,537.18,540.9,531"
			/>
		<path class="st14" d="M268.68,508.89l0.45-41.69c0,0-18.44-10.7-17.12-21.59c1.32-10.88,7.25-13.64,11.27-10.66
			c4.02,2.98-5.99-32.86,13.37-42.84c19.36-9.97,48.15-11.02,52.17-8.03c4.03,2.98,2.4,12.62,2.4,12.62s8.49,54.04,0.11,73.89
			c-8.38,19.86-19.25,15.89-19.25,15.89l1.86,23.97c0,0-6.95,14.88-20.78,12.3C279.33,520.17,268.68,508.89,268.68,508.89"/>
		<path class="st15" d="M312.08,486.48c0,0-14.06-3.52-21.71-10.57c0,0,6.12,8.91,14.13,15.39c7.15,5.78,8.25,5.42,8.25,5.42
			L312.08,486.48z"/>
		<path class="st16" d="M253.06,440.41c0,0-13.2-31.94-8.89-46.85c4.3-14.9,31.24-30.35,48.63-30.11c17.38,0.24,36.23,8.54,43,7.89
			c6.77-0.65,7.26-2.75,7.26-2.75s1.1,8.64-3.63,17.71c-4.73,9.07-8.2,10.41-8.2,10.41s-13.43-3.67-24.31,0.45
			c-10.88,4.12-22.31,20.26-25.13,22.92c-2.82,2.67-5.09,9.65-5.09,9.65s1.03,18.56,0.78,21.59c-0.16,1.92-6.67,3.11-7.11-0.75
			c-0.44-3.85-5.77-14.94-7.09-15.61C261.97,434.29,256.37,433.67,253.06,440.41"/>
		<path class="st7" d="M304.7,463.52c0,0,8.02,2.07,17.14,1.29c6.3-0.54,8.79-4.61,8.79-4.61s-3.49,14.21-11.31,14.62
			C311.5,475.24,304.7,463.52,304.7,463.52"/>
		<path class="st17" d="M682.37,235.29c0,0-137.9-13.73-143.94-10.99c-6.04,2.74-90.1,123.07-82.96,136.8
			c7.14,13.73,89,79.11,89,79.11l21.43-23.63c0,0-56.59-55.49-55.49-59.88c1.1-4.4,29.67-42.85,29.67-42.85l26.92,44.5l175.26-1.1
			C742.26,357.25,696.11,248.47,682.37,235.29"/>
		<path class="st2" d="M619.1,187.16l13.92,42.69c0,0-14.8,50.96-29.26,49.06c-12.11-1.59-12.63-46.46-12.63-46.46
			s2.19-24.53-1.73-35.93C585.48,185.13,619.1,187.16,619.1,187.16"/>
		<g class="st18">
			<g>
				<defs>
					<rect id="SVGID_8_" x="589.08" y="187.02" width="36" height="38.48"/>
				</defs>
				<clipPath id="SVGID_9_">
					<use xlink:href="#SVGID_8_"  style="overflow:visible;"/>
				</clipPath>
				<path class="st19" d="M625.09,205.53l-5.99-18.37c0,0-33.62-2.04-29.7,9.37c2.6,7.55,2.51,20.85,2.16,28.98
					C600.38,221.47,615.36,214.6,625.09,205.53"/>
			</g>
		</g>
		<g class="st20">
			<g>
				<defs>
					<rect id="SVGID_10_" x="589.08" y="187.02" width="31.13" height="27.56"/>
				</defs>
				<clipPath id="SVGID_11_">
					<use xlink:href="#SVGID_10_"  style="overflow:visible;"/>
				</clipPath>
				<path class="st21" d="M589.4,196.53c-3.92-11.4,29.7-9.36,29.7-9.36l1.12,3.34c-0.54,2.47-1.36,4.63-2.49,6.39
					c-5.86,9.02-16.32,15.64-26.01,17.69C591.58,208.08,591.01,201.2,589.4,196.53"/>
			</g>
		</g>
		<path class="st2" d="M598.09,129.78c0.86-0.77,29.06,48.75,21.48,68.58c-7.57,19.81-31.77,35.06-45.7,27.49
			c-15.42-8.37-37.62-64.88-22.79-88.1C565.92,114.51,598.09,129.78,598.09,129.78"/>
		<path class="st22" d="M547.7,106.53c17.42-3.22,31.81,2.41,37.33,5.06c7.66-2.09,19.22-2.06,36.33,10.78
			c21.05,15.79,21.07,42.68,10.97,59.96c-10.11,17.27-4.61,30.3-4.61,30.3l-5.05-5.84c-3.78-4.45-6.69-9.62-8.29-15.24
			c-0.96-3.37-1.68-7.14-1.5-10.56c0.47-9.01-12.68-9.55-18.33-14.6c-4.36-3.89-8.97-14.95-15.99-21.45l-6.99-4.3
			c0,0-13.69-3.9-22.96,2.5C539.35,149.54,525.36,110.65,547.7,106.53"/>
		<path class="st2" d="M599,175.43c2.47,6.43,7.48,10.49,11.2,9.06c3.72-1.43,4.73-7.8,2.25-14.23c-2.47-6.43-7.48-10.49-11.2-9.06
			C597.53,162.63,596.52,169,599,175.43"/>
		<path class="st7" d="M588.06,200.44l-20.61,7.11c0,0,3.17,7.66,12.33,4.8C590.94,208.85,588.06,200.44,588.06,200.44"/>
		<path class="st23" d="M555.91,127.24l0.22-0.01C556,127.23,555.91,127.24,555.91,127.24"/>
		<path class="st12" d="M620.84,518.64c0,0-7.01-7.42-9.89-13.19c-2.88-5.77-2.47-35.44-0.41-43.68
			c2.06-8.24,11.54-30.08,12.77-26.37c1.24,3.71,3.3,39.14,5.77,51.92c2.47,12.77,6.59,19.36,5.36,19.78L620.84,518.64z"/>
		<polygon class="st24" points="805.44,552.29 773.02,696.78 799.94,698.98 844.99,582.51 		"/>
		<path class="st12" d="M773.02,696.78c0,0-19.23,7.14-35.16,16.48c-15.93,9.34-33.52,16.49-24.17,17.58c9.34,1.1,62.63,0,68.13-3.3
			c5.49-3.3,9.89-8.79,12.63-18.13c2.75-9.34,0-10.44,0-10.44L773.02,696.78z"/>
		<polygon class="st25" points="834.56,730.3 881.8,649.53 996.08,669.31 1010.36,731.94 		"/>
		<path class="st24" d="M618.64,519.88l15.79-12.78c0,0,84.74,51.23,88.04,48.48c3.3-2.75,67.02-90.1,81.31-100.54
			c14.29-10.44,53.29-22.52,56.59-23.62c3.3-1.1,44.5,46.15,56.04,67.03c11.54,20.88,79.66,170.86,79.66,170.86L881.8,649.53
			l5.49-20.88l-48.9-46.15c0,0-19.23-10.44-25.27-18.13c-6.04-7.69-9.89-17.03-9.89-17.03s-72.52,59.89-80.21,60.98
			C715.33,609.43,618.64,519.88,618.64,519.88"/>
		<g class="st18">
			<g>
				<defs>
					<rect id="SVGID_12_" x="795.46" y="383.78" width="49.05" height="55.41"/>
				</defs>
				<clipPath id="SVGID_13_">
					<use xlink:href="#SVGID_12_"  style="overflow:visible;"/>
				</clipPath>
				<path class="st26" d="M807.91,439.11c-2.47-4.94-9.3-16.68-12.45-22.02l49.05-33.32c0,0-3.24,22.31-3.29,42.61
					C823.42,432.35,824.45,440,807.91,439.11"/>
			</g>
		</g>
		<path class="st12" d="M787.91,421.67l-3.09-7.19l-7.78-21.24c-1.11-3.38-1.84-8.05-0.88-11.49c1.14-4.13,1.8-10.78-0.19-18.04
			c-5.35-19.44,2.71-30.31,2.71-30.31c10.3-18.88,37.45-20.61,37.45-20.61c33.68-0.49,38.58,31.83,38.58,31.83
			c6.84,21.26-9.21,40.36-9.24,40.39c-2.03,2.41-2.02,6.12-2.89,9c-0.93,3.08-2.44,5.99-4.38,8.54
			c-4.36,5.73-10.17,11.32-16.28,14.96c-5.8,3.46-17.21,7.37-25.47,7.83C793.04,425.53,789.68,425.79,787.91,421.67"/>
		<path class="st11" d="M842.56,397.79c-0.85-15.34-1.18-14.37-1.18-14.37c-0.66-4.45-8.79,5.78-9-0.06
			c-0.95-26.76-11.5-38.83-15.43-40.63c-10.67-4.89-21.65-5.77-30.16-3.66c-13.35,3.3-11.63,21.24-11.63,21.24
			c-15.9-65.06,58.91-48.91,58.91-48.91c36.37,7,34.93,40.94,34.93,40.94c6.79,35.88-27.43,59.08-27.43,59.08L842.56,397.79z"/>
		<path class="st27" d="M839.86,392.73c1.27,0.85,2.84,1.27,4.75,1.11c5.19-0.42,9.19-5.58,8.92-11.5
			c-0.28-5.92-4.7-10.37-9.89-9.96c-2.47,0.2-4.65,1.47-6.24,3.37c-2.32,2.78-2.08,7.6-1.27,10.88
			C836.78,389.26,837.98,391.47,839.86,392.73"/>
		<path class="st28" d="M841.91,378.03c0.1-3.13,6.58-0.58,5.74,1.24c-0.48,1.04-1.53,1.86-2.35,2.62c-1.11,1.04-1.64,1.97-1.7,3.52
			c-0.02,0.18-0.02,0.73,0.18,0.84c0.85,0.51,3.32-2.7,3.85-3.39c1.06-1.33,1.08-3.49,0.42-5.01c-0.7-1.62-1.83-2.33-3.59-2.1
			c-1.41,0.17-2.85,0.37-2.64,2.11C841.83,377.91,841.91,378.19,841.91,378.03"/>
		<path class="st28" d="M844.15,381.13c-0.71-0.61-1.3-0.02-1.93,0.5c-0.59,0.5-0.89,1.16-1.01,1.9c-0.25,1.64,0.11,3.78,1.13,5.13
			c0.82,1.08,2.12,1.7,3.48,1.57c1.9-0.18,2.35-1.89,2.32-3.49c-0.01-0.43-0.05-1.44-0.48-1.68c-0.48-0.26-0.75,0.47-1.03,0.79
			c-0.4,0.42-1.01,0.63-1.57,0.71c-1.07,0.16-2.16-0.32-2.89-1.08c-0.13-0.13-0.25-0.29-0.32-0.46c0.07,1.05,0.14,1.27,0.21,0.7
			c0.06-0.28,0.17-0.53,0.31-0.77c0.39-0.74,1.09-1.29,1.54-2.02C844.13,382.59,844.49,381.43,844.15,381.13"/>
		<path class="st7" d="M839.68,393.83c0.12,1.76,1.64,3.09,3.4,2.97c1.76-0.11,3.08-1.64,2.97-3.39c-0.12-1.76-1.63-3.09-3.39-2.97
			C840.9,390.56,839.57,392.08,839.68,393.83"/>
		<path class="st11" d="M882.41,352.4c3.33,7.9-0.32,18.42,3.17,25.44c3.54,7.11,12.67,7.34,16.17,13.91
			c11.85,22.33-1.1,27.24,0.61,44.31c1.93,19.08,21.9,28.58,5.39,48.82c-13.59,16.67-41.69,14.48-48.33-7.18
			c0.45-0.64,0.46-0.63,0.04,0.03c-32.27,21.98-58.57-35.07-19.63-47.13c-14.49-9.92-21.14-31.51-5.07-44.3
			c-15.65-10.45-15.01-31.63,0.17-41.67c2.45-1.63-8.09-21.87,12.35-23.96C862,319.15,877.75,341.34,882.41,352.4"/>
		<path class="st7" d="M808.1,405.14c0,0-9.74,2.64-16.75,0.57l-7.01-2.08c0,0,4.47,12.57,11.36,11.18
			C802.59,413.42,808.1,405.14,808.1,405.14"/>
		<polygon class="st29" points="432.93,753.35 432.93,745.66 410.95,745.66 410.95,812.69 496.11,812.69 496.11,753.35 		"/>
		<polygon class="st30" points="432.93,745.66 410.95,745.66 410.95,759.4 496.11,759.4 496.11,753.35 432.93,753.35 		"/>
		<linearGradient id="SVGID_14_" gradientUnits="userSpaceOnUse" x1="255.3354" y1="252.6037" x2="389.1144" y2="252.6037">
			<stop  offset="0" style="stop-color:#15EEFF"/>
			<stop  offset="1" style="stop-color:#0F0094"/>
		</linearGradient>
		<path class="st31" d="M368.82,232.3h-93.18c-11.21,0-20.3,9.09-20.3,20.3c0,0.26,0.03,0.51,0.04,0.77h-0.04v19.52h20.3H294h74.82
			c11.21,0,20.3-9.09,20.3-20.3C389.11,241.39,380.02,232.3,368.82,232.3"/>
		<rect x="268.35" y="239.65" class="st7" width="105.17" height="3.09"/>
		<rect x="268.35" y="262.33" class="st7" width="105.17" height="3.09"/>
		<rect x="268.35" y="250.99" class="st7" width="48.46" height="3.09"/>
		<rect x="325.06" y="250.99" class="st7" width="48.46" height="3.09"/>
		<polygon class="st32" points="222.52,224.85 229.67,206.72 220.88,189.69 262.08,205.62 		"/>
		<polygon class="st33" points="360.43,770.67 343.24,779.85 338.9,798.52 317.84,759.69 		"/>
		<polygon class="st34" points="956.88,351.46 976.3,353.07 990.07,339.75 986.69,383.79 		"/>
	</g>
	<g class="st0">
		<text transform="matrix(1 0 0 1 337.7803 188.502)" class="st35 st36 st37">+</text>
	</g>
	<g class="st0">
		<text transform="matrix(1 0 0 1 653.1396 797.2158)" class="st35 st36 st37">+</text>
	</g>
	<g class="st0">
		<text transform="matrix(1 0 0 1 913.5527 355.5273)" class="st35 st36 st37">+</text>
	</g>
	<g class="st0">
		<text transform="matrix(1 0 0 1 639.1348 401.4727)" class="st38 st36 st39">+</text>
	</g>
	<g class="st0">
		<text transform="matrix(1 0 0 1 671.0186 519.0215)" class="st38 st36 st39">+</text>
	</g>
	<g class="st0">
		<text transform="matrix(1 0 0 1 490.8267 706.9033)" class="st38 st36 st39">+</text>
	</g>
	<g class="st0">
		<text transform="matrix(1 0 0 1 430.3877 432.1846)" class="st40 st36 st39">+</text>
	</g>
	<g class="st0">
		<defs>
			<rect id="SVGID_15_" width="1175" height="900"/>
		</defs>
		<clipPath id="SVGID_16_">
			<use xlink:href="#SVGID_15_"  style="overflow:visible;"/>
		</clipPath>
		<path class="st41" d="M931.52,231.5c0-27.34,22.04-49.5,49.24-49.5c27.19,0,49.24,22.16,49.24,49.5c0,27.34-22.05,49.5-49.24,49.5
			C953.57,281,931.52,258.84,931.52,231.5"/>
		<polyline class="st42" points="942.79,235.23 972.02,265.51 1017,211 		"/>
	</g>
	<g class="st0">
		<text transform="matrix(1 0 0 1 -205 349)" class="st36" style="font-size:12px;">Lorem ipsum</text>
	</g>
</g>
</svg>
