<?xml version="1.0" encoding="utf-8"?>
<!-- Generator: Adobe Illustrator 23.0.2, SVG Export Plug-In . SVG Version: 6.00 Build 0)  -->
<svg version="1.1" id="Layer_1" xmlns="http://www.w3.org/2000/svg" xmlns:xlink="http://www.w3.org/1999/xlink" x="0px" y="0px"
	 viewBox="0 0 1350 900" style="enable-background:new 0 0 1350 900;" xml:space="preserve">
<style type="text/css">
	.st0{clip-path:url(#SVGID_2_);}
	.st1{clip-path:url(#SVGID_4_);fill:#4468B7;}
	.st2{clip-path:url(#SVGID_4_);fill:#FBFFFF;}
	.st3{clip-path:url(#SVGID_4_);fill:#EFBB16;}
	.st4{clip-path:url(#SVGID_4_);fill:#23237A;}
	.st5{clip-path:url(#SVGID_4_);fill:#353535;}
	.st6{clip-path:url(#SVGID_4_);fill:#1B66EA;}
	.st7{clip-path:url(#SVGID_4_);fill:#F90066;}
	.st8{clip-path:url(#SVGID_4_);fill:#17CE99;}
	.st9{clip-path:url(#SVGID_4_);fill:#EF5B5B;}
	.st10{clip-path:url(#SVGID_4_);fill:#FFFFFF;}
	.st11{clip-path:url(#SVGID_4_);fill:#9292A8;}
	.st12{clip-path:url(#SVGID_4_);fill:#46BC4E;}
	.st13{clip-path:url(#SVGID_4_);fill:#732F8C;}
	.st14{clip-path:url(#SVGID_4_);fill:#8E8E8E;}
	.st15{clip-path:url(#SVGID_4_);fill:#D68F54;}
	.st16{clip-path:url(#SVGID_4_);fill:#233862;}
	.st17{clip-path:url(#SVGID_4_);fill:#FAC8BB;}
	.st18{clip-path:url(#SVGID_4_);fill:#2B478B;}
	.st19{clip-path:url(#SVGID_4_);fill:#F6C448;}
	.st20{clip-path:url(#SVGID_4_);fill:#E2A69A;}
	.st21{clip-path:url(#SVGID_4_);fill:#808096;}
	.st22{clip-path:url(#SVGID_4_);fill:#737384;}
	.st23{clip-path:url(#SVGID_4_);fill:#F99746;}
	.st24{clip-path:url(#SVGID_4_);fill:#ED7D2B;}
	.st25{clip-path:url(#SVGID_4_);fill:#82B378;}
	.st26{clip-path:url(#SVGID_4_);fill:#6CC457;}
	.st27{clip-path:url(#SVGID_4_);fill:#50BC35;}
	.st28{clip-path:url(#SVGID_4_);fill:#F1A34F;}
	.st29{clip-path:url(#SVGID_4_);fill:#FFB973;}
	.st30{clip-path:url(#SVGID_4_);fill:#D86713;}
	.st31{clip-path:url(#SVGID_4_);fill:#7A7A8C;}
	.st32{clip-path:url(#SVGID_4_);fill:#935227;}
	.st33{clip-path:url(#SVGID_4_);fill:#2056A5;}
	.st34{clip-path:url(#SVGID_4_);fill:#FFDAB6;}
	.st35{opacity:0.4;clip-path:url(#SVGID_4_);}
	.st36{clip-path:url(#SVGID_6_);fill:#E2A69A;}
	.st37{opacity:0.6;clip-path:url(#SVGID_4_);}
	.st38{clip-path:url(#SVGID_8_);fill:#D68954;}
	.st39{clip-path:url(#SVGID_4_);fill:#FF5408;}
	.st40{clip-path:url(#SVGID_4_);fill:#6A3F2C;}
	.st41{clip-path:url(#SVGID_4_);fill:#161616;}
	.st42{clip-path:url(#SVGID_4_);fill:#CE86CC;}
	.st43{opacity:0.3;clip-path:url(#SVGID_4_);}
	.st44{clip-path:url(#SVGID_10_);fill:#773F2B;}
	.st45{clip-path:url(#SVGID_4_);fill:#1E0400;}
	.st46{clip-path:url(#SVGID_4_);fill:#F79F7D;}
	.st47{clip-path:url(#SVGID_4_);fill:#E98A6F;}
	.st48{clip-path:url(#SVGID_4_);fill:#894D33;}
	.st49{clip-path:url(#SVGID_4_);fill:#773F2B;}
	.st50{clip-path:url(#SVGID_4_);fill:#A38136;}
	.st51{clip-path:url(#SVGID_4_);fill:#FDFEFE;}
</style>
<g>
	<defs>
		<rect id="SVGID_1_" width="1350" height="900"/>
	</defs>
	<clipPath id="SVGID_2_">
		<use xlink:href="#SVGID_1_"  style="overflow:visible;"/>
	</clipPath>
	<g class="st0">
		<defs>
			<rect id="SVGID_3_" width="1350" height="900"/>
		</defs>
		<clipPath id="SVGID_4_">
			<use xlink:href="#SVGID_3_"  style="overflow:visible;"/>
		</clipPath>
		<path class="st1" d="M1255.11,735.05c0,16.75-13.58,30.33-30.33,30.33H151.12c-16.75,0-30.33-13.58-30.33-30.33V116.33
			c0-16.75,13.58-30.33,30.33-30.33h1073.66c16.75,0,30.33,13.58,30.33,30.33V735.05z"/>
		<path class="st2" d="M1224.78,705.77c0,15.06-12.21,27.26-27.26,27.26H179.43c-15.06,0-27.26-12.2-27.26-27.26V149.66
			c0-15.05,12.2-27.26,27.26-27.26h1018.09c15.06,0,27.26,12.2,27.26,27.26V705.77z"/>
		<rect x="183.47" y="154.75" class="st2" width="1009.63" height="578.28"/>
		<rect x="193.58" y="471.19" class="st3" width="352.83" height="252.74"/>
		<path class="st4" d="M98.55,765.38h1186.22c0,0-1.35,56.61-48.53,56.61H133.6C133.6,822,90.46,805.82,98.55,765.38"/>
		<path class="st5" d="M422.29,525.59c0,0-1.78-22.51-34.15-16.66c-8.56,1.54-14.44-13.72-28.45-8.28
			c-30.17,11.7-31.94-3.75-40.66,17.94c-3.65,9.08-26.86,19.66-19.77,35.35c7.09,15.7-4.77,26.25,3.56,38.55
			c4.31,6.37,2.56,17.74,22.9,18.15c10.13,0.2,25.91,18.97,37.28,22.38c11.37,3.41,45.51-1.51,44.22-17.11
			c-1-12.17,13.19-11.16,21.91-25.14c7.62-12.23-5.98-15.31,1.29-35.08C435.76,541.21,421.87,537.68,422.29,525.59"/>
		<rect x="193.58" y="212.38" class="st6" width="352.83" height="252.75"/>
		<rect x="833.53" y="212.38" class="st7" width="352.83" height="252.75"/>
		<rect x="833.53" y="471.19" class="st8" width="352.83" height="252.74"/>
		<rect x="551.13" y="213.05" class="st9" width="277.35" height="510.88"/>
		<rect x="192.57" y="160.82" class="st10" width="994.8" height="42.46"/>
		<path class="st11" d="M202.34,181.71c0-4.84,3.92-8.76,8.76-8.76c4.84,0,8.76,3.92,8.76,8.76c0,4.84-3.92,8.76-8.76,8.76
			C206.27,190.47,202.34,186.55,202.34,181.71"/>
		<path class="st11" d="M226.61,181.71c0-4.84,3.92-8.76,8.76-8.76c4.84,0,8.76,3.92,8.76,8.76c0,4.84-3.92,8.76-8.76,8.76
			C230.53,190.47,226.61,186.55,226.61,181.71"/>
		<path class="st11" d="M249.52,181.71c0-4.84,3.92-8.76,8.76-8.76c4.84,0,8.76,3.92,8.76,8.76c0,4.84-3.92,8.76-8.76,8.76
			C253.45,190.47,249.52,186.55,249.52,181.71"/>
		<path class="st12" d="M271.76,722.92c0,0,24.94-80.88,32.35-86.27c7.42-5.39,45.83-18.2,70.77-16.85
			c24.94,1.35,48.53,4.04,55.27,10.11c6.74,6.07,33.03,93.69,33.03,93.69L271.76,722.92z"/>
		<path class="st13" d="M258.29,465.46c0-2.02,41.79-98.4,53.25-106.49c11.46-8.09,96.38-4.04,116.6-3.37
			c20.22,0.67,31.68,8.09,37.74,17.52c6.07,9.43,40.44,90.99,40.44,90.99L258.29,465.46z"/>
		<path class="st14" d="M817.65,575.77v163.01c0,9,6.69,16.3,14.94,16.3c8.25,0,14.94-7.3,14.94-16.3V575.77
			c0-9-6.69-16.3-14.94-16.3C824.34,559.47,817.65,566.77,817.65,575.77 M825.46,585.96c0-7.88,3.19-14.26,7.13-14.26
			c3.94,0,7.13,6.38,7.13,14.26V728.6c0,7.88-3.2,14.26-7.13,14.26c-3.94,0-7.13-6.38-7.13-14.26V585.96z"/>
		<path class="st14" d="M669.58,575.77v163.01c0,9,6.69,16.3,14.95,16.3c8.25,0,14.94-7.3,14.94-16.3V575.77
			c0-9-6.69-16.3-14.94-16.3C676.27,559.47,669.58,566.77,669.58,575.77 M677.39,585.96c0-7.88,3.19-14.26,7.13-14.26
			c3.94,0,7.13,6.38,7.13,14.26V728.6c0,7.88-3.19,14.26-7.13,14.26c-3.94,0-7.13-6.38-7.13-14.26V585.96z"/>
		<path class="st15" d="M659.64,588.08h173.61c0,0,16.33-0.86,16.33-17.19v-74.77c0,0-8.59-22.35-68.76-24.93
			c-60.16-2.58-95.4,10.32-95.4,53.29c0,0-34.81-2.15-34.81,18.91C650.61,564.45,647.6,588.08,659.64,588.08"/>
		<path class="st16" d="M669.6,537.41c11.43,19.9,25.81,27.58,25.81,27.58h59.83C755.24,564.99,660.88,522.23,669.6,537.41"/>
		<path class="st17" d="M715.55,691.38c1.56,1.79,1.76,3.78,0.98,5.92c0,0.01-0.01,0.02-0.02,0.03c-1.43,3.94-6.14,8.35-11.62,12.74
			c-0.7,0.56-1.32,1.08-1.86,1.55c-0.14,0.13-0.28,0.25-0.42,0.38c-0.11,0.1-0.22,0.2-0.33,0.29c-5.1,4.71-3.18,5.79-12.36,15.34
			c-10.46,10.88-17.66,11.08-19.71,10.09c-1.74-0.85,1.79-6.61,5.69-13.1c0.19-0.31,0.38-0.63,0.57-0.95
			c0.52-0.86,1.04-1.73,1.55-2.6c4.57-7.81,3.4-11.47,2.31-23.09c-0.88-9.44-14.69-52.76-14.69-52.76l20.05-3.45
			c0,0,6.04,34.49,12.69,39.8c3.56,2.83,7.54,2.87,10.95,4.97c0.24,0.14,0.48,0.3,0.71,0.45C712,688.26,713.99,689.59,715.55,691.38
			"/>
		<path class="st16" d="M715.55,691.38c1.56,1.79,1.76,3.78,0.98,5.92c0,0.01-0.01,0.02-0.02,0.03c-1.75,3.94-6.34,8.32-11.64,12.7
			c-0.69,0.58-1.3,1.11-1.85,1.59c-0.14,0.13-0.28,0.25-0.42,0.38c-0.11,0.1-0.22,0.2-0.33,0.29c-5.1,4.71-3.18,5.79-12.36,15.34
			c-10.46,10.88-17.66,11.08-19.71,10.09c-1.74-0.85,1.79-6.61,5.69-13.1c2.04-0.75,11.5-4.59,18.65-13.74
			c6.3-8.04,10.5-18.37,14.79-24.35c0.24,0.14,0.48,0.3,0.71,0.45C712,688.26,713.99,689.59,715.55,691.38"/>
		<path class="st17" d="M553.91,678.86c-1.24,6.19-10.06,5.15-19.91,2.75c-9.85-2.41-7.51,0.45-21.54-1.1
			c-14.03-1.55-18.27-6.78-18.7-8.87c-0.39-1.85,6.55-2.5,13.98-3.36c0.93-0.11,1.87-0.22,2.81-0.34
			c8.39-1.05,14.54-6.47,22.16-10.91c7.22-4.21,18-21.38,18-21.38l19.23,1.52c0,0-10.09,15.33-14,22c-2.3,3.92-2.17,9.1-1.89,13.11
			C554.21,674.46,554.35,676.68,553.91,678.86"/>
		<path class="st16" d="M534,681.61c-9.85-2.41-7.51,0.45-21.54-1.1c-14.03-1.55-18.27-6.78-18.7-8.87
			c-0.38-1.85,6.55-2.5,13.98-3.36l0.07,0.14c0,0,8.41,5.97,20.08,6.24c9.52,0.23,19.59-2.5,26.16-2.39
			c0.15,2.17,0.29,4.4-0.15,6.58C552.67,685.05,543.85,684.02,534,681.61"/>
		<path class="st16" d="M627.62,555.88l17.98,48.38l23.48,63.17c0,0,6.37,0.62,12.47-1.14c5.62-1.62,12.06-5.87,12.06-5.87
			s-6.52-67.83-18.67-106.77c-3.12-9.99-6.61-18.08-10.47-22.63C645.61,508.75,627.62,555.88,627.62,555.88"/>
		<path class="st18" d="M645.9,479.04c11.78-3.8,45.38,1.08,79.12,7.69l7.07-11.66l72.89-5.69c0,0,24.05,53.34,10.88,87.33
			c-1.93,5-5.78,8.2-12.34,8.31c0,0-1.06,0-1.07,0c0,0-43.38-0.03-57.47-0.03c-36.25,0-76.72-24.92-81.96-25.97
			c-8.57-1.71-12,15.42-20.57,33.42c-8.57,18-80.54,79.69-80.54,79.69s-11.06,0.11-15.64-1.6c-4.91-1.84-6.71-4.24-6.71-4.24
			S619.34,487.61,645.9,479.04"/>
		<path class="st19" d="M749.82,368.5c22.8,18.92,45.63,56.4,45.94,56.26c0,0-33.63,0.86-21.47-4.23
			c20.26-8.5,43.13-26.17,39.98-64.28c-1.8-21.74-4.99-21.02-2.55-43.37c1.33-12.13-7.45-54.68-35.28-56.23
			c-2.33-0.13-16.41-2.15-26.5,0.91C724.22,265.35,712.64,355.75,749.82,368.5"/>
		<path class="st17" d="M754.27,362.52c-0.11,0.07,12.77,4.47,21.39,0.66c8.1-3.58,14.24-16.92,14.13-16.92
			c-3.69-0.17-7.74-3.4-10.85-24.55l-1.57,0.56l-26.4,9.5c0,0,1.91,8.47,3.15,16.54C755.16,355.08,755.71,361.56,754.27,362.52"/>
		<path class="st20" d="M750.96,331.77c0,0,1.91,8.47,3.15,16.54c15.16-2.73,21.11-17.84,23.25-26.04L750.96,331.77z"/>
		<path class="st17" d="M747.25,335.81c0,0,36.39,2.03,37.31-20.65c0.92-22.68,6.23-37.69-16.96-39.95
			c-23.2-2.26-28.06,6.22-30.21,13.71C735.24,296.42,737.81,334.69,747.25,335.81"/>
		<path class="st19" d="M740.99,277.08c0,0,18.96,23.92,34.1,28.46c15.15,4.54,21.94,0.7,21.94,0.7s-7.66-9.3-10.8-22.55
			c-0.93-3.91-3.87-7.03-7.73-8.12C767.66,272.5,746.84,268.06,740.99,277.08"/>
		<path class="st19" d="M755.52,278.05c0,0-9.01,5.89-12.44,10.88c-3.32,4.81-6.42,17.26-5.54,22.6c0,0-7.43-25.28,1.42-35.18
			C748.34,265.85,755.52,278.05,755.52,278.05"/>
		<path class="st21" d="M723.86,415.73c1.09,73.12,0.3,57.84,8.3,64.78c1.93,1.67,7.35,2.67,14.48,3.14
			c22.42,1.49,61.83-2.2,63.33-6.35c5.17-14.34,1.52-18.79,5.84-40.74c0.45-2.34,1-4.86,1.66-7.61c3.6-15.08,7.1-20.2-5.67-44.42
			c-11.57-21.94-23.6-39.74-24.68-39.1c-30.54,18.13-33,2.89-33,2.89S723.32,380.07,723.86,415.73"/>
		<path class="st18" d="M645.6,604.26l23.48,63.17c0,0,6.37,0.62,12.47-1.14c5.62-1.62,12.06-5.87,12.06-5.87
			s-6.52-67.83-18.67-106.77L645.6,604.26z"/>
		<path class="st21" d="M754.11,348.31c0,0-31.42,5.33-35.11,18.85c-3.69,13.53-25.4,93.06-25.4,93.06s15.98,2.87,23.35-4.51
			c7.38-7.38,25.68-68.46,25.68-68.46L754.11,348.31z"/>
		<path class="st22" d="M746.63,483.64c22.42,1.49,61.83-2.2,63.33-6.35c5.17-14.34,1.52-18.79,5.83-40.74l-10.81-30.45
			c0,0,1.79,33.91-8.21,42.83c-9.99,8.92-40.94,17.22-45.8,24.67C748.62,477.18,747.08,480.76,746.63,483.64"/>
		<path class="st17" d="M772.32,469.38c0,0-22.12-4.92-25.69-2.96c-3.57,1.96-12.29,9.11-13.38,11.6
			c-1.09,2.49,7.95-1.89,10.89-2.68c1.9-0.51,6.92,1.23,9.4,2.06c10.44,3.48,16.84,1.69,16.84,1.69L772.32,469.38z"/>
		<path class="st21" d="M787.13,345.4c0,0,29.7,1.83,39.98,16.17c14.47,20.19,43.18,106.21,26.73,117.69
			c-18.53,12.92-84.33,3.38-84.33,3.38s-2.19-10.24,0.85-15.19c3.05-4.95,52.56-12.95,54.84-15.24
			c2.29-2.28-28.56-44.56-28.56-51.41C796.64,393.94,787.13,345.4,787.13,345.4"/>
		<path class="st17" d="M745.56,472.57c0,0-4.64,5.98-6.16,6.69c-1.52,0.71-2.5,0.54-2.5,0.54l3.12-5.62L745.56,472.57z"/>
		<path class="st17" d="M746.63,466.42l-13.47,6.54c0,0,0.57,0.94,2.23,0.86c1.66-0.08,5.85-1.61,5.85-1.61L746.63,466.42z"/>
		<polygon class="st23" points="732.56,483.4 625.98,483.4 593.91,403.66 700.34,403.66 		"/>
		<polygon class="st24" points="624.73,480.29 765.47,480.29 765.47,483.4 625.98,483.4 		"/>
		<path class="st10" d="M652.88,443.53c-0.8-2.8,0.81-5.07,3.62-5.07s5.73,2.27,6.53,5.07c0.81,2.8-0.82,5.07-3.62,5.07
			C656.61,448.6,653.69,446.33,652.88,443.53"/>
		<path class="st10" d="M757.21,321.68c0,0-3.26,7.69-10.12,6.9c-5.58-0.64-7.03-8.61-7.03-8.61S745.14,323.8,757.21,321.68"/>
		<path class="st25" d="M549.7,442.39c0,0,7.4-8.64,0.45-14.12c0,0-5.07-3.07-9.21-2.82c0,0,5.86,9.83,3.96,10.81
			c-1.89,0.98-5.74-11.43-5.74-11.43s-11.55-1.12-15.26,0.67c0,0,9.87,8.08,7.79,8.56c-2.08,0.48-12.74-7.45-12.74-7.45
			s-10.74,1.83-10.17,8.39c0.58,6.56,4.28,8.58,5.9,8.41c1.63-0.17,11.15-3.81,11.36-2.47c0.21,1.33-5.53,5.69-9.54,5.89
			c0,0,7.58,8.36,12.61,5.95c5.03-2.41,5.46-6.24,8.6-7.67c3.14-1.43,5.82-1.43,4.52,0.03c-1.29,1.46-6.97,2.88-8.77,6.06
			c-1.8,3.17-3.41,5.32,1.8,4.53c5.21-0.78,13.68-4.6,14.05-8.96L549.7,442.39z"/>
		<path class="st25" d="M514.06,435.17c0,0,29.19-1.13,35.64,7.22c0,0,1.42,4.27,5.81,8.16l0.69,1.86c0,0-5.06-5.33-6.87-5.65
			C549.33,446.76,552.16,436.42,514.06,435.17"/>
		<path class="st25" d="M555.51,450.55c0,0,6.27,4.63,6.7,12.91l-1.14,0.1c0,0-2-8.56-5.62-11.91
			C551.84,448.31,555.51,450.55,555.51,450.55"/>
		<path class="st26" d="M575.59,431.53c0,0-11.78-6.59-6.29-15.55c0,0,4.4-5.5,9.11-6.91c0,0-2.52,13.35,0,13.66
			c2.51,0.31,1.73-15.07,1.73-15.07s12.4-5.97,17.27-5.49c0,0-7.7,13.03-5.18,12.72c2.51-0.31,11.15-13.5,11.15-13.5
			s12.72-2.36,14.76,5.18c2.04,7.54-1.26,11.31-3.14,11.78c-1.89,0.47-13.98,0.31-13.66,1.88c0.31,1.57,8.48,4.08,13.03,2.67
			c0,0-5.02,12.41-11.62,11.78c-6.59-0.63-8.63-4.71-12.72-5.03c-4.08-0.31-7.07,0.79-5.02,1.89c2.04,1.1,8.95,0.36,12.25,3.16
			c3.3,2.8,5.97,4.53-0.16,5.79c-6.12,1.26-17.11,0.47-19.31-4.24L575.59,431.53z"/>
		<path class="st25" d="M612.33,408.92c0,0-32.98,10.68-36.75,22.61c0,0,0.15,5.34-3.14,11.46v2.36c0,0,3.45-8.01,5.34-9.11
			C577.78,436.24,570.4,425.88,612.33,408.92"/>
		<path class="st25" d="M572.44,442.99c0,0-5.08,7.73-2.18,17.12l1.31-0.35c0,0-1.27-10.35,1.39-15.56
			C575.62,439,572.44,442.99,572.44,442.99"/>
		<path class="st27" d="M556.85,422.43c0,0,15.52-8.69,8.28-20.49c0,0-5.79-7.25-12.01-9.11c0,0,3.31,17.59,0,18.01
			c-3.31,0.41-2.27-19.87-2.27-19.87s-16.35-7.87-22.77-7.24c0,0,10.14,17.18,6.83,16.77c-3.31-0.41-14.7-17.8-14.7-17.8
			s-16.76-3.11-19.46,6.83c-2.69,9.93,1.66,14.9,4.14,15.53c2.49,0.62,18.42,0.41,18.01,2.49c-0.41,2.07-11.18,5.38-17.18,3.52
			c0,0,6.63,16.35,15.32,15.52c8.69-0.83,11.39-6.21,16.77-6.63c5.38-0.41,9.32,1.04,6.63,2.48c-2.69,1.45-11.8,0.48-16.15,4.17
			c-4.35,3.69-7.86,5.97,0.21,7.63c8.07,1.65,22.56,0.62,25.46-5.59L556.85,422.43z"/>
		<path class="st25" d="M508.41,392.63c0,0,43.47,14.08,48.44,29.81c0,0-0.21,7.04,4.14,15.11v3.11c0,0-4.56-10.56-7.04-12.01
			C553.95,428.65,563.68,414.98,508.41,392.63"/>
		<path class="st25" d="M560.99,437.55c0,0,6.7,10.18,2.88,22.57l-1.73-0.46c0,0,1.67-13.65-1.83-20.51
			C556.81,432.27,560.99,437.55,560.99,437.55"/>
		<path class="st28" d="M557.37,486.99c-16.8,0-30.41-13.61-30.41-30.41h60.82C587.78,473.38,574.17,486.99,557.37,486.99"/>
		<path class="st29" d="M549.89,486.76c1.24,0.15,2.5,0.23,3.78,0.23c16.79,0,30.41-13.61,30.41-30.41h-7.55
			C576.52,472.09,564.9,484.9,549.89,486.76"/>
		<rect x="526.27" y="456.58" class="st30" width="62.51" height="0.93"/>
		<polygon class="st31" points="847.37,504.06 892.61,766.76 881.5,766.76 837.06,504.06 		"/>
		<polygon class="st31" points="557.69,504.06 512.45,766.76 523.56,766.76 568.01,504.06 		"/>
		<rect x="555.31" y="545.33" class="st31" width="295.24" height="7.94"/>
		<rect x="529.12" y="704.85" class="st31" width="347.62" height="7.93"/>
		<path class="st32" d="M518.62,505.77h367.32c3.35,0,6.09-4.98,6.09-11.08v-0.23c0-6.09-2.74-11.08-6.09-11.08H518.62
			c-3.35,0-6.09,4.99-6.09,11.08v0.23C512.53,500.79,515.27,505.77,518.62,505.77"/>
		<path class="st33" d="M956.37,723.43c-0.51-4.04,8.09-74.81,10.61-89.98c1.5-8.98,5.05-17.69,11.12-18.7
			c6.07-1.01,59.14-4.55,88.46-1.52c29.32,3.03,48.02,11.12,54.09,24.26c6.07,13.14,18.2,86.44,18.2,86.44L956.37,723.43z"/>
		<path class="st34" d="M1050.41,573l5.71,39.68c0,0-20.81,42.56-33.23,38.68c-10.42-3.25-4.01-42.8-4.01-42.8
			s5.68-21.24,3.98-31.87C1021.16,566.07,1050.41,573,1050.41,573"/>
		<g class="st35">
			<g>
				<defs>
					<rect id="SVGID_5_" x="1020.32" y="570.78" width="32.55" height="31.73"/>
				</defs>
				<clipPath id="SVGID_6_">
					<use xlink:href="#SVGID_5_"  style="overflow:visible;"/>
				</clipPath>
				<path class="st36" d="M1052.87,590.08l-2.46-17.07c0,0-29.26-6.94-27.55,3.69c1.13,7.04-0.98,18.72-2.54,25.82
					C1028.71,600.32,1042.93,596.56,1052.87,590.08"/>
			</g>
		</g>
		<g class="st37">
			<g>
				<defs>
					<rect id="SVGID_7_" x="1022.13" y="570.78" width="28.76" height="22.15"/>
				</defs>
				<clipPath id="SVGID_8_">
					<use xlink:href="#SVGID_7_"  style="overflow:visible;"/>
				</clipPath>
				<path class="st38" d="M1022.86,576.7c-1.7-10.63,27.55-3.69,27.55-3.69l0.47,3.11c-0.86,2.08-1.9,3.87-3.17,5.23
					c-6.53,7.03-16.75,11.26-25.58,11.58C1023.01,587.19,1023.56,581.05,1022.86,576.7"/>
			</g>
		</g>
		<path class="st34" d="M1057.48,516.82c0.97-0.35,7.77,50.07-5.13,63.95c-12.89,13.87-38.01,18.41-47.02,7.49
			c-9.96-12.09-9.46-66.28,10.58-80.55C1035.96,493.43,1057.48,516.82,1057.48,516.82"/>
		<path class="st39" d="M1023.54,480.73c15.49,3.16,25.53,12.63,29.22,16.67c7.03,0.83,16.59,4.72,26.47,21.06
			c12.14,20.1,3.18,42.37-10.96,53.3c-14.14,10.93-13.94,23.55-13.94,23.55l-2.23-6.53c-1.65-4.95-2.32-10.2-1.77-15.38
			c0.33-3.11,1-6.48,2.29-9.24c3.4-7.3-7.3-12.15-10.3-18.22c-2.31-4.68-2.42-15.37-6.07-23.1l-4.35-5.9c0,0-10.03-7.81-19.84-5.6
			C1002.25,513.54,1003.66,476.67,1023.54,480.73"/>
		<path class="st34" d="M1042.97,554.92c-0.1,6.15,2.69,11.18,6.24,11.25c3.55,0.06,6.52-4.88,6.62-11.03
			c0.1-6.15-2.69-11.19-6.24-11.25C1046.04,543.82,1043.08,548.76,1042.97,554.92"/>
		<path class="st10" d="M1025.57,571.97l-19.44-1.01c0,0,0.07,7.4,8.6,8.09C1025.14,579.89,1025.57,571.97,1025.57,571.97"/>
		<path class="st40" d="M997.99,501.38l0.2,0.02C998.06,501.39,997.99,501.38,997.99,501.38"/>
		<path class="st41" d="M972.33,377.23l8.36-95.84c0.74-22.55,10.43-29.65,10.43-29.65c38.86-9.73,55.51,11.29,55.51,11.29
			l-11.14,97.63C1017.56,373.93,993.44,381.32,972.33,377.23"/>
		<path class="st41" d="M994.21,282.93l-8.32,95.42c-4.6,0.1-9.15-0.27-13.56-1.12l8.36-95.84c0.74-22.55,10.43-29.65,10.43-29.65
			c13.84-3.47,24.86-3.02,33.31-1.02c-5.82-0.02-12.4,0.71-19.79,2.57C1004.64,253.28,994.95,260.39,994.21,282.93"/>
		<path class="st17" d="M991.88,366.38l12.92,0.13l4.92-43.14l35.32,3.14l-4.74,45.39l15.2,7.53c0,0-32.76,56.47-46.74,53.98
			c-13.99-2.49-32.37-40.71-33.1-42.13C974.93,389.86,991.88,366.38,991.88,366.38"/>
		<path class="st42" d="M921.49,464.79c-1.35-2.02,20.89-51.9,24.26-66.72c3.37-14.83,8.09-33.03,14.15-34.37
			c6.07-1.35,33.7,2.69,33.7,2.69l13.48,49.2l35.05-40.44c0,0,44.48,20.9,49.2,26.96c4.72,6.07,11.46,64.7,12.13,62.01
			L921.49,464.79z"/>
		<g class="st43">
			<g>
				<defs>
					<rect id="SVGID_9_" x="1004.87" y="308.5" width="47.26" height="40.59"/>
				</defs>
				<clipPath id="SVGID_10_">
					<use xlink:href="#SVGID_9_"  style="overflow:visible;"/>
				</clipPath>
				<path class="st44" d="M1006.56,347.61c0.67-4.84,0.48-10.17-1.69-15.26l47.26-23.85c0,0-5.44,19.38-7.82,37.35
					C1027.86,349.09,1021.1,350.3,1006.56,347.61"/>
			</g>
		</g>
		<path class="st17" d="M997.65,335.53l-1.91-6.72l-4.45-19.7c-0.59-3.12-0.69-7.34,0.55-10.28c1.49-3.52,2.84-9.34,1.91-16
			c-2.49-17.83,5.9-26.52,5.9-26.52c11.3-15.54,35.54-13.94,35.54-13.94c29.88,3.44,30.5,32.63,30.5,32.63
			c3.6,19.61-12.81,34.68-12.84,34.7c-2.08,1.91-2.5,5.19-3.59,7.63c-1.17,2.62-2.85,5.03-4.86,7.06
			c-4.52,4.57-10.31,8.85-16.14,11.37c-5.53,2.39-16.09,4.53-23.45,3.99C1001.75,339.54,998.74,339.39,997.65,335.53"/>
		<path class="st45" d="M1048.8,320.69c1.01-13.68,0.61-12.86,0.61-12.86c-0.06-4.02-8.45,4.11-7.97-1.09
			c2.24-23.81-5.71-35.71-8.98-37.76c-8.89-5.55-18.51-7.6-26.29-6.72c-12.2,1.38-12.75,17.47-12.75,17.47
			c-6.58-59.43,57.81-36.52,57.81-36.52c31.4,10.39,26.21,40.28,26.21,40.28c1.88,32.55-31.1,49.16-31.1,49.16L1048.8,320.69z"/>
		<path class="st46" d="M1046.99,315.9c1.02,0.89,2.36,1.45,4.09,1.52c4.65,0.23,8.77-3.88,9.21-9.16c0.44-5.26-2.96-9.72-7.6-9.95
			c-2.2-0.11-4.28,0.76-5.92,2.27c-2.38,2.19-2.72,6.49-2.38,9.49C1044.66,312.46,1045.47,314.56,1046.99,315.9"/>
		<path class="st47" d="M1050.5,303.11c0.44-2.75,5.89,0.25,4.94,1.76c-0.54,0.87-1.57,1.47-2.38,2.05
			c-1.11,0.79-1.69,1.55-1.92,2.92c-0.03,0.15-0.09,0.64,0.07,0.76c0.69,0.55,3.24-2.01,3.8-2.55c1.1-1.06,1.36-2.97,0.94-4.39
			c-0.42-1.51-1.35-2.27-2.94-2.27c-1.27-0.01-2.56,0-2.58,1.57C1050.44,302.99,1050.48,303.25,1050.5,303.11"/>
		<path class="st47" d="M1052.12,306.11c-0.55-0.63-1.14-0.17-1.77,0.22c-0.58,0.37-0.92,0.92-1.1,1.57
			c-0.41,1.43-0.34,3.37,0.41,4.68c0.6,1.05,1.68,1.75,2.91,1.79c1.7,0.06,2.29-1.4,2.45-2.82c0.04-0.38,0.13-1.29-0.22-1.55
			c-0.4-0.28-0.72,0.33-1.01,0.58c-0.4,0.33-0.97,0.44-1.47,0.45c-0.97,0.02-1.88-0.53-2.43-1.28c-0.1-0.14-0.19-0.29-0.24-0.45
			c-0.05,0.94-0.02,1.14,0.11,0.64c0.09-0.23,0.21-0.45,0.36-0.65c0.43-0.62,1.12-1.02,1.59-1.61
			C1051.93,307.41,1052.39,306.43,1052.12,306.11"/>
		<path class="st10" d="M1046.71,316.85c-0.1,1.57,1.09,2.92,2.66,3.02c1.57,0.1,2.92-1.09,3.01-2.66c0.1-1.57-1.08-2.92-2.66-3.02
			C1048.16,314.09,1046.8,315.28,1046.71,316.85"/>
		<path class="st41" d="M1009.69,262.07l25.85-22.5c-26.24-12.39-45.72,13.38-45.72,13.38l4.4,7.35
			C994.22,260.3,1006.6,239.11,1009.69,262.07"/>
		<path class="st41" d="M1081.9,355.14c-1.78,15.65-33.9,25.46-54.6,27.82c2.98-18.32,4.59-32.19,4.59-32.19
			c5.98-35.07,6.4-48.28,5.98-73.06c-0.33-19.35-13.27-28.61-28.17-15.64c0.61-0.53,0.96-2.54,1.31-3.3
			c0.54-1.18,1.15-2.32,1.83-3.41c5.75-9.2,15.96-15.04,26.53-16.82c3.79-0.64,7.4-0.54,11.13,0.3
			c12.45,2.81,27.03,13.47,32.1,25.24c4.97,11.54,4.79,25.35,4.42,37.68c-0.22,6.98-0.56,14.1-1.48,21.03
			C1085.52,322.78,1083.77,335.94,1081.9,355.14"/>
		<path class="st10" d="M1016.41,319.53c0,0-9.02,2.01-15.34-0.17l-6.32-2.18c0,0,3.57,11.68,9.93,10.68
			C1011.04,326.88,1016.41,319.53,1016.41,319.53"/>
		<path class="st48" d="M346.28,622.38c0,0,22.53,35.46,33.37,33.79c10.85-1.67,12.1-9.18,12.94-16.27
			c0.83-7.09-1.25-59.24-1.25-59.24l-29.62-2.92c0,0-1.67,32.96-7.09,40.46C350.8,623.48,346.28,622.38,346.28,622.38"/>
		<path class="st49" d="M392.16,592.1c0,0-0.06,9.8-0.73,19.55c-18.38-1.74-28.37-18.68-31.73-28.26L392.16,592.1z"/>
		<path class="st48" d="M397.7,601.75c0,0-43.61-2.19-41.83-29.32c1.78-27.14-2.65-45.69,25.27-45.44
			c27.92,0.24,32.64,10.95,34.25,20.16C417,556.34,409.09,601.62,397.7,601.75"/>
		<path class="st50" d="M399.53,536.64c0,0-10.42-2.43-13.83,2.64c-3.4,5.07-0.97,7.91-8.58,10.03c-7.6,2.13-10.19,1.98-9.43,7.3
			c0.76,5.32-7.64,9.27-8,13.53c-0.36,4.26-3.86,6.38-7.21,6.69c-3.34,0.3-1.82-54.9,11.1-57.33c12.92-2.43,25.39,0.46,29.2,3.5
			C396.59,526.04,399.53,536.64,399.53,536.64"/>
		<path class="st5" d="M399.53,536.64c0,0,10.14-0.71,11.96,5.07c1.83,5.78-0.61,7.15,1.98,10.65c2.59,3.5,1.09,9.7,1.09,9.7
			s20.05-36.92-1.09-39.35C392.33,520.27,392.89,524.58,399.53,536.64"/>
		<path class="st17" d="M367.63,360.78l7.33-38.31c0,0-15.2-12.92-12.18-22.72c3.02-9.8,8.94-11.36,12.15-7.94
			c3.21,3.42-0.07-31.26,19.42-37.23c19.48-5.97,46.16-2.16,49.37,1.26c3.21,3.42,0.12,12.02,0.12,12.02s-1.15,51.17-12.16,68.06
			c-11.01,16.89-20.36,11.44-20.36,11.44l-2.27,22.38c0,0-8.87,12.55-21.17,7.88C375.57,372.93,367.63,360.78,367.63,360.78"/>
		<path class="st20" d="M411.32,347.35c0,0-12.35-5.57-18.23-13.34c0,0,4.16,9.22,10.46,16.51c5.62,6.5,6.69,6.36,6.69,6.36
			L411.32,347.35z"/>
		<path class="st5" d="M364.61,295.13c0,0-6.85-31.6-0.41-44.61c6.43-13.01,33.8-22.76,49.77-19.66
			c15.96,3.1,31.94,13.87,38.29,14.39c6.34,0.52,7.14-1.33,7.14-1.33s-0.42,8.14-6.28,15.71c-5.86,7.56-9.28,8.22-9.28,8.22
			s-11.76-5.61-22.46-3.62c-10.7,1.99-23.91,14.96-26.94,16.94c-3.04,1.98-6.29,8.04-6.29,8.04s-2.13,17.26-2.86,20.01
			c-0.47,1.74-6.66,1.75-6.42-1.87c0.23-3.62-2.83-14.71-3.93-15.55C373.83,290.97,368.78,289.47,364.61,295.13"/>
		<path class="st10" d="M408.33,324.98c0,0,7.04,3.24,15.57,4.03c5.9,0.55,8.85-2.78,8.85-2.78s-5.57,12.51-12.84,11.59
			C412.65,336.9,408.33,324.98,408.33,324.98"/>
		<path class="st51" d="M388.75,583.98c0,0,5.49,2.75,10.34,2.75c4.85,0,6.14-0.32,6.14-0.32s-3.23,6.79-7.44,7.11
			C393.6,593.84,388.75,583.98,388.75,583.98"/>
	</g>
</g>
</svg>
