<svg id="visual" viewBox="0 0 1024 1024" width="1024" height="1024" xmlns="http://www.w3.org/2000/svg" xmlns:xlink="http://www.w3.org/1999/xlink" version="1.1"><rect x="0" y="0" width="1024" height="1024" fill="#01152c"></rect><path d="M0 626L56.8 615.2C113.7 604.3 227.3 582.7 341.2 608.3C455 634 569 707 682.8 717C796.7 727 910.3 674 967.2 647.5L1024 621L1024 1025L967.2 1025C910.3 1025 796.7 1025 682.8 1025C569 1025 455 1025 341.2 1025C227.3 1025 113.7 1025 56.8 1025L0 1025Z" fill="#31d200"></path><path d="M0 790L56.8 774.7C113.7 759.3 227.3 728.7 341.2 749.5C455 770.3 569 842.7 682.8 875.5C796.7 908.3 910.3 901.7 967.2 898.3L1024 895L1024 1025L967.2 1025C910.3 1025 796.7 1025 682.8 1025C569 1025 455 1025 341.2 1025C227.3 1025 113.7 1025 56.8 1025L0 1025Z" fill="#00935a"></path><path d="M0 769L56.8 775.7C113.7 782.3 227.3 795.7 341.2 823.5C455 851.3 569 893.7 682.8 920.7C796.7 947.7 910.3 959.3 967.2 965.2L1024 971L1024 1025L967.2 1025C910.3 1025 796.7 1025 682.8 1025C569 1025 455 1025 341.2 1025C227.3 1025 113.7 1025 56.8 1025L0 1025Z" fill="#00514d"></path></svg>