<svg id="visual" viewBox="0 0 1024 1024" width="1024" height="1024" xmlns="http://www.w3.org/2000/svg" xmlns:xlink="http://www.w3.org/1999/xlink" version="1.1"><g stroke-width="28" stroke-linejoin="bevel"><path d="M512 512L512 460.8L460.8 512Z" fill="#99ffe4" stroke="#000000"></path><path d="M460.8 460.8L460.8 512L512 460.8Z" fill="#7584ff" stroke="#000000"></path><path d="M512 409.6L460.8 409.6L460.8 460.8Z" fill="#4c97ff" stroke="#000000"></path><path d="M409.6 409.6L409.6 460.8L460.8 460.8Z" fill="#61eeef" stroke="#000000"></path><path d="M460.8 460.8L409.6 512L460.8 512Z" fill="#61eeef" stroke="#000000"></path><path d="M512 460.8L512 409.6L460.8 460.8Z" fill="#43e5f5" stroke="#000000"></path><path d="M409.6 460.8L409.6 512L460.8 460.8Z" fill="#43e5f5" stroke="#000000"></path><path d="M409.6 512L460.8 563.2L460.8 512Z" fill="#23dbfb" stroke="#000000"></path><path d="M460.8 512L460.8 563.2L512 512Z" fill="#00b7ff" stroke="#000000"></path><path d="M563.2 512L563.2 460.8L512 512Z" fill="#00b7ff" stroke="#000000"></path><path d="M512 512L563.2 460.8L512 460.8Z" fill="#4c97ff" stroke="#000000"></path><path d="M512 460.8L563.2 460.8L512 409.6Z" fill="#00c4ff" stroke="#000000"></path><path d="M512 563.2L563.2 512L512 512Z" fill="#4c97ff" stroke="#000000"></path><path d="M460.8 563.2L512 563.2L512 512Z" fill="#00c4ff" stroke="#000000"></path><path d="M460.8 409.6L409.6 409.6L460.8 460.8Z" fill="#00c4ff" stroke="#000000"></path><path d="M409.6 512L409.6 563.2L460.8 563.2Z" fill="#4c97ff" stroke="#000000"></path><path d="M563.2 460.8L563.2 409.6L512 409.6Z" fill="#00c4ff" stroke="#000000"></path><path d="M512 563.2L563.2 563.2L563.2 512Z" fill="#00a8ff" stroke="#000000"></path><path d="M358.4 409.6L358.4 460.8L409.6 460.8Z" fill="#23dbfb" stroke="#000000"></path><path d="M409.6 460.8L358.4 512L409.6 512Z" fill="#23dbfb" stroke="#000000"></path><path d="M409.6 512L358.4 512L409.6 563.2Z" fill="#99ffe4" stroke="#000000"></path><path d="M512 358.4L460.8 409.6L512 409.6Z" fill="#23dbfb" stroke="#000000"></path><path d="M512 358.4L460.8 358.4L460.8 409.6Z" fill="#00d0ff" stroke="#000000"></path><path d="M460.8 409.6L409.6 358.4L409.6 409.6Z" fill="#00b7ff" stroke="#000000"></path><path d="M358.4 460.8L358.4 512L409.6 460.8Z" fill="#00d0ff" stroke="#000000"></path><path d="M563.2 409.6L512 358.4L512 409.6Z" fill="#4c97ff" stroke="#000000"></path><path d="M563.2 512L614.4 460.8L563.2 460.8Z" fill="#00c4ff" stroke="#000000"></path><path d="M563.2 460.8L614.4 460.8L563.2 409.6Z" fill="#00c4ff" stroke="#000000"></path><path d="M614.4 512L614.4 460.8L563.2 512Z" fill="#23dbfb" stroke="#000000"></path><path d="M409.6 563.2L460.8 614.4L460.8 563.2Z" fill="#23dbfb" stroke="#000000"></path><path d="M460.8 563.2L460.8 614.4L512 563.2Z" fill="#7584ff" stroke="#000000"></path><path d="M512 563.2L512 614.4L563.2 563.2Z" fill="#7ef7e9" stroke="#000000"></path><path d="M460.8 614.4L512 614.4L512 563.2Z" fill="#23dbfb" stroke="#000000"></path><path d="M563.2 563.2L614.4 512L563.2 512Z" fill="#00b7ff" stroke="#000000"></path><path d="M358.4 358.4L358.4 409.6L409.6 409.6Z" fill="#61eeef" stroke="#000000"></path><path d="M409.6 409.6L358.4 409.6L409.6 460.8Z" fill="#7584ff" stroke="#000000"></path><path d="M460.8 358.4L409.6 358.4L460.8 409.6Z" fill="#00c4ff" stroke="#000000"></path><path d="M358.4 512L358.4 563.2L409.6 563.2Z" fill="#4c97ff" stroke="#000000"></path><path d="M409.6 563.2L409.6 614.4L460.8 614.4Z" fill="#00a8ff" stroke="#000000"></path><path d="M614.4 409.6L563.2 358.4L563.2 409.6Z" fill="#4c97ff" stroke="#000000"></path><path d="M563.2 409.6L563.2 358.4L512 358.4Z" fill="#00d0ff" stroke="#000000"></path><path d="M358.4 563.2L409.6 614.4L409.6 563.2Z" fill="#00b7ff" stroke="#000000"></path><path d="M614.4 460.8L614.4 409.6L563.2 409.6Z" fill="#61eeef" stroke="#000000"></path><path d="M563.2 614.4L614.4 563.2L563.2 563.2Z" fill="#4c97ff" stroke="#000000"></path><path d="M563.2 563.2L614.4 563.2L614.4 512Z" fill="#4c97ff" stroke="#000000"></path><path d="M512 614.4L563.2 614.4L563.2 563.2Z" fill="#00a8ff" stroke="#000000"></path><path d="M512 307.2L460.8 307.2L460.8 358.4Z" fill="#4c97ff" stroke="#000000"></path><path d="M460.8 358.4L409.6 307.2L409.6 358.4Z" fill="#4c97ff" stroke="#000000"></path><path d="M512 307.2L460.8 358.4L512 358.4Z" fill="#99ffe4" stroke="#000000"></path><path d="M358.4 307.2L358.4 358.4L409.6 358.4Z" fill="#7584ff" stroke="#000000"></path><path d="M409.6 358.4L358.4 358.4L409.6 409.6Z" fill="#43e5f5" stroke="#000000"></path><path d="M307.2 409.6L307.2 460.8L358.4 460.8Z" fill="#23dbfb" stroke="#000000"></path><path d="M358.4 460.8L307.2 512L358.4 512Z" fill="#43e5f5" stroke="#000000"></path><path d="M358.4 512L307.2 512L358.4 563.2Z" fill="#7ef7e9" stroke="#000000"></path><path d="M307.2 409.6L358.4 460.8L358.4 409.6Z" fill="#7ef7e9" stroke="#000000"></path><path d="M563.2 358.4L512 307.2L512 358.4Z" fill="#4c97ff" stroke="#000000"></path><path d="M307.2 460.8L307.2 512L358.4 460.8Z" fill="#7ef7e9" stroke="#000000"></path><path d="M409.6 614.4L460.8 665.6L460.8 614.4Z" fill="#4c97ff" stroke="#000000"></path><path d="M460.8 614.4L460.8 665.6L512 614.4Z" fill="#61eeef" stroke="#000000"></path><path d="M512 614.4L563.2 665.6L563.2 614.4Z" fill="#7584ff" stroke="#000000"></path><path d="M307.2 563.2L358.4 614.4L358.4 563.2Z" fill="#61eeef" stroke="#000000"></path><path d="M358.4 563.2L358.4 614.4L409.6 614.4Z" fill="#99ffe4" stroke="#000000"></path><path d="M409.6 614.4L409.6 665.6L460.8 665.6Z" fill="#61eeef" stroke="#000000"></path><path d="M614.4 512L665.6 460.8L614.4 460.8Z" fill="#00b7ff" stroke="#000000"></path><path d="M614.4 460.8L665.6 460.8L614.4 409.6Z" fill="#61eeef" stroke="#000000"></path><path d="M665.6 512L665.6 460.8L614.4 512Z" fill="#99ffe4" stroke="#000000"></path><path d="M614.4 409.6L614.4 358.4L563.2 358.4Z" fill="#7ef7e9" stroke="#000000"></path><path d="M563.2 358.4L563.2 307.2L512 307.2Z" fill="#99ffe4" stroke="#000000"></path><path d="M665.6 409.6L614.4 358.4L614.4 409.6Z" fill="#00a8ff" stroke="#000000"></path><path d="M665.6 563.2L665.6 512L614.4 512Z" fill="#00a8ff" stroke="#000000"></path><path d="M460.8 665.6L512 665.6L512 614.4Z" fill="#00c4ff" stroke="#000000"></path><path d="M614.4 665.6L614.4 614.4L563.2 614.4Z" fill="#23dbfb" stroke="#000000"></path><path d="M563.2 614.4L614.4 614.4L614.4 563.2Z" fill="#4c97ff" stroke="#000000"></path><path d="M614.4 563.2L665.6 563.2L614.4 512Z" fill="#00d0ff" stroke="#000000"></path><path d="M307.2 358.4L307.2 409.6L358.4 409.6Z" fill="#61eeef" stroke="#000000"></path><path d="M460.8 307.2L409.6 307.2L460.8 358.4Z" fill="#4c97ff" stroke="#000000"></path><path d="M307.2 512L307.2 563.2L358.4 563.2Z" fill="#4c97ff" stroke="#000000"></path><path d="M614.4 358.4L563.2 307.2L563.2 358.4Z" fill="#00a8ff" stroke="#000000"></path><path d="M665.6 460.8L665.6 409.6L614.4 409.6Z" fill="#61eeef" stroke="#000000"></path><path d="M358.4 614.4L409.6 665.6L409.6 614.4Z" fill="#43e5f5" stroke="#000000"></path><path d="M665.6 614.4L665.6 563.2L614.4 563.2Z" fill="#00d0ff" stroke="#000000"></path><path d="M512 665.6L563.2 665.6L512 614.4Z" fill="#43e5f5" stroke="#000000"></path><path d="M307.2 307.2L307.2 358.4L358.4 358.4Z" fill="#00a8ff" stroke="#000000"></path><path d="M358.4 358.4L307.2 358.4L358.4 409.6Z" fill="#7584ff" stroke="#000000"></path><path d="M409.6 307.2L358.4 307.2L409.6 358.4Z" fill="#43e5f5" stroke="#000000"></path><path d="M665.6 358.4L614.4 307.2L614.4 358.4Z" fill="#7ef7e9" stroke="#000000"></path><path d="M614.4 358.4L614.4 307.2L563.2 307.2Z" fill="#00a8ff" stroke="#000000"></path><path d="M358.4 614.4L358.4 665.6L409.6 665.6Z" fill="#23dbfb" stroke="#000000"></path><path d="M307.2 614.4L358.4 665.6L358.4 614.4Z" fill="#00d0ff" stroke="#000000"></path><path d="M665.6 409.6L665.6 358.4L614.4 358.4Z" fill="#99ffe4" stroke="#000000"></path><path d="M307.2 563.2L307.2 614.4L358.4 614.4Z" fill="#00c4ff" stroke="#000000"></path><path d="M614.4 614.4L665.6 614.4L614.4 563.2Z" fill="#7584ff" stroke="#000000"></path><path d="M614.4 665.6L665.6 614.4L614.4 614.4Z" fill="#43e5f5" stroke="#000000"></path><path d="M563.2 665.6L614.4 665.6L563.2 614.4Z" fill="#4c97ff" stroke="#000000"></path><path d="M307.2 409.6L256 460.8L307.2 460.8Z" fill="#99ffe4" stroke="#000000"></path><path d="M307.2 460.8L256 460.8L307.2 512Z" fill="#00d0ff" stroke="#000000"></path><path d="M307.2 512L256 512L307.2 563.2Z" fill="#99ffe4" stroke="#000000"></path><path d="M307.2 563.2L256 563.2L307.2 614.4Z" fill="#99ffe4" stroke="#000000"></path><path d="M256 409.6L256 460.8L307.2 409.6Z" fill="#61eeef" stroke="#000000"></path><path d="M512 307.2L460.8 256L460.8 307.2Z" fill="#99ffe4" stroke="#000000"></path><path d="M460.8 307.2L460.8 256L409.6 307.2Z" fill="#00d0ff" stroke="#000000"></path><path d="M409.6 307.2L409.6 256L358.4 307.2Z" fill="#00c4ff" stroke="#000000"></path><path d="M512 256L460.8 256L512 307.2Z" fill="#00a8ff" stroke="#000000"></path><path d="M512 256L512 307.2L563.2 307.2Z" fill="#4c97ff" stroke="#000000"></path><path d="M563.2 256L512 256L563.2 307.2Z" fill="#23dbfb" stroke="#000000"></path><path d="M256 460.8L256 512L307.2 512Z" fill="#00c4ff" stroke="#000000"></path><path d="M460.8 665.6L512 716.8L512 665.6Z" fill="#99ffe4" stroke="#000000"></path><path d="M512 665.6L512 716.8L563.2 665.6Z" fill="#00c4ff" stroke="#000000"></path><path d="M563.2 665.6L563.2 716.8L614.4 665.6Z" fill="#23dbfb" stroke="#000000"></path><path d="M460.8 716.8L512 716.8L460.8 665.6Z" fill="#00a8ff" stroke="#000000"></path><path d="M460.8 716.8L460.8 665.6L409.6 665.6Z" fill="#00d0ff" stroke="#000000"></path><path d="M665.6 512L716.8 460.8L665.6 460.8Z" fill="#00a8ff" stroke="#000000"></path><path d="M665.6 460.8L716.8 460.8L665.6 409.6Z" fill="#43e5f5" stroke="#000000"></path><path d="M665.6 409.6L716.8 409.6L665.6 358.4Z" fill="#7584ff" stroke="#000000"></path><path d="M716.8 512L716.8 460.8L665.6 512Z" fill="#00a8ff" stroke="#000000"></path><path d="M716.8 512L665.6 512L665.6 563.2Z" fill="#7584ff" stroke="#000000"></path><path d="M716.8 563.2L716.8 512L665.6 563.2Z" fill="#00b7ff" stroke="#000000"></path><path d="M409.6 716.8L460.8 716.8L409.6 665.6Z" fill="#7584ff" stroke="#000000"></path><path d="M460.8 256L409.6 256L409.6 307.2Z" fill="#43e5f5" stroke="#000000"></path><path d="M358.4 307.2L307.2 307.2L358.4 358.4Z" fill="#7584ff" stroke="#000000"></path><path d="M256 358.4L256 409.6L307.2 358.4Z" fill="#00d0ff" stroke="#000000"></path><path d="M307.2 358.4L256 409.6L307.2 409.6Z" fill="#43e5f5" stroke="#000000"></path><path d="M614.4 307.2L563.2 256L563.2 307.2Z" fill="#23dbfb" stroke="#000000"></path><path d="M256 512L256 563.2L307.2 563.2Z" fill="#00b7ff" stroke="#000000"></path><path d="M358.4 716.8L409.6 716.8L358.4 665.6Z" fill="#7ef7e9" stroke="#000000"></path><path d="M358.4 665.6L409.6 716.8L409.6 665.6Z" fill="#00d0ff" stroke="#000000"></path><path d="M716.8 460.8L716.8 409.6L665.6 409.6Z" fill="#00a8ff" stroke="#000000"></path><path d="M665.6 358.4L665.6 307.2L614.4 307.2Z" fill="#43e5f5" stroke="#000000"></path><path d="M512 716.8L563.2 716.8L563.2 665.6Z" fill="#00d0ff" stroke="#000000"></path><path d="M665.6 614.4L716.8 563.2L665.6 563.2Z" fill="#00b7ff" stroke="#000000"></path><path d="M358.4 256L307.2 307.2L358.4 307.2Z" fill="#4c97ff" stroke="#000000"></path><path d="M256 665.6L307.2 665.6L307.2 614.4Z" fill="#00d0ff" stroke="#000000"></path><path d="M307.2 614.4L307.2 665.6L358.4 665.6Z" fill="#4c97ff" stroke="#000000"></path><path d="M716.8 358.4L665.6 307.2L665.6 358.4Z" fill="#23dbfb" stroke="#000000"></path><path d="M614.4 307.2L614.4 256L563.2 256Z" fill="#43e5f5" stroke="#000000"></path><path d="M665.6 716.8L665.6 665.6L614.4 665.6Z" fill="#43e5f5" stroke="#000000"></path><path d="M614.4 665.6L665.6 665.6L665.6 614.4Z" fill="#23dbfb" stroke="#000000"></path><path d="M665.6 614.4L716.8 614.4L716.8 563.2Z" fill="#4c97ff" stroke="#000000"></path><path d="M409.6 256L358.4 256L358.4 307.2Z" fill="#7584ff" stroke="#000000"></path><path d="M307.2 307.2L256 358.4L307.2 358.4Z" fill="#43e5f5" stroke="#000000"></path><path d="M256 307.2L256 358.4L307.2 307.2Z" fill="#00b7ff" stroke="#000000"></path><path d="M256 563.2L256 614.4L307.2 614.4Z" fill="#99ffe4" stroke="#000000"></path><path d="M665.6 256L614.4 256L614.4 307.2Z" fill="#00a8ff" stroke="#000000"></path><path d="M307.2 665.6L358.4 716.8L358.4 665.6Z" fill="#7ef7e9" stroke="#000000"></path><path d="M307.2 716.8L358.4 716.8L307.2 665.6Z" fill="#00c4ff" stroke="#000000"></path><path d="M716.8 409.6L716.8 358.4L665.6 358.4Z" fill="#00d0ff" stroke="#000000"></path><path d="M665.6 307.2L665.6 256L614.4 307.2Z" fill="#23dbfb" stroke="#000000"></path><path d="M716.8 665.6L716.8 614.4L665.6 614.4Z" fill="#43e5f5" stroke="#000000"></path><path d="M563.2 716.8L614.4 716.8L614.4 665.6Z" fill="#7ef7e9" stroke="#000000"></path><path d="M665.6 665.6L716.8 665.6L665.6 614.4Z" fill="#7584ff" stroke="#000000"></path><path d="M204.8 460.8L204.8 512L256 512Z" fill="#43e5f5" stroke="#000000"></path><path d="M256 512L204.8 512L256 563.2Z" fill="#00d0ff" stroke="#000000"></path><path d="M256 563.2L204.8 563.2L256 614.4Z" fill="#00c4ff" stroke="#000000"></path><path d="M204.8 460.8L256 512L256 460.8Z" fill="#61eeef" stroke="#000000"></path><path d="M204.8 460.8L256 460.8L204.8 409.6Z" fill="#00b7ff" stroke="#000000"></path><path d="M512 204.8L460.8 204.8L460.8 256Z" fill="#43e5f5" stroke="#000000"></path><path d="M460.8 256L409.6 204.8L409.6 256Z" fill="#00c4ff" stroke="#000000"></path><path d="M409.6 256L358.4 204.8L358.4 256Z" fill="#00b7ff" stroke="#000000"></path><path d="M512 204.8L460.8 256L512 256Z" fill="#99ffe4" stroke="#000000"></path><path d="M512 204.8L512 256L563.2 256Z" fill="#99ffe4" stroke="#000000"></path><path d="M204.8 409.6L256 460.8L256 409.6Z" fill="#00d0ff" stroke="#000000"></path><path d="M563.2 204.8L512 204.8L563.2 256Z" fill="#61eeef" stroke="#000000"></path><path d="M768 512L716.8 512L768 563.2Z" fill="#7ef7e9" stroke="#000000"></path><path d="M768 512L768 460.8L716.8 512Z" fill="#4c97ff" stroke="#000000"></path><path d="M716.8 512L768 460.8L716.8 460.8Z" fill="#43e5f5" stroke="#000000"></path><path d="M716.8 460.8L768 460.8L716.8 409.6Z" fill="#00a8ff" stroke="#000000"></path><path d="M716.8 409.6L768 409.6L716.8 358.4Z" fill="#23dbfb" stroke="#000000"></path><path d="M768 563.2L716.8 512L716.8 563.2Z" fill="#00b7ff" stroke="#000000"></path><path d="M460.8 716.8L512 768L512 716.8Z" fill="#7584ff" stroke="#000000"></path><path d="M512 716.8L563.2 768L563.2 716.8Z" fill="#4c97ff" stroke="#000000"></path><path d="M563.2 716.8L614.4 768L614.4 716.8Z" fill="#99ffe4" stroke="#000000"></path><path d="M460.8 768L512 768L460.8 716.8Z" fill="#7ef7e9" stroke="#000000"></path><path d="M460.8 768L460.8 716.8L409.6 716.8Z" fill="#99ffe4" stroke="#000000"></path><path d="M409.6 768L460.8 768L409.6 716.8Z" fill="#7584ff" stroke="#000000"></path><path d="M307.2 256L256 307.2L307.2 307.2Z" fill="#7584ff" stroke="#000000"></path><path d="M204.8 358.4L204.8 409.6L256 409.6Z" fill="#43e5f5" stroke="#000000"></path><path d="M358.4 256L307.2 256L307.2 307.2Z" fill="#99ffe4" stroke="#000000"></path><path d="M307.2 204.8L307.2 256L358.4 256Z" fill="#00a8ff" stroke="#000000"></path><path d="M460.8 204.8L409.6 204.8L460.8 256Z" fill="#00a8ff" stroke="#000000"></path><path d="M204.8 358.4L256 409.6L256 358.4Z" fill="#99ffe4" stroke="#000000"></path><path d="M614.4 256L563.2 204.8L563.2 256Z" fill="#7ef7e9" stroke="#000000"></path><path d="M204.8 512L204.8 563.2L256 563.2Z" fill="#43e5f5" stroke="#000000"></path><path d="M768 460.8L768 409.6L716.8 409.6Z" fill="#00d0ff" stroke="#000000"></path><path d="M204.8 614.4L256 665.6L256 614.4Z" fill="#00d0ff" stroke="#000000"></path><path d="M256 614.4L256 665.6L307.2 614.4Z" fill="#99ffe4" stroke="#000000"></path><path d="M358.4 716.8L409.6 768L409.6 716.8Z" fill="#4c97ff" stroke="#000000"></path><path d="M358.4 768L409.6 768L358.4 716.8Z" fill="#00d0ff" stroke="#000000"></path><path d="M716.8 307.2L665.6 256L665.6 307.2Z" fill="#43e5f5" stroke="#000000"></path><path d="M614.4 256L614.4 204.8L563.2 204.8Z" fill="#7584ff" stroke="#000000"></path><path d="M716.8 307.2L665.6 307.2L716.8 358.4Z" fill="#00b7ff" stroke="#000000"></path><path d="M512 768L563.2 768L512 716.8Z" fill="#00d0ff" stroke="#000000"></path><path d="M768 614.4L768 563.2L716.8 563.2Z" fill="#7584ff" stroke="#000000"></path><path d="M768 358.4L716.8 307.2L716.8 358.4Z" fill="#61eeef" stroke="#000000"></path><path d="M256 665.6L307.2 716.8L307.2 665.6Z" fill="#43e5f5" stroke="#000000"></path><path d="M614.4 768L665.6 716.8L614.4 716.8Z" fill="#7584ff" stroke="#000000"></path><path d="M614.4 716.8L665.6 716.8L614.4 665.6Z" fill="#00d0ff" stroke="#000000"></path><path d="M716.8 614.4L768 614.4L716.8 563.2Z" fill="#99ffe4" stroke="#000000"></path><path d="M665.6 716.8L716.8 665.6L665.6 665.6Z" fill="#4c97ff" stroke="#000000"></path><path d="M409.6 204.8L358.4 204.8L409.6 256Z" fill="#43e5f5" stroke="#000000"></path><path d="M204.8 307.2L204.8 358.4L256 358.4Z" fill="#61eeef" stroke="#000000"></path><path d="M307.2 716.8L358.4 768L358.4 716.8Z" fill="#43e5f5" stroke="#000000"></path><path d="M768 409.6L768 358.4L716.8 358.4Z" fill="#00b7ff" stroke="#000000"></path><path d="M204.8 563.2L204.8 614.4L256 614.4Z" fill="#7584ff" stroke="#000000"></path><path d="M256 665.6L256 716.8L307.2 716.8Z" fill="#7ef7e9" stroke="#000000"></path><path d="M665.6 256L614.4 204.8L614.4 256Z" fill="#99ffe4" stroke="#000000"></path><path d="M665.6 204.8L614.4 204.8L665.6 256Z" fill="#7584ff" stroke="#000000"></path><path d="M563.2 768L614.4 768L563.2 716.8Z" fill="#00d0ff" stroke="#000000"></path><path d="M716.8 665.6L768 614.4L716.8 614.4Z" fill="#00c4ff" stroke="#000000"></path><path d="M307.2 256L256 256L256 307.2Z" fill="#23dbfb" stroke="#000000"></path><path d="M256 307.2L204.8 307.2L256 358.4Z" fill="#23dbfb" stroke="#000000"></path><path d="M307.2 204.8L256 256L307.2 256Z" fill="#23dbfb" stroke="#000000"></path><path d="M204.8 665.6L256 716.8L256 665.6Z" fill="#00a8ff" stroke="#000000"></path><path d="M307.2 716.8L307.2 768L358.4 768Z" fill="#61eeef" stroke="#000000"></path><path d="M768 256L716.8 256L716.8 307.2Z" fill="#7ef7e9" stroke="#000000"></path><path d="M716.8 307.2L716.8 256L665.6 256Z" fill="#00b7ff" stroke="#000000"></path><path d="M716.8 768L716.8 716.8L665.6 716.8Z" fill="#99ffe4" stroke="#000000"></path><path d="M665.6 716.8L716.8 716.8L716.8 665.6Z" fill="#4c97ff" stroke="#000000"></path><path d="M716.8 665.6L768 665.6L768 614.4Z" fill="#00b7ff" stroke="#000000"></path><path d="M358.4 204.8L307.2 204.8L358.4 256Z" fill="#61eeef" stroke="#000000"></path><path d="M256 256L204.8 307.2L256 307.2Z" fill="#00a8ff" stroke="#000000"></path><path d="M153.6 409.6L153.6 460.8L204.8 460.8Z" fill="#99ffe4" stroke="#000000"></path><path d="M204.8 460.8L153.6 512L204.8 512Z" fill="#7ef7e9" stroke="#000000"></path><path d="M204.8 512L153.6 512L204.8 563.2Z" fill="#4c97ff" stroke="#000000"></path><path d="M204.8 563.2L153.6 563.2L204.8 614.4Z" fill="#00a8ff" stroke="#000000"></path><path d="M153.6 409.6L204.8 460.8L204.8 409.6Z" fill="#4c97ff" stroke="#000000"></path><path d="M153.6 409.6L204.8 409.6L153.6 358.4Z" fill="#7ef7e9" stroke="#000000"></path><path d="M153.6 460.8L153.6 512L204.8 460.8Z" fill="#99ffe4" stroke="#000000"></path><path d="M460.8 204.8L409.6 153.6L409.6 204.8Z" fill="#00d0ff" stroke="#000000"></path><path d="M409.6 204.8L358.4 153.6L358.4 204.8Z" fill="#7ef7e9" stroke="#000000"></path><path d="M358.4 204.8L307.2 153.6L307.2 204.8Z" fill="#43e5f5" stroke="#000000"></path><path d="M512 153.6L460.8 153.6L460.8 204.8Z" fill="#23dbfb" stroke="#000000"></path><path d="M512 153.6L460.8 204.8L512 204.8Z" fill="#43e5f5" stroke="#000000"></path><path d="M512 153.6L512 204.8L563.2 204.8Z" fill="#43e5f5" stroke="#000000"></path><path d="M563.2 153.6L512 153.6L563.2 204.8Z" fill="#43e5f5" stroke="#000000"></path><path d="M768 358.4L768 307.2L716.8 307.2Z" fill="#00b7ff" stroke="#000000"></path><path d="M256 768L307.2 768L307.2 716.8Z" fill="#00b7ff" stroke="#000000"></path><path d="M204.8 614.4L204.8 665.6L256 665.6Z" fill="#00a8ff" stroke="#000000"></path><path d="M153.6 614.4L204.8 665.6L204.8 614.4Z" fill="#00a8ff" stroke="#000000"></path><path d="M716.8 256L665.6 204.8L665.6 256Z" fill="#00c4ff" stroke="#000000"></path><path d="M614.4 204.8L563.2 153.6L563.2 204.8Z" fill="#00a8ff" stroke="#000000"></path><path d="M614.4 768L665.6 768L665.6 716.8Z" fill="#00d0ff" stroke="#000000"></path><path d="M768 716.8L768 665.6L716.8 665.6Z" fill="#00d0ff" stroke="#000000"></path><path d="M768 512L819.2 512L768 460.8Z" fill="#4c97ff" stroke="#000000"></path><path d="M768 460.8L819.2 460.8L768 409.6Z" fill="#99ffe4" stroke="#000000"></path><path d="M768 409.6L819.2 409.6L768 358.4Z" fill="#00c4ff" stroke="#000000"></path><path d="M768 358.4L819.2 358.4L768 307.2Z" fill="#00b7ff" stroke="#000000"></path><path d="M768 563.2L819.2 512L768 512Z" fill="#00b7ff" stroke="#000000"></path><path d="M819.2 563.2L819.2 512L768 563.2Z" fill="#7ef7e9" stroke="#000000"></path><path d="M819.2 563.2L768 563.2L768 614.4Z" fill="#00d0ff" stroke="#000000"></path><path d="M460.8 768L512 819.2L512 768Z" fill="#00b7ff" stroke="#000000"></path><path d="M512 768L512 819.2L563.2 768Z" fill="#00b7ff" stroke="#000000"></path><path d="M563.2 768L563.2 819.2L614.4 768Z" fill="#23dbfb" stroke="#000000"></path><path d="M614.4 768L665.6 819.2L665.6 768Z" fill="#00b7ff" stroke="#000000"></path><path d="M460.8 819.2L512 819.2L460.8 768Z" fill="#7ef7e9" stroke="#000000"></path><path d="M460.8 819.2L460.8 768L409.6 768Z" fill="#61eeef" stroke="#000000"></path><path d="M460.8 819.2L409.6 768L409.6 819.2Z" fill="#00d0ff" stroke="#000000"></path><path d="M409.6 819.2L409.6 768L358.4 768Z" fill="#00d0ff" stroke="#000000"></path><path d="M819.2 512L819.2 460.8L768 460.8Z" fill="#43e5f5" stroke="#000000"></path><path d="M460.8 153.6L409.6 153.6L460.8 204.8Z" fill="#00a8ff" stroke="#000000"></path><path d="M153.6 358.4L204.8 409.6L204.8 358.4Z" fill="#00c4ff" stroke="#000000"></path><path d="M153.6 512L153.6 563.2L204.8 563.2Z" fill="#00a8ff" stroke="#000000"></path><path d="M614.4 153.6L563.2 153.6L614.4 204.8Z" fill="#23dbfb" stroke="#000000"></path><path d="M819.2 460.8L819.2 409.6L768 409.6Z" fill="#99ffe4" stroke="#000000"></path><path d="M358.4 819.2L409.6 819.2L358.4 768Z" fill="#7ef7e9" stroke="#000000"></path><path d="M819.2 614.4L819.2 563.2L768 614.4Z" fill="#99ffe4" stroke="#000000"></path><path d="M512 819.2L563.2 819.2L563.2 768Z" fill="#43e5f5" stroke="#000000"></path><path d="M409.6 153.6L358.4 153.6L409.6 204.8Z" fill="#43e5f5" stroke="#000000"></path><path d="M204.8 204.8L204.8 256L256 256Z" fill="#00c4ff" stroke="#000000"></path><path d="M153.6 307.2L204.8 358.4L204.8 307.2Z" fill="#7584ff" stroke="#000000"></path><path d="M153.6 307.2L153.6 358.4L204.8 358.4Z" fill="#43e5f5" stroke="#000000"></path><path d="M153.6 563.2L153.6 614.4L204.8 614.4Z" fill="#00b7ff" stroke="#000000"></path><path d="M204.8 716.8L256 768L256 716.8Z" fill="#00c4ff" stroke="#000000"></path><path d="M665.6 204.8L614.4 153.6L614.4 204.8Z" fill="#00a8ff" stroke="#000000"></path><path d="M665.6 153.6L614.4 153.6L665.6 204.8Z" fill="#99ffe4" stroke="#000000"></path><path d="M819.2 409.6L819.2 358.4L768 358.4Z" fill="#00a8ff" stroke="#000000"></path><path d="M768 307.2L768 256L716.8 307.2Z" fill="#4c97ff" stroke="#000000"></path><path d="M307.2 819.2L358.4 819.2L307.2 768Z" fill="#7584ff" stroke="#000000"></path><path d="M307.2 768L358.4 819.2L358.4 768Z" fill="#00a8ff" stroke="#000000"></path><path d="M563.2 819.2L614.4 819.2L614.4 768Z" fill="#7584ff" stroke="#000000"></path><path d="M716.8 768L768 716.8L716.8 716.8Z" fill="#61eeef" stroke="#000000"></path><path d="M819.2 665.6L819.2 614.4L768 614.4Z" fill="#7584ff" stroke="#000000"></path><path d="M819.2 665.6L768 614.4L768 665.6Z" fill="#61eeef" stroke="#000000"></path><path d="M256 204.8L256 256L307.2 204.8Z" fill="#61eeef" stroke="#000000"></path><path d="M256 256L204.8 256L204.8 307.2Z" fill="#00b7ff" stroke="#000000"></path><path d="M307.2 153.6L256 204.8L307.2 204.8Z" fill="#7ef7e9" stroke="#000000"></path><path d="M204.8 716.8L256 716.8L204.8 665.6Z" fill="#7584ff" stroke="#000000"></path><path d="M256 716.8L256 768L307.2 716.8Z" fill="#00b7ff" stroke="#000000"></path><path d="M819.2 307.2L768 256L768 307.2Z" fill="#00b7ff" stroke="#000000"></path><path d="M716.8 256L716.8 204.8L665.6 204.8Z" fill="#99ffe4" stroke="#000000"></path><path d="M153.6 665.6L204.8 716.8L204.8 665.6Z" fill="#43e5f5" stroke="#000000"></path><path d="M768 256L716.8 204.8L716.8 256Z" fill="#00a8ff" stroke="#000000"></path><path d="M716.8 768L665.6 716.8L665.6 768Z" fill="#00d0ff" stroke="#000000"></path><path d="M716.8 716.8L768 716.8L716.8 665.6Z" fill="#23dbfb" stroke="#000000"></path><path d="M665.6 819.2L716.8 768L665.6 768Z" fill="#00c4ff" stroke="#000000"></path><path d="M204.8 256L153.6 307.2L204.8 307.2Z" fill="#99ffe4" stroke="#000000"></path><path d="M358.4 153.6L307.2 153.6L358.4 204.8Z" fill="#43e5f5" stroke="#000000"></path><path d="M716.8 204.8L665.6 153.6L665.6 204.8Z" fill="#00c4ff" stroke="#000000"></path><path d="M153.6 614.4L153.6 665.6L204.8 665.6Z" fill="#00c4ff" stroke="#000000"></path><path d="M819.2 358.4L819.2 307.2L768 307.2Z" fill="#23dbfb" stroke="#000000"></path><path d="M768 256L768 204.8L716.8 204.8Z" fill="#23dbfb" stroke="#000000"></path><path d="M256 768L307.2 819.2L307.2 768Z" fill="#43e5f5" stroke="#000000"></path><path d="M256 819.2L307.2 819.2L256 768Z" fill="#99ffe4" stroke="#000000"></path><path d="M768 716.8L819.2 665.6L768 665.6Z" fill="#00d0ff" stroke="#000000"></path><path d="M614.4 819.2L665.6 819.2L614.4 768Z" fill="#7584ff" stroke="#000000"></path><path d="M102.4 409.6L102.4 460.8L153.6 409.6Z" fill="#7584ff" stroke="#000000"></path><path d="M153.6 409.6L102.4 460.8L153.6 460.8Z" fill="#00b7ff" stroke="#000000"></path><path d="M153.6 460.8L102.4 460.8L153.6 512Z" fill="#43e5f5" stroke="#000000"></path><path d="M153.6 512L102.4 512L153.6 563.2Z" fill="#00c4ff" stroke="#000000"></path><path d="M153.6 563.2L102.4 563.2L153.6 614.4Z" fill="#43e5f5" stroke="#000000"></path><path d="M153.6 614.4L102.4 614.4L153.6 665.6Z" fill="#23dbfb" stroke="#000000"></path><path d="M102.4 409.6L153.6 409.6L153.6 358.4Z" fill="#00d0ff" stroke="#000000"></path><path d="M460.8 153.6L460.8 102.4L409.6 153.6Z" fill="#00b7ff" stroke="#000000"></path><path d="M409.6 153.6L409.6 102.4L358.4 153.6Z" fill="#00b7ff" stroke="#000000"></path><path d="M358.4 153.6L358.4 102.4L307.2 153.6Z" fill="#00c4ff" stroke="#000000"></path><path d="M512 153.6L460.8 102.4L460.8 153.6Z" fill="#00c4ff" stroke="#000000"></path><path d="M512 102.4L460.8 102.4L512 153.6Z" fill="#4c97ff" stroke="#000000"></path><path d="M512 102.4L512 153.6L563.2 153.6Z" fill="#61eeef" stroke="#000000"></path><path d="M512 102.4L563.2 153.6L563.2 102.4Z" fill="#7ef7e9" stroke="#000000"></path><path d="M102.4 460.8L102.4 512L153.6 512Z" fill="#7ef7e9" stroke="#000000"></path><path d="M563.2 102.4L563.2 153.6L614.4 153.6Z" fill="#00c4ff" stroke="#000000"></path><path d="M409.6 870.4L460.8 870.4L409.6 819.2Z" fill="#23dbfb" stroke="#000000"></path><path d="M409.6 819.2L460.8 870.4L460.8 819.2Z" fill="#00d0ff" stroke="#000000"></path><path d="M460.8 819.2L460.8 870.4L512 819.2Z" fill="#61eeef" stroke="#000000"></path><path d="M512 819.2L512 870.4L563.2 819.2Z" fill="#7584ff" stroke="#000000"></path><path d="M563.2 819.2L563.2 870.4L614.4 819.2Z" fill="#43e5f5" stroke="#000000"></path><path d="M614.4 819.2L665.6 870.4L665.6 819.2Z" fill="#00c4ff" stroke="#000000"></path><path d="M409.6 870.4L409.6 819.2L358.4 819.2Z" fill="#00d0ff" stroke="#000000"></path><path d="M819.2 512L870.4 460.8L819.2 460.8Z" fill="#23dbfb" stroke="#000000"></path><path d="M819.2 460.8L870.4 460.8L819.2 409.6Z" fill="#43e5f5" stroke="#000000"></path><path d="M819.2 409.6L870.4 409.6L819.2 358.4Z" fill="#99ffe4" stroke="#000000"></path><path d="M819.2 358.4L870.4 358.4L819.2 307.2Z" fill="#43e5f5" stroke="#000000"></path><path d="M870.4 512L870.4 460.8L819.2 512Z" fill="#00c4ff" stroke="#000000"></path><path d="M870.4 512L819.2 512L819.2 563.2Z" fill="#00b7ff" stroke="#000000"></path><path d="M870.4 512L819.2 563.2L870.4 563.2Z" fill="#4c97ff" stroke="#000000"></path><path d="M870.4 563.2L819.2 563.2L819.2 614.4Z" fill="#7ef7e9" stroke="#000000"></path><path d="M460.8 870.4L512 870.4L512 819.2Z" fill="#23dbfb" stroke="#000000"></path><path d="M460.8 102.4L409.6 102.4L409.6 153.6Z" fill="#00c4ff" stroke="#000000"></path><path d="M102.4 358.4L102.4 409.6L153.6 358.4Z" fill="#23dbfb" stroke="#000000"></path><path d="M102.4 512L102.4 563.2L153.6 563.2Z" fill="#00d0ff" stroke="#000000"></path><path d="M614.4 102.4L563.2 102.4L614.4 153.6Z" fill="#00d0ff" stroke="#000000"></path><path d="M358.4 870.4L409.6 870.4L358.4 819.2Z" fill="#43e5f5" stroke="#000000"></path><path d="M870.4 460.8L870.4 409.6L819.2 409.6Z" fill="#00d0ff" stroke="#000000"></path><path d="M512 870.4L563.2 870.4L563.2 819.2Z" fill="#7584ff" stroke="#000000"></path><path d="M870.4 614.4L870.4 563.2L819.2 614.4Z" fill="#23dbfb" stroke="#000000"></path><path d="M256 204.8L204.8 204.8L256 256Z" fill="#43e5f5" stroke="#000000"></path><path d="M204.8 256L153.6 256L153.6 307.2Z" fill="#23dbfb" stroke="#000000"></path><path d="M153.6 307.2L102.4 358.4L153.6 358.4Z" fill="#43e5f5" stroke="#000000"></path><path d="M204.8 153.6L204.8 204.8L256 204.8Z" fill="#7584ff" stroke="#000000"></path><path d="M256 153.6L256 204.8L307.2 153.6Z" fill="#7ef7e9" stroke="#000000"></path><path d="M153.6 716.8L204.8 768L204.8 716.8Z" fill="#00b7ff" stroke="#000000"></path><path d="M204.8 716.8L204.8 768L256 768Z" fill="#00a8ff" stroke="#000000"></path><path d="M153.6 716.8L204.8 716.8L153.6 665.6Z" fill="#7584ff" stroke="#000000"></path><path d="M716.8 204.8L716.8 153.6L665.6 153.6Z" fill="#7584ff" stroke="#000000"></path><path d="M665.6 153.6L614.4 102.4L614.4 153.6Z" fill="#00b7ff" stroke="#000000"></path><path d="M819.2 256L768 204.8L768 256Z" fill="#00a8ff" stroke="#000000"></path><path d="M768 819.2L768 768L716.8 768Z" fill="#7ef7e9" stroke="#000000"></path><path d="M716.8 768L768 768L768 716.8Z" fill="#7ef7e9" stroke="#000000"></path><path d="M768 716.8L819.2 716.8L819.2 665.6Z" fill="#00a8ff" stroke="#000000"></path><path d="M153.6 204.8L153.6 256L204.8 256Z" fill="#00d0ff" stroke="#000000"></path><path d="M307.2 102.4L256 153.6L307.2 153.6Z" fill="#7ef7e9" stroke="#000000"></path><path d="M409.6 102.4L358.4 102.4L358.4 153.6Z" fill="#7584ff" stroke="#000000"></path><path d="M768 204.8L716.8 153.6L716.8 204.8Z" fill="#00d0ff" stroke="#000000"></path><path d="M102.4 307.2L102.4 358.4L153.6 307.2Z" fill="#00c4ff" stroke="#000000"></path><path d="M102.4 665.6L153.6 716.8L153.6 665.6Z" fill="#00c4ff" stroke="#000000"></path><path d="M870.4 307.2L819.2 256L819.2 307.2Z" fill="#61eeef" stroke="#000000"></path><path d="M819.2 307.2L819.2 256L768 256Z" fill="#00c4ff" stroke="#000000"></path><path d="M768 204.8L768 153.6L716.8 153.6Z" fill="#23dbfb" stroke="#000000"></path><path d="M102.4 563.2L102.4 614.4L153.6 614.4Z" fill="#00d0ff" stroke="#000000"></path><path d="M204.8 768L256 819.2L256 768Z" fill="#23dbfb" stroke="#000000"></path><path d="M307.2 819.2L358.4 870.4L358.4 819.2Z" fill="#00b7ff" stroke="#000000"></path><path d="M204.8 819.2L256 819.2L204.8 768Z" fill="#99ffe4" stroke="#000000"></path><path d="M665.6 102.4L614.4 102.4L665.6 153.6Z" fill="#00d0ff" stroke="#000000"></path><path d="M870.4 409.6L870.4 358.4L819.2 358.4Z" fill="#00a8ff" stroke="#000000"></path><path d="M307.2 870.4L358.4 870.4L307.2 819.2Z" fill="#23dbfb" stroke="#000000"></path><path d="M665.6 870.4L716.8 819.2L665.6 819.2Z" fill="#23dbfb" stroke="#000000"></path><path d="M665.6 819.2L716.8 819.2L716.8 768Z" fill="#00c4ff" stroke="#000000"></path><path d="M819.2 768L819.2 716.8L768 716.8Z" fill="#23dbfb" stroke="#000000"></path><path d="M870.4 665.6L870.4 614.4L819.2 614.4Z" fill="#00d0ff" stroke="#000000"></path><path d="M819.2 768L768 716.8L768 768Z" fill="#00b7ff" stroke="#000000"></path><path d="M870.4 665.6L819.2 614.4L819.2 665.6Z" fill="#00c4ff" stroke="#000000"></path><path d="M563.2 870.4L614.4 870.4L614.4 819.2Z" fill="#99ffe4" stroke="#000000"></path><path d="M358.4 102.4L307.2 102.4L307.2 153.6Z" fill="#99ffe4" stroke="#000000"></path><path d="M153.6 256L102.4 307.2L153.6 307.2Z" fill="#00c4ff" stroke="#000000"></path><path d="M102.4 614.4L102.4 665.6L153.6 665.6Z" fill="#7ef7e9" stroke="#000000"></path><path d="M716.8 153.6L665.6 102.4L665.6 153.6Z" fill="#7ef7e9" stroke="#000000"></path><path d="M870.4 358.4L870.4 307.2L819.2 307.2Z" fill="#00a8ff" stroke="#000000"></path><path d="M256 819.2L307.2 870.4L307.2 819.2Z" fill="#7584ff" stroke="#000000"></path><path d="M614.4 870.4L665.6 870.4L614.4 819.2Z" fill="#23dbfb" stroke="#000000"></path><path d="M819.2 716.8L870.4 665.6L819.2 665.6Z" fill="#4c97ff" stroke="#000000"></path><path d="M102.4 716.8L153.6 768L153.6 716.8Z" fill="#7584ff" stroke="#000000"></path><path d="M153.6 716.8L153.6 768L204.8 768Z" fill="#43e5f5" stroke="#000000"></path><path d="M256 819.2L256 870.4L307.2 870.4Z" fill="#00c4ff" stroke="#000000"></path><path d="M819.2 204.8L768 153.6L768 204.8Z" fill="#43e5f5" stroke="#000000"></path><path d="M716.8 153.6L716.8 102.4L665.6 102.4Z" fill="#23dbfb" stroke="#000000"></path><path d="M819.2 204.8L768 204.8L819.2 256Z" fill="#7584ff" stroke="#000000"></path><path d="M460.8 102.4L460.8 51.2L409.6 102.4Z" fill="#00c4ff" stroke="#000000"></path><path d="M409.6 102.4L409.6 51.2L358.4 102.4Z" fill="#00c4ff" stroke="#000000"></path><path d="M358.4 102.4L358.4 51.2L307.2 102.4Z" fill="#00b7ff" stroke="#000000"></path><path d="M512 102.4L460.8 51.2L460.8 102.4Z" fill="#00c4ff" stroke="#000000"></path><path d="M512 51.2L460.8 51.2L512 102.4Z" fill="#61eeef" stroke="#000000"></path><path d="M512 51.2L512 102.4L563.2 102.4Z" fill="#99ffe4" stroke="#000000"></path><path d="M512 51.2L563.2 102.4L563.2 51.2Z" fill="#23dbfb" stroke="#000000"></path><path d="M51.2 409.6L51.2 460.8L102.4 409.6Z" fill="#00b7ff" stroke="#000000"></path><path d="M102.4 409.6L51.2 460.8L102.4 460.8Z" fill="#61eeef" stroke="#000000"></path><path d="M102.4 460.8L51.2 460.8L102.4 512Z" fill="#00d0ff" stroke="#000000"></path><path d="M102.4 512L51.2 512L102.4 563.2Z" fill="#99ffe4" stroke="#000000"></path><path d="M102.4 563.2L51.2 563.2L102.4 614.4Z" fill="#00d0ff" stroke="#000000"></path><path d="M102.4 614.4L51.2 614.4L102.4 665.6Z" fill="#00c4ff" stroke="#000000"></path><path d="M51.2 409.6L102.4 409.6L102.4 358.4Z" fill="#00c4ff" stroke="#000000"></path><path d="M204.8 204.8L153.6 204.8L204.8 256Z" fill="#00b7ff" stroke="#000000"></path><path d="M153.6 256L102.4 256L102.4 307.2Z" fill="#61eeef" stroke="#000000"></path><path d="M256 153.6L204.8 153.6L256 204.8Z" fill="#7ef7e9" stroke="#000000"></path><path d="M256 102.4L204.8 153.6L256 153.6Z" fill="#43e5f5" stroke="#000000"></path><path d="M153.6 153.6L153.6 204.8L204.8 204.8Z" fill="#23dbfb" stroke="#000000"></path><path d="M51.2 460.8L51.2 512L102.4 512Z" fill="#23dbfb" stroke="#000000"></path><path d="M563.2 51.2L563.2 102.4L614.4 102.4Z" fill="#43e5f5" stroke="#000000"></path><path d="M153.6 768L204.8 819.2L204.8 768Z" fill="#61eeef" stroke="#000000"></path><path d="M870.4 256L819.2 204.8L819.2 256Z" fill="#4c97ff" stroke="#000000"></path><path d="M870.4 512L921.6 460.8L870.4 460.8Z" fill="#7584ff" stroke="#000000"></path><path d="M870.4 460.8L921.6 460.8L870.4 409.6Z" fill="#00b7ff" stroke="#000000"></path><path d="M870.4 409.6L921.6 409.6L870.4 358.4Z" fill="#7ef7e9" stroke="#000000"></path><path d="M870.4 358.4L921.6 358.4L870.4 307.2Z" fill="#23dbfb" stroke="#000000"></path><path d="M921.6 512L921.6 460.8L870.4 512Z" fill="#00b7ff" stroke="#000000"></path><path d="M921.6 512L870.4 512L921.6 563.2Z" fill="#00d0ff" stroke="#000000"></path><path d="M870.4 512L870.4 563.2L921.6 563.2Z" fill="#23dbfb" stroke="#000000"></path><path d="M409.6 921.6L460.8 921.6L409.6 870.4Z" fill="#00d0ff" stroke="#000000"></path><path d="M409.6 870.4L460.8 921.6L460.8 870.4Z" fill="#4c97ff" stroke="#000000"></path><path d="M460.8 870.4L460.8 921.6L512 870.4Z" fill="#7584ff" stroke="#000000"></path><path d="M512 870.4L563.2 921.6L563.2 870.4Z" fill="#00c4ff" stroke="#000000"></path><path d="M563.2 870.4L614.4 921.6L614.4 870.4Z" fill="#23dbfb" stroke="#000000"></path><path d="M614.4 870.4L614.4 921.6L665.6 870.4Z" fill="#00b7ff" stroke="#000000"></path><path d="M409.6 921.6L409.6 870.4L358.4 870.4Z" fill="#00a8ff" stroke="#000000"></path><path d="M768 870.4L768 819.2L716.8 819.2Z" fill="#00a8ff" stroke="#000000"></path><path d="M716.8 819.2L768 819.2L716.8 768Z" fill="#23dbfb" stroke="#000000"></path><path d="M819.2 716.8L870.4 716.8L870.4 665.6Z" fill="#00a8ff" stroke="#000000"></path><path d="M921.6 563.2L870.4 563.2L921.6 614.4Z" fill="#61eeef" stroke="#000000"></path><path d="M768 819.2L819.2 768L768 768Z" fill="#00d0ff" stroke="#000000"></path><path d="M460.8 921.6L512 921.6L512 870.4Z" fill="#00d0ff" stroke="#000000"></path><path d="M460.8 51.2L409.6 51.2L409.6 102.4Z" fill="#23dbfb" stroke="#000000"></path><path d="M51.2 358.4L51.2 409.6L102.4 358.4Z" fill="#61eeef" stroke="#000000"></path><path d="M51.2 512L51.2 563.2L102.4 563.2Z" fill="#7584ff" stroke="#000000"></path><path d="M614.4 51.2L563.2 51.2L614.4 102.4Z" fill="#4c97ff" stroke="#000000"></path><path d="M921.6 460.8L921.6 409.6L870.4 409.6Z" fill="#00a8ff" stroke="#000000"></path><path d="M358.4 921.6L409.6 921.6L358.4 870.4Z" fill="#7ef7e9" stroke="#000000"></path><path d="M921.6 614.4L870.4 563.2L870.4 614.4Z" fill="#23dbfb" stroke="#000000"></path><path d="M512 921.6L563.2 921.6L512 870.4Z" fill="#7584ff" stroke="#000000"></path><path d="M307.2 51.2L256 102.4L307.2 102.4Z" fill="#99ffe4" stroke="#000000"></path><path d="M307.2 102.4L256 102.4L256 153.6Z" fill="#4c97ff" stroke="#000000"></path><path d="M204.8 153.6L153.6 153.6L204.8 204.8Z" fill="#43e5f5" stroke="#000000"></path><path d="M153.6 204.8L102.4 256L153.6 256Z" fill="#00b7ff" stroke="#000000"></path><path d="M102.4 307.2L51.2 358.4L102.4 358.4Z" fill="#23dbfb" stroke="#000000"></path><path d="M102.4 204.8L102.4 256L153.6 204.8Z" fill="#00b7ff" stroke="#000000"></path><path d="M768 102.4L716.8 102.4L768 153.6Z" fill="#99ffe4" stroke="#000000"></path><path d="M768 153.6L716.8 102.4L716.8 153.6Z" fill="#00c4ff" stroke="#000000"></path><path d="M665.6 102.4L614.4 51.2L614.4 102.4Z" fill="#4c97ff" stroke="#000000"></path><path d="M51.2 665.6L102.4 716.8L102.4 665.6Z" fill="#00a8ff" stroke="#000000"></path><path d="M102.4 665.6L102.4 716.8L153.6 716.8Z" fill="#7584ff" stroke="#000000"></path><path d="M153.6 768L153.6 819.2L204.8 819.2Z" fill="#4c97ff" stroke="#000000"></path><path d="M870.4 307.2L870.4 256L819.2 256Z" fill="#00b7ff" stroke="#000000"></path><path d="M819.2 204.8L819.2 153.6L768 153.6Z" fill="#43e5f5" stroke="#000000"></path><path d="M921.6 256L870.4 256L870.4 307.2Z" fill="#00c4ff" stroke="#000000"></path><path d="M204.8 819.2L256 870.4L256 819.2Z" fill="#00b7ff" stroke="#000000"></path><path d="M307.2 870.4L358.4 921.6L358.4 870.4Z" fill="#7584ff" stroke="#000000"></path><path d="M204.8 870.4L256 870.4L204.8 819.2Z" fill="#61eeef" stroke="#000000"></path><path d="M870.4 768L870.4 716.8L819.2 716.8Z" fill="#23dbfb" stroke="#000000"></path><path d="M870.4 665.6L921.6 614.4L870.4 614.4Z" fill="#61eeef" stroke="#000000"></path><path d="M870.4 768L819.2 716.8L819.2 768Z" fill="#43e5f5" stroke="#000000"></path><path d="M665.6 870.4L716.8 870.4L716.8 819.2Z" fill="#4c97ff" stroke="#000000"></path><path d="M768 819.2L819.2 819.2L819.2 768Z" fill="#61eeef" stroke="#000000"></path><path d="M716.8 921.6L716.8 870.4L665.6 870.4Z" fill="#23dbfb" stroke="#000000"></path><path d="M51.2 307.2L51.2 358.4L102.4 307.2Z" fill="#7ef7e9" stroke="#000000"></path><path d="M409.6 51.2L358.4 51.2L358.4 102.4Z" fill="#00a8ff" stroke="#000000"></path><path d="M665.6 51.2L614.4 51.2L665.6 102.4Z" fill="#61eeef" stroke="#000000"></path><path d="M51.2 563.2L51.2 614.4L102.4 614.4Z" fill="#99ffe4" stroke="#000000"></path><path d="M307.2 921.6L358.4 921.6L307.2 870.4Z" fill="#43e5f5" stroke="#000000"></path><path d="M921.6 409.6L921.6 358.4L870.4 358.4Z" fill="#00d0ff" stroke="#000000"></path><path d="M921.6 665.6L921.6 614.4L870.4 665.6Z" fill="#7584ff" stroke="#000000"></path><path d="M563.2 921.6L614.4 921.6L563.2 870.4Z" fill="#23dbfb" stroke="#000000"></path><path d="M204.8 102.4L153.6 153.6L204.8 153.6Z" fill="#7ef7e9" stroke="#000000"></path><path d="M358.4 51.2L307.2 51.2L307.2 102.4Z" fill="#00d0ff" stroke="#000000"></path><path d="M256 102.4L204.8 102.4L204.8 153.6Z" fill="#00b7ff" stroke="#000000"></path><path d="M51.2 256L51.2 307.2L102.4 256Z" fill="#61eeef" stroke="#000000"></path><path d="M102.4 256L51.2 307.2L102.4 307.2Z" fill="#00b7ff" stroke="#000000"></path><path d="M870.4 204.8L819.2 153.6L819.2 204.8Z" fill="#23dbfb" stroke="#000000"></path><path d="M716.8 102.4L665.6 51.2L665.6 102.4Z" fill="#23dbfb" stroke="#000000"></path><path d="M716.8 51.2L665.6 51.2L716.8 102.4Z" fill="#43e5f5" stroke="#000000"></path><path d="M102.4 768L153.6 819.2L153.6 768Z" fill="#99ffe4" stroke="#000000"></path><path d="M51.2 614.4L51.2 665.6L102.4 665.6Z" fill="#00c4ff" stroke="#000000"></path><path d="M102.4 716.8L102.4 768L153.6 768Z" fill="#61eeef" stroke="#000000"></path><path d="M256 921.6L307.2 870.4L256 870.4Z" fill="#43e5f5" stroke="#000000"></path><path d="M256 921.6L307.2 921.6L307.2 870.4Z" fill="#99ffe4" stroke="#000000"></path><path d="M921.6 358.4L921.6 307.2L870.4 307.2Z" fill="#00d0ff" stroke="#000000"></path><path d="M870.4 256L870.4 204.8L819.2 204.8Z" fill="#7ef7e9" stroke="#000000"></path><path d="M921.6 716.8L921.6 665.6L870.4 665.6Z" fill="#00d0ff" stroke="#000000"></path><path d="M614.4 921.6L665.6 921.6L665.6 870.4Z" fill="#00d0ff" stroke="#000000"></path><path d="M768 870.4L716.8 819.2L716.8 870.4Z" fill="#7ef7e9" stroke="#000000"></path><path d="M768 870.4L819.2 819.2L768 819.2Z" fill="#43e5f5" stroke="#000000"></path><path d="M870.4 716.8L921.6 716.8L870.4 665.6Z" fill="#00d0ff" stroke="#000000"></path><path d="M51.2 716.8L102.4 768L102.4 716.8Z" fill="#7ef7e9" stroke="#000000"></path><path d="M153.6 153.6L102.4 204.8L153.6 204.8Z" fill="#99ffe4" stroke="#000000"></path><path d="M256 51.2L204.8 102.4L256 102.4Z" fill="#7ef7e9" stroke="#000000"></path><path d="M153.6 153.6L102.4 153.6L102.4 204.8Z" fill="#61eeef" stroke="#000000"></path><path d="M819.2 153.6L768 102.4L768 153.6Z" fill="#00c4ff" stroke="#000000"></path><path d="M921.6 256L870.4 204.8L870.4 256Z" fill="#7ef7e9" stroke="#000000"></path><path d="M153.6 819.2L204.8 870.4L204.8 819.2Z" fill="#61eeef" stroke="#000000"></path><path d="M819.2 819.2L870.4 768L819.2 768Z" fill="#00d0ff" stroke="#000000"></path><path d="M716.8 921.6L768 870.4L716.8 870.4Z" fill="#00d0ff" stroke="#000000"></path><path d="M409.6 51.2L409.6 0L358.4 51.2Z" fill="#99ffe4" stroke="#000000"></path><path d="M358.4 51.2L358.4 0L307.2 51.2Z" fill="#00a8ff" stroke="#000000"></path><path d="M460.8 51.2L460.8 0L409.6 51.2Z" fill="#00c4ff" stroke="#000000"></path><path d="M512 51.2L460.8 0L460.8 51.2Z" fill="#23dbfb" stroke="#000000"></path><path d="M512 0L460.8 0L512 51.2Z" fill="#00d0ff" stroke="#000000"></path><path d="M512 0L512 51.2L563.2 51.2Z" fill="#61eeef" stroke="#000000"></path><path d="M512 0L563.2 51.2L563.2 0Z" fill="#4c97ff" stroke="#000000"></path><path d="M0 409.6L0 460.8L51.2 409.6Z" fill="#23dbfb" stroke="#000000"></path><path d="M51.2 409.6L0 460.8L51.2 460.8Z" fill="#99ffe4" stroke="#000000"></path><path d="M51.2 460.8L0 460.8L51.2 512Z" fill="#00a8ff" stroke="#000000"></path><path d="M51.2 512L0 512L51.2 563.2Z" fill="#00c4ff" stroke="#000000"></path><path d="M51.2 563.2L0 563.2L51.2 614.4Z" fill="#00d0ff" stroke="#000000"></path><path d="M51.2 614.4L0 614.4L51.2 665.6Z" fill="#61eeef" stroke="#000000"></path><path d="M0 409.6L51.2 409.6L51.2 358.4Z" fill="#7ef7e9" stroke="#000000"></path><path d="M563.2 0L563.2 51.2L614.4 51.2Z" fill="#7ef7e9" stroke="#000000"></path><path d="M0 460.8L0 512L51.2 512Z" fill="#00d0ff" stroke="#000000"></path><path d="M921.6 512L972.8 460.8L921.6 460.8Z" fill="#99ffe4" stroke="#000000"></path><path d="M921.6 460.8L972.8 460.8L921.6 409.6Z" fill="#7584ff" stroke="#000000"></path><path d="M921.6 409.6L972.8 409.6L921.6 358.4Z" fill="#23dbfb" stroke="#000000"></path><path d="M921.6 358.4L972.8 358.4L921.6 307.2Z" fill="#00a8ff" stroke="#000000"></path><path d="M972.8 512L972.8 460.8L921.6 512Z" fill="#7584ff" stroke="#000000"></path><path d="M972.8 512L921.6 512L921.6 563.2Z" fill="#00a8ff" stroke="#000000"></path><path d="M972.8 512L921.6 563.2L972.8 563.2Z" fill="#00a8ff" stroke="#000000"></path><path d="M409.6 972.8L409.6 921.6L358.4 921.6Z" fill="#23dbfb" stroke="#000000"></path><path d="M409.6 972.8L460.8 972.8L409.6 921.6Z" fill="#00a8ff" stroke="#000000"></path><path d="M409.6 921.6L460.8 972.8L460.8 921.6Z" fill="#43e5f5" stroke="#000000"></path><path d="M460.8 921.6L460.8 972.8L512 921.6Z" fill="#00a8ff" stroke="#000000"></path><path d="M512 921.6L512 972.8L563.2 921.6Z" fill="#7584ff" stroke="#000000"></path><path d="M563.2 921.6L563.2 972.8L614.4 921.6Z" fill="#00c4ff" stroke="#000000"></path><path d="M614.4 921.6L665.6 972.8L665.6 921.6Z" fill="#43e5f5" stroke="#000000"></path><path d="M460.8 972.8L512 972.8L512 921.6Z" fill="#99ffe4" stroke="#000000"></path><path d="M972.8 563.2L921.6 563.2L921.6 614.4Z" fill="#99ffe4" stroke="#000000"></path><path d="M102.4 204.8L51.2 256L102.4 256Z" fill="#4c97ff" stroke="#000000"></path><path d="M0 358.4L0 409.6L51.2 358.4Z" fill="#7ef7e9" stroke="#000000"></path><path d="M307.2 0L256 51.2L307.2 51.2Z" fill="#7584ff" stroke="#000000"></path><path d="M307.2 51.2L256 51.2L256 102.4Z" fill="#61eeef" stroke="#000000"></path><path d="M460.8 0L409.6 0L409.6 51.2Z" fill="#00c4ff" stroke="#000000"></path><path d="M0 358.4L51.2 358.4L51.2 307.2Z" fill="#00d0ff" stroke="#000000"></path><path d="M614.4 0L563.2 0L614.4 51.2Z" fill="#99ffe4" stroke="#000000"></path><path d="M0 512L0 563.2L51.2 563.2Z" fill="#7ef7e9" stroke="#000000"></path><path d="M972.8 307.2L921.6 256L921.6 307.2Z" fill="#00a8ff" stroke="#000000"></path><path d="M921.6 307.2L921.6 256L870.4 307.2Z" fill="#4c97ff" stroke="#000000"></path><path d="M0 665.6L51.2 716.8L51.2 665.6Z" fill="#7ef7e9" stroke="#000000"></path><path d="M51.2 665.6L51.2 716.8L102.4 716.8Z" fill="#99ffe4" stroke="#000000"></path><path d="M102.4 768L102.4 819.2L153.6 819.2Z" fill="#00d0ff" stroke="#000000"></path><path d="M153.6 819.2L153.6 870.4L204.8 870.4Z" fill="#7584ff" stroke="#000000"></path><path d="M819.2 102.4L768 102.4L819.2 153.6Z" fill="#43e5f5" stroke="#000000"></path><path d="M768 51.2L716.8 51.2L768 102.4Z" fill="#00d0ff" stroke="#000000"></path><path d="M768 102.4L716.8 51.2L716.8 102.4Z" fill="#7ef7e9" stroke="#000000"></path><path d="M665.6 51.2L614.4 0L614.4 51.2Z" fill="#61eeef" stroke="#000000"></path><path d="M204.8 870.4L256 921.6L256 870.4Z" fill="#00b7ff" stroke="#000000"></path><path d="M358.4 972.8L409.6 972.8L358.4 921.6Z" fill="#7ef7e9" stroke="#000000"></path><path d="M870.4 768L921.6 716.8L870.4 716.8Z" fill="#61eeef" stroke="#000000"></path><path d="M972.8 614.4L972.8 563.2L921.6 614.4Z" fill="#61eeef" stroke="#000000"></path><path d="M665.6 921.6L716.8 921.6L665.6 870.4Z" fill="#00d0ff" stroke="#000000"></path><path d="M665.6 972.8L716.8 921.6L665.6 921.6Z" fill="#7ef7e9" stroke="#000000"></path><path d="M358.4 972.8L358.4 921.6L307.2 921.6Z" fill="#00b7ff" stroke="#000000"></path><path d="M972.8 460.8L972.8 409.6L921.6 409.6Z" fill="#00c4ff" stroke="#000000"></path><path d="M972.8 614.4L921.6 614.4L972.8 665.6Z" fill="#00a8ff" stroke="#000000"></path><path d="M512 972.8L563.2 972.8L563.2 921.6Z" fill="#43e5f5" stroke="#000000"></path><path d="M0 307.2L0 358.4L51.2 307.2Z" fill="#61eeef" stroke="#000000"></path><path d="M409.6 0L358.4 0L358.4 51.2Z" fill="#61eeef" stroke="#000000"></path><path d="M0 563.2L0 614.4L51.2 614.4Z" fill="#43e5f5" stroke="#000000"></path><path d="M665.6 0L614.4 0L665.6 51.2Z" fill="#00d0ff" stroke="#000000"></path><path d="M972.8 409.6L972.8 358.4L921.6 358.4Z" fill="#4c97ff" stroke="#000000"></path><path d="M307.2 972.8L358.4 972.8L307.2 921.6Z" fill="#4c97ff" stroke="#000000"></path><path d="M972.8 665.6L921.6 614.4L921.6 665.6Z" fill="#43e5f5" stroke="#000000"></path><path d="M563.2 972.8L614.4 972.8L614.4 921.6Z" fill="#61eeef" stroke="#000000"></path><path d="M204.8 102.4L153.6 102.4L153.6 153.6Z" fill="#7ef7e9" stroke="#000000"></path><path d="M102.4 204.8L51.2 204.8L51.2 256Z" fill="#00b7ff" stroke="#000000"></path><path d="M204.8 51.2L153.6 102.4L204.8 102.4Z" fill="#4c97ff" stroke="#000000"></path><path d="M153.6 102.4L102.4 153.6L153.6 153.6Z" fill="#7584ff" stroke="#000000"></path><path d="M870.4 153.6L819.2 102.4L819.2 153.6Z" fill="#00c4ff" stroke="#000000"></path><path d="M870.4 153.6L819.2 153.6L870.4 204.8Z" fill="#4c97ff" stroke="#000000"></path><path d="M51.2 768L102.4 819.2L102.4 768Z" fill="#43e5f5" stroke="#000000"></path><path d="M204.8 870.4L204.8 921.6L256 921.6Z" fill="#00b7ff" stroke="#000000"></path><path d="M102.4 819.2L153.6 870.4L153.6 819.2Z" fill="#99ffe4" stroke="#000000"></path><path d="M256 921.6L307.2 972.8L307.2 921.6Z" fill="#23dbfb" stroke="#000000"></path><path d="M921.6 204.8L870.4 204.8L921.6 256Z" fill="#43e5f5" stroke="#000000"></path><path d="M921.6 204.8L870.4 153.6L870.4 204.8Z" fill="#43e5f5" stroke="#000000"></path><path d="M768 921.6L768 870.4L716.8 921.6Z" fill="#99ffe4" stroke="#000000"></path><path d="M819.2 921.6L819.2 870.4L768 870.4Z" fill="#00a8ff" stroke="#000000"></path><path d="M768 870.4L819.2 870.4L819.2 819.2Z" fill="#23dbfb" stroke="#000000"></path><path d="M819.2 819.2L870.4 819.2L870.4 768Z" fill="#4c97ff" stroke="#000000"></path><path d="M870.4 768L921.6 768L921.6 716.8Z" fill="#7584ff" stroke="#000000"></path><path d="M819.2 870.4L870.4 819.2L819.2 819.2Z" fill="#4c97ff" stroke="#000000"></path><path d="M921.6 716.8L972.8 665.6L921.6 665.6Z" fill="#00a8ff" stroke="#000000"></path><path d="M0 256L0 307.2L51.2 256Z" fill="#00d0ff" stroke="#000000"></path><path d="M51.2 256L0 307.2L51.2 307.2Z" fill="#23dbfb" stroke="#000000"></path><path d="M358.4 0L307.2 0L307.2 51.2Z" fill="#7584ff" stroke="#000000"></path><path d="M256 51.2L204.8 51.2L204.8 102.4Z" fill="#7ef7e9" stroke="#000000"></path><path d="M256 0L204.8 51.2L256 51.2Z" fill="#61eeef" stroke="#000000"></path><path d="M819.2 102.4L768 51.2L768 102.4Z" fill="#4c97ff" stroke="#000000"></path><path d="M716.8 51.2L665.6 0L665.6 51.2Z" fill="#23dbfb" stroke="#000000"></path><path d="M51.2 716.8L51.2 768L102.4 768Z" fill="#99ffe4" stroke="#000000"></path><path d="M0 716.8L51.2 768L51.2 716.8Z" fill="#43e5f5" stroke="#000000"></path><path d="M102.4 153.6L51.2 204.8L102.4 204.8Z" fill="#43e5f5" stroke="#000000"></path><path d="M768 972.8L768 921.6L716.8 921.6Z" fill="#00d0ff" stroke="#000000"></path><path d="M716.8 0L665.6 0L716.8 51.2Z" fill="#00d0ff" stroke="#000000"></path><path d="M972.8 358.4L972.8 307.2L921.6 307.2Z" fill="#00d0ff" stroke="#000000"></path><path d="M0 614.4L0 665.6L51.2 665.6Z" fill="#7ef7e9" stroke="#000000"></path><path d="M972.8 256L921.6 204.8L921.6 256Z" fill="#61eeef" stroke="#000000"></path><path d="M256 972.8L307.2 972.8L256 921.6Z" fill="#61eeef" stroke="#000000"></path><path d="M153.6 870.4L204.8 921.6L204.8 870.4Z" fill="#7ef7e9" stroke="#000000"></path><path d="M921.6 819.2L921.6 768L870.4 768Z" fill="#61eeef" stroke="#000000"></path><path d="M972.8 716.8L972.8 665.6L921.6 716.8Z" fill="#23dbfb" stroke="#000000"></path><path d="M614.4 972.8L665.6 972.8L614.4 921.6Z" fill="#4c97ff" stroke="#000000"></path><path d="M972.8 512L1024 512L972.8 460.8Z" fill="#00a8ff" stroke="#000000"></path><path d="M972.8 460.8L1024 460.8L972.8 409.6Z" fill="#00a8ff" stroke="#000000"></path><path d="M972.8 409.6L1024 409.6L972.8 358.4Z" fill="#99ffe4" stroke="#000000"></path><path d="M972.8 358.4L1024 358.4L972.8 307.2Z" fill="#00d0ff" stroke="#000000"></path><path d="M1024 563.2L1024 512L972.8 512Z" fill="#00b7ff" stroke="#000000"></path><path d="M1024 563.2L972.8 512L972.8 563.2Z" fill="#00d0ff" stroke="#000000"></path><path d="M1024 563.2L972.8 563.2L1024 614.4Z" fill="#7584ff" stroke="#000000"></path><path d="M51.2 204.8L0 256L51.2 256Z" fill="#00b7ff" stroke="#000000"></path><path d="M1024 512L1024 460.8L972.8 460.8Z" fill="#99ffe4" stroke="#000000"></path><path d="M512 972.8L563.2 1024L563.2 972.8Z" fill="#23dbfb" stroke="#000000"></path><path d="M563.2 972.8L614.4 1024L614.4 972.8Z" fill="#23dbfb" stroke="#000000"></path><path d="M614.4 972.8L614.4 1024L665.6 972.8Z" fill="#61eeef" stroke="#000000"></path><path d="M460.8 972.8L512 1024L512 972.8Z" fill="#00c4ff" stroke="#000000"></path><path d="M460.8 1024L512 1024L460.8 972.8Z" fill="#00a8ff" stroke="#000000"></path><path d="M460.8 1024L460.8 972.8L409.6 972.8Z" fill="#7ef7e9" stroke="#000000"></path><path d="M460.8 1024L409.6 972.8L409.6 1024Z" fill="#43e5f5" stroke="#000000"></path><path d="M307.2 0L256 0L256 51.2Z" fill="#23dbfb" stroke="#000000"></path><path d="M409.6 1024L409.6 972.8L358.4 972.8Z" fill="#00b7ff" stroke="#000000"></path><path d="M204.8 921.6L256 972.8L256 921.6Z" fill="#23dbfb" stroke="#000000"></path><path d="M358.4 1024L409.6 1024L358.4 972.8Z" fill="#23dbfb" stroke="#000000"></path><path d="M204.8 972.8L256 972.8L204.8 921.6Z" fill="#00a8ff" stroke="#000000"></path><path d="M0 665.6L0 716.8L51.2 716.8Z" fill="#4c97ff" stroke="#000000"></path><path d="M51.2 819.2L102.4 870.4L102.4 819.2Z" fill="#99ffe4" stroke="#000000"></path><path d="M102.4 819.2L102.4 870.4L153.6 870.4Z" fill="#61eeef" stroke="#000000"></path><path d="M972.8 307.2L972.8 256L921.6 256Z" fill="#00b7ff" stroke="#000000"></path><path d="M921.6 153.6L870.4 102.4L870.4 153.6Z" fill="#43e5f5" stroke="#000000"></path><path d="M1024 256L972.8 256L972.8 307.2Z" fill="#99ffe4" stroke="#000000"></path><path d="M768 51.2L716.8 0L716.8 51.2Z" fill="#00c4ff" stroke="#000000"></path><path d="M768 0L716.8 0L768 51.2Z" fill="#23dbfb" stroke="#000000"></path><path d="M819.2 51.2L768 51.2L819.2 102.4Z" fill="#23dbfb" stroke="#000000"></path><path d="M972.8 768L921.6 716.8L921.6 768Z" fill="#00d0ff" stroke="#000000"></path><path d="M972.8 768L972.8 716.8L921.6 716.8Z" fill="#7ef7e9" stroke="#000000"></path><path d="M1024 614.4L972.8 563.2L972.8 614.4Z" fill="#7ef7e9" stroke="#000000"></path><path d="M716.8 1024L716.8 972.8L665.6 972.8Z" fill="#61eeef" stroke="#000000"></path><path d="M665.6 972.8L716.8 972.8L716.8 921.6Z" fill="#00b7ff" stroke="#000000"></path><path d="M870.4 921.6L870.4 870.4L819.2 870.4Z" fill="#00d0ff" stroke="#000000"></path><path d="M1024 614.4L972.8 614.4L972.8 665.6Z" fill="#99ffe4" stroke="#000000"></path><path d="M358.4 1024L358.4 972.8L307.2 972.8Z" fill="#00a8ff" stroke="#000000"></path><path d="M512 1024L563.2 1024L512 972.8Z" fill="#00c4ff" stroke="#000000"></path><path d="M102.4 153.6L51.2 153.6L51.2 204.8Z" fill="#4c97ff" stroke="#000000"></path><path d="M51.2 204.8L0 204.8L0 256Z" fill="#7ef7e9" stroke="#000000"></path><path d="M153.6 102.4L102.4 102.4L102.4 153.6Z" fill="#43e5f5" stroke="#000000"></path><path d="M153.6 51.2L102.4 102.4L153.6 102.4Z" fill="#23dbfb" stroke="#000000"></path><path d="M153.6 51.2L153.6 102.4L204.8 51.2Z" fill="#00d0ff" stroke="#000000"></path><path d="M1024 460.8L1024 409.6L972.8 409.6Z" fill="#61eeef" stroke="#000000"></path><path d="M51.2 819.2L102.4 819.2L51.2 768Z" fill="#00b7ff" stroke="#000000"></path><path d="M153.6 870.4L153.6 921.6L204.8 921.6Z" fill="#00d0ff" stroke="#000000"></path><path d="M921.6 153.6L870.4 153.6L921.6 204.8Z" fill="#00c4ff" stroke="#000000"></path><path d="M870.4 153.6L870.4 102.4L819.2 102.4Z" fill="#43e5f5" stroke="#000000"></path><path d="M819.2 921.6L768 870.4L768 921.6Z" fill="#00d0ff" stroke="#000000"></path><path d="M819.2 870.4L870.4 870.4L870.4 819.2Z" fill="#61eeef" stroke="#000000"></path><path d="M870.4 819.2L921.6 819.2L870.4 768Z" fill="#00b7ff" stroke="#000000"></path><path d="M102.4 102.4L51.2 153.6L102.4 153.6Z" fill="#00a8ff" stroke="#000000"></path><path d="M204.8 0L153.6 51.2L204.8 51.2Z" fill="#00a8ff" stroke="#000000"></path><path d="M102.4 870.4L153.6 921.6L153.6 870.4Z" fill="#00d0ff" stroke="#000000"></path><path d="M870.4 102.4L819.2 51.2L819.2 102.4Z" fill="#7584ff" stroke="#000000"></path><path d="M0 768L51.2 819.2L51.2 768Z" fill="#4c97ff" stroke="#000000"></path><path d="M972.8 204.8L921.6 153.6L921.6 204.8Z" fill="#7ef7e9" stroke="#000000"></path><path d="M768 972.8L819.2 921.6L768 921.6Z" fill="#7ef7e9" stroke="#000000"></path><path d="M921.6 870.4L921.6 819.2L870.4 819.2Z" fill="#61eeef" stroke="#000000"></path><path d="M1024 665.6L1024 614.4L972.8 665.6Z" fill="#99ffe4" stroke="#000000"></path><path d="M1024 409.6L1024 358.4L972.8 358.4Z" fill="#99ffe4" stroke="#000000"></path><path d="M563.2 1024L614.4 1024L563.2 972.8Z" fill="#61eeef" stroke="#000000"></path><path d="M307.2 1024L358.4 1024L307.2 972.8Z" fill="#99ffe4" stroke="#000000"></path><path d="M256 0L204.8 0L204.8 51.2Z" fill="#7584ff" stroke="#000000"></path><path d="M51.2 153.6L0 204.8L51.2 204.8Z" fill="#61eeef" stroke="#000000"></path><path d="M0 716.8L0 768L51.2 768Z" fill="#99ffe4" stroke="#000000"></path><path d="M819.2 51.2L768 0L768 51.2Z" fill="#4c97ff" stroke="#000000"></path><path d="M870.4 921.6L921.6 870.4L870.4 870.4Z" fill="#00a8ff" stroke="#000000"></path><path d="M716.8 972.8L768 972.8L716.8 921.6Z" fill="#00a8ff" stroke="#000000"></path><path d="M716.8 1024L768 972.8L716.8 972.8Z" fill="#00b7ff" stroke="#000000"></path><path d="M153.6 921.6L204.8 972.8L204.8 921.6Z" fill="#61eeef" stroke="#000000"></path><path d="M256 1024L307.2 1024L307.2 972.8Z" fill="#4c97ff" stroke="#000000"></path><path d="M153.6 972.8L204.8 972.8L153.6 921.6Z" fill="#00b7ff" stroke="#000000"></path><path d="M921.6 819.2L972.8 768L921.6 768Z" fill="#4c97ff" stroke="#000000"></path><path d="M1024 716.8L1024 665.6L972.8 665.6Z" fill="#99ffe4" stroke="#000000"></path><path d="M972.8 819.2L972.8 768L921.6 819.2Z" fill="#00b7ff" stroke="#000000"></path><path d="M1024 256L972.8 204.8L972.8 256Z" fill="#23dbfb" stroke="#000000"></path><path d="M972.8 256L972.8 204.8L921.6 204.8Z" fill="#00a8ff" stroke="#000000"></path><path d="M921.6 153.6L921.6 102.4L870.4 102.4Z" fill="#00d0ff" stroke="#000000"></path><path d="M256 1024L307.2 972.8L256 972.8Z" fill="#43e5f5" stroke="#000000"></path><path d="M1024 358.4L1024 307.2L972.8 307.2Z" fill="#00d0ff" stroke="#000000"></path><path d="M614.4 1024L665.6 1024L665.6 972.8Z" fill="#23dbfb" stroke="#000000"></path><path d="M1024 716.8L972.8 665.6L972.8 716.8Z" fill="#43e5f5" stroke="#000000"></path><path d="M102.4 102.4L51.2 102.4L51.2 153.6Z" fill="#43e5f5" stroke="#000000"></path><path d="M51.2 153.6L0 153.6L0 204.8Z" fill="#7ef7e9" stroke="#000000"></path><path d="M153.6 51.2L102.4 51.2L102.4 102.4Z" fill="#7584ff" stroke="#000000"></path><path d="M153.6 0L102.4 51.2L153.6 51.2Z" fill="#7584ff" stroke="#000000"></path><path d="M102.4 51.2L51.2 102.4L102.4 102.4Z" fill="#7ef7e9" stroke="#000000"></path><path d="M51.2 870.4L102.4 921.6L102.4 870.4Z" fill="#7ef7e9" stroke="#000000"></path><path d="M102.4 870.4L102.4 921.6L153.6 921.6Z" fill="#00d0ff" stroke="#000000"></path><path d="M51.2 870.4L102.4 870.4L51.2 819.2Z" fill="#00a8ff" stroke="#000000"></path><path d="M972.8 153.6L921.6 102.4L921.6 153.6Z" fill="#00d0ff" stroke="#000000"></path><path d="M870.4 102.4L870.4 51.2L819.2 51.2Z" fill="#00a8ff" stroke="#000000"></path><path d="M819.2 51.2L819.2 0L768 0Z" fill="#61eeef" stroke="#000000"></path><path d="M0 819.2L51.2 870.4L51.2 819.2Z" fill="#00a8ff" stroke="#000000"></path><path d="M921.6 102.4L870.4 51.2L870.4 102.4Z" fill="#23dbfb" stroke="#000000"></path><path d="M870.4 870.4L921.6 870.4L870.4 819.2Z" fill="#23dbfb" stroke="#000000"></path><path d="M870.4 921.6L819.2 870.4L819.2 921.6Z" fill="#00b7ff" stroke="#000000"></path><path d="M819.2 972.8L870.4 921.6L819.2 921.6Z" fill="#4c97ff" stroke="#000000"></path><path d="M204.8 1024L256 1024L204.8 972.8Z" fill="#00b7ff" stroke="#000000"></path><path d="M204.8 972.8L256 1024L256 972.8Z" fill="#99ffe4" stroke="#000000"></path><path d="M972.8 204.8L972.8 153.6L921.6 153.6Z" fill="#00b7ff" stroke="#000000"></path><path d="M1024 307.2L1024 256L972.8 307.2Z" fill="#00b7ff" stroke="#000000"></path><path d="M1024 768L1024 716.8L972.8 768Z" fill="#99ffe4" stroke="#000000"></path><path d="M972.8 768L1024 716.8L972.8 716.8Z" fill="#00b7ff" stroke="#000000"></path><path d="M665.6 1024L716.8 1024L665.6 972.8Z" fill="#43e5f5" stroke="#000000"></path><path d="M768 972.8L819.2 972.8L819.2 921.6Z" fill="#7ef7e9" stroke="#000000"></path><path d="M51.2 102.4L0 153.6L51.2 153.6Z" fill="#61eeef" stroke="#000000"></path><path d="M204.8 0L153.6 0L153.6 51.2Z" fill="#00b7ff" stroke="#000000"></path><path d="M102.4 921.6L153.6 972.8L153.6 921.6Z" fill="#99ffe4" stroke="#000000"></path><path d="M102.4 972.8L153.6 972.8L102.4 921.6Z" fill="#4c97ff" stroke="#000000"></path><path d="M0 768L0 819.2L51.2 819.2Z" fill="#7584ff" stroke="#000000"></path><path d="M870.4 51.2L819.2 0L819.2 51.2Z" fill="#00d0ff" stroke="#000000"></path><path d="M1024 204.8L972.8 153.6L972.8 204.8Z" fill="#4c97ff" stroke="#000000"></path><path d="M921.6 102.4L921.6 51.2L870.4 51.2Z" fill="#4c97ff" stroke="#000000"></path><path d="M921.6 870.4L972.8 819.2L921.6 819.2Z" fill="#43e5f5" stroke="#000000"></path><path d="M819.2 1024L819.2 972.8L768 972.8Z" fill="#00d0ff" stroke="#000000"></path><path d="M1024 819.2L1024 768L972.8 768Z" fill="#00c4ff" stroke="#000000"></path><path d="M716.8 1024L768 1024L768 972.8Z" fill="#00a8ff" stroke="#000000"></path><path d="M153.6 972.8L204.8 1024L204.8 972.8Z" fill="#4c97ff" stroke="#000000"></path><path d="M1024 256L1024 204.8L972.8 204.8Z" fill="#00c4ff" stroke="#000000"></path><path d="M102.4 51.2L51.2 51.2L51.2 102.4Z" fill="#23dbfb" stroke="#000000"></path><path d="M51.2 102.4L0 102.4L0 153.6Z" fill="#99ffe4" stroke="#000000"></path><path d="M102.4 0L51.2 51.2L102.4 51.2Z" fill="#7584ff" stroke="#000000"></path><path d="M0 870.4L51.2 921.6L51.2 870.4Z" fill="#61eeef" stroke="#000000"></path><path d="M51.2 870.4L51.2 921.6L102.4 921.6Z" fill="#00b7ff" stroke="#000000"></path><path d="M153.6 972.8L153.6 1024L204.8 1024Z" fill="#00d0ff" stroke="#000000"></path><path d="M972.8 102.4L921.6 51.2L921.6 102.4Z" fill="#4c97ff" stroke="#000000"></path><path d="M870.4 51.2L870.4 0L819.2 0Z" fill="#00d0ff" stroke="#000000"></path><path d="M972.8 102.4L921.6 102.4L972.8 153.6Z" fill="#43e5f5" stroke="#000000"></path><path d="M870.4 972.8L870.4 921.6L819.2 972.8Z" fill="#4c97ff" stroke="#000000"></path><path d="M921.6 972.8L921.6 921.6L870.4 921.6Z" fill="#4c97ff" stroke="#000000"></path><path d="M870.4 921.6L921.6 921.6L921.6 870.4Z" fill="#00b7ff" stroke="#000000"></path><path d="M921.6 870.4L972.8 870.4L972.8 819.2Z" fill="#43e5f5" stroke="#000000"></path><path d="M972.8 819.2L1024 819.2L972.8 768Z" fill="#7ef7e9" stroke="#000000"></path><path d="M51.2 51.2L0 102.4L51.2 102.4Z" fill="#7ef7e9" stroke="#000000"></path><path d="M153.6 0L102.4 0L102.4 51.2Z" fill="#00d0ff" stroke="#000000"></path><path d="M51.2 921.6L102.4 972.8L102.4 921.6Z" fill="#7ef7e9" stroke="#000000"></path><path d="M921.6 51.2L870.4 0L870.4 51.2Z" fill="#61eeef" stroke="#000000"></path><path d="M0 819.2L0 870.4L51.2 870.4Z" fill="#00d0ff" stroke="#000000"></path><path d="M51.2 921.6L51.2 972.8L102.4 972.8Z" fill="#23dbfb" stroke="#000000"></path><path d="M1024 153.6L972.8 102.4L972.8 153.6Z" fill="#23dbfb" stroke="#000000"></path><path d="M921.6 51.2L921.6 0L870.4 0Z" fill="#7584ff" stroke="#000000"></path><path d="M870.4 1024L870.4 972.8L819.2 972.8Z" fill="#00d0ff" stroke="#000000"></path><path d="M972.8 921.6L921.6 870.4L921.6 921.6Z" fill="#7584ff" stroke="#000000"></path><path d="M972.8 921.6L972.8 870.4L921.6 870.4Z" fill="#00a8ff" stroke="#000000"></path><path d="M102.4 972.8L153.6 1024L153.6 972.8Z" fill="#4c97ff" stroke="#000000"></path><path d="M1024 204.8L1024 153.6L972.8 153.6Z" fill="#7584ff" stroke="#000000"></path><path d="M1024 870.4L1024 819.2L972.8 819.2Z" fill="#00b7ff" stroke="#000000"></path><path d="M768 1024L819.2 1024L768 972.8Z" fill="#00c4ff" stroke="#000000"></path><path d="M972.8 51.2L921.6 51.2L972.8 102.4Z" fill="#00d0ff" stroke="#000000"></path><path d="M972.8 51.2L921.6 0L921.6 51.2Z" fill="#23dbfb" stroke="#000000"></path><path d="M0 870.4L0 921.6L51.2 921.6Z" fill="#23dbfb" stroke="#000000"></path><path d="M102.4 972.8L102.4 1024L153.6 1024Z" fill="#00c4ff" stroke="#000000"></path><path d="M102.4 0L51.2 0L51.2 51.2Z" fill="#00d0ff" stroke="#000000"></path><path d="M51.2 51.2L0 51.2L0 102.4Z" fill="#43e5f5" stroke="#000000"></path><path d="M51.2 0L0 51.2L51.2 51.2Z" fill="#00b7ff" stroke="#000000"></path><path d="M1024 102.4L972.8 51.2L972.8 102.4Z" fill="#7ef7e9" stroke="#000000"></path><path d="M0 921.6L51.2 972.8L51.2 921.6Z" fill="#00b7ff" stroke="#000000"></path><path d="M870.4 1024L921.6 972.8L870.4 972.8Z" fill="#23dbfb" stroke="#000000"></path><path d="M870.4 972.8L921.6 972.8L870.4 921.6Z" fill="#00c4ff" stroke="#000000"></path><path d="M972.8 870.4L1024 870.4L972.8 819.2Z" fill="#43e5f5" stroke="#000000"></path><path d="M921.6 972.8L972.8 921.6L921.6 921.6Z" fill="#00c4ff" stroke="#000000"></path><path d="M51.2 972.8L102.4 1024L102.4 972.8Z" fill="#7ef7e9" stroke="#000000"></path><path d="M1024 153.6L1024 102.4L972.8 102.4Z" fill="#7ef7e9" stroke="#000000"></path><path d="M972.8 921.6L1024 870.4L972.8 870.4Z" fill="#00d0ff" stroke="#000000"></path><path d="M819.2 1024L870.4 1024L819.2 972.8Z" fill="#61eeef" stroke="#000000"></path><path d="M51.2 0L0 0L0 51.2Z" fill="#4c97ff" stroke="#000000"></path><path d="M0 921.6L0 972.8L51.2 972.8Z" fill="#99ffe4" stroke="#000000"></path><path d="M51.2 972.8L51.2 1024L102.4 1024Z" fill="#99ffe4" stroke="#000000"></path><path d="M972.8 51.2L972.8 0L921.6 0Z" fill="#00d0ff" stroke="#000000"></path><path d="M1024 51.2L972.8 0L972.8 51.2Z" fill="#00d0ff" stroke="#000000"></path><path d="M972.8 1024L972.8 972.8L921.6 972.8Z" fill="#99ffe4" stroke="#000000"></path><path d="M921.6 972.8L972.8 972.8L972.8 921.6Z" fill="#23dbfb" stroke="#000000"></path><path d="M972.8 921.6L1024 921.6L1024 870.4Z" fill="#7584ff" stroke="#000000"></path><path d="M0 972.8L51.2 1024L51.2 972.8Z" fill="#7ef7e9" stroke="#000000"></path><path d="M1024 102.4L1024 51.2L972.8 51.2Z" fill="#00a8ff" stroke="#000000"></path><path d="M1024 972.8L1024 921.6L972.8 921.6Z" fill="#61eeef" stroke="#000000"></path><path d="M870.4 1024L921.6 1024L921.6 972.8Z" fill="#00c4ff" stroke="#000000"></path><path d="M0 972.8L0 1024L51.2 1024Z" fill="#4c97ff" stroke="#000000"></path><path d="M1024 51.2L1024 0L972.8 0Z" fill="#00d0ff" stroke="#000000"></path><path d="M972.8 972.8L1024 972.8L972.8 921.6Z" fill="#23dbfb" stroke="#000000"></path><path d="M972.8 1024L1024 972.8L972.8 972.8Z" fill="#00a8ff" stroke="#000000"></path><path d="M921.6 1024L972.8 1024L921.6 972.8Z" fill="#23dbfb" stroke="#000000"></path><path d="M972.8 1024L1024 1024L1024 972.8Z" fill="#99ffe4" stroke="#000000"></path></g></svg>