<svg id="visual" viewBox="0 0 1024 1024" width="1024" height="1024" xmlns="http://www.w3.org/2000/svg" xmlns:xlink="http://www.w3.org/1999/xlink" version="1.1"><rect x="0" y="0" width="1024" height="1024" fill="#034b40"></rect><path d="M0 409L102 455L205 418L307 388L410 426L512 424L614 357L717 368L819 419L922 413L1024 428L1024 1025L922 1025L819 1025L717 1025L614 1025L512 1025L410 1025L307 1025L205 1025L102 1025L0 1025Z" fill="#00b08a"></path><path d="M0 456L102 479L205 440L307 523L410 492L512 535L614 502L717 454L819 436L922 506L1024 519L1024 1025L922 1025L819 1025L717 1025L614 1025L512 1025L410 1025L307 1025L205 1025L102 1025L0 1025Z" fill="#06a077"></path><path d="M0 506L102 539L205 576L307 540L410 574L512 544L614 569L717 569L819 529L922 509L1024 536L1024 1025L922 1025L819 1025L717 1025L614 1025L512 1025L410 1025L307 1025L205 1025L102 1025L0 1025Z" fill="#099165"></path><path d="M0 640L102 615L205 583L307 622L410 563L512 626L614 603L717 566L819 627L922 570L1024 592L1024 1025L922 1025L819 1025L717 1025L614 1025L512 1025L410 1025L307 1025L205 1025L102 1025L0 1025Z" fill="#0a8254"></path><path d="M0 660L102 686L205 651L307 680L410 650L512 667L614 710L717 682L819 657L922 700L1024 635L1024 1025L922 1025L819 1025L717 1025L614 1025L512 1025L410 1025L307 1025L205 1025L102 1025L0 1025Z" fill="#0a7344"></path><path d="M0 716L102 732L205 755L307 752L410 769L512 725L614 771L717 732L819 771L922 735L1024 767L1024 1025L922 1025L819 1025L717 1025L614 1025L512 1025L410 1025L307 1025L205 1025L102 1025L0 1025Z" fill="#086434"></path><path d="M0 809L102 808L205 807L307 776L410 800L512 783L614 804L717 777L819 817L922 809L1024 785L1024 1025L922 1025L819 1025L717 1025L614 1025L512 1025L410 1025L307 1025L205 1025L102 1025L0 1025Z" fill="#065625"></path><path d="M0 859L102 853L205 871L307 889L410 866L512 883L614 878L717 849L819 881L922 848L1024 879L1024 1025L922 1025L819 1025L717 1025L614 1025L512 1025L410 1025L307 1025L205 1025L102 1025L0 1025Z" fill="#034816"></path><path d="M0 916L102 924L205 919L307 941L410 919L512 917L614 919L717 927L819 914L922 937L1024 916L1024 1025L922 1025L819 1025L717 1025L614 1025L512 1025L410 1025L307 1025L205 1025L102 1025L0 1025Z" fill="#003b07"></path></svg>