<svg id="visual" viewBox="0 0 1024 1024" width="1024" height="1024" xmlns="http://www.w3.org/2000/svg" xmlns:xlink="http://www.w3.org/1999/xlink" version="1.1"><rect x="0" y="0" width="1024" height="1024" fill="#021406"></rect><defs><linearGradient id="grad1_0" x1="0%" y1="0%" x2="100%" y2="100%"><stop offset="30%" stop-color="#06ffc3" stop-opacity="1"></stop><stop offset="70%" stop-color="#06ffc3" stop-opacity="1"></stop></linearGradient></defs><defs><linearGradient id="grad1_1" x1="0%" y1="0%" x2="100%" y2="100%"><stop offset="30%" stop-color="#06ffc3" stop-opacity="1"></stop><stop offset="70%" stop-color="#2b7e58" stop-opacity="1"></stop></linearGradient></defs><defs><linearGradient id="grad1_2" x1="0%" y1="0%" x2="100%" y2="100%"><stop offset="30%" stop-color="#021406" stop-opacity="1"></stop><stop offset="70%" stop-color="#2b7e58" stop-opacity="1"></stop></linearGradient></defs><defs><linearGradient id="grad2_0" x1="0%" y1="0%" x2="100%" y2="100%"><stop offset="30%" stop-color="#06ffc3" stop-opacity="1"></stop><stop offset="70%" stop-color="#06ffc3" stop-opacity="1"></stop></linearGradient></defs><defs><linearGradient id="grad2_1" x1="0%" y1="0%" x2="100%" y2="100%"><stop offset="30%" stop-color="#2b7e58" stop-opacity="1"></stop><stop offset="70%" stop-color="#06ffc3" stop-opacity="1"></stop></linearGradient></defs><defs><linearGradient id="grad2_2" x1="0%" y1="0%" x2="100%" y2="100%"><stop offset="30%" stop-color="#2b7e58" stop-opacity="1"></stop><stop offset="70%" stop-color="#021406" stop-opacity="1"></stop></linearGradient></defs><g transform="translate(1024, 0)"><path d="M0 470.7C-11.7 403.8 -23.4 336.9 -40 329.6C-56.6 322.3 -78.1 374.5 -96.2 390.3C-114.3 406.1 -129.2 385.4 -136.5 360C-143.9 334.5 -143.8 304.2 -156.6 298.4C-169.4 292.6 -195.2 311.1 -225 325.9C-254.7 340.7 -288.5 351.7 -303.7 342.8C-318.9 334 -315.7 305.3 -329.3 291.8C-343 278.3 -373.7 279.9 -387.3 267.4C-401 254.8 -397.7 228 -382.5 200.8C-367.3 173.5 -340.2 145.9 -337.5 128C-334.9 110.1 -356.6 102.1 -366 90.2C-375.5 78.4 -372.8 62.8 -388.1 47.1C-403.5 31.5 -437.1 15.7 -470.7 0L0 0Z" fill="#1c452e"></path><path d="M0 313.8C-7.8 269.2 -15.6 224.6 -26.7 219.7C-37.7 214.8 -52 249.7 -64.1 260.2C-76.2 270.7 -86.1 257 -91 240C-95.9 223 -95.9 202.8 -104.4 198.9C-113 195 -130.1 207.4 -150 217.3C-169.8 227.1 -192.3 234.4 -202.5 228.5C-212.6 222.6 -210.4 203.5 -219.6 194.5C-228.7 185.5 -249.1 186.6 -258.2 178.2C-267.3 169.9 -265.1 152 -255 133.8C-244.9 115.7 -226.8 97.3 -225 85.3C-223.2 73.4 -237.7 68 -244 60.1C-250.3 52.3 -248.5 41.9 -258.8 31.4C-269 21 -291.4 10.5 -313.8 0L0 0Z" fill="#2ebc8a"></path><path d="M0 156.9C-3.9 134.6 -7.8 112.3 -13.3 109.9C-18.9 107.4 -26 124.8 -32.1 130.1C-38.1 135.4 -43.1 128.5 -45.5 120C-48 111.5 -47.9 101.4 -52.2 99.5C-56.5 97.5 -65.1 103.7 -75 108.6C-84.9 113.6 -96.2 117.2 -101.2 114.3C-106.3 111.3 -105.2 101.8 -109.8 97.3C-114.3 92.8 -124.6 93.3 -129.1 89.1C-133.7 84.9 -132.6 76 -127.5 66.9C-122.4 57.8 -113.4 48.6 -112.5 42.7C-111.6 36.7 -118.9 34 -122 30.1C-125.2 26.1 -124.3 20.9 -129.4 15.7C-134.5 10.5 -145.7 5.2 -156.9 0L0 0Z" fill="#06ffc3"></path></g><g transform="translate(0, 1024)"><path d="M0 -470.7C17.3 -442.7 34.7 -414.8 47.4 -390.1C60.1 -365.4 68.1 -344 86.4 -350.5C104.7 -357 133.3 -391.5 148.2 -390.8C163.1 -390.1 164.3 -354.3 183.1 -348.9C201.9 -343.5 238.3 -368.5 244.8 -354.7C251.4 -340.9 228.1 -288.1 251.3 -283.7C274.6 -279.2 344.4 -323 352.3 -312.1C360.2 -301.2 306.1 -235.5 309.4 -213.6C312.8 -191.7 373.7 -213.5 405.5 -212.8C437.4 -212.2 440.2 -188.9 437.6 -166C434.9 -143 426.8 -120.2 401 -98.8C375.2 -77.5 331.8 -57.6 340.5 -41.3C349.2 -25.1 409.9 -12.6 470.7 0L0 0Z" fill="#1c452e"></path><path d="M0 -313.8C11.6 -295.2 23.1 -276.5 31.6 -260.1C40 -243.6 45.4 -229.3 57.6 -233.7C69.8 -238 88.9 -261 98.8 -260.6C108.7 -260.1 109.5 -236.2 122.1 -232.6C134.6 -229 158.9 -245.7 163.2 -236.5C167.6 -227.3 152 -192.1 167.5 -189.1C183.1 -186.1 229.6 -215.4 234.9 -208.1C240.1 -200.8 204 -157 206.3 -142.4C208.5 -127.8 249.1 -142.4 270.4 -141.9C291.6 -141.4 293.5 -126 291.7 -110.6C290 -95.3 284.5 -80.1 267.3 -65.9C250.1 -51.7 221.2 -38.4 227 -27.6C232.8 -16.7 273.3 -8.4 313.8 0L0 0Z" fill="#2ebc8a"></path><path d="M0 -156.9C5.8 -147.6 11.6 -138.3 15.8 -130C20 -121.8 22.7 -114.7 28.8 -116.8C34.9 -119 44.4 -130.5 49.4 -130.3C54.4 -130 54.8 -118.1 61 -116.3C67.3 -114.5 79.4 -122.8 81.6 -118.2C83.8 -113.6 76 -96 83.8 -94.6C91.5 -93.1 114.8 -107.7 117.4 -104C120.1 -100.4 102 -78.5 103.1 -71.2C104.3 -63.9 124.6 -71.2 135.2 -70.9C145.8 -70.7 146.7 -63 145.9 -55.3C145 -47.7 142.3 -40.1 133.7 -32.9C125.1 -25.8 110.6 -19.2 113.5 -13.8C116.4 -8.4 136.6 -4.2 156.9 0L0 0Z" fill="#06ffc3"></path></g></svg>