<?xml version="1.0" encoding="iso-8859-1"?>
<!-- Generator: Adobe Illustrator 18.0.0, SVG Export Plug-In . SVG Version: 6.00 Build 0)  -->
<!DOCTYPE svg PUBLIC "-//W3C//DTD SVG 1.1//EN" "http://www.w3.org/Graphics/SVG/1.1/DTD/svg11.dtd">
<svg version="1.1" id="Capa_1" xmlns="http://www.w3.org/2000/svg" xmlns:xlink="http://www.w3.org/1999/xlink" x="0px" y="0px"
	 viewBox="0 0 312.553 312.553" style="enable-background:new 0 0 312.553 312.553;" xml:space="preserve">
<g>
	<path d="M302.553,0H10C4.476,0,0,4.478,0,10v292.553c0,5.522,4.476,10,10,10h292.553c5.523,0,10-4.478,10-10V10
		C312.553,4.478,308.076,0,302.553,0z M156.084,119.884l-33.567,80c-1.453,3.463-4.843,5.716-8.598,5.716h-0.008
		c-3.758-0.003-7.146-2.262-8.596-5.729l-33.417-80c-1.984-4.752,0.259-10.212,5.01-12.197c4.753-1.986,10.213,0.259,12.197,5.01
		l24.833,59.45l24.95-59.464c1.992-4.748,7.456-6.981,12.205-4.99C155.842,109.671,158.076,115.136,156.084,119.884z M203.439,205.6
		h-32.161c-5.15,0-9.323-4.174-9.323-9.323v-41.642v-38.358c0-5.149,4.173-9.323,9.323-9.323h32.161
		c20.787,0,33.7,11.159,33.7,29.122c0,6.61-1.841,12.402-5.2,16.995c6.044,5.232,9.435,12.759,9.435,21.806
		C241.374,189.729,231.409,205.6,203.439,205.6z"/>
	<path d="M211.536,163.958h-30.935v22.995h22.838c12.799,0,19.288-4.064,19.288-12.077
		C222.728,172.291,222.72,165.503,211.536,163.958z"/>
	<path d="M218.493,136.075c0-2.865,0-10.476-15.054-10.476h-22.838v19.712h30.431C216.179,144.265,218.493,141.399,218.493,136.075z
		"/>
</g>
<g>
</g>
<g>
</g>
<g>
</g>
<g>
</g>
<g>
</g>
<g>
</g>
<g>
</g>
<g>
</g>
<g>
</g>
<g>
</g>
<g>
</g>
<g>
</g>
<g>
</g>
<g>
</g>
<g>
</g>
</svg>
