<?xml version="1.0" encoding="utf-8"?>
<!-- Generator: Adobe Illustrator 23.0.2, SVG Export Plug-In . SVG Version: 6.00 Build 0)  -->
<svg version="1.1" id="Layer_1" xmlns="http://www.w3.org/2000/svg" xmlns:xlink="http://www.w3.org/1999/xlink" x="0px" y="0px"
	 viewBox="0 0 800 600" style="enable-background:new 0 0 800 600;" xml:space="preserve">
<style type="text/css">
	.st0{fill:#2D0E72;}
	.st1{opacity:0.7;fill:url(#SVGID_1_);}
	.st2{fill:url(#SVGID_2_);}
	.st3{fill:url(#SVGID_3_);}
	.st4{fill:url(#SVGID_4_);}
	.st5{opacity:0.5;fill-rule:evenodd;clip-rule:evenodd;fill:#E9E9F4;}
	.st6{fill:url(#SVGID_5_);}
	.st7{fill:url(#SVGID_6_);}
	.st8{fill:url(#SVGID_7_);}
	.st9{fill:url(#SVGID_8_);}
	.st10{fill:url(#SVGID_9_);}
	.st11{fill:url(#SVGID_10_);}
	.st12{fill:url(#SVGID_11_);}
	.st13{fill:url(#SVGID_12_);}
	.st14{fill:url(#SVGID_13_);}
	.st15{fill:url(#SVGID_14_);}
	.st16{fill:url(#SVGID_15_);}
	.st17{fill:url(#SVGID_16_);}
	.st18{fill:url(#SVGID_17_);}
	.st19{fill:url(#SVGID_18_);}
	.st20{fill:url(#SVGID_19_);}
	.st21{fill:url(#SVGID_20_);}
	.st22{fill:url(#SVGID_21_);}
	.st23{fill:#FF0025;}
	.st24{fill:none;stroke:#231F20;stroke-width:0.8708;stroke-linecap:round;stroke-linejoin:round;stroke-miterlimit:10;}
	.st25{fill:url(#SVGID_22_);}
	.st26{fill:#F9A02B;}
	.st27{fill:#FFAB7D;}
	.st28{fill:url(#SVGID_23_);}
	.st29{fill:url(#SVGID_24_);}
	.st30{fill:url(#SVGID_25_);}
	.st31{fill:url(#SVGID_26_);}
	.st32{fill:url(#SVGID_27_);}
	.st33{fill:#1A0C4D;}
	.st34{fill:url(#SVGID_28_);}
	.st35{fill:url(#SVGID_29_);}
	.st36{fill:url(#SVGID_30_);}
	.st37{fill:url(#SVGID_31_);}
	.st38{fill:url(#SVGID_32_);}
	.st39{fill:url(#SVGID_33_);}
	.st40{fill:url(#SVGID_34_);}
	.st41{fill:url(#SVGID_35_);}
	.st42{fill:url(#SVGID_36_);}
	.st43{fill:url(#SVGID_37_);}
	.st44{fill:url(#SVGID_38_);}
	.st45{fill:#FFBF9F;}
	.st46{fill:url(#SVGID_39_);}
	.st47{fill:url(#SVGID_40_);}
	.st48{fill:url(#SVGID_41_);}
	.st49{fill:#200CAF;}
	.st50{fill:url(#SVGID_42_);}
	.st51{fill:url(#SVGID_43_);}
	.st52{fill:url(#SVGID_44_);}
	.st53{fill:url(#SVGID_45_);}
	.st54{fill:url(#SVGID_46_);}
	.st55{opacity:0.4;fill:url(#SVGID_47_);}
	.st56{fill:#EFA584;}
	.st57{opacity:0.4;fill:url(#SVGID_48_);}
	.st58{opacity:0.4;fill:url(#SVGID_49_);}
	.st59{fill:url(#SVGID_50_);}
	.st60{fill:url(#SVGID_51_);}
	.st61{fill:#FFD6B8;}
	.st62{fill:url(#SVGID_52_);}
	.st63{fill:url(#SVGID_53_);}
	.st64{fill:url(#SVGID_54_);}
	.st65{fill:url(#SVGID_55_);}
	.st66{fill:url(#SVGID_56_);}
	.st67{opacity:0.5;fill:url(#SVGID_57_);}
	.st68{fill:url(#SVGID_58_);}
	.st69{fill:url(#SVGID_59_);}
	.st70{fill:url(#SVGID_60_);}
	.st71{fill:#DD884E;}
	.st72{fill:url(#SVGID_61_);}
	.st73{fill:url(#SVGID_62_);}
	.st74{fill:url(#SVGID_63_);}
	.st75{fill:url(#SVGID_64_);}
	.st76{fill:url(#SVGID_65_);}
	.st77{fill:url(#SVGID_66_);}
	.st78{opacity:0.5;fill:url(#SVGID_67_);}
	.st79{opacity:0.5;fill:url(#SVGID_68_);}
	.st80{fill:url(#SVGID_69_);}
	.st81{fill:url(#SVGID_70_);}
	.st82{fill:url(#SVGID_71_);}
	.st83{fill:#FFFFFF;stroke:#FF9300;stroke-width:1.1304;stroke-linecap:round;stroke-linejoin:round;}
	.st84{fill:#F3FAFF;}
	.st85{fill:#FFED9F;}
	.st86{fill:#060A00;}
	.st87{fill:#EFDB8B;}
	.st88{fill:none;stroke:#23779D;stroke-width:0.8708;stroke-linecap:round;stroke-linejoin:round;stroke-miterlimit:10;}
	.st89{fill:url(#SVGID_72_);}
	.st90{fill:url(#SVGID_73_);}
	.st91{fill:url(#SVGID_74_);}
	.st92{fill:url(#SVGID_75_);}
	.st93{fill:url(#SVGID_76_);}
	.st94{fill:url(#SVGID_77_);}
</style>
<g>
	<path class="st0" d="M401.06,39.45c-215.5,0-390.19,174.69-390.19,390.19c0,9.77,0.36,19.45,1.07,29.04
		c0,0,43.03,183.25,263.87,119.59c139.12-40.1,215.18,37.19,330.93,3.5c165.81-48.26,183.44-123.09,183.44-123.09
		c0.71-9.59,1.07-19.27,1.07-29.04C791.25,214.15,616.55,39.45,401.06,39.45z"/>
	<linearGradient id="SVGID_1_" gradientUnits="userSpaceOnUse" x1="310.8207" y1="114.5756" x2="400.4058" y2="444.0496">
		<stop  offset="0" style="stop-color:#F71C1C"/>
		<stop  offset="0.6096" style="stop-color:#F9B419"/>
	</linearGradient>
	<path class="st1" d="M399.21,458.68V52.06c-71.72,0.32-138.87,19.42-196.5,52.48L399.21,458.68z"/>
	<g>
		<g>
			<g>
				<linearGradient id="SVGID_2_" gradientUnits="userSpaceOnUse" x1="764.8394" y1="477.5952" x2="779.4549" y2="477.5952">
					<stop  offset="0" style="stop-color:#FFFFFF"/>
					<stop  offset="0" style="stop-color:#FFFFFF"/>
					<stop  offset="0" style="stop-color:#FFFFFF"/>
				</linearGradient>
				<path class="st2" d="M778.91,482.39h-14.07c0.22-2.97,0.4-6.59,0.55-9.58l14.06,0.69C779.3,476.6,779.14,479.3,778.91,482.39z"
					/>
			</g>
			<g>
				<linearGradient id="SVGID_3_" gradientUnits="userSpaceOnUse" x1="22.452" y1="258.4252" x2="779.6624" y2="258.4252">
					<stop  offset="0" style="stop-color:#FFFFFF"/>
					<stop  offset="0" style="stop-color:#FFFFFF"/>
					<stop  offset="0" style="stop-color:#FFFFFF"/>
				</linearGradient>
				<path class="st3" d="M765.59,441.07c-0.22-6.09-0.6-12.23-1.12-18.26l14.03-1.21c0.54,6.26,0.93,12.65,1.17,18.96L765.59,441.07
					z M36.52,440.78l-14.07-0.52c0.24-6.31,0.63-12.69,1.18-18.96l14.03,1.22C37.13,428.56,36.75,434.7,36.52,440.78z
					 M760.37,391.37c-1.05-5.98-2.26-12.02-3.6-17.94l13.73-3.12c1.4,6.15,2.66,12.42,3.74,18.63L760.37,391.37z M41.78,388.11
					l-13.87,0.53c1.09-6.21,2.36-12.48,3.76-18.63l13.73,3.13C44.05,379.06,42.83,382.13,41.78,388.11z M748.39,342.86
					c-1.86-5.79-3.9-11.62-6.05-17.31l13.17-4.98c2.24,5.91,4.35,11.96,6.29,17.98L748.39,342.86z M53.8,342.57l-13.4-4.32
					c1.94-6.01,4.05-12.04,6.29-17.94l13.16,4.99C57.7,330.99,55.66,336.79,53.8,342.57z M729.83,296.4
					c-2.64-5.47-5.46-10.96-8.37-16.3l12.36-6.75c3.03,5.55,5.95,11.24,8.7,16.93L729.83,296.4z M72.38,296.2l-12.68-6.12
					c2.74-5.67,5.66-11.34,8.68-16.87l12.36,6.75C77.82,285.28,75.01,290.74,72.38,296.2z M705.06,252.95
					c-3.37-5.06-6.9-10.11-10.52-14.99l11.32-8.37c3.75,5.07,7.43,10.31,10.92,15.57L705.06,252.95z M97.13,252.82l-11.72-7.8
					c3.49-5.25,7.16-10.47,10.91-15.54l11.32,8.38C104.03,242.74,100.49,247.77,97.13,252.82z M674.6,213.3
					c-4.02-4.56-8.21-9.07-12.45-13.41l10.08-9.83c4.4,4.51,8.75,9.2,12.93,13.93L674.6,213.3z M127.59,213.21l-10.55-9.32
					c4.17-4.72,8.52-9.41,12.93-13.92l10.07,9.84C135.8,204.15,131.61,208.66,127.59,213.21z M639.03,178.17
					c-4.6-3.96-9.36-7.86-14.15-11.59l8.65-11.11c4.98,3.87,9.92,7.92,14.7,12.04L639.03,178.17z M163.16,178.09l-9.19-10.67
					c4.78-4.12,9.73-8.17,14.71-12.04l8.64,11.12C172.53,170.22,167.77,174.12,163.16,178.09z M599.04,148.2
					c-5.1-3.3-10.34-6.51-15.59-9.55l7.05-12.19c5.45,3.15,10.9,6.49,16.19,9.91L599.04,148.2z M203.19,148.13l-7.65-11.82
					c5.3-3.43,10.76-6.77,16.23-9.93l7.04,12.19C213.55,141.61,208.3,144.82,203.19,148.13z M555.34,123.99
					c-5.5-2.57-11.12-5.03-16.73-7.31l5.31-13.04c5.82,2.37,11.67,4.93,17.38,7.6L555.34,123.99z M246.94,123.91l-5.95-12.76
					c5.73-2.67,11.6-5.24,17.45-7.61l5.3,13.04C258.11,118.87,252.46,121.33,246.94,123.91z M508.77,106.02
					c-5.8-1.79-11.72-3.46-17.61-4.95l3.47-13.65c6.12,1.55,12.27,3.28,18.3,5.14L508.77,106.02z M293.62,105.93l-4.14-13.46
					c6.03-1.86,12.19-3.58,18.3-5.13l3.46,13.65C305.36,102.48,299.43,104.14,293.62,105.93z M460.12,94.61
					c-5.99-0.97-12.08-1.81-18.13-2.49l1.56-13.99c6.27,0.7,12.61,1.57,18.83,2.58L460.12,94.61z M342.28,94.56l-2.25-13.9
					c6.22-1.01,12.55-1.87,18.83-2.57l1.55,13.99C354.37,92.76,348.27,93.59,342.28,94.56z M410.36,89.97
					c-6.08-0.15-12.26-0.15-18.31-0.01l-0.34-14.08c6.28-0.15,12.69-0.15,19,0.01L410.36,89.97z"/>
			</g>
			<g>
				<linearGradient id="SVGID_4_" gradientUnits="userSpaceOnUse" x1="22.6487" y1="477.5956" x2="36.9773" y2="477.5956">
					<stop  offset="0" style="stop-color:#FFFFFF"/>
					<stop  offset="0" style="stop-color:#FFFFFF"/>
					<stop  offset="0" style="stop-color:#FFFFFF"/>
				</linearGradient>
				<path class="st4" d="M22.94,482.39c-0.23-3.1-0.13-5.8-0.29-8.89l14.06-0.69c0.15,2.98,0.05,6.6,0.27,9.58H22.94z"/>
			</g>
		</g>
	</g>
	<g>
		<path class="st5" d="M221.88,494.44c0,8.31-42.26,15.05-94.39,15.05c-52.13,0-94.39-6.74-94.39-15.05
			c0-8.31,42.26-15.05,94.39-15.05C179.62,479.4,221.88,486.13,221.88,494.44z"/>
		<g>
			<path class="st5" d="M705.44,505.71c0,8.31-42.26,15.05-94.39,15.05c-52.13,0-94.39-6.74-94.39-15.05
				c0-8.31,42.26-15.05,94.39-15.05C663.18,490.67,705.44,497.4,705.44,505.71z"/>
		</g>
		<g>
			<path class="st5" d="M523.73,536.85c0,8.13-28.5,14.72-63.66,14.72c-35.16,0-63.66-6.59-63.66-14.72
				c0-8.13,28.5-14.72,63.66-14.72C495.23,522.12,523.73,528.71,523.73,536.85z"/>
		</g>
		<path class="st5" d="M396.41,515.09c0,11.37-38.71,20.58-86.45,20.58c-47.75,0-86.45-9.21-86.45-20.58
			c0-11.36,38.71-20.58,86.45-20.58C357.7,494.51,396.41,503.72,396.41,515.09z"/>
	</g>
	<linearGradient id="SVGID_5_" gradientUnits="userSpaceOnUse" x1="613.6799" y1="566.6235" x2="613.6799" y2="566.6235">
		<stop  offset="0" style="stop-color:#7700BB"/>
		<stop  offset="1" style="stop-color:#00008B"/>
		<stop  offset="1" style="stop-color:#000000"/>
	</linearGradient>
	<path class="st6" d="M613.68,566.62"/>
	<linearGradient id="SVGID_6_" gradientUnits="userSpaceOnUse" x1="651.2827" y1="551.569" x2="651.2827" y2="551.569">
		<stop  offset="0" style="stop-color:#7700BB"/>
		<stop  offset="1" style="stop-color:#00008B"/>
		<stop  offset="1" style="stop-color:#000000"/>
	</linearGradient>
	<path class="st7" d="M651.28,551.57"/>
</g>
<g>
	<linearGradient id="SVGID_7_" gradientUnits="userSpaceOnUse" x1="92.2064" y1="422.5362" x2="106.7185" y2="422.5362">
		<stop  offset="0" style="stop-color:#28A8C6"/>
		<stop  offset="0.6096" style="stop-color:#FFFFFF"/>
	</linearGradient>
	<rect x="92.21" y="362.67" class="st8" width="14.51" height="119.73"/>
	<linearGradient id="SVGID_8_" gradientUnits="userSpaceOnUse" x1="627.606" y1="422.5362" x2="642.1181" y2="422.5362">
		<stop  offset="0" style="stop-color:#28A8C6"/>
		<stop  offset="0.6096" style="stop-color:#FFFFFF"/>
	</linearGradient>
	<rect x="627.61" y="362.67" class="st9" width="14.51" height="119.73"/>
	<linearGradient id="SVGID_9_" gradientUnits="userSpaceOnUse" x1="85.711" y1="354.9684" x2="651.2827" y2="354.9684">
		<stop  offset="0" style="stop-color:#28A8C6"/>
		<stop  offset="0.6096" style="stop-color:#FFFFFF"/>
	</linearGradient>
	<rect x="85.71" y="346.44" class="st10" width="565.57" height="17.06"/>
</g>
<g>
	
		<linearGradient id="SVGID_10_" gradientUnits="userSpaceOnUse" x1="128.2053" y1="546.9755" x2="197.6315" y2="546.9755" gradientTransform="matrix(0.9857 0.1686 -0.1686 0.9857 133.8746 -44.5541)">
		<stop  offset="0" style="stop-color:#110000"/>
		<stop  offset="1" style="stop-color:#204374"/>
	</linearGradient>
	<path class="st11" d="M167.99,521.72l46.72-17.36c0,0,3.27-0.91,5.93,1.24c2.66,2.15,16.64,13.94,16.64,13.94s1.36,1.98-1.06,2.98
		c-2.42,1.01-46.23,17.22-46.23,17.22s-3.13,0.89-5.81-0.9c-2.67-1.79-16.39-13.53-16.39-13.53S165.47,523.31,167.99,521.72z"/>
	
		<linearGradient id="SVGID_11_" gradientUnits="userSpaceOnUse" x1="116.3252" y1="547.2676" x2="191.0603" y2="547.2676" gradientTransform="matrix(0.9857 0.1686 -0.1686 0.9857 133.8746 -44.5541)">
		<stop  offset="0" style="stop-color:#88CFDA"/>
		<stop  offset="8.341312e-03" style="stop-color:#89CFD9"/>
		<stop  offset="0.4784" style="stop-color:#C8D9BB"/>
		<stop  offset="0.8218" style="stop-color:#F0DFA7"/>
		<stop  offset="1" style="stop-color:#FFE1A0"/>
	</linearGradient>
	<polygon class="st12" points="170.46,521.98 212.93,506.14 232.81,522.61 190.56,538.42 	"/>
	
		<linearGradient id="SVGID_12_" gradientUnits="userSpaceOnUse" x1="128.2352" y1="554.9084" x2="197.7038" y2="554.9084" gradientTransform="matrix(0.9857 0.1686 -0.1686 0.9857 133.8746 -44.5541)">
		<stop  offset="0" style="stop-color:#000000"/>
		<stop  offset="0.4063" style="stop-color:#B5B5B5"/>
		<stop  offset="0.5829" style="stop-color:#FFFFFF"/>
		<stop  offset="0.877" style="stop-color:#4C4C4C"/>
		<stop  offset="0.8793" style="stop-color:#4E4E4E"/>
		<stop  offset="0.9085" style="stop-color:#696969"/>
		<stop  offset="0.9382" style="stop-color:#7D7D7D"/>
		<stop  offset="0.9684" style="stop-color:#888888"/>
		<stop  offset="1" style="stop-color:#8C8C8C"/>
	</linearGradient>
	<path class="st13" d="M237.63,521.04c-0.09,0.52-0.45,1.08-1.41,1.49c-2.42,1.01-46.23,17.22-46.23,17.22s-3.13,0.89-5.81-0.9
		c-2.67-1.79-16.39-13.53-16.39-13.53s-0.96-0.84-0.97-1.86l-0.46,2.71c0,0,0.31,1.43,1.85,2.56c1.55,1.14,15.94,13.23,15.94,13.23
		s2.82,1.22,5.48,0.39c2.66-0.83,46.49-17.36,46.49-17.36s1-0.75,1.13-1.5c0.13-0.76,0.46-2.44,0.46-2.44L237.63,521.04z"/>
	<path d="M221.41,510.11l8.42,7.03c0,0,0.91,0.06,0.71-0.43c-0.19-0.49-8.31-7.1-8.31-7.1S221.17,509.34,221.41,510.11z"/>
</g>
<g>
	
		<linearGradient id="SVGID_13_" gradientUnits="userSpaceOnUse" x1="829.5807" y1="475.6084" x2="899.0103" y2="475.6084" gradientTransform="matrix(-0.9982 0.0593 0.0593 0.9982 1210.0577 12.8822)">
		<stop  offset="0" style="stop-color:#110000"/>
		<stop  offset="1" style="stop-color:#204374"/>
	</linearGradient>
	<path class="st14" d="M409.61,542.3l-44.53-22.39c0,0-3.15-1.26-6.03,0.58c-2.88,1.85-18.07,12.03-18.07,12.03
		s-1.57,1.81,0.73,3.08c2.29,1.27,44.06,22.19,44.06,22.19s3.02,1.22,5.87-0.26c2.85-1.48,17.78-11.65,17.78-11.65
		S411.94,544.16,409.61,542.3z"/>
	
		<linearGradient id="SVGID_14_" gradientUnits="userSpaceOnUse" x1="832.9553" y1="475.9005" x2="894.5169" y2="475.9005" gradientTransform="matrix(-0.9982 0.0593 0.0593 0.9982 1210.0577 12.8822)">
		<stop  offset="0" style="stop-color:#00BAFF"/>
		<stop  offset="0.6096" style="stop-color:#FFFFFF"/>
	</linearGradient>
	<polygon class="st15" points="407.12,542.29 366.65,521.88 345.08,536.07 385.34,556.42 	"/>
	
		<linearGradient id="SVGID_15_" gradientUnits="userSpaceOnUse" x1="829.6102" y1="483.5417" x2="899.0834" y2="483.5417" gradientTransform="matrix(-0.9982 0.0593 0.0593 0.9982 1210.0577 12.8822)">
		<stop  offset="0" style="stop-color:#000000"/>
		<stop  offset="0.4063" style="stop-color:#B5B5B5"/>
		<stop  offset="0.5829" style="stop-color:#FFFFFF"/>
		<stop  offset="0.877" style="stop-color:#4C4C4C"/>
		<stop  offset="0.8793" style="stop-color:#4E4E4E"/>
		<stop  offset="0.9085" style="stop-color:#696969"/>
		<stop  offset="0.9382" style="stop-color:#7D7D7D"/>
		<stop  offset="0.9684" style="stop-color:#888888"/>
		<stop  offset="1" style="stop-color:#8C8C8C"/>
	</linearGradient>
	<path class="st16" d="M340.46,533.98c0.03,0.53,0.32,1.13,1.24,1.63c2.29,1.27,44.06,22.19,44.06,22.19s3.02,1.22,5.87-0.26
		c2.85-1.48,17.78-11.65,17.78-11.65s1.05-0.73,1.17-1.74l0.16,2.75c0,0-0.46,1.39-2.12,2.34c-1.66,0.96-17.3,11.4-17.3,11.4
		s-2.93,0.9-5.49-0.22c-2.56-1.12-44.3-22.36-44.3-22.36s-0.91-0.85-0.96-1.62c-0.05-0.77-0.19-2.48-0.19-2.48L340.46,533.98z"/>
	<path d="M357.78,524.89l-9.14,6.06c0,0-0.91-0.04-0.66-0.51c0.25-0.47,9.05-6.15,9.05-6.15S358.11,524.15,357.78,524.89z"/>
</g>
<g>
	<linearGradient id="SVGID_16_" gradientUnits="userSpaceOnUse" x1="520.0095" y1="540.0759" x2="599.6937" y2="540.0759">
		<stop  offset="0" style="stop-color:#110000"/>
		<stop  offset="1" style="stop-color:#204374"/>
	</linearGradient>
	<path class="st17" d="M599.69,546.04c0,0.68-0.71,2.45-1.39,2.45h-76.61c-0.68,0-1.68-1.67-1.68-2.35l3.92-13.26
		c0.21-0.82,0.55-1.22,1.23-1.22h68.25c0.68,0,0.98,0.46,1.23,1.22L599.69,546.04z"/>
	<linearGradient id="SVGID_17_" gradientUnits="userSpaceOnUse" x1="527.7083" y1="538.7603" x2="589.5372" y2="554.2683">
		<stop  offset="0" style="stop-color:#000000"/>
		<stop  offset="0.0159" style="stop-color:#030303"/>
		<stop  offset="0.4171" style="stop-color:#4C4C4C"/>
		<stop  offset="0.4281" style="stop-color:#4E4E4E"/>
		<stop  offset="0.5664" style="stop-color:#696969"/>
		<stop  offset="0.7071" style="stop-color:#7D7D7D"/>
		<stop  offset="0.8503" style="stop-color:#888888"/>
		<stop  offset="1" style="stop-color:#8C8C8C"/>
	</linearGradient>
	<path class="st18" d="M599.8,546.81c0,0.96-0.78,1.73-1.73,1.73h-76.52c-0.96,0-1.73-0.78-1.73-1.73l0,0
		c0-0.96,0.78-1.73,1.73-1.73h76.52C599.02,545.08,599.8,545.85,599.8,546.81L599.8,546.81z"/>
	<linearGradient id="SVGID_18_" gradientUnits="userSpaceOnUse" x1="492.1559" y1="538.4435" x2="608.9553" y2="538.4435">
		<stop  offset="0" style="stop-color:#521A63"/>
		<stop  offset="1" style="stop-color:#D6A6FF"/>
	</linearGradient>
	<polygon class="st19" points="525.83,532.73 591.94,532.73 595.92,544.16 522.76,544.05 	"/>
	<linearGradient id="SVGID_19_" gradientUnits="userSpaceOnUse" x1="525.3158" y1="546.7584" x2="527.2539" y2="546.7584">
		<stop  offset="0" style="stop-color:#110000"/>
		<stop  offset="1" style="stop-color:#204374"/>
	</linearGradient>
	<circle class="st20" cx="526.28" cy="546.76" r="0.97"/>
	<linearGradient id="SVGID_20_" gradientUnits="userSpaceOnUse" x1="532.7126" y1="546.7584" x2="534.6508" y2="546.7584">
		<stop  offset="0" style="stop-color:#110000"/>
		<stop  offset="1" style="stop-color:#204374"/>
	</linearGradient>
	<circle class="st21" cx="533.68" cy="546.76" r="0.97"/>
	<linearGradient id="SVGID_21_" gradientUnits="userSpaceOnUse" x1="589.6443" y1="546.7584" x2="591.5825" y2="546.7584">
		<stop  offset="0" style="stop-color:#110000"/>
		<stop  offset="1" style="stop-color:#204374"/>
	</linearGradient>
	<circle class="st22" cx="590.61" cy="546.76" r="0.97"/>
	<polygon points="593.73,535.1 595.94,541.07 596.86,541.22 594.64,535.33 	"/>
</g>
<g>
	<path class="st23" d="M140.82,482.75c0,0-2.8,11.2-2.67,17.46c0.13,6.26,4.26,9.33,7.86,10c3.6,0.67,13.99-0.4,15.19-7.6
		c1.2-7.2,3.73-25.45,4.4-31.59c0.67-6.13-0.27-13.59-0.8-15.19c-0.53-1.6-0.53-1.6-0.53-1.6s-2.71,6.5-7.6,8.8
		c-6.8,3.2-12.26,0.93-12.26,0.93L140.82,482.75z"/>
	<path class="st24" d="M160.54,215.27c-1.23-1.42-3.12-5.11-4.22-9.22l-0.18-0.1c0,0,2.13,7.86,2.53,12.53
		c0.4,4.66,0.93,22.66,0.93,22.66L173.87,219v-2.92C167.17,217.73,161.55,216.43,160.54,215.27z"/>
	<linearGradient id="SVGID_22_" gradientUnits="userSpaceOnUse" x1="110.2543" y1="254.6306" x2="218.9858" y2="254.6306">
		<stop  offset="1" style="stop-color:#DD0E44"/>
		<stop  offset="1" style="stop-color:#FFFFFF"/>
	</linearGradient>
	<path class="st25" d="M149.48,193.15c0,0-10.97,2.13-16.66,3.91c-5.69,1.78-15.99,4.62-17.59,14.04
		c1.81-10.67,0.53,10.69-3.91,37.32c-1.07,6.4-1.07,14.39-1.07,14.39s4.26,0.89,10.31,3.02c6.04,2.13,9.06,5.69,9.06,5.69
		s-2.67,17.95-5.51,24.34c-2.84,6.4-7.29,11.37-7.29,11.37s6.04-0.53,7.82-0.36c1.78,0.18,1.42,1.07,1.95,0.89
		c0.53-0.18,7.64-4.26,29.85-3.38c22.21,0.89,32.34,1.78,38.2,4.98c5.86,3.2,7.82,6.75,7.82,6.75s-4.44-21.68-5.15-27.54
		c-0.71-5.86-1.6-15.81-1.6-15.81l11.91,3.02c0,0,4.44-15.28,6.57-23.63c2.13-8.35,6.22-23.81,4.26-28.96
		c-1.95-5.15-11.73-13.15-14.93-15.64c-3.2-2.49-8.88-5.33-9.77-5.33C192.88,202.21,149.48,193.15,149.48,193.15z"/>
	<path class="st26" d="M174.14,199.28c0,0-3.07-3.17-6.8-5.86c-2.95-2.13-6.62-3.67-7.33-5.2c-1.6-3.47-1.6-10.8,1.33-15.99
		c2.93-5.2,11.86-14.39,18.92-14.26c7.06,0.13,8.4,0.93,8.4,0.93s2.13-6,8.26-5.6c6.13,0.4,11.86,6.26,11.6,16.13
		c-0.27,9.86-1.87,25.85-4.93,29.99c-3.07,4.13-8.4,5.2-10.79,6.13c-2.4,0.93-4.13,1.33-4.13,1.33s-5.06-5.6-7.2-6
		C179.33,200.48,174.14,199.28,174.14,199.28z"/>
	<path class="st27" d="M181.47,200.88c-2.13-0.4-7.33-1.6-7.33-1.6s-3.07-3.17-6.8-5.86c-2.95-2.13-6.62-3.67-7.33-5.2
		c-0.45-0.98-0.77-2.27-0.94-3.73c-0.08,0-0.13,0-0.13,0s-3.73,10.53-3.46,16.39c0.27,5.86,3.33,12.39,5.06,14.39
		c1.73,2,17.06,4.4,28.12-8.4C188.66,206.87,183.6,201.28,181.47,200.88z"/>
	<linearGradient id="SVGID_23_" gradientUnits="userSpaceOnUse" x1="173.869" y1="252.6051" x2="204.5217" y2="252.6051">
		<stop  offset="0.1246" style="stop-color:#FF987D"/>
		<stop  offset="0.307" style="stop-color:#FFAB7D"/>
	</linearGradient>
	<path class="st28" d="M173.87,216.09c0,0,0.18,10.11,0.89,12.42c0.71,2.31,2.13,6.75,2.13,13.86c0,7.11-1.82,32.61-1.02,39.94
		c0.8,7.33,6.53,16.66,9.6,17.06c3.07,0.4,6.26-2.53,9.06-5.6c2.8-3.07,4.93-5.06,6.66-8.8s3.33-10,3.33-10l-8.13-2
		c0,0-4.93-14.93-6.26-24.26c-1.33-9.33-2.4-20.52-2-23.06c0.4-2.53,3.86-11.59,3.86-15.06c0-3.46-0.93-4.8-0.93-4.8l-2.4,1.07
		C188.66,206.87,180.53,215.57,173.87,216.09z"/>
	<linearGradient id="SVGID_24_" gradientUnits="userSpaceOnUse" x1="196.4257" y1="281.0989" x2="204.5217" y2="281.0989">
		<stop  offset="0" style="stop-color:#FFFFFF"/>
		<stop  offset="0" style="stop-color:#97462A"/>
		<stop  offset="1" style="stop-color:#933F22"/>
		<stop  offset="1" style="stop-color:#FFAB7D"/>
	</linearGradient>
	<path class="st29" d="M201.19,284.97c1.73-3.73,3.33-10,3.33-10l-8.1-1.99c0.49,1.57,1.44,4.83,1.83,7.46
		c0.33,2.22,0.35,6.11,0.32,8.77C199.55,287.98,200.41,286.65,201.19,284.97z"/>
	<linearGradient id="SVGID_25_" gradientUnits="userSpaceOnUse" x1="191.1945" y1="255.4522" x2="196.3919" y2="255.4522">
		<stop  offset="0" style="stop-color:#311A36"/>
		<stop  offset="1" style="stop-color:#8660DB"/>
	</linearGradient>
	<path class="st30" d="M191.19,254.19l5.2-15.33c0,0-0.27,17.19-0.4,23.06c-0.13,5.86,0.27,10.13,0.27,10.13
		S191.46,258.45,191.19,254.19z"/>
	<linearGradient id="SVGID_26_" gradientUnits="userSpaceOnUse" x1="128.5566" y1="254.0527" x2="142.6834" y2="254.0527">
		<stop  offset="0" style="stop-color:#311A36"/>
		<stop  offset="1" style="stop-color:#8660DB"/>
	</linearGradient>
	<path class="st31" d="M129.62,271.51c0,0,0.53-8.93,0.4-23.32c-0.13-14.39-0.13-27.72-0.13-27.72s2.4,36.25,2.4,39.85
		c0,3.6,0.93,17.59,2,19.19c1.07,1.6,8.4,8.13,8.4,8.13l-14.13-9.99L129.62,271.51z"/>
	<path class="st27" d="M111.5,262.85c0,0-1.73,20.92,1.73,24.79c3.46,3.86,11.99,9.73,18.13,11.99c6.13,2.27,11.99,4.66,11.99,4.66
		s11.19,0.27,14.66,0.13c3.46-0.13,4.53,0.4,4.53,0.4s7.46,2,9.46,2c2,0,4.13-0.93,4.13-0.93s1.33-1.2,1.33-1.87
		c0-0.67-1.47-1.87-1.47-1.87s1.87-1.07,1.87-1.73c0-0.67,0-0.67,0-0.67l-6.26-2.93l-5.46-3.33c0,0,4,0.67,5.46-0.13
		c1.47-0.8,5.33-3.07,3.2-4.26c-2.13-1.2-3.46,0.8-5.73,0.67c-2.27-0.13-7.6-0.13-10.13,0.4c-2.53,0.53-5.33,2.4-5.33,2.4
		s-7.33-1.87-15.73-8c-8.4-6.13-10.53-8-10.53-8l0.13-7.06C127.49,269.51,120.16,264.98,111.5,262.85z"/>
	<linearGradient id="SVGID_27_" gradientUnits="userSpaceOnUse" x1="161.7413" y1="291.9443" x2="175.4267" y2="291.9443">
		<stop  offset="0" style="stop-color:#A1BAFF"/>
		<stop  offset="1" style="stop-color:#FFFFFF"/>
	</linearGradient>
	<path class="st32" d="M161.74,291.24l4.99,2.62l-0.59-0.36c0,0,4,0.67,5.46-0.13c1.14-0.62,3.74-2.13,3.82-3.34
		C171.76,293.19,161.74,291.24,161.74,291.24z"/>
	<path class="st33" d="M117.89,306.69c0,0-1.6,1.95-2.49,4.62c-0.89,2.67-1.24,6.04-1.24,6.04s1.6-4.98,6.04-7.11
		c4.44-2.13,6.4-2.49,6.4-2.49S125.71,305.98,117.89,306.69z"/>
	<linearGradient id="SVGID_28_" gradientUnits="userSpaceOnUse" x1="186.7088" y1="311.7988" x2="84.452" y2="413.0981">
		<stop  offset="0" style="stop-color:#110000"/>
		<stop  offset="1" style="stop-color:#204374"/>
	</linearGradient>
	<path class="st34" d="M202.48,316.11c0,0,0.36,14.39-1.95,20.61c-2.31,6.22-7.11,11.02-17.06,12.62
		c-9.95,1.6-23.99-1.78-23.99-1.78s-1.6-12.08-7.46-14.75c-5.86-2.67-13.15,0.36-14.75,4.09c-1.6,3.73-8,39.98-10.66,54.2
		c-2.67,14.21-12.97,41.58-15.64,48.16c-2.67,6.57-3.2,15.1-9.42,23.99c-6.22,8.89-9.24,9.95-12.79,8
		c-3.55-1.95-10.31-5.51-11.91-5.86c-1.6-0.36-3.91-0.89-3.91-0.89s10.84-11.02,15.81-21.86c4.98-10.84,9.6-25.94,11.73-40.34
		c2.13-14.39,5.69-55.44,8.17-68.41c2.49-12.97,6.93-20.79,10.48-23.28c3.55-2.49,14.22-6.04,25.94-6.4
		c11.73-0.36,16.35,0.36,16.35,0.36s7.64,2.58,10.57,2.27c2.93-0.31,4.89-1.2,4.89-1.2S193.59,304.39,202.48,316.11z"/>
	<linearGradient id="SVGID_29_" gradientUnits="userSpaceOnUse" x1="72.9383" y1="452.9406" x2="111.4745" y2="452.9406">
		<stop  offset="0" style="stop-color:#A1BAFF"/>
		<stop  offset="0" style="stop-color:#FFAB7D"/>
	</linearGradient>
	<path class="st35" d="M88.75,442.63c-4.98,10.84-15.81,21.86-15.81,21.86s2.31,0.53,3.91,0.89c1.6,0.35,8.35,3.91,11.91,5.86
		c3.55,1.95,6.57,0.89,12.79-8c6.22-8.88,6.75-17.41,9.42-23.99c0.15-0.36,0.32-0.79,0.51-1.28c-6.75-0.71-14.79-2.89-19.1-4.17
		C91.21,436.97,89.99,439.93,88.75,442.63z"/>
	<g>
		<path class="st23" d="M73.12,463.96l-0.18,0.53c0,0,0.37-0.37,0.99-1.04L73.12,463.96z"/>
		<path class="st23" d="M110.56,440.5l-0.09,0.06c-2.26,6.38-3.11,14.38-8.92,22.69c-6.22,8.89-9.24,9.95-12.79,8
			c-3.55-1.95-10.31-5.51-11.91-5.86c-1.6-0.36-3.91-0.89-3.91-0.89s-5.02,6.26-5.55,8.66c-0.53,2.4-0.93,6.66-0.93,6.66
			s19.46,8.13,21.99,8c2.53-0.13,15.59-25.06,18.13-29.85c2.53-4.8,5.2-8.66,5.2-10.26C111.76,446.1,110.56,440.5,110.56,440.5z"/>
	</g>
	<linearGradient id="SVGID_30_" gradientUnits="userSpaceOnUse" x1="140.2971" y1="475.8086" x2="162.1413" y2="475.8086">
		<stop  offset="0" style="stop-color:#A1BAFF"/>
		<stop  offset="0" style="stop-color:#FFAB7D"/>
	</linearGradient>
	<path class="st36" d="M144.42,463.96c0,0-5.86,27.45-3.6,28.25c2.27,0.8,18.26,1.47,19.59-0.53c1.33-2,0.27-16.79,0.8-20.52
		c0.53-3.73,0.93-12.53,0.93-12.53S154.81,468.09,144.42,463.96z"/>
	<linearGradient id="SVGID_31_" gradientUnits="userSpaceOnUse" x1="138.266" y1="337.1461" x2="160.6545" y2="451.4876">
		<stop  offset="0" style="stop-color:#110000"/>
		<stop  offset="1" style="stop-color:#204374"/>
	</linearGradient>
	<path class="st37" d="M159.3,408.87c-0.18-8.88-1.62-30.16-1.69-34.07c-0.13-7.73,1.87-27.23,1.87-27.23s-1.6-12.08-7.46-14.75
		c-5.86-2.67-13.15,0.36-14.75,4.09c-1.32,3.07-5.88,28.17-8.94,44.88c0.92,4.88,6.88,36.62,9.83,52.67
		c3.2,17.41,6.26,29.5,6.26,29.5c14.44,4.09,19.86-9.73,19.86-9.73s-1.64-9.86-2.53-14.66C160.85,434.77,159.48,417.76,159.3,408.87
		z"/>
	<path class="st33" d="M179.47,290.57c-0.93-0.4-10.4,4.66-10.4,4.66l0.14,0.14l2.4,1.46l6.26,2.93c0,0,0,0,0,0.67
		c0,0.67-1.87,1.73-1.87,1.73s0.25,0.2,0.53,0.48c1.28-0.47,11.38-4.2,12.13-5.95C189.46,294.83,180.4,290.97,179.47,290.57z"/>
	<linearGradient id="SVGID_32_" gradientUnits="userSpaceOnUse" x1="136.8197" y1="199.608" x2="158.9316" y2="199.608">
		<stop  offset="0.8246" style="stop-color:#B51818"/>
		<stop  offset="0.8338" style="stop-color:#B51717"/>
		<stop  offset="1" style="stop-color:#B70808"/>
	</linearGradient>
	<path class="st38" d="M158.28,186.62c0,0-3.07,0.67-8.8,6.53c-5.73,5.86-12.66,13.73-12.66,13.73s4,0.67,7.6,0
		c3.6-0.67,6.93-1.73,10,2.27c3.07,4,4.52,3.43,4.52,3.43s-4.65-8.5-3.19-15.56C157.21,189.95,158.28,186.62,158.28,186.62z"/>
	<linearGradient id="SVGID_33_" gradientUnits="userSpaceOnUse" x1="188.6624" y1="159.1192" x2="196.1256" y2="159.1192">
		<stop  offset="0" style="stop-color:#311A36"/>
		<stop  offset="1" style="stop-color:#8660DB"/>
	</linearGradient>
	<path class="st39" d="M188.66,158.9c0,0,1.87,1.73,3.86,2.53c2,0.8,2.13,0.93,2.53,0.8c0.4-0.13,1.07-2,1.07-2s-1.6-1.6-3.2-2.8
		c-1.6-1.2-2.93-1.47-2.93-1.47S188.8,158.1,188.66,158.9z"/>
	<linearGradient id="SVGID_34_" gradientUnits="userSpaceOnUse" x1="199.3615" y1="161.1266" x2="206.8454" y2="269.5137">
		<stop  offset="0" style="stop-color:#F4A414"/>
		<stop  offset="0.6096" style="stop-color:#C14423"/>
	</linearGradient>
	<path class="st40" d="M196.92,153.3c-3.21-0.21-5.32,1.33-6.6,2.85c0.71,0.4,2.46,1.39,3.8,2.22c1.73,1.07,2,1.87,2,1.87l-1.07,2
		c0,0,6,3.73,7.73,9.73c1.73,6,1.87,13.33-1.07,18.92c-2.93,5.6-7.86,14.26-7.86,14.26s0,0.01,0.01,0.02
		c2.67-0.88,7.05-2.16,9.72-5.75c3.07-4.13,4.66-20.12,4.93-29.99C208.79,159.56,203.06,153.7,196.92,153.3z"/>
	<linearGradient id="SVGID_35_" gradientUnits="userSpaceOnUse" x1="97.4874" y1="441.4816" x2="108.8126" y2="431.6868">
		<stop  offset="0" style="stop-color:#A1BAFF"/>
		<stop  offset="1" style="stop-color:#FFFFFF"/>
	</linearGradient>
	<path class="st41" d="M91.01,437.34c4.11,1.85,11.39,4.74,18.66,5.7c0.39-1.32,0.8-2.58,1.29-3.78c0.15-0.36,0.32-0.79,0.51-1.28
		c-6.75-0.71-14.79-2.89-19.1-4.17C91.93,435.02,91.47,436.19,91.01,437.34z"/>
	<linearGradient id="SVGID_36_" gradientUnits="userSpaceOnUse" x1="148.0714" y1="469.3015" x2="163.583" y2="455.886">
		<stop  offset="0" style="stop-color:#A1BAFF"/>
		<stop  offset="1" style="stop-color:#FFFFFF"/>
	</linearGradient>
	<path class="st42" d="M144.42,463.96c0,0-0.4,1.85-0.94,4.61c4.1,0.08,12.21-0.11,18.23-2.54c0.27-3.64,0.44-7.39,0.44-7.39
		S154.81,468.09,144.42,463.96z"/>
</g>
<g>
	<linearGradient id="SVGID_37_" gradientUnits="userSpaceOnUse" x1="282.8655" y1="317.9645" x2="278.8134" y2="174.1222">
		<stop  offset="0" style="stop-color:#9E1DFF"/>
		<stop  offset="0.6043" style="stop-color:#0E90FF"/>
	</linearGradient>
	<path class="st43" d="M343.66,239.93c0.27-10.4,2.13-14.66-4.26-19.59c-6.4-4.93-17.33-10.93-17.33-10.93s-5.73-7.06-7.33-9.2
		c-1.6-2.13-2.4-2.4-2.4-2.4l-31.45-4.13c0,0-2,1.07-2.4,2.8c-0.4,1.73-2,4.26-2,4.26s-24.92,4.26-29.45,7.73
		c-4.53,3.46-11.46,18.79-13.59,25.85c-2.13,7.06-14.93,47.98-15.19,51.44c-0.27,3.47,3.78,12.04,10.35,17.37
		c4.65,3.77,12.44,7.11,12.44,7.11l-0.13,10.71c0,0,11.33-7.86,14.79-9.73c3.46-1.87,3.46-1.87,3.46-1.87s9.86-0.67,20.39-2.93
		c10.53-2.27,26.12-0.13,31.32,2c5.2,2.13,8.8,8.66,8.8,8.66l7.33,0.27c0,0,6.13,0.27,9.06,1.2c2.93,0.93,3.33,3.2,3.33,3.2
		s-1.07-6.93-2.27-9.73c-0.48-1.13-0.73-1.56-0.85-1.67c0.11-0.55,0.22-1.73-0.35-3.26c-0.8-2.13-1.2-3.86-1.2-3.86
		s1.6-1.87,2.4-11.99C337.93,281.11,343.39,250.32,343.66,239.93z M247.04,288.3l-9.86-5.73c0,0,6.39-1.75,9.73-15.19
		c1.49-6.02,2.4-33.18,2.4-33.18s-2.4,24.39-2.4,33.18C246.9,276.18,247.04,288.3,247.04,288.3z"/>
	<linearGradient id="SVGID_38_" gradientUnits="userSpaceOnUse" x1="103.094" y1="68.4249" x2="104.1262" y2="68.9411">
		<stop  offset="0" style="stop-color:#F71C1C"/>
		<stop  offset="0" style="stop-color:#7C4318"/>
	</linearGradient>
	<path class="st44" d="M279.15,180.49c0,0,11.46,0.67,18.26-1.73c6.8-2.4,13.86-9.73,13.86-9.73s2.27,3.07,3.46,3.86
		c1.2,0.8,2.13,1.73,2.13,1.73s0.13,10.39,0.13,9.86c0-0.53,5.46-8.66,5.6-11.99c0.13-3.33-5.86-24.66-10.26-27.59
		c-4.4-2.93-11.73-2.4-11.73-2.4s-13.33-1.6-19.72,8.93c-6.4,10.53-7.6,20.79-7.6,20.79s2.97,1.66,3.6,4.53
		c0.93,4.26,1.87,7.73,1.87,7.73L279.15,180.49z"/>
	<path class="st45" d="M316.87,174.62c0,0-0.93-0.93-2.13-1.73c-1.2-0.8-3.46-3.86-3.46-3.86s-7.06,7.33-13.86,9.73
		c-6.8,2.4-18.26,1.73-18.26,1.73l-0.4,4c0,0,2.13,13.46,5.2,18.66c3.07,5.2,10.13,11.06,16.13,9.2c6-1.87,10.93-10.8,13.86-17.86
		c2.57-6.2,2.99-9.83,3.05-10.63C316.96,181.66,316.87,174.62,316.87,174.62z"/>
	<path class="st45" d="M276.04,174.67c-1.16-1.6-2.93-3.29-3.46-1.95c-0.53,1.33,0.71,5.24,2.67,8.88c1.95,3.64,3.91,5.51,3.91,5.51
		S277.2,176.27,276.04,174.67z"/>
	<linearGradient id="SVGID_39_" gradientUnits="userSpaceOnUse" x1="239.3165" y1="378.6653" x2="341.7913" y2="378.6653">
		<stop  offset="0" style="stop-color:#270036"/>
		<stop  offset="0.5936" style="stop-color:#4F008B"/>
		<stop  offset="1" style="stop-color:#4C24B1"/>
	</linearGradient>
	<path class="st46" d="M326.15,353.43c-0.84-8.1-3.45-27.41-6.45-36.34l-0.03,0c0,0-3.6-6.53-8.8-8.66c-5.2-2.13-20.79-4.26-31.32-2
		c-10.53,2.27-20.39,2.93-20.39,2.93s0,0-3.46,1.87c-3.46,1.87-14.79,9.73-14.79,9.73s-3.42,16.84-0.22,24.83
		c3.2,8,11.37,11.37,15.28,12.62c3.91,1.24,13.5,1.78,13.5,1.78s0.89-9.42,3.55-14.39c2.67-4.98,8.71-8.17,12.44-8.17
		c3.73,0,5.86,2.67,5.86,2.67s7.82,34.65,12.79,53.13c4.98,18.48,18.3,58.46,18.3,58.46s6.75-1.42,12.79-3.91
		c6.04-2.49,6.57-3.38,6.57-3.38s-8-35.54-9.06-49.93C331.66,380.26,327.04,361.96,326.15,353.43z"/>
	<linearGradient id="SVGID_40_" gradientUnits="userSpaceOnUse" x1="334.9791" y1="314.4971" x2="320.5856" y2="369.9385">
		<stop  offset="0" style="stop-color:#270036"/>
		<stop  offset="0.5936" style="stop-color:#4F008B"/>
		<stop  offset="1" style="stop-color:#4C24B1"/>
	</linearGradient>
	<path class="st47" d="M326.15,353.43c0.17,1.6,0.47,3.55,0.85,5.76c0.07,0.04,0.14,0.08,0.22,0.1c0,0,11.37-6.04,13.15-10.31
		c1.78-4.26,2.13-11.73,1.6-16.17c-0.53-4.44-3.02-12.08-3.02-12.08s0-2.67-9.42-3.2c-5.54-0.31-8.38-0.32-9.77-0.27
		C322.74,326.26,325.32,345.38,326.15,353.43z"/>
	<linearGradient id="SVGID_41_" gradientUnits="userSpaceOnUse" x1="288.4048" y1="339.0875" x2="289.8968" y2="531.5284">
		<stop  offset="0" style="stop-color:#270036"/>
		<stop  offset="0.5936" style="stop-color:#4F008B"/>
		<stop  offset="1" style="stop-color:#4C24B1"/>
	</linearGradient>
	<path class="st48" d="M308.03,407.35c-1.5-5.23-2.87-10.07-3.91-13.94c-4.98-18.48-12.79-53.13-12.79-53.13s-2.13-2.67-5.86-2.67
		c-3.73,0-9.77,3.2-12.44,8.17c-2.67,4.98-3.55,14.39-3.55,14.39s2.84,9.77,4.8,23.99c1.95,14.22,6.04,47.45,5.86,62.55
		c-0.18,15.1,1.6,38.2,1.6,38.2s5.33,2.31,13.68,1.24c8.35-1.07,8.35-1.6,8.35-1.6s1.24-27.01,2.84-50.82
		C307.83,415.56,308.01,409.3,308.03,407.35z"/>
	<path class="st49" d="M281.37,485.46c0,0-6.22,10.84-11.02,16.7c-4.8,5.86-12.62,15.28-12.79,17.41c-0.18,2.13,1.78,6.4,12.62,5.86
		c10.84-0.53,17.95-3.02,21.68-8c3.73-4.98,4.98-7.29,8.88-12.97c3.91-5.69,6.04-8.53,6.04-8.53s0.36-4.09-0.71-6.93
		c-1.07-2.84-2.31-4.44-2.31-4.44S292.39,487.77,281.37,485.46z"/>
	<linearGradient id="SVGID_42_" gradientUnits="userSpaceOnUse" x1="264.3212" y1="499.5633" x2="303.5535" y2="499.5633">
		<stop  offset="0" style="stop-color:#A1BAFF"/>
		<stop  offset="0" style="stop-color:#FFBF9F"/>
	</linearGradient>
	<path class="st50" d="M303.55,484.63c-1.58,0.41-12.02,2.96-22.18,0.83c0,0-6.22,10.84-11.02,16.7c-1.78,2.17-3.97,4.83-6.04,7.43
		c3.36,1.93,11.99,6.3,18.3,4.47c8-2.31,10.84-8,15.1-16.35C300.14,492.99,302.21,488.04,303.55,484.63z"/>
	<linearGradient id="SVGID_43_" gradientUnits="userSpaceOnUse" x1="321.4604" y1="468.6657" x2="367.393" y2="468.6657">
		<stop  offset="0" style="stop-color:#A1BAFF"/>
		<stop  offset="0" style="stop-color:#FFBF9F"/>
	</linearGradient>
	<path class="st51" d="M322.42,451.87c0,0,1.42,6.04,1.24,7.46c-0.18,1.42-3.55,8.35-1.6,11.91c1.95,3.55,4.09,5.15,4.98,7.46
		c0.89,2.31,2.13,4.62,2.13,4.62h3.2c0,0,1.24,6.93,6.4,8.88c5.15,1.95,25.77-1.95,27.72-3.73c1.95-1.78,0.36-4.44-1.24-6.22
		c-1.6-1.78-10.84-10.48-12.62-14.22c-1.78-3.73-10.84-23.46-10.84-23.46S331.31,450.45,322.42,451.87z"/>
	<path class="st49" d="M360.38,477.31c-2.8,1.71-7.85,2.44-12.73,3.17c-7.11,1.07-12.08,1.78-14.93-1.24
		c-2.29-2.43-7.22-15.09-9.06-19.95c0,0.02,0,0.03,0,0.05c-0.18,1.42-3.55,8.35-1.6,11.91c1.95,3.55,4.09,5.15,4.98,7.46
		c0.89,2.31,2.13,4.62,2.13,4.62h3.2c0,0,1.24,6.93,6.4,8.88c5.15,1.95,25.77-1.95,27.72-3.73c1.95-1.78,0.36-4.44-1.24-6.22
		C364.58,481.52,362.6,479.59,360.38,477.31z"/>
	<path class="st45" d="M259.7,295.37c7.07,1.41,8.13,2,8.13,2s6.26-4.8,7.6-5.6c1.33-0.8,4.13-2,6.26-0.67
		c2.13,1.33,8.53,4.53,9.86,6.26c1.33,1.73,2,4.13,2,4.13l-41.71-2.93C251.83,298.57,256.36,294.7,259.7,295.37z"/>
	<linearGradient id="SVGID_44_" gradientUnits="userSpaceOnUse" x1="235.3074" y1="307.8948" x2="404.0571" y2="307.8948">
		<stop  offset="0" style="stop-color:#E18300"/>
		<stop  offset="0.1199" style="stop-color:#CD7822"/>
		<stop  offset="0.4441" style="stop-color:#9B5B79"/>
		<stop  offset="0.7088" style="stop-color:#7645B9"/>
		<stop  offset="0.9005" style="stop-color:#6038E1"/>
		<stop  offset="1" style="stop-color:#5733F0"/>
	</linearGradient>
	<path class="st52" d="M235.31,312.43c0.4,0,7.6-2.4,9.06-6c1.47-3.6,1.2-8,1.2-8l89.83,6.13c0,0,2,4.66,0.53,6.8
		c-1.47,2.13-8.93,6-8.93,6l-7.24-0.09c0,0-3.29-7.24-9.69-8.97c-6.4-1.73-17.59-4.26-26.79-2.53c-9.2,1.73-17.99,3.33-20.39,3.46
		c-2.4,0.13-3.73,0.13-3.73,0.13l-1.47,0.53L235.31,312.43z"/>
	<linearGradient id="SVGID_45_" gradientUnits="userSpaceOnUse" x1="246.7688" y1="285.3052" x2="258.097" y2="285.3052">
		<stop  offset="0" style="stop-color:#00BAFF"/>
		<stop  offset="0.6096" style="stop-color:#FFFFFF"/>
	</linearGradient>
	<path class="st53" d="M247.04,288.3l11.06,6.8c0,0-8.26-7.06-9.33-9.33c-1.07-2.27-2-10.26-2-10.26L247.04,288.3z"/>
	<path class="st24" d="M304.58,256.52c0.32,0.94,0.01,1.9-0.69,2.13c-0.7,0.23-1.52-0.34-1.84-1.28c-0.32-0.94-0.01-1.9,0.69-2.13
		C303.44,255,304.27,255.57,304.58,256.52z"/>
	<linearGradient id="SVGID_46_" gradientUnits="userSpaceOnUse" x1="346.0272" y1="364.9407" x2="308.0483" y2="253.6536">
		<stop  offset="0" style="stop-color:#9E1DFF"/>
		<stop  offset="0.6043" style="stop-color:#0E90FF"/>
	</linearGradient>
	<path class="st54" d="M299.86,251.79c0,0,7.42-2,11.15-4.26c3.73-2.27,5.02-3.55,5.02-3.55s6.84,19.41,9.64,25.01
		c2.8,5.6,7.6,15.73,8.53,21.19c0.93,5.46,0.4,14.13,0.4,14.13l-23.86-1.73c0,0-2.89-12.39-5.55-24.12
		C302.52,266.71,299.86,251.79,299.86,251.79z"/>
	<linearGradient id="SVGID_47_" gradientUnits="userSpaceOnUse" x1="322.0674" y1="244.1908" x2="341.7913" y2="244.1908">
		<stop  offset="0" style="stop-color:#311A36"/>
		<stop  offset="1" style="stop-color:#8660DB"/>
	</linearGradient>
	<path class="st55" d="M322.07,258.45l0.53-10c0,0,5.86-9.6,9.2-13.19c3.33-3.6,10-9.6,10-9.6s-15.73,18.39-16.93,22.26
		c-1.2,3.86-1.6,14.79-1.6,14.79L322.07,258.45z"/>
	<path class="st56" d="M313.98,245.39c0.2-0.18-4.44-11.11-5.24-13.24c-0.8-2.13-3.55-20.26-4.18-20.88
		c-0.62-0.62-10.22-6.31-10.75-6.66c-0.53-0.36-9.39,2.6-10.4,3.02c-2.13,0.89-1.69,4.18,0,4c1.69-0.18,5.24-1.95,5.24-1.95
		s-3.73,7.11-3.46,8.88c0.27,1.78,3.36,11.32,4.44,11.28c2.49-0.09,2.31-2.75,2.31-2.75s1.33,0.18,1.78-0.27
		c0.44-0.44,0.62-1.24,0.62-1.24s1.87,9.42,3.11,11.28c1.24,1.87,3.2,1.87,3.64,4c0.44,2.13,1.95,10.22,1.95,10.22
		S309.81,249.12,313.98,245.39z"/>
	<linearGradient id="SVGID_48_" gradientUnits="userSpaceOnUse" x1="237.1732" y1="255.7303" x2="247.7526" y2="255.7303">
		<stop  offset="0" style="stop-color:#311A36"/>
		<stop  offset="1" style="stop-color:#8660DB"/>
	</linearGradient>
	<path class="st57" d="M247.7,228.79l-0.77,38.26c0,0-1.68,7.35-5.36,11.94c-3.67,4.59-4.4,3.58-4.4,3.58s4.36-7.48,6.85-20.72
		C246.93,246.41,248.03,231.43,247.7,228.79z"/>
	<linearGradient id="SVGID_49_" gradientUnits="userSpaceOnUse" x1="299.8556" y1="250.2837" x2="317.8931" y2="250.2837">
		<stop  offset="0" style="stop-color:#311A36"/>
		<stop  offset="1" style="stop-color:#8660DB"/>
	</linearGradient>
	<path class="st58" d="M316.03,243.97c0,0-1.29,1.29-5.02,3.55c-3.73,2.27-11.15,4.26-11.15,4.26s0.34,1.88,0.88,4.81
		c4.42-1.12,12.89-3.63,17.15-7.42C316.78,246.12,316.03,243.97,316.03,243.97z"/>
</g>
<g>
	<linearGradient id="SVGID_50_" gradientUnits="userSpaceOnUse" x1="579.3719" y1="196.8511" x2="578.5978" y2="199.9478">
		<stop  offset="0" style="stop-color:#F9AE7A"/>
		<stop  offset="1" style="stop-color:#FFD6B8"/>
	</linearGradient>
	<path class="st59" d="M585.95,235.08c18.66-11.73,20.79-37.85,20.79-37.85l-8.4-6.62l-26.65-7.6c0,0-1.2,2.8-3.33,4.53
		c-2.13,1.73-16.17,5.95-16.17,5.95s9.06,25.23,15.64,34.12C574.4,236.51,582.36,237.34,585.95,235.08z"/>
	<linearGradient id="SVGID_51_" gradientUnits="userSpaceOnUse" x1="575.8167" y1="155.2466" x2="626.4052" y2="155.2466">
		<stop  offset="0" style="stop-color:#110000"/>
		<stop  offset="0" style="stop-color:#CC5116"/>
	</linearGradient>
	<path class="st60" d="M575.82,154.63c0,0,3.2,3.73,7.6,3.07c4.4-0.67,13.99-4.13,19.19-3.46c5.2,0.67,8.66,2.27,8.66,2.27
		s1.47-1.6,2.13-6.53c0.67-4.93,0.13-7.6,0.13-7.6s1.6,5.2,0.8,8.8c-0.8,3.6-1.87,6.4-1.87,6.4s2.53,5.2,2.67,9.73
		c0.13,4.53-1.33,10-1.33,10s10.93-9.86,12.26-16.79c1.33-6.93-1.47-16.39-3.73-19.72c-2.27-3.33-7.06-6.4-13.19-7.33
		c-6.13-0.93-16.79,0.93-22.39,4.8C581.15,142.1,576.08,149.83,575.82,154.63z"/>
	<path class="st61" d="M615.13,167.29c-0.13-4.53-2.67-9.73-2.67-9.73s1.07-2.8,1.87-6.4c0.8-3.6-0.8-8.8-0.8-8.8
		s0.53,2.67-0.13,7.6c-0.67,4.93-2.13,6.53-2.13,6.53s-3.46-1.6-8.66-2.27c-5.2-0.67-14.79,2.8-19.19,3.46
		c-2.51,0.38-4.62-0.67-5.98-1.64c-0.81,1.56-5.7,11.23-6.68,18.43c-1.07,7.86,4.27,17.73,6.13,19.86
		c1.87,2.13,10.66,3.86,18.92-0.13c6.95-3.36,13.33-7.67,18.12-17.44C614.28,175.31,615.24,170.99,615.13,167.29z"/>
	<path class="st61" d="M575.82,154.63c0,0-3.64,5.82-3.82,8.4c-0.18,2.58,0.89,3.2,0.89,3.2l1.87-4.62l2.68-5.55L575.82,154.63z"/>
	<path class="st61" d="M608.6,185.15c0,0,1.87,0.8,3.46-0.27c1.6-1.07,5.86-7.64,6.4-9.24c0.53-1.6,0.18-3.29,0.18-3.29
		s-1.95,2.22-3.29,3.46c-1.33,1.24-1.55,1.47-1.55,1.47S610.02,183.37,608.6,185.15z"/>
	<linearGradient id="SVGID_52_" gradientUnits="userSpaceOnUse" x1="547.2249" y1="244.6609" x2="614.9669" y2="252.4029">
		<stop  offset="0" style="stop-color:#1061B2"/>
		<stop  offset="1" style="stop-color:#88F2AE"/>
	</linearGradient>
	<path class="st62" d="M519.66,227.62c0,0,2.84-20.61,6.22-23.63c3.38-3.02,7.64-4.09,15.46-6.93c7.82-2.84,10.84-3.55,10.84-3.55
		s9.06,25.23,15.64,34.12c6.57,8.89,14.54,9.72,18.12,7.46c18.66-11.73,20.79-37.85,20.79-37.85s20.97,9.06,23.81,11.91
		c2.84,2.84,3.73,16.88,3.73,16.88l-13.15,3.91c0,0-8.71,29.5-9.95,41.94c-1.24,12.44,3.38,30.56,3.38,30.56s-28.25-4.09-44.42-4.26
		c-16.17-0.18-26.12,0.36-26.12,0.36v-63.97C544.01,234.55,529.62,228.69,519.66,227.62z"/>
	<g>
		<linearGradient id="SVGID_53_" gradientUnits="userSpaceOnUse" x1="588.3597" y1="237.0191" x2="633.745" y2="237.0191">
			<stop  offset="0.0544" style="stop-color:#EFAC7F"/>
			<stop  offset="0.1474" style="stop-color:#FFD6B8"/>
		</linearGradient>
		<path class="st63" d="M633.66,226.47c0,0-1.47,12.93-1.6,16.53c-0.13,3.6,0.27,25.99-2,31.72c-2.27,5.73-4.8,9.86-8.66,11.59
			c-3.86,1.73-11.46-1.87-13.06-5.2c-1.6-3.33-6-15.33-6-21.59c0-6.26-1.47-32.52-2-34.38c-0.53-1.87-5.6-8.13-6.13-11.46
			c-0.53-3.33-1.78-10.84-2.67-12.26c-0.89-1.42-3.91-4.8-3.02-5.33c0.89-0.53,2.84-0.98,2.84-0.98s1.33-1.95,2.93-2.49
			c1.6-0.53,2.31-0.62,2.31-0.62s3.91-3.11,5.33-3.2c1.42-0.09,1.42-0.09,1.42-0.09s3.46-1.42,5.33-1.42c1.87,0,2.93,0.27,2.49,2.49
			c-0.44,2.22-2.4,8.09-2.4,10.93s0.18,11.64,1.33,17.06c1.15,5.42,7.46,20.79,7.46,20.79l3.56-8.62c0,0,10.84-3.02,12.62-3.82"/>
		<linearGradient id="SVGID_54_" gradientUnits="userSpaceOnUse" x1="617.3976" y1="248.5" x2="629.8365" y2="248.5">
			<stop  offset="0" style="stop-color:#FFD6B8"/>
			<stop  offset="1" style="stop-color:#FFD6B8"/>
		</linearGradient>
		<path class="st64" d="M617.4,237.75c0,0,5.86,13.5,8,21.32c2.13,7.82,2.67,10.48,2.67,10.48s1.24-26.3,1.24-32.34
			c0-6.04,0.53-9.77,0.53-9.77l-8.71,2.49L617.4,237.75z"/>
		<linearGradient id="SVGID_55_" gradientUnits="userSpaceOnUse" x1="588.3597" y1="206.6237" x2="596.3997" y2="206.6237">
			<stop  offset="1" style="stop-color:#C17B4C"/>
			<stop  offset="1" style="stop-color:#FFD6B8"/>
		</linearGradient>
		<path class="st65" d="M596.21,204.48c-0.13-2.53-0.4-8.53-0.4-8.53h-1.73l-0.4,2.13c0,0-1.6,0.27-2-0.67
			c-0.4-0.93,0.13-2.67,0.13-2.67s-0.06-0.01-0.15-0.03c-0.19,0.23-0.29,0.39-0.29,0.39s-1.96,0.44-2.84,0.98
			c-0.89,0.53,2.13,3.91,3.02,5.33c0.89,1.42,2.13,8.93,2.67,12.26c0.21,1.31,1.13,3.08,2.19,4.86
			C596.08,213.78,596.31,206.52,596.21,204.48z"/>
	</g>
	<linearGradient id="SVGID_56_" gradientUnits="userSpaceOnUse" x1="543.8322" y1="394.6966" x2="624.4713" y2="394.6966">
		<stop  offset="0" style="stop-color:#270036"/>
		<stop  offset="0.5936" style="stop-color:#4F008B"/>
		<stop  offset="1" style="stop-color:#4C24B1"/>
	</linearGradient>
	<path class="st66" d="M614.55,302.43c0,0,5.33,5.86,7.82,15.64c2.49,9.77,2.49,23.63,1.42,29.32c-1.07,5.69-3.55,8.89-3.55,8.89
		s-14.04,33.23-14.75,42.65c-0.71,9.42-7.29,48.87-9.42,58.64c-2.13,9.77-2.31,13.68-2.31,17.06c0,3.38-1.78,6.22-1.78,7.82
		c0,1.6,0,4.09,0,4.09s-2.67,5.86-6.75,4.98c-4.09-0.89-6.58-2.49-7.29-3.02c-0.71-0.53-7.46-4.98-7.46-4.98s3.02-3.2,3.55-4.8
		c0.53-1.6,1.6-6.04,2.49-8.35c0.89-2.31,0.18-14.75-0.18-24.88c-0.36-10.13-3.91-56.33-4.44-62.19
		c-0.53-5.86-1.78-30.21-1.78-30.21l-26.3-49.58l0.18-4.97C544.01,298.52,591.81,295.32,614.55,302.43z"/>
	<linearGradient id="SVGID_57_" gradientUnits="userSpaceOnUse" x1="543.8322" y1="394.6966" x2="624.4713" y2="394.6966">
		<stop  offset="0" style="stop-color:#270036"/>
		<stop  offset="0.5936" style="stop-color:#4F008B"/>
		<stop  offset="1" style="stop-color:#4C24B1"/>
	</linearGradient>
	<path class="st67" d="M614.55,302.43c0,0,5.33,5.86,7.82,15.64c2.49,9.77,2.49,23.63,1.42,29.32c-1.07,5.69-3.55,8.89-3.55,8.89
		s-14.04,33.23-14.75,42.65c-0.71,9.42-7.29,48.87-9.42,58.64c-2.13,9.77-2.31,13.68-2.31,17.06c0,3.38-1.78,6.22-1.78,7.82
		c0,1.6,0,4.09,0,4.09s-2.67,5.86-6.75,4.98c-4.09-0.89-6.58-2.49-7.29-3.02c-0.71-0.53-7.46-4.98-7.46-4.98s3.02-3.2,3.55-4.8
		c0.53-1.6,1.6-6.04,2.49-8.35c0.89-2.31,0.18-14.75-0.18-24.88c-0.36-10.13-3.91-56.33-4.44-62.19
		c-0.53-5.86-1.78-30.21-1.78-30.21l-26.3-49.58l0.18-4.97C544.01,298.52,591.81,295.32,614.55,302.43z"/>
	<linearGradient id="SVGID_58_" gradientUnits="userSpaceOnUse" x1="520.5529" y1="265.6698" x2="630.5236" y2="265.6698">
		<stop  offset="1" style="stop-color:#FFD6B8"/>
		<stop  offset="1" style="stop-color:#F6B99A"/>
		<stop  offset="1" style="stop-color:#EFA07F"/>
		<stop  offset="1" style="stop-color:#E98E6B"/>
		<stop  offset="1" style="stop-color:#E68360"/>
		<stop  offset="1" style="stop-color:#E57F5C"/>
	</linearGradient>
	<path class="st68" d="M520.55,227.44c0,0,1.24,23.81,3.38,37.14c2.13,13.33,5.86,25.77,9.24,27.37c3.38,1.6,21.5,5.69,39.27,7.11
		c17.77,1.42,25.77,1.78,25.77,1.78s4.66,3.07,9.2,3.07c4.53,0,10.8-1.47,10.8-1.47s5.2,1.07,6.4,0.53c1.2-0.53,1.47-2.93,0.8-3.73
		c-0.67-0.8-0.67-0.8-0.67-0.8s3.46-1.33,3.07-2.67c-0.4-1.33-1.87-2.27-1.87-2.27s3.6-0.4,3.86-1.47c0.27-1.07,0.27-2.53-0.53-2.93
		c-0.8-0.4-1.47-1.2-1.47-1.2s2.27-0.93,2.67-2.4c0.4-1.47-1.07-2.67-3.07-3.2c-2-0.53-15.99-0.27-19.19,0.93
		c-3.2,1.2-7.6,5.33-11.73,5.06c-4.13-0.27-24.26-4.4-34.12-9.06c-9.86-4.66-15.19-7.33-15.33-9.2c-0.13-1.87-3.02-35.49-3.02-35.49
		S529.79,229.35,520.55,227.44z"/>
	<linearGradient id="SVGID_59_" gradientUnits="userSpaceOnUse" x1="570.486" y1="472.1841" x2="596.6371" y2="472.1841">
		<stop  offset="0.8333" style="stop-color:#FFD6B8"/>
		<stop  offset="0.8444" style="stop-color:#FFDBC1"/>
		<stop  offset="0.882" style="stop-color:#FFEBDC"/>
		<stop  offset="0.9203" style="stop-color:#FFF6F0"/>
		<stop  offset="0.9593" style="stop-color:#FFFDFB"/>
		<stop  offset="1" style="stop-color:#FFFFFF"/>
	</linearGradient>
	<path class="st69" d="M596.64,454.82c-7.54,0.52-16.06-1.13-20.01-2.04c0.32,8.07,0.58,15.8-0.1,17.57
		c-0.89,2.31-1.95,6.75-2.49,8.35c-0.53,1.6-3.55,4.8-3.55,4.8s6.75,4.44,7.46,4.98c0.71,0.53,3.2,2.13,7.29,3.02
		c4.09,0.89,6.75-4.98,6.75-4.98s0-2.49,0-4.09c0-1.6,1.78-4.44,1.78-7.82c0-3.38,0.18-7.29,2.31-17.06
		C596.24,456.81,596.43,455.89,596.64,454.82z"/>
	<linearGradient id="SVGID_60_" gradientUnits="userSpaceOnUse" x1="523.9301" y1="375.166" x2="654.7142" y2="375.166">
		<stop  offset="0" style="stop-color:#270036"/>
		<stop  offset="0.4275" style="stop-color:#4F008B"/>
		<stop  offset="1" style="stop-color:#4C24B1"/>
	</linearGradient>
	<path class="st70" d="M523.93,331.22c0,0,1.23,12.84,5.69,18.13c4.8,5.69,18.66,9.77,26.3,9.42c7.64-0.36,13.15-4.8,16.88-7.29
		c3.73-2.49,6.93-3.91,8.17-1.95c1.24,1.95,14.22,26.3,21.5,38.38c7.29,12.08,24.7,36.6,26.3,41.23c1.6,4.62,1.78,7.64,2.84,9.6
		c1.07,1.95,1.78,3.2,3.38,4.62c1.6,1.42,5.51,4.09,8.35,3.38c2.84-0.71,7.11-7.46,9.24-8.71c2.13-1.24,2.13-1.24,2.13-1.24
		s-5.51-7.82-7.64-10.66c-2.13-2.84-6.22-6.58-9.06-11.37c-2.84-4.8-12.26-44.42-19.01-61.48c-6.75-17.06-11.73-32.87-21.86-38.2
		c-10.13-5.33-53.31-11.55-53.31-11.55s0.72,2.71-1.78,7.11C539.29,315.47,532.89,322.44,523.93,331.22z"/>
	<path class="st71" d="M683.68,455.6c-4.09-3.2-11.55-5.69-14.57-8.88c-3.02-3.2-11.37-10.66-12.08-10.66
		c-0.71,0-2.31,0.71-2.31,0.71s0,0-2.13,1.24c-2.13,1.24-6.4,8-9.24,8.71c-2.84,0.71-6.75-1.95-8.35-3.38
		c-1.03-0.91-1.69-1.76-2.31-2.76c-0.02,0.98-0.32,8.04,0.71,11.64c1.07,3.73,4.8,10.13,4.8,10.13l3.2,0.71l2.31-1.6
		c0,0,7.46,7.82,12.08,8.35c4.62,0.53,15.99-1.95,23.1-4.98c7.11-3.02,7.29-4.26,7.29-4.26S687.77,458.8,683.68,455.6z"/>
	<path d="M641.39,463.07c0,0-2.13-4.62-1.6-4.26c0.53,0.36,3.91,2.67,3.91,2.67L641.39,463.07z"/>
	<path d="M667.62,468.39c3.95-0.92,8.04-2.18,11.26-3.55c7.11-3.02,7.29-4.26,7.29-4.26s0.48-0.54,0.24-1.54
		c-2.06,0.72-5.15,1.82-7.53,2.79C675.92,463.03,670.22,466.68,667.62,468.39z"/>
	<linearGradient id="SVGID_61_" gradientUnits="userSpaceOnUse" x1="615.0099" y1="423.4894" x2="654.7142" y2="423.4894">
		<stop  offset="0" style="stop-color:#FFD6B8"/>
		<stop  offset="0.8684" style="stop-color:#FFD9BD"/>
		<stop  offset="0.8728" style="stop-color:#FFDCC1"/>
		<stop  offset="0.9036" style="stop-color:#FFEBDC"/>
		<stop  offset="0.9348" style="stop-color:#FFF6F0"/>
		<stop  offset="0.9667" style="stop-color:#FFFDFB"/>
		<stop  offset="1" style="stop-color:#FFFFFF"/>
	</linearGradient>
	<path class="st72" d="M638.01,414.73c-0.96-1.62-2.67-7.23-4.78-14.59c-7.06,1.7-14.76,5.32-18.22,7.05
		c6.53,9.8,12.83,19.24,13.76,21.93c1.6,4.62,1.78,7.64,2.84,9.6c1.07,1.95,1.78,3.2,3.38,4.62c1.6,1.42,5.51,4.09,8.35,3.38
		c2.84-0.71,7.11-7.46,9.24-8.71c2.13-1.24,2.13-1.24,2.13-1.24s-5.51-7.82-7.64-10.66C644.94,423.26,640.85,419.53,638.01,414.73z"
		/>
	<path class="st71" d="M585.23,491.5c-4.09-0.89-6.58-2.49-7.29-3.02c-0.71-0.53-7.46-4.98-7.46-4.98s-13.5,12.79-18.3,15.99
		c-4.8,3.2-5.69,3.02-6.75,3.73c-1.07,0.71-1.78,4.26-1.78,4.26s5.51,5.33,12.79,7.11c7.29,1.78,13.68,3.91,18.3,0.53
		c4.62-3.38,11.02-10.48,11.02-10.48l3.02,1.07l3.73-4.44c0,0,1.07-4.44,1.6-6.22c0.53-1.78-2.13-8.53-2.13-8.53
		S589.32,492.39,585.23,491.5z"/>
	<path d="M588.79,505.71l3.73-4.44c0,0,1.07-4.44,1.6-6.22c0.07-0.22,0.08-0.51,0.06-0.86c-3.05,3.48-16.09,18.15-20.32,19.87
		c-4.8,1.95-12.44-0.36-17.77-1.95c-4.36-1.31-10.14-4.75-12.11-5.97c-0.21,0.75-0.33,1.34-0.33,1.34s5.51,5.33,12.79,7.11
		c7.29,1.78,13.68,3.91,18.3,0.53c4.62-3.38,11.02-10.48,11.02-10.48L588.79,505.71z"/>
	<polygon class="st24" points="588.79,502.16 588.79,505.71 585.77,504.65 	"/>
	<linearGradient id="SVGID_62_" gradientUnits="userSpaceOnUse" x1="543.5649" y1="248.9885" x2="562.3557" y2="248.9885">
		<stop  offset="0" style="stop-color:#270036"/>
		<stop  offset="0.4275" style="stop-color:#4F008B"/>
		<stop  offset="1" style="stop-color:#4C24B1"/>
	</linearGradient>
	<path class="st73" d="M544.01,234.55l-0.44-15.82c0,0,6.4,46.38,9.6,51.98c3.2,5.6,9.2,8.53,9.2,8.53s-13.99-5.86-15.33-9.2
		C545.7,266.71,544.01,234.55,544.01,234.55z"/>
	<linearGradient id="SVGID_63_" gradientUnits="userSpaceOnUse" x1="519.6646" y1="228.7643" x2="544.0096" y2="228.7643">
		<stop  offset="0" style="stop-color:#E18300"/>
		<stop  offset="0" style="stop-color:#AB5B29"/>
		<stop  offset="0" style="stop-color:#6C2C59"/>
		<stop  offset="0" style="stop-color:#440F77"/>
		<stop  offset="0" style="stop-color:#350482"/>
	</linearGradient>
	<polygon class="st74" points="520.21,222.98 543.68,228.9 544.01,234.55 519.66,227.62 	"/>
	<linearGradient id="SVGID_64_" gradientUnits="userSpaceOnUse" x1="638.9026" y1="220.2498" x2="609.5196" y2="234.9412">
		<stop  offset="0" style="stop-color:#E18300"/>
		<stop  offset="0.0107" style="stop-color:#CD7822"/>
		<stop  offset="0.0397" style="stop-color:#9B5B79"/>
		<stop  offset="0.0634" style="stop-color:#7645B9"/>
		<stop  offset="0.0806" style="stop-color:#6038E1"/>
		<stop  offset="0.0895" style="stop-color:#5733F0"/>
	</linearGradient>
	<polyline class="st75" points="621.13,229.93 621.2,229.33 621.63,225.43 634.08,222.37 634.28,226.02 	"/>
</g>
<g>
	<linearGradient id="SVGID_65_" gradientUnits="userSpaceOnUse" x1="407.9188" y1="203.2696" x2="460.0698" y2="203.2696">
		<stop  offset="0" style="stop-color:#BF1A00"/>
		<stop  offset="1" style="stop-color:#56009F"/>
	</linearGradient>
	<path class="st76" d="M413.23,194.71c0,0-11.94,16.42,0,25.75c11.94,9.33,50.32,16.52,46.59,5.2s-17.73-38.56-17.73-38.56
		s-7.61-9.18-15.2-12.03"/>
	<linearGradient id="SVGID_66_" gradientUnits="userSpaceOnUse" x1="365.7876" y1="247.8687" x2="490.3893" y2="247.8687">
		<stop  offset="0.7404" style="stop-color:#070A38"/>
		<stop  offset="0.9" style="stop-color:#19164F"/>
		<stop  offset="1" style="stop-color:#8660DB"/>
	</linearGradient>
	<path class="st77" d="M391.24,203.54c0,0-11.33,5.06-15.99,8.66c-4.66,3.6-10.8,10-9.2,24.52c1.6,14.53,5.46,48.91,5.46,48.91
		s11.46,11.59,11.73,12.93c0.27,1.33-0.53,3.07-0.53,3.07s-5.86,5.73-5.2,10.39c0.67,4.66,3.87,8.93,3.87,8.53
		c0-0.4,4.4-17.72,19.06-20.12c14.66-2.4,30.12-6.66,46.51-5.73c16.39,0.93,26.39,7.46,26.39,7.46l17.06-5.33
		c0,0-5.2-7.86-5.2-10.13c0-2.27-4.26-93.56-4.26-93.56s-4.93-0.67-13.46-2.4c-8.53-1.73-19.46-3.86-20.92-5.06
		c-1.47-1.2-4.4-9.46-8.26-10c-3.86-0.53-7.06-0.53-7.06-0.53s1.73,3.46,5.2,6.4c3.46,2.93,3.46,2.93,3.46,2.93s1.2,5.33-4,17.59
		c-5.2,12.26-7.86,16.93-7.86,16.93s-9.33-7.46-12.13-11.99c-2.8-4.53-2.8-4.53-2.8-4.53L391.24,203.54z"/>
	<linearGradient id="SVGID_67_" gradientUnits="userSpaceOnUse" x1="400.6312" y1="299.0775" x2="394.7202" y2="290.4273">
		<stop  offset="0" style="stop-color:#311A36"/>
		<stop  offset="1" style="stop-color:#8660DB"/>
	</linearGradient>
	<path class="st78" d="M382.71,301.63c1.2,0.11,13.44,2.36,19.97-2.74c6.53-5.1,8.57-13.06,8.57-13.06l-11.02-2.86l-16.94,11.63"/>
	<linearGradient id="SVGID_68_" gradientUnits="userSpaceOnUse" x1="464.7185" y1="264.3155" x2="444.5941" y2="234.8652">
		<stop  offset="0" style="stop-color:#311A36"/>
		<stop  offset="1" style="stop-color:#8660DB"/>
	</linearGradient>
	<path class="st79" d="M407.47,269.81c0,0,55.4,0.61,59.38-2.75c3.98-3.37,6.43-5.51,6.43-8.57c0-3.06,7.04-60.6,7.04-60.6
		s-8.26,9.49-12.55,26.94s-5.51,35.51-5.51,35.51s-16.49,2.84-22.04,3.37c-8,0.76-32.14,1.22-32.14,1.22"/>
	<linearGradient id="SVGID_69_" gradientUnits="userSpaceOnUse" x1="431.2169" y1="179.7807" x2="440.0309" y2="179.7807">
		<stop  offset="0" style="stop-color:#311A36"/>
		<stop  offset="1" style="stop-color:#8660DB"/>
	</linearGradient>
	<path class="st80" d="M431.22,175.16c0,0,7.33-0.93,8.26,3.6c0.93,4.53,0.4,5.73,0.4,5.73S432.82,179.82,431.22,175.16z"/>
	<linearGradient id="SVGID_70_" gradientUnits="userSpaceOnUse" x1="479.2461" y1="287.4064" x2="445.7809" y2="238.4333">
		<stop  offset="1" style="stop-color:#05007F"/>
		<stop  offset="1" style="stop-color:#8660DB"/>
	</linearGradient>
	<path class="st81" d="M407.63,268.18c-0.03-0.4,30.39-0.8,37.18-1.6c6.8-0.8,21.72-4.13,21.72-4.13s0.8-28.92,4.26-45.05
		c3.46-16.13,8.26-24.92,12.13-24.39c3.86,0.53,14.26,5.6,16.26,35.72c2,30.12-8,56.77-11.86,60.11
		c-3.86,3.33-16.39,3.86-24.26,3.86s-31.19-5.06-41.31-5.73c-10.13-0.67-16.66-2.13-16.66-2.13S408.03,272.98,407.63,268.18z"/>
	<linearGradient id="SVGID_71_" gradientUnits="userSpaceOnUse" x1="371.4716" y1="255.2059" x2="408.0717" y2="255.2059">
		<stop  offset="0" style="stop-color:#311A36"/>
		<stop  offset="1" style="stop-color:#331C3A"/>
		<stop  offset="1" style="stop-color:#8660DB"/>
	</linearGradient>
	<path class="st82" d="M392.44,212.07c0,0-3.73,15.55-5.42,22.57c-1.69,7.02-7.2,19.63-10.66,27.54
		c-3.46,7.91-6.66,21.23-3.73,26.39c2.93,5.15,8.97,9.51,14.48,10.39c5.51,0.89,12.26-1.51,14.93-5.51c2.67-4,6.49-22.12,5.69-34.03
		c-0.8-11.91-2.04-29.94-1.87-32.87c0.18-2.93,2.22-12.08,2.22-12.08S400.34,209.32,392.44,212.07z"/>
	<g>
		<path class="st83" d="M433.29,229.3c0,1.46-1.19,2.65-2.65,2.65c-1.46,0-2.65-1.19-2.65-2.65c0-1.46,1.19-2.65,2.65-2.65
			C432.1,226.65,433.29,227.84,433.29,229.3z"/>
		<path class="st83" d="M445.32,214.61c0,1.46-1.19,2.65-2.65,2.65c-1.46,0-2.65-1.19-2.65-2.65c0-1.46,1.19-2.65,2.65-2.65
			C444.14,211.96,445.32,213.15,445.32,214.61z"/>
		<path class="st83" d="M448.79,191.35c0,1.46-1.19,2.65-2.65,2.65c-1.46,0-2.65-1.19-2.65-2.65c0-1.46,1.19-2.65,2.65-2.65
			C447.61,188.7,448.79,189.88,448.79,191.35z"/>
		<path class="st83" d="M461.24,199.31c0,1.46-1.19,2.65-2.65,2.65c-1.46,0-2.65-1.19-2.65-2.65s1.19-2.65,2.65-2.65
			C460.05,196.65,461.24,197.84,461.24,199.31z"/>
		<path class="st83" d="M485.12,197.78c0,1.46-1.19,2.65-2.65,2.65c-1.46,0-2.65-1.19-2.65-2.65s1.19-2.65,2.65-2.65
			C483.93,195.12,485.12,196.31,485.12,197.78z"/>
		<path class="st83" d="M468.18,215.84c0,1.46-1.19,2.65-2.65,2.65c-1.46,0-2.65-1.19-2.65-2.65c0-1.46,1.19-2.65,2.65-2.65
			C466.99,213.18,468.18,214.37,468.18,215.84z"/>
		<path class="st83" d="M461.85,234c0,1.46-1.19,2.65-2.65,2.65c-1.46,0-2.65-1.19-2.65-2.65s1.19-2.65,2.65-2.65
			C460.67,231.34,461.85,232.53,461.85,234z"/>
		<path class="st83" d="M449.41,251.14c0,1.46-1.19,2.65-2.65,2.65c-1.46,0-2.65-1.19-2.65-2.65s1.19-2.65,2.65-2.65
			C448.22,248.48,449.41,249.67,449.41,251.14z"/>
		<path class="st83" d="M434.31,264.81c0,1.47-1.19,2.65-2.65,2.65c-1.46,0-2.65-1.19-2.65-2.65c0-1.46,1.19-2.65,2.65-2.65
			C433.12,262.16,434.31,263.34,434.31,264.81z"/>
		<path class="st83" d="M414.72,245.22c0,1.46-1.19,2.65-2.65,2.65c-1.46,0-2.65-1.19-2.65-2.65c0-1.46,1.19-2.65,2.65-2.65
			C413.53,242.57,414.72,243.76,414.72,245.22z"/>
		<path class="st83" d="M406.15,222.16c1.47,0,2.65,1.19,2.65,2.65s-1.19,2.65-2.65,2.65"/>
		<path class="st83" d="M389.21,223.79c0,1.46-1.19,2.65-2.65,2.65c-1.46,0-2.65-1.19-2.65-2.65s1.19-2.65,2.65-2.65
			C388.02,221.14,389.21,222.33,389.21,223.79z"/>
		<path class="st83" d="M373.91,234.81c0,1.46-1.19,2.65-2.65,2.65c-1.46,0-2.65-1.19-2.65-2.65c0-1.46,1.19-2.65,2.65-2.65
			C372.72,232.16,373.91,233.35,373.91,234.81z"/>
		<path class="st83" d="M461.85,279.71c0,1.46-1.19,2.65-2.65,2.65c-1.46,0-2.65-1.19-2.65-2.65c0-1.47,1.19-2.65,2.65-2.65
			C460.67,277.05,461.85,278.24,461.85,279.71z"/>
		<path class="st83" d="M486.95,276.44c0,1.47-1.19,2.65-2.65,2.65c-1.46,0-2.65-1.19-2.65-2.65c0-1.47,1.19-2.65,2.65-2.65
			C485.76,273.79,486.95,274.98,486.95,276.44z"/>
		<path class="st83" d="M493.07,246.24c0,1.46-1.19,2.65-2.65,2.65c-1.46,0-2.65-1.19-2.65-2.65s1.19-2.65,2.65-2.65
			C491.89,243.59,493.07,244.78,493.07,246.24z"/>
		<path class="st83" d="M493.48,218.9c0,1.46-1.19,2.65-2.65,2.65c-1.46,0-2.65-1.19-2.65-2.65s1.19-2.65,2.65-2.65
			C492.29,216.24,493.48,217.43,493.48,218.9z"/>
		<path class="st83" d="M472.87,255.63c0,1.47-1.19,2.65-2.65,2.65c-1.46,0-2.65-1.19-2.65-2.65c0-1.47,1.19-2.65,2.65-2.65
			C471.68,252.97,472.87,254.16,472.87,255.63z"/>
		<path class="st83" d="M434.51,280.93c0,1.46-1.19,2.65-2.65,2.65c-1.46,0-2.65-1.19-2.65-2.65c0-1.47,1.19-2.65,2.65-2.65
			C433.32,278.28,434.51,279.46,434.51,280.93z"/>
		<circle class="st83" cx="477.67" cy="296.74" r="2.65"/>
		<path class="st83" d="M420.23,291.54c0,1.47-1.19,2.65-2.65,2.65c-1.46,0-2.65-1.19-2.65-2.65c0-1.47,1.19-2.65,2.65-2.65
			C419.04,288.89,420.23,290.08,420.23,291.54z"/>
		<path class="st83" d="M378.6,215.33c0,1.46-1.19,2.65-2.65,2.65c-1.46,0-2.65-1.19-2.65-2.65s1.19-2.65,2.65-2.65
			C377.41,212.67,378.6,213.86,378.6,215.33z"/>
		<path class="st83" d="M417.37,279.91c0,1.46-1.19,2.65-2.65,2.65c-1.46,0-2.65-1.19-2.65-2.65c0-1.47,1.19-2.65,2.65-2.65
			C416.18,277.26,417.37,278.44,417.37,279.91z"/>
		<circle class="st83" cx="381.05" cy="285.01" r="2.65"/>
		<path class="st83" d="M386.15,261.75c0,1.47-1.19,2.65-2.65,2.65c-1.46,0-2.65-1.19-2.65-2.65c0-1.46,1.19-2.65,2.65-2.65
			C384.96,259.1,386.15,260.28,386.15,261.75z"/>
		<path class="st83" d="M404.31,235.63c0,1.46-1.19,2.65-2.65,2.65c-1.46,0-2.65-1.19-2.65-2.65c0-1.46,1.19-2.65,2.65-2.65
			C403.12,232.98,404.31,234.16,404.31,235.63z"/>
		<path class="st83" d="M407.17,266.03c0,1.47-1.19,2.65-2.65,2.65c-1.46,0-2.65-1.19-2.65-2.65c0-1.46,1.19-2.65,2.65-2.65
			C405.98,263.38,407.17,264.57,407.17,266.03z"/>
		<path class="st83" d="M400.02,290.52c0,1.47-1.19,2.65-2.65,2.65c-1.46,0-2.65-1.19-2.65-2.65c0-1.47,1.19-2.65,2.65-2.65
			C398.84,287.87,400.02,289.06,400.02,290.52z"/>
	</g>
	<path class="st84" d="M379.46,364.98c-3.91-6.04-10.13-22.74-10.13-22.74l2.58,13.64c0,0,4.26,8.26,6.66,13.06
		c2.4,4.8,4.71,12.48,7.82,14.17c0,0,0-3.2-0.53-5.51C385.33,375.29,383.37,371.02,379.46,364.98z"/>
	<path class="st85" d="M392.3,191.42c0,0,9.6,7.06,15.86,9.86c6.26,2.8,12.93,3.73,17.33,2c4.4-1.73,11.33-17.73,5.73-27.45
		c-5.6-9.73-6.26-10.53-6.26-10.53s1.73-3.46-0.27-6.93c-2-3.46-5.06-6.53-7.33-6.66c-2.27-0.13-20.79,3.73-21.46,4.93
		c-0.67,1.2-13.33,12.79-13.46,13.73c-0.13,0.93-2.53,7.86-2.27,8.26C380.44,179.02,392.3,191.42,392.3,191.42z"/>
	<path class="st86" d="M392.3,191.42l-10.53-11.2c0,0,5.86-3.86,12.26-10.93c6.4-7.06,11.06-12.53,11.06-12.53s7.6,6.13,9.46,6.26
		c1.87,0.13,7.06,1.6,7.06,1.6s-4.8-8.53-4.4-10.53c0.4-2,0.53-2.27,0.53-2.27s-9.73-10.53-15.19-12.79
		c-5.46-2.27-15.59,2.27-15.59,2.27s-11.86,4.8-14.93,9.6c-3.07,4.8-5.2,16.39-3.46,21.72c1.73,5.33,6.93,10.53,9.46,11.59
		C380.57,185.28,392.3,191.42,392.3,191.42z"/>
	<path class="st87" d="M392.44,212.07c0,0,3.64-1.42,8.44-0.53c4.8,0.89,7.02,3.38,7.02,3.38l0.8-1.51c0,0,0.71,2.13,2.04,2.13
		c1.87,0,1.33-5.6,1.33-5.6s1.16-0.62,1.16-3.02c0-2.4-0.8-6.84-0.8-6.84s-6.75-5.69-8.17-5.95c-1.42-0.27-3.73,0.09-3.73,0.09
		s-1.78-0.27-2.75-0.18c-0.98,0.09-1.33,0.27-1.33,0.27s-1.87-0.89-2.75-0.27c-0.89,0.62-3.46,3.46-3.46,4.35
		c0,0.89,1.95,9.51,2.04,10.75C392.35,210.38,392.44,212.07,392.44,212.07z"/>
	<path class="st88" d="M408.69,213.4c0,0,1.07-4.62,1.07-6.66c0-2.04-0.62-6.4-0.62-6.4"/>
	<linearGradient id="SVGID_72_" gradientUnits="userSpaceOnUse" x1="380.4404" y1="395.0648" x2="473.3305" y2="395.0648">
		<stop  offset="0.7158" style="stop-color:#A05B1D"/>
		<stop  offset="1" style="stop-color:#7C5208"/>
	</linearGradient>
	<path class="st89" d="M381.51,318.96c0,0-1.07,16.79-1.07,20.26c0,3.46,37.05,25.59,37.32,29.32c0.27,3.73,6.84,126.16,6.84,126.16
		s5.95,1.78,16.61,0.71c10.66-1.07,12.88-3.2,12.88-3.2s0.38-73.45,1.24-89.29c1.07-19.46,6.4-38.65,6.4-43.71
		c0-5.06,0.36-12.35,0.36-12.35l11.24-44.69c0,0-11.06-8.53-34.25-7.73c-23.19,0.8-38.92,5.33-45.58,8.26
		C386.84,305.63,382.04,315.49,381.51,318.96z"/>
	<linearGradient id="SVGID_73_" gradientUnits="userSpaceOnUse" x1="388.7264" y1="353.1025" x2="407.6941" y2="358.9089">
		<stop  offset="0" style="stop-color:#D41700"/>
		<stop  offset="1" style="stop-color:#8660DB"/>
	</linearGradient>
	<path class="st90" d="M410.03,328.91l-14.57,5.15c0,0-8.35,0.18-15.46,2.67c-7.11,2.49-10.66,5.51-10.66,5.51
		s6.22,16.7,10.13,22.74c3.91,6.04,5.86,10.31,6.4,12.62c0.53,2.31,0.53,5.51,0.53,5.51s5.69-0.53,8.35-6.4
		c2.67-5.86,11.37-23.99,14.21-25.41c2.84-1.42,14.93-4.44,14.93-4.44S418.38,332.99,410.03,328.91z"/>
	<path class="st85" d="M423.89,346.85c0,0-5.51-13.86-13.86-17.95l-13.99,4.95c2.64,1.14,6.43,3.14,7.77,5.71
		c2.13,4.09,2.13,4.09,2.13,4.09l4.45,7.05C414.59,349.18,423.89,346.85,423.89,346.85z"/>
	<linearGradient id="SVGID_74_" gradientUnits="userSpaceOnUse" x1="400.431" y1="305.2255" x2="474.7072" y2="305.2255">
		<stop  offset="0" style="stop-color:#110000"/>
		<stop  offset="0" style="stop-color:#204171"/>
		<stop  offset="1" style="stop-color:#204374"/>
	</linearGradient>
	<path class="st91" d="M439.88,315.94c0,0-8.71-4.44-15.99-7.11c-7.29-2.67-23.46-8.4-23.46-8.4s27.01-6.8,43.36-5.82
		c20.79,1.24,30.92,7.82,30.92,7.82L439.88,315.94z"/>
	<path class="st85" d="M429.57,495.23c0,0-0.53,6.93-0.36,7.64c0.18,0.71,1.78,4.44,5.69,2.31c3.91-2.13,6.93-5.15,12.62-5.86
		c5.69-0.71,7.46-0.53,7.46-0.53s-0.89-2.67-0.89-4.26c0-1.6,0-2.31,0-2.31S440.24,496.12,429.57,495.23z"/>
	<linearGradient id="SVGID_75_" gradientUnits="userSpaceOnUse" x1="425.4348" y1="523.1903" x2="478.3952" y2="523.1903">
		<stop  offset="0" style="stop-color:#D41700"/>
		<stop  offset="0.3302" style="stop-color:#B73252"/>
		<stop  offset="0.6542" style="stop-color:#9D4B9C"/>
		<stop  offset="0.8846" style="stop-color:#8C5AC9"/>
		<stop  offset="1" style="stop-color:#8660DB"/>
	</linearGradient>
	<path class="st92" d="M429.08,498.21c0,0-1.73,3.6-2.93,8.13c-1.2,4.53-0.53,12.39-0.53,12.39s7.6,6.8,8.26,8.4
		c0.67,1.6,1.6,7.2,7.06,11.73c5.46,4.53,9.6,7.2,16.66,8.26c7.06,1.07,10.8,1.6,15.59,0.27c4.8-1.33,5.2-3.46,5.2-3.46l-1.07-2.67
		c0,0,1.33-3.33-2-8c-3.33-4.66-14.13-20.52-14.79-22.79c-0.67-2.27-3.46-9.06-3.6-9.99c-0.13-0.93-1.95-1.69-1.95-1.69
		s-6.97-0.31-12.3,1.69c-5.33,2-8.13,5.86-10.4,5.33c-2.27-0.53-2.93-2.4-2.93-3.6C429.35,501.01,429.08,498.21,429.08,498.21z"/>
	<path d="M456.8,545.12c-10.47-1.83-18.37-10.16-21.54-14.02c0.96,2.32,2.61,5.21,5.68,7.75c5.46,4.53,9.6,7.2,16.66,8.26
		c7.06,1.07,10.8,1.6,15.59,0.27c4.8-1.33,5.2-3.46,5.2-3.46l-1.04-2.59C473.68,544.29,466.69,546.85,456.8,545.12z"/>
	<linearGradient id="SVGID_76_" gradientUnits="userSpaceOnUse" x1="407.8911" y1="322.1275" x2="544.0875" y2="322.1275">
		<stop  offset="0" style="stop-color:#110000"/>
		<stop  offset="0" style="stop-color:#CC5116"/>
	</linearGradient>
	<path class="st93" d="M407.89,328.02c-0.6-0.39,85.83-31.81,95.24-37.67c9.42-5.86,19.9-9.95,30.03-6.75
		c10.13,3.2,13.5,17.24,8.88,26.48c-4.62,9.24-40.34,44.78-49.22,47.8c-8.89,3.02-30.74,3.91-30.74,3.91v-14.93l-36.78,7.82
		C425.31,354.67,426.02,339.75,407.89,328.02z"/>
	<linearGradient id="SVGID_77_" gradientUnits="userSpaceOnUse" x1="462.0914" y1="341.8952" x2="532.7766" y2="341.8952">
		<stop  offset="0" style="stop-color:#5C000E"/>
		<stop  offset="0.0509" style="stop-color:#7F3B09"/>
	</linearGradient>
	<path class="st94" d="M532.78,322.01c-21.2,10.44-70.69,24.84-70.69,24.84v14.93c0,0,21.86-0.89,30.74-3.91
		C499.34,355.66,520.24,336,532.78,322.01z"/>
</g>
</svg>
