<?xml version="1.0" encoding="utf-8"?>
<!-- Generator: Adobe Illustrator 23.0.2, SVG Export Plug-In . SVG Version: 6.00 Build 0)  -->
<svg version="1.1" id="Layer_1" xmlns="http://www.w3.org/2000/svg" xmlns:xlink="http://www.w3.org/1999/xlink" x="0px" y="0px"
	 viewBox="0 0 264 280" style="enable-background:new 0 0 264 280;" xml:space="preserve">
<style type="text/css">
	.st0{fill-rule:evenodd;clip-rule:evenodd;fill:url(#SVGID_1_);}
	.st1{filter:url(#Adobe_OpacityMaskFilter);}
	.st2{fill-rule:evenodd;clip-rule:evenodd;fill:#FFFFFF;}
	.st3{mask:url(#react-mask-4_1_);}
	.st4{fill-rule:evenodd;clip-rule:evenodd;fill:url(#SVGID_2_);}
	.st5{filter:url(#Adobe_OpacityMaskFilter_1_);}
	.st6{mask:url(#react-mask-5_1_);}
	.st7{fill-rule:evenodd;clip-rule:evenodd;fill:#D0C6AC;}
	.st8{filter:url(#Adobe_OpacityMaskFilter_2_);}
	.st9{mask:url(#react-mask-6_1_);}
	.st10{fill-rule:evenodd;clip-rule:evenodd;fill:#FD9841;}
	.st11{filter:url(#Adobe_OpacityMaskFilter_3_);}
	.st12{mask:url(#react-mask-6_2_);fill-rule:evenodd;clip-rule:evenodd;fill-opacity:0.1;}
	.st13{fill-rule:evenodd;clip-rule:evenodd;fill:#E6E6E6;}
	.st14{filter:url(#Adobe_OpacityMaskFilter_4_);}
	.st15{mask:url(#react-mask-152_1_);}
	.st16{fill-rule:evenodd;clip-rule:evenodd;fill:#262E33;}
	.st17{filter:url(#Adobe_OpacityMaskFilter_5_);}
	.st18{opacity:0.6;mask:url(#react-mask-152_2_);}
	.st19{fill-rule:evenodd;clip-rule:evenodd;fill-opacity:0.16;}
	.st20{fill-rule:evenodd;clip-rule:evenodd;fill:#3A4C5A;}
	.st21{fill-rule:evenodd;clip-rule:evenodd;fill:#2F4351;}
	.st22{fill-rule:evenodd;clip-rule:evenodd;fill-opacity:0.7;}
	.st23{filter:url(#Adobe_OpacityMaskFilter_6_);}
	.st24{mask:url(#react-mask-186_1_);fill-rule:evenodd;clip-rule:evenodd;fill:#FFFFFF;}
	.st25{filter:url(#Adobe_OpacityMaskFilter_7_);}
	.st26{mask:url(#react-mask-186_2_);}
	.st27{fill-rule:evenodd;clip-rule:evenodd;fill:#FF4F6D;}
	.st28{fill-rule:evenodd;clip-rule:evenodd;fill-opacity:0.6;}
	.st29{filter:url(#Adobe_OpacityMaskFilter_8_);}
	.st30{mask:url(#react-mask-154_1_);}
	.st31{fill-rule:evenodd;clip-rule:evenodd;fill:#314756;}
	.st32{filter:url(#Adobe_OpacityMaskFilter_9_);}
	.st33{mask:url(#react-mask-155_1_);}
	.st34{fill-rule:evenodd;clip-rule:evenodd;fill:#D6B370;}
	.st35{filter:url(#Adobe_OpacityMaskFilter_10_);}
	.st36{mask:url(#react-mask-153_1_);fill-rule:evenodd;clip-rule:evenodd;fill-opacity:0.16;}
	.st37{fill-rule:evenodd;clip-rule:evenodd;fill:#FFFFFF;fill-opacity:0.1;}
</style>
<desc>Created with getavataaars.com</desc>
<g>
	<g transform="translate(-825.000000, -1100.000000)">
		<g transform="translate(825.000000, 1100.000000)">
			<g id="Circle" transform="translate(12.000000, 40.000000)">
				<g id="Circle-Background">
					<linearGradient id="SVGID_1_" gradientUnits="userSpaceOnUse" x1="127.9547" y1="46.0504" x2="117.5031" y2="143.2117">
						<stop  offset="0" style="stop-color:#0EA8CC"/>
						<stop  offset="1" style="stop-color:#0AE596"/>
					</linearGradient>
					<circle class="st0" cx="120" cy="120" r="120"/>
				</g>
				<defs>
					<filter id="Adobe_OpacityMaskFilter" filterUnits="userSpaceOnUse" x="0" y="0" width="240" height="240">
						<feColorMatrix  type="matrix" values="1 0 0 0 0  0 1 0 0 0  0 0 1 0 0  0 0 0 1 0"/>
					</filter>
				</defs>
				<mask maskUnits="userSpaceOnUse" x="0" y="0" width="240" height="240" id="react-mask-4_1_">
					<g class="st1">
						<circle id="react-path-1_1_" class="st2" cx="120" cy="120" r="120"/>
					</g>
				</mask>
				<g class="st3">
					<linearGradient id="SVGID_2_" gradientUnits="userSpaceOnUse" x1="127.9547" y1="46.0504" x2="117.5031" y2="143.2117">
						<stop  offset="0" style="stop-color:#0EA8CC"/>
						<stop  offset="1" style="stop-color:#0AE596"/>
					</linearGradient>
					<rect class="st4" width="240" height="240"/>
				</g>
			</g>
			<g id="Mask">
			</g>
			<defs>
				<filter id="Adobe_OpacityMaskFilter_1_" filterUnits="userSpaceOnUse" x="0" y="13" width="296" height="303">
					<feColorMatrix  type="matrix" values="1 0 0 0 0  0 1 0 0 0  0 0 1 0 0  0 0 0 1 0"/>
				</filter>
			</defs>
			<mask maskUnits="userSpaceOnUse" x="0" y="13" width="296" height="303" id="react-mask-5_1_">
				<g class="st5">
					<path id="react-path-2_1_" class="st2" d="M12,160c0,66.27,53.73,120,120,120s120-53.73,120-120h12V0H0v160H12z"/>
				</g>
			</mask>
			<g id="Avataaar" class="st6">
				<g id="Body" transform="translate(32.000000, 36.000000)">
					<g>
						<path class="st7" d="M124,144.61V163h4l0,0c39.76,0,72,32.24,72,72v9H0v-9c0-39.76,32.24-72,72-72l0,0h4v-18.39
							c-17.24-8.19-29.63-24.92-31.69-44.73C38.48,99.06,34,94.05,34,88V74c0-5.95,4.32-10.88,10-11.83V56l0,0
							c0-30.93,25.07-56,56-56l0,0l0,0c30.93,0,56,25.07,56,56v6.17c5.68,0.95,10,5.89,10,11.83v14c0,6.05-4.48,11.06-10.31,11.88
							C153.63,119.69,141.24,136.42,124,144.61z"/>
					</g>
					<defs>
						<filter id="Adobe_OpacityMaskFilter_2_" filterUnits="userSpaceOnUse" x="0" y="0" width="264" height="280">
							<feColorMatrix  type="matrix" values="1 0 0 0 0  0 1 0 0 0  0 0 1 0 0  0 0 0 1 0"/>
						</filter>
					</defs>
					<mask maskUnits="userSpaceOnUse" x="0" y="0" width="264" height="280" id="react-mask-6_1_">
						<g class="st8">
							<path id="react-path-3_1_" class="st2" d="M124,144.61V163h4l0,0c39.76,0,72,32.24,72,72v9H0v-9c0-39.76,32.24-72,72-72l0,0
								h4v-18.39c-17.24-8.19-29.63-24.92-31.69-44.73C38.48,99.06,34,94.05,34,88V74c0-5.95,4.32-10.88,10-11.83V56l0,0
								c0-30.93,25.07-56,56-56l0,0l0,0c30.93,0,56,25.07,56,56v6.17c5.68,0.95,10,5.89,10,11.83v14c0,6.05-4.48,11.06-10.31,11.88
								C153.63,119.69,141.24,136.42,124,144.61z"/>
						</g>
					</mask>
					<g class="st9">
						<g id="Color" transform="translate(0.000000, 0.000000)">
							<rect class="st10" width="264" height="280"/>
						</g>
					</g>
					<defs>
						<filter id="Adobe_OpacityMaskFilter_3_" filterUnits="userSpaceOnUse" x="44" y="79" width="112" height="79">
							<feColorMatrix  type="matrix" values="1 0 0 0 0  0 1 0 0 0  0 0 1 0 0  0 0 0 1 0"/>
						</filter>
					</defs>
					<mask maskUnits="userSpaceOnUse" x="44" y="79" width="112" height="79" id="react-mask-6_2_">
						<g class="st11">
							<path id="react-path-3_2_" class="st2" d="M124,144.61V163h4l0,0c39.76,0,72,32.24,72,72v9H0v-9c0-39.76,32.24-72,72-72l0,0
								h4v-18.39c-17.24-8.19-29.63-24.92-31.69-44.73C38.48,99.06,34,94.05,34,88V74c0-5.95,4.32-10.88,10-11.83V56l0,0
								c0-30.93,25.07-56,56-56l0,0l0,0c30.93,0,56,25.07,56,56v6.17c5.68,0.95,10,5.89,10,11.83v14c0,6.05-4.48,11.06-10.31,11.88
								C153.63,119.69,141.24,136.42,124,144.61z"/>
						</g>
					</mask>
					<path id="Neck-Shadow" class="st12" d="M156,79v23c0,30.93-25.07,56-56,56s-56-25.07-56-56V79v15c0,30.93,25.07,56,56,56
						s56-25.07,56-56V79z"/>
				</g>
				<g transform="translate(0.000000, 170.000000)">
					<g id="Shirt" transform="translate(32.000000, 29.000000)">
						<g id="Clothes">
							<path class="st13" d="M133.96,0.29c36.98,3.03,66.04,34,66.04,71.76V81H0v-8.95C0,33.95,29.59,2.76,67.05,0.22
								C67.02,0.59,67,0.97,67,1.35c0,11.86,15,21.48,33.5,21.48S134,13.21,134,1.35C134,0.99,133.99,0.64,133.96,0.29z"/>
						</g>
						<defs>
							<filter id="Adobe_OpacityMaskFilter_4_" filterUnits="userSpaceOnUse" x="-32" y="-29" width="264" height="110">
								<feColorMatrix  type="matrix" values="1 0 0 0 0  0 1 0 0 0  0 0 1 0 0  0 0 0 1 0"/>
							</filter>
						</defs>
						<mask maskUnits="userSpaceOnUse" x="-32" y="-29" width="264" height="110" id="react-mask-152_1_">
							<g class="st14">
								<path id="react-path-151_1_" class="st2" d="M133.96,0.29c36.98,3.03,66.04,34,66.04,71.76V81H0v-8.95
									C0,33.95,29.59,2.76,67.05,0.22C67.02,0.59,67,0.97,67,1.35c0,11.86,15,21.48,33.5,21.48S134,13.21,134,1.35
									C134,0.99,133.99,0.64,133.96,0.29z"/>
							</g>
						</mask>
						<g class="st15">
							<g transform="translate(-32.000000, -29.000000)">
								<rect class="st16" width="264" height="110"/>
							</g>
						</g>
						<defs>
							<filter id="Adobe_OpacityMaskFilter_5_" filterUnits="userSpaceOnUse" x="60.86" y="-24.07" width="79.27" height="53.83">
								<feColorMatrix  type="matrix" values="1 0 0 0 0  0 1 0 0 0  0 0 1 0 0  0 0 0 1 0"/>
							</filter>
						</defs>
						<mask maskUnits="userSpaceOnUse" x="60.86" y="-24.07" width="79.27" height="53.83" id="react-mask-152_2_">
							<g class="st17">
								<path id="react-path-151_2_" class="st2" d="M133.96,0.29c36.98,3.03,66.04,34,66.04,71.76V81H0v-8.95
									C0,33.95,29.59,2.76,67.05,0.22C67.02,0.59,67,0.97,67,1.35c0,11.86,15,21.48,33.5,21.48S134,13.21,134,1.35
									C134,0.99,133.99,0.64,133.96,0.29z"/>
							</g>
						</mask>
						<g id="Shadowy" class="st18">
							<g transform="translate(60.000000, -25.000000)">
								<ellipse class="st19" cx="40.5" cy="27.85" rx="39.64" ry="26.91"/>
							</g>
						</g>
					</g>
					<g id="Blazer" transform="translate(32.000000, 28.000000)">
						<path id="Saco" class="st20" d="M68.78,1.12C30.51,2.8,0,34.36,0,73.05l0,0V82h69.36C65.96,69.92,64,55.71,64,40.5
							C64,26.17,65.74,12.73,68.78,1.12z M131.64,82H200v-8.95c0-38.34-29.98-69.69-67.77-71.88c3.04,11.6,4.77,25.02,4.77,39.33
							C137,55.71,135.04,69.92,131.64,82z"/>
						<path id="Pocket-hanky" class="st13" d="M149,58l9.56-7.17l0,0c1.44-1.08,3.43-1.06,4.86,0.04L170,56L149,58z"/>
						<path id="Wing" class="st21" d="M69,0c-4,19.33-2.33,46.67,5,82H58L44,46l6-9l-6-6L63,1C65.03,0.37,67.03,0.04,69,0z"/>
						<path class="st21" d="M131,0c4,19.33,2.33,46.67-5,82h16l14-36l-6-9l6-6L137,1C134.97,0.37,132.97,0.04,131,0z"/>
					</g>
				</g>
				<g id="Face" transform="translate(76.000000, 82.000000)">
					<g transform="translate(2.000000, 52.000000)">
						<g id="Mouth">
							<path class="st22" d="M35.12,15.13C36.18,24.62,44.23,32,54,32c9.8,0,17.87-7.43,18.89-16.96c0.08-0.77-0.78-2.04-1.85-2.04
								c-14.89,0-26.3,0-33.96,0C36.01,13,35.01,14.18,35.12,15.13z"/>
						</g>
						<defs>
							<filter id="Adobe_OpacityMaskFilter_6_" filterUnits="userSpaceOnUse" x="39" y="2" width="31" height="16">
								<feColorMatrix  type="matrix" values="1 0 0 0 0  0 1 0 0 0  0 0 1 0 0  0 0 0 1 0"/>
							</filter>
						</defs>
						<mask maskUnits="userSpaceOnUse" x="39" y="2" width="31" height="16" id="react-mask-186_1_">
							<g class="st23">
								<path id="react-path-185_1_" class="st2" d="M35.12,15.13C36.18,24.62,44.23,32,54,32c9.8,0,17.87-7.43,18.89-16.96
									c0.08-0.77-0.78-2.04-1.85-2.04c-14.89,0-26.3,0-33.96,0C36.01,13,35.01,14.18,35.12,15.13z"/>
							</g>
						</mask>
						<path id="Teeth" class="st24" d="M44,2h21c2.76,0,5,2.24,5,5v6c0,2.76-2.24,5-5,5H44c-2.76,0-5-2.24-5-5V7
							C39,4.24,41.24,2,44,2z"/>
						<defs>
							<filter id="Adobe_OpacityMaskFilter_7_" filterUnits="userSpaceOnUse" x="38" y="24" width="32" height="22">
								<feColorMatrix  type="matrix" values="1 0 0 0 0  0 1 0 0 0  0 0 1 0 0  0 0 0 1 0"/>
							</filter>
						</defs>
						<mask maskUnits="userSpaceOnUse" x="38" y="24" width="32" height="22" id="react-mask-186_2_">
							<g class="st25">
								<path id="react-path-185_2_" class="st2" d="M35.12,15.13C36.18,24.62,44.23,32,54,32c9.8,0,17.87-7.43,18.89-16.96
									c0.08-0.77-0.78-2.04-1.85-2.04c-14.89,0-26.3,0-33.96,0C36.01,13,35.01,14.18,35.12,15.13z"/>
							</g>
						</mask>
						<g id="Tongue" class="st26">
							<g transform="translate(38.000000, 24.000000)">
								<circle class="st27" cx="11" cy="11" r="11"/>
								<circle class="st27" cx="21" cy="11" r="11"/>
							</g>
						</g>
					</g>
					<g transform="translate(28.000000, 40.000000)">
						<path id="Nose" class="st19" d="M16,8c0,4.42,5.37,8,12,8l0,0c6.63,0,12-3.58,12-8"/>
					</g>
					<g transform="translate(0.000000, 8.000000)">
						<circle id="Eye" class="st28" cx="30" cy="22" r="6"/>
						<circle class="st28" cx="82" cy="22" r="6"/>
					</g>
					<g>
						<path id="Eye-Browse-Reddit" class="st28" d="M22.77,1.58l0.91-0.4c5.24-2.08,13.19-1.21,18.05,1.12
							c0.57,0.27,0.18,1.15-0.4,1.11C26.4,2.26,16.36,11.55,12.95,17.85c-0.1,0.19-0.41,0.21-0.48,0.03
							C10.16,12.56,16.91,3.9,22.77,1.58z"/>
						<path class="st28" d="M89.23,1.58l-0.91-0.4C83.08-0.91,75.14-0.03,70.28,2.3c-0.57,0.27-0.18,1.15,0.4,1.11
							c14.92-1.15,24.96,8.15,28.38,14.44c0.1,0.19,0.41,0.21,0.48,0.03C101.84,12.56,95.09,3.9,89.23,1.58z"/>
					</g>
				</g>
				<g id="Top">
					<defs>
						<filter id="Adobe_OpacityMaskFilter_8_" filterUnits="userSpaceOnUse" x="15" y="13" width="264" height="280">
							<feColorMatrix  type="matrix" values="1 0 0 0 0  0 1 0 0 0  0 0 1 0 0  0 0 0 1 0"/>
						</filter>
					</defs>
					<mask maskUnits="userSpaceOnUse" x="15" y="13" width="264" height="280" id="react-mask-154_1_">
						<g class="st29">
							<rect id="react-path-156_1_" class="st2" width="264" height="280"/>
						</g>
					</mask>
					<g class="st30">
						<g transform="translate(-1.000000, 0.000000)">
							<g id="Hair" transform="translate(16.000000, 13.000000)">
								<g>
									<path class="st31" d="M222.38,182.81c-5.37,5.71-10.74,9.32-10.55,15.19c0.32,11.89,43.61,47.05,5.17,69H16.01
										c-38.44-21.95,4.85-57.11,5.17-69c0.18-5.87-5.18-9.48-10.55-15.19S-0.14,169.28,0,155c0.94-29.03,31.37-26.41,31.2-46
										c0.17-19-11.39-26.84,0-63C42.84,9.54,72.92,0.77,116,0.02V0c0.17,0,0.33,0,0.5,0.01C116.67,0,116.84,0,117,0v0.02
										c43.09,0.75,73.16,9.52,84.8,45.98c11.39,36.16-0.17,44,0,63c-0.17,19.59,30.26,16.97,31.2,46
										C233.14,169.28,227.76,177.09,222.38,182.81z M182.88,95.32c-21.52-11.59-39.99-28.18-52.04-47.02
										c-18.08,25.62-54.32,30.23-79.62,46.38C51.08,95.43,51,96.21,51,97v13c0,6.02,4.43,11,10.21,11.87
										c1.74,20.25,14.26,37.42,31.79,45.74V186h-4l0,0c-39.76,0-72,32.24-72,72v9h200v-9c0-39.76-32.24-72-72-72h-4v-18.39
										c17.53-8.33,30.05-25.5,31.79-45.74C178.57,121,183,116.02,183,110V97C183,96.43,182.96,95.87,182.88,95.32z"/>
								</g>
								<defs>
									<filter id="Adobe_OpacityMaskFilter_9_" filterUnits="userSpaceOnUse" x="0" y="0" width="264" height="280">
										<feColorMatrix  type="matrix" values="1 0 0 0 0  0 1 0 0 0  0 0 1 0 0  0 0 0 1 0"/>
									</filter>
								</defs>
								<mask maskUnits="userSpaceOnUse" x="0" y="0" width="264" height="280" id="react-mask-155_1_">
									<g class="st32">
										<path id="react-path-157_1_" class="st2" d="M222.38,182.81c-5.37,5.71-10.74,9.32-10.55,15.19
											c0.32,11.89,43.61,47.05,5.17,69H16.01c-38.44-21.95,4.85-57.11,5.17-69c0.18-5.87-5.18-9.48-10.55-15.19
											S-0.14,169.28,0,155c0.94-29.03,31.37-26.41,31.2-46c0.17-19-11.39-26.84,0-63C42.84,9.54,72.92,0.77,116,0.02V0
											c0.17,0,0.33,0,0.5,0.01C116.67,0,116.84,0,117,0v0.02c43.09,0.75,73.16,9.52,84.8,45.98c11.39,36.16-0.17,44,0,63
											c-0.17,19.59,30.26,16.97,31.2,46C233.14,169.28,227.76,177.09,222.38,182.81z M182.88,95.32
											c-21.52-11.59-39.99-28.18-52.04-47.02c-18.08,25.62-54.32,30.23-79.62,46.38C51.08,95.43,51,96.21,51,97v13
											c0,6.02,4.43,11,10.21,11.87c1.74,20.25,14.26,37.42,31.79,45.74V186h-4l0,0c-39.76,0-72,32.24-72,72v9h200v-9
											c0-39.76-32.24-72-72-72h-4v-18.39c17.53-8.33,30.05-25.5,31.79-45.74C178.57,121,183,116.02,183,110V97
											C183,96.43,182.96,95.87,182.88,95.32z"/>
									</g>
								</mask>
								<g class="st33">
									<g transform="translate(0.000000, 0.000000) ">
										<rect class="st34" width="264" height="280"/>
									</g>
								</g>
							</g>
							<g id="Shadow" transform="translate(16.000000, 13.000000)">
								<g id="Shape">
								</g>
								<defs>
									<filter id="Adobe_OpacityMaskFilter_10_" filterUnits="userSpaceOnUse" x="22.09" y="48" width="188.83" height="74.21">
										<feColorMatrix  type="matrix" values="1 0 0 0 0  0 1 0 0 0  0 0 1 0 0  0 0 0 1 0"/>
									</filter>
								</defs>
								<mask maskUnits="userSpaceOnUse" x="22.09" y="48" width="188.83" height="74.21" id="react-mask-153_1_">
									<g class="st35">
										<path id="react-path-158_1_" class="st2" d="M222.38,182.81c-5.37,5.71-10.74,9.32-10.55,15.19
											c0.32,11.89,43.61,47.05,5.17,69H16.01c-38.44-21.95,4.85-57.11,5.17-69c0.18-5.87-5.18-9.48-10.55-15.19
											S-0.14,169.28,0,155c0.94-29.03,31.37-26.41,31.2-46c0.17-19-11.39-26.84,0-63C42.84,9.54,72.92,0.77,116,0.02V0
											c0.17,0,0.33,0,0.5,0.01C116.67,0,116.84,0,117,0v0.02c43.09,0.75,73.16,9.52,84.8,45.98c11.39,36.16-0.17,44,0,63
											c-0.17,19.59,30.26,16.97,31.2,46C233.14,169.28,227.76,177.09,222.38,182.81z M93,186h-4l0,0c-39.76,0-72,32.24-72,72v9
											h200v-9c0-39.76-32.24-72-72-72h-4v-46H93V186z"/>
									</g>
								</mask>
								<path id="Shadow-Mask" class="st36" d="M30.1,115.06c-2.37,3.03-5.57,7.47-5.74,7.14c1.87-2.38,3.01-5.18,2.98-8.76
									c0.18-18.1-11.9-25.57,0-60.02c0.67-1.91,1.77-3.71,3.24-5.41c-10.34,34.45,0.78,42.35,0.62,61
									C31.22,111.29,30.82,113.28,30.1,115.06z M202.42,48c1.48,1.7,2.58,3.5,3.24,5.41c10.16,29.39,2.85,39.14,0.6,52.62
									c-0.3,0.8-0.07,1.75-0.38,2.57c-30.67-10.46-58.29-30.04-74.39-52.99c-22.78,29.42-73.14,29.76-97.82,55.32
									c0.39-0.54,0.75-1.05,1.08-1.49c22.54-29.92,73.49-29.12,96.09-61.14c15.4,24.09,41.82,44.65,71.16,55.62
									c0.3-0.85,0.08-1.85,0.37-2.69C204.48,87.4,211.22,77.31,202.42,48z"/>
							</g>
							<path id="Light" class="st37" d="M50.76,122.45c22.54-29.92,73.49-29.12,96.09-61.14c15.4,24.09,41.82,44.65,71.16,55.62
								c0.3-0.85,0.08-1.85,0.37-2.69c2.16-14.14,9.14-24.38-0.57-55.23c-11.64-36.46-41.71-45.23-84.8-45.98
								C132.34,13,132.17,13,132,13c-43.09,0.77-73.16,9.54-84.8,46c-11.39,36.16,0.17,44,0,63c0.03,3.75-1.06,6.69-2.85,9.19
								C44.54,131.59,48.51,125.44,50.76,122.45z"/>
						</g>
					</g>
				</g>
			</g>
		</g>
	</g>
</g>
</svg>
