<svg id="visual" viewBox="0 0 1024 1024" width="1024" height="1024" xmlns="http://www.w3.org/2000/svg" xmlns:xlink="http://www.w3.org/1999/xlink" version="1.1"><rect x="0" y="0" width="1024" height="1024" fill="#011335"></rect><g fill="#006c82"><circle r="64" cx="608" cy="713"></circle><circle r="4" cx="821" cy="198"></circle><circle r="5" cx="789" cy="841"></circle><circle r="55" cx="73" cy="993"></circle><circle r="22" cx="718" cy="64"></circle><circle r="10" cx="1022" cy="941"></circle><circle r="15" cx="316" cy="289"></circle><circle r="8" cx="486" cy="6"></circle><circle r="30" cx="755" cy="453"></circle><circle r="49" cx="426" cy="495"></circle><circle r="36" cx="887" cy="410"></circle><circle r="55" cx="660" cy="258"></circle><circle r="28" cx="203" cy="824"></circle><circle r="34" cx="65" cy="314"></circle><circle r="38" cx="411" cy="827"></circle><circle r="43" cx="929" cy="751"></circle><circle r="33" cx="310" cy="658"></circle><circle r="18" cx="192" cy="74"></circle><circle r="61" cx="580" cy="128"></circle><circle r="13" cx="558" cy="443"></circle><circle r="27" cx="481" cy="947"></circle><circle r="39" cx="211" cy="982"></circle><circle r="23" cx="200" cy="543"></circle><circle r="22" cx="626" cy="1003"></circle><circle r="21" cx="982" cy="229"></circle><circle r="18" cx="16" cy="10"></circle><circle r="31" cx="77" cy="645"></circle><circle r="28" cx="179" cy="229"></circle><circle r="51" cx="494" cy="227"></circle><circle r="28" cx="1005" cy="540"></circle><circle r="11" cx="453" cy="686"></circle><circle r="61" cx="398" cy="136"></circle><circle r="49" cx="695" cy="582"></circle><circle r="6" cx="661" cy="836"></circle><circle r="10" cx="830" cy="612"></circle><circle r="61" cx="896" cy="973"></circle><circle r="10" cx="62" cy="819"></circle><circle r="38" cx="334" cy="14"></circle><circle r="60" cx="1020" cy="386"></circle><circle r="14" cx="859" cy="10"></circle><circle r="40" cx="32" cy="486"></circle><circle r="43" cx="335" cy="935"></circle><circle r="18" cx="66" cy="137"></circle><circle r="43" cx="193" cy="383"></circle><circle r="4" cx="535" cy="584"></circle><circle r="13" cx="1018" cy="28"></circle><circle r="24" cx="754" cy="983"></circle><circle r="56" cx="310" cy="440"></circle><circle r="16" cx="442" cy="349"></circle></g></svg>