<?xml version="1.0" encoding="utf-8"?>
<!-- Generator: Adobe Illustrator 23.0.2, SVG Export Plug-In . SVG Version: 6.00 Build 0)  -->
<svg version="1.1" id="Layer_1" xmlns="http://www.w3.org/2000/svg" xmlns:xlink="http://www.w3.org/1999/xlink" x="0px" y="0px"
	 viewBox="0 0 264 280" style="enable-background:new 0 0 264 280;" xml:space="preserve">
<style type="text/css">
	.st0{fill-rule:evenodd;clip-rule:evenodd;fill:url(#SVGID_1_);}
	.st1{filter:url(#Adobe_OpacityMaskFilter);}
	.st2{fill-rule:evenodd;clip-rule:evenodd;fill:#FFFFFF;}
	.st3{mask:url(#react-mask-4_1_);}
	.st4{fill-rule:evenodd;clip-rule:evenodd;fill:url(#SVGID_2_);}
	.st5{filter:url(#Adobe_OpacityMaskFilter_1_);}
	.st6{mask:url(#react-mask-5_1_);}
	.st7{fill-rule:evenodd;clip-rule:evenodd;fill:#D0C6AC;}
	.st8{filter:url(#Adobe_OpacityMaskFilter_2_);}
	.st9{mask:url(#react-mask-6_1_);}
	.st10{fill-rule:evenodd;clip-rule:evenodd;fill:#FD9841;}
	.st11{filter:url(#Adobe_OpacityMaskFilter_3_);}
	.st12{mask:url(#react-mask-6_2_);fill-rule:evenodd;clip-rule:evenodd;fill-opacity:0.1;}
	.st13{fill-rule:evenodd;clip-rule:evenodd;fill:#E6E6E6;}
	.st14{filter:url(#Adobe_OpacityMaskFilter_4_);}
	.st15{mask:url(#react-mask-328_1_);}
	.st16{fill-rule:evenodd;clip-rule:evenodd;fill:#FFDEB5;}
	.st17{fill-rule:evenodd;clip-rule:evenodd;fill:#F2F2F2;}
	.st18{fill-rule:evenodd;clip-rule:evenodd;fill-opacity:0.7;}
	.st19{fill-rule:evenodd;clip-rule:evenodd;fill-opacity:0.16;}
	.st20{fill:#FF5353;fill-opacity:0.8;}
	.st21{fill-opacity:0.6;}
	.st22{filter:url(#Adobe_OpacityMaskFilter_5_);}
	.st23{mask:url(#react-mask-331_1_);}
	.st24{fill-rule:evenodd;clip-rule:evenodd;fill:#28354B;}
	.st25{filter:url(#Adobe_OpacityMaskFilter_6_);}
	.st26{mask:url(#react-mask-334_1_);}
	.st27{fill-rule:evenodd;clip-rule:evenodd;fill:#A55728;}
	.st28{filter:url(#Adobe_OpacityMaskFilter_7_);}
	.st29{mask:url(#react-mask-330_1_);}
	.st30{fill-rule:evenodd;clip-rule:evenodd;fill:url(#SVGID_3_);}
	.st31{fill-rule:evenodd;clip-rule:evenodd;fill:url(#SVGID_4_);}
	.st32{fill-rule:evenodd;clip-rule:evenodd;fill:#252C2F;}
</style>
<desc>Created with getavataaars.com</desc>
<g>
	<g transform="translate(-825.000000, -1100.000000)">
		<g transform="translate(825.000000, 1100.000000)">
			<g id="Circle" transform="translate(12.000000, 40.000000)">
				<g id="Circle-Background">
					<radialGradient id="SVGID_1_" cx="120" cy="120" r="120" gradientUnits="userSpaceOnUse">
						<stop  offset="0" style="stop-color:#6156B1"/>
						<stop  offset="0" style="stop-color:#F4113D"/>
						<stop  offset="0.1661" style="stop-color:#F4113F"/>
						<stop  offset="0.2259" style="stop-color:#F51046"/>
						<stop  offset="0.2686" style="stop-color:#F50F51"/>
						<stop  offset="0.3031" style="stop-color:#F70D62"/>
						<stop  offset="0.3326" style="stop-color:#F80A78"/>
						<stop  offset="0.3588" style="stop-color:#FA0794"/>
						<stop  offset="0.3818" style="stop-color:#FD04B3"/>
						<stop  offset="0.4018" style="stop-color:#FF00D5"/>
						<stop  offset="0.4292" style="stop-color:#FF04D6"/>
						<stop  offset="0.4578" style="stop-color:#FF11D8"/>
						<stop  offset="0.4868" style="stop-color:#FF25DB"/>
						<stop  offset="0.5162" style="stop-color:#FF43E0"/>
						<stop  offset="0.5456" style="stop-color:#FF68E6"/>
						<stop  offset="0.5614" style="stop-color:#FF7FEA"/>
						<stop  offset="1" style="stop-color:#A50490"/>
					</radialGradient>
					<circle class="st0" cx="120" cy="120" r="120"/>
				</g>
				<defs>
					<filter id="Adobe_OpacityMaskFilter" filterUnits="userSpaceOnUse" x="0" y="0" width="240" height="240">
						<feColorMatrix  type="matrix" values="1 0 0 0 0  0 1 0 0 0  0 0 1 0 0  0 0 0 1 0"/>
					</filter>
				</defs>
				<mask maskUnits="userSpaceOnUse" x="0" y="0" width="240" height="240" id="react-mask-4_1_">
					<g class="st1">
						<circle id="react-path-1_1_" class="st2" cx="120" cy="120" r="120"/>
					</g>
				</mask>
				<g class="st3">
					<radialGradient id="SVGID_2_" cx="120" cy="120" r="120" gradientUnits="userSpaceOnUse">
						<stop  offset="0" style="stop-color:#6156B1"/>
						<stop  offset="0" style="stop-color:#F4113D"/>
						<stop  offset="0.1661" style="stop-color:#F4113F"/>
						<stop  offset="0.2259" style="stop-color:#F51046"/>
						<stop  offset="0.2686" style="stop-color:#F50F51"/>
						<stop  offset="0.3031" style="stop-color:#F70D62"/>
						<stop  offset="0.3326" style="stop-color:#F80A78"/>
						<stop  offset="0.3588" style="stop-color:#FA0794"/>
						<stop  offset="0.3818" style="stop-color:#FD04B3"/>
						<stop  offset="0.4018" style="stop-color:#FF00D5"/>
						<stop  offset="0.4292" style="stop-color:#FF04D6"/>
						<stop  offset="0.4578" style="stop-color:#FF11D8"/>
						<stop  offset="0.4868" style="stop-color:#FF25DB"/>
						<stop  offset="0.5162" style="stop-color:#FF43E0"/>
						<stop  offset="0.5456" style="stop-color:#FF68E6"/>
						<stop  offset="0.5614" style="stop-color:#FF7FEA"/>
						<stop  offset="1" style="stop-color:#A50490"/>
					</radialGradient>
					<rect class="st4" width="240" height="240"/>
				</g>
			</g>
			<g id="Mask">
			</g>
			<defs>
				<filter id="Adobe_OpacityMaskFilter_1_" filterUnits="userSpaceOnUse" x="-1" y="0" width="297" height="316">
					<feColorMatrix  type="matrix" values="1 0 0 0 0  0 1 0 0 0  0 0 1 0 0  0 0 0 1 0"/>
				</filter>
			</defs>
			<mask maskUnits="userSpaceOnUse" x="-1" y="0" width="297" height="316" id="react-mask-5_1_">
				<g class="st5">
					<path id="react-path-2_1_" class="st2" d="M12,160c0,66.27,53.73,120,120,120s120-53.73,120-120h12V0H0v160H12z"/>
				</g>
			</mask>
			<g id="Avataaar" class="st6">
				<g id="Body" transform="translate(32.000000, 36.000000)">
					<g>
						<path class="st7" d="M124,144.61V163h4l0,0c39.76,0,72,32.24,72,72v9H0v-9c0-39.76,32.24-72,72-72l0,0h4v-18.39
							c-17.24-8.19-29.63-24.92-31.69-44.73C38.48,99.06,34,94.05,34,88V74c0-5.95,4.32-10.88,10-11.83V56l0,0
							c0-30.93,25.07-56,56-56l0,0l0,0c30.93,0,56,25.07,56,56v6.17c5.68,0.95,10,5.89,10,11.83v14c0,6.05-4.48,11.06-10.31,11.88
							C153.63,119.69,141.24,136.42,124,144.61z"/>
					</g>
					<defs>
						<filter id="Adobe_OpacityMaskFilter_2_" filterUnits="userSpaceOnUse" x="0" y="0" width="264" height="280">
							<feColorMatrix  type="matrix" values="1 0 0 0 0  0 1 0 0 0  0 0 1 0 0  0 0 0 1 0"/>
						</filter>
					</defs>
					<mask maskUnits="userSpaceOnUse" x="0" y="0" width="264" height="280" id="react-mask-6_1_">
						<g class="st8">
							<path id="react-path-3_1_" class="st2" d="M124,144.61V163h4l0,0c39.76,0,72,32.24,72,72v9H0v-9c0-39.76,32.24-72,72-72l0,0
								h4v-18.39c-17.24-8.19-29.63-24.92-31.69-44.73C38.48,99.06,34,94.05,34,88V74c0-5.95,4.32-10.88,10-11.83V56l0,0
								c0-30.93,25.07-56,56-56l0,0l0,0c30.93,0,56,25.07,56,56v6.17c5.68,0.95,10,5.89,10,11.83v14c0,6.05-4.48,11.06-10.31,11.88
								C153.63,119.69,141.24,136.42,124,144.61z"/>
						</g>
					</mask>
					<g class="st9">
						<g id="Color" transform="translate(0.000000, 0.000000)">
							<rect class="st10" width="264" height="280"/>
						</g>
					</g>
					<defs>
						<filter id="Adobe_OpacityMaskFilter_3_" filterUnits="userSpaceOnUse" x="44" y="79" width="112" height="79">
							<feColorMatrix  type="matrix" values="1 0 0 0 0  0 1 0 0 0  0 0 1 0 0  0 0 0 1 0"/>
						</filter>
					</defs>
					<mask maskUnits="userSpaceOnUse" x="44" y="79" width="112" height="79" id="react-mask-6_2_">
						<g class="st11">
							<path id="react-path-3_2_" class="st2" d="M124,144.61V163h4l0,0c39.76,0,72,32.24,72,72v9H0v-9c0-39.76,32.24-72,72-72l0,0
								h4v-18.39c-17.24-8.19-29.63-24.92-31.69-44.73C38.48,99.06,34,94.05,34,88V74c0-5.95,4.32-10.88,10-11.83V56l0,0
								c0-30.93,25.07-56,56-56l0,0l0,0c30.93,0,56,25.07,56,56v6.17c5.68,0.95,10,5.89,10,11.83v14c0,6.05-4.48,11.06-10.31,11.88
								C153.63,119.69,141.24,136.42,124,144.61z"/>
						</g>
					</mask>
					<path id="Neck-Shadow" class="st12" d="M156,79v23c0,30.93-25.07,56-56,56s-56-25.07-56-56V79v15c0,30.93,25.07,56,56,56
						s56-25.07,56-56V79z"/>
				</g>
				<g transform="translate(0.000000, 170.000000)">
					<g id="Clothes">
						<path class="st13" d="M105.19,29.05H104l0,0c-39.76,0-72,32.24-72,72V110h200v-8.95c0-39.76-32.24-72-72-72l0,0h-1.19
							c0.13,0.98,0.19,1.98,0.19,3c0,13.81-12.09,25-27,25s-27-11.19-27-25C105,31.04,105.07,30.04,105.19,29.05z"/>
					</g>
					<defs>
						<filter id="Adobe_OpacityMaskFilter_4_" filterUnits="userSpaceOnUse" x="0" y="0" width="264" height="110">
							<feColorMatrix  type="matrix" values="1 0 0 0 0  0 1 0 0 0  0 0 1 0 0  0 0 0 1 0"/>
						</filter>
					</defs>
					<mask maskUnits="userSpaceOnUse" x="0" y="0" width="264" height="110" id="react-mask-328_1_">
						<g class="st14">
							<path id="react-path-327_1_" class="st2" d="M105.19,29.05H104l0,0c-39.76,0-72,32.24-72,72V110h200v-8.95
								c0-39.76-32.24-72-72-72l0,0h-1.19c0.13,0.98,0.19,1.98,0.19,3c0,13.81-12.09,25-27,25s-27-11.19-27-25
								C105,31.04,105.07,30.04,105.19,29.05z"/>
						</g>
					</mask>
					<g class="st15">
						<rect class="st16" width="264" height="110"/>
					</g>
					<path id="Collar" class="st17" d="M156,22.28c6.18,4.56,10,10.83,10,17.75c0,7.21-4.14,13.71-10.77,18.3l-5.65-4.45L145,54.21
						l1-3.15L145.92,51c6.1-3.14,10.08-8.3,10.08-14.12V22.28z M108,21.57c-6.77,4.6-11,11.17-11,18.46
						c0,7.4,4.36,14.05,11.31,18.66l6.11-4.82l4.58,0.33l-1-3.15l0.08-0.06c-6.1-3.14-10.08-8.3-10.08-14.12V21.57z"/>
				</g>
				<g id="Face" transform="translate(76.000000, 82.000000)">
					<g transform="translate(2.000000, 52.000000)">
						<path class="st18" d="M45,18h18c1.66,0,3,1.34,3,3l0,0c0,1.66-1.34,3-3,3H45c-1.66,0-3-1.34-3-3l0,0C42,19.34,43.34,18,45,18z
							"/>
					</g>
					<g transform="translate(28.000000, 40.000000)">
						<path id="Nose" class="st19" d="M16,8c0,4.42,5.37,8,12,8l0,0c6.63,0,12-3.58,12-8"/>
					</g>
					<g transform="translate(0.000000, 8.000000)">
						<path id="Heart" class="st20" d="M35.96,10c-2.55,0-5.07,1.98-6.46,3.82C28.11,11.98,25.59,10,23.04,10
							C17.55,10,14,13.33,14,17.64c0,5.73,4.41,9.13,9.04,12.74c1.65,1.24,4.78,4.4,5.17,5.09c0.39,0.69,2.11,0.72,2.58,0
							c0.48-0.72,3.51-3.86,5.17-5.09C40.59,26.77,45,23.37,45,17.64C45,13.33,41.45,10,35.96,10z"/>
						<path class="st20" d="M88.96,10c-2.55,0-5.07,1.98-6.46,3.82C81.11,11.98,78.59,10,76.04,10C70.55,10,67,13.33,67,17.64
							c0,5.73,4.41,9.13,9.04,12.74c1.65,1.24,4.78,4.4,5.17,5.09c0.39,0.69,2.11,0.72,2.58,0c0.48-0.72,3.51-3.86,5.17-5.09
							C93.59,26.77,98,23.37,98,17.64C98,13.33,94.45,10,88.96,10z"/>
					</g>
					<g>
						<g id="I-Browse" transform="translate(12.000000, 6.000000)">
							<path id="Eyebrow" class="st21" d="M3.63,11.16c3.91-5.51,14.65-8.6,23.89-6.33c1.07,0.26,2.16-0.39,2.42-1.47
								c0.26-1.07-0.39-2.16-1.47-2.42C17.74-1.69,5.31,1.89,0.37,8.84c-0.64,0.9-0.43,2.15,0.47,2.79S2.99,12.06,3.63,11.16z"/>
							<path class="st21" d="M84.37,11.16c-3.91-5.51-14.65-8.6-23.89-6.33c-1.07,0.26-2.16-0.39-2.42-1.47s0.39-2.16,1.47-2.42
								c10.74-2.64,23.16,0.94,28.11,7.89c0.64,0.9,0.43,2.15-0.47,2.79S85.01,12.06,84.37,11.16z"/>
						</g>
					</g>
				</g>
				<g id="Top">
					<defs>
						<filter id="Adobe_OpacityMaskFilter_5_" filterUnits="userSpaceOnUse" x="-1" y="0" width="281" height="316">
							<feColorMatrix  type="matrix" values="1 0 0 0 0  0 1 0 0 0  0 0 1 0 0  0 0 0 1 0"/>
						</filter>
					</defs>
					<mask maskUnits="userSpaceOnUse" x="-1" y="0" width="281" height="316" id="react-mask-331_1_">
						<g class="st22">
							<rect id="react-path-333_1_" class="st2" width="264" height="280"/>
						</g>
					</mask>
					<g class="st23">
						<g transform="translate(-1.000000, 0.000000)">
							<g transform="translate(49.000000, 72.000000)">
								<g id="Hey...">
									<path class="st24" d="M84,74.84c-0.54,0.77-1.24,1.41-2.05,1.85c-8.9,4.82-18.07,0.64-23.07,0.94
										c-2.42,0.14-5.54,1.79-6.66,0.05c-1.24-1.91,2.85-12.46,12.51-14.21C71.73,62.19,81.5,63.6,84,66.94
										c2.5-3.34,12.27-4.75,19.28-3.47c9.65,1.76,13.74,12.3,12.51,14.21c-1.13,1.74-4.24,0.09-6.66-0.05
										c-5-0.3-14.17,3.88-23.07-0.94C85.23,76.25,84.54,75.61,84,74.84z"/>
								</g>
								<defs>
									<filter id="Adobe_OpacityMaskFilter_6_" filterUnits="userSpaceOnUse" x="-32" y="0" width="264" height="244">
										<feColorMatrix  type="matrix" values="1 0 0 0 0  0 1 0 0 0  0 0 1 0 0  0 0 0 1 0"/>
									</filter>
								</defs>
								<mask maskUnits="userSpaceOnUse" x="-32" y="0" width="264" height="244" id="react-mask-334_1_">
									<g class="st25">
										<path id="react-path-335_1_" class="st2" d="M84,74.84c-0.54,0.77-1.24,1.41-2.05,1.85c-8.9,4.82-18.07,0.64-23.07,0.94
											c-2.42,0.14-5.54,1.79-6.66,0.05c-1.24-1.91,2.85-12.46,12.51-14.21C71.73,62.19,81.5,63.6,84,66.94
											c2.5-3.34,12.27-4.75,19.28-3.47c9.65,1.76,13.74,12.3,12.51,14.21c-1.13,1.74-4.24,0.09-6.66-0.05
											c-5-0.3-14.17,3.88-23.07-0.94C85.23,76.25,84.54,75.61,84,74.84z"/>
									</g>
								</mask>
								<g class="st26">
									<g transform="translate(-32.000000, 0.000000)">
										<rect class="st27" width="264" height="244"/>
									</g>
								</g>
							</g>
							<g id="Short-Hair">
								<path class="st24" d="M94.25,52.02c0.12-0.05-0.18-0.08-0.92-0.06C94.23,51.96,94.53,51.98,94.25,52.02 M86.12,36.3
									C86.11,36.28,86.13,36.45,86.12,36.3 M193.77,70.77c-0.26-3.32-0.73-6.61-1.52-9.85c-0.62-2.58-1.48-5.03-2.49-7.49
									c-0.61-1.48-2.03-3.52-2.2-5.13c-0.16-1.58,1.07-3.33,1.33-5.16c0.26-1.79,0.21-3.67-0.16-5.44
									c-0.83-4.02-3.59-7.76-7.86-8.81c-0.95-0.23-2.96,0.05-3.64-0.5c-0.77-0.64-1.31-2.8-2.01-3.67
									c-1.99-2.48-5.09-4.07-8.37-3.51c-2.41,0.41-1.03,0.91-2.83-0.51c-1-0.79-1.76-1.99-2.73-2.85
									c-1.47-1.28-3.15-2.38-4.89-3.28c-4.56-2.36-9.75-4.07-14.84-4.91c-9.29-1.52-19.2-0.2-28.2,2.22
									c-4.48,1.2-8.99,2.73-13.15,4.74c-1.78,0.86-2.81,1.58-4.67,1.81c-2.93,0.36-5.41,0.34-8.18,1.58
									c-8.54,3.82-12.38,12.69-9.06,21.17c0.67,1.71,1.57,3.21,2.82,4.58c1.52,1.68,2.07,1.35,0.76,3.28
									c-1.96,2.89-3.61,5.97-4.95,9.17c-3.53,8.4-4.12,17.86-3.89,26.82c0.08,3.14,0.21,6.31,0.71,9.42
									c0.21,1.34,0.27,3.87,1.28,4.87c0.51,0.51,1.24,0.79,1.97,0.59c1.71-0.47,1.12-1.74,1.16-2.91
									c0.2-5.88-0.07-11.09,1.33-16.9c1.03-4.29,2.76-8.19,4.99-12.04c2.84-4.88,5.9-9.17,9.81-13.36
									c0.92-0.98,1.12-1.4,2.35-1.47c0.93-0.05,2.3,0.58,3.2,0.81c2,0.49,4,0.97,6.03,1.3c3.74,0.6,7.44,0.64,11.22,0.53
									c7.43-0.23,14.88-0.75,22.08-2.62c4.78-1.24,9.02-3.47,13.6-5.1c0.08-0.03,1.23-0.85,1.43-0.81
									c0.28,0.05,1.98,1.83,2.26,2.05c2.23,1.75,4.67,2.48,7.07,3.83c2.96,1.67,0.09-0.72,1.73,1.36c0.48,0.6,0.72,1.73,1.1,2.41
									c1.22,2.18,2.91,4.1,4.93,5.62c1.96,1.47,4.89,2.18,5.89,4.1c0.77,1.48,1.03,3.48,1.65,5.06c1.63,4.14,3.78,7.99,5.93,11.89
									c1.73,3.14,3.63,5.88,3.82,9.47c0.07,1.25-1.12,8.74,1.77,6.46c0.43-0.34,1.35-4.16,1.54-4.8c0.77-2.63,1.05-5.38,1.39-8.09
									C193.99,81.3,194.22,76.18,193.77,70.77"/>
							</g>
							<defs>
								<filter id="Adobe_OpacityMaskFilter_7_" filterUnits="userSpaceOnUse" x="0" y="0" width="264" height="280">
									<feColorMatrix  type="matrix" values="1 0 0 0 0  0 1 0 0 0  0 0 1 0 0  0 0 0 1 0"/>
								</filter>
							</defs>
							<mask maskUnits="userSpaceOnUse" x="0" y="0" width="264" height="280" id="react-mask-330_1_">
								<g class="st28">
									<path id="react-path-332_1_" class="st2" d="M94.25,52.02c0.12-0.05-0.18-0.08-0.92-0.06
										C94.23,51.96,94.53,51.98,94.25,52.02 M86.12,36.3C86.11,36.28,86.13,36.45,86.12,36.3 M193.77,70.77
										c-0.26-3.32-0.73-6.61-1.52-9.85c-0.62-2.58-1.48-5.03-2.49-7.49c-0.61-1.48-2.03-3.52-2.2-5.13
										c-0.16-1.58,1.07-3.33,1.33-5.16c0.26-1.79,0.21-3.67-0.16-5.44c-0.83-4.02-3.59-7.76-7.86-8.81
										c-0.95-0.23-2.96,0.05-3.64-0.5c-0.77-0.64-1.31-2.8-2.01-3.67c-1.99-2.48-5.09-4.07-8.37-3.51
										c-2.41,0.41-1.03,0.91-2.83-0.51c-1-0.79-1.76-1.99-2.73-2.85c-1.47-1.28-3.15-2.38-4.89-3.28
										c-4.56-2.36-9.75-4.07-14.84-4.91c-9.29-1.52-19.2-0.2-28.2,2.22c-4.48,1.2-8.99,2.73-13.15,4.74
										c-1.78,0.86-2.81,1.58-4.67,1.81c-2.93,0.36-5.41,0.34-8.18,1.58c-8.54,3.82-12.38,12.69-9.06,21.17
										c0.67,1.71,1.57,3.21,2.82,4.58c1.52,1.68,2.07,1.35,0.76,3.28c-1.96,2.89-3.61,5.97-4.95,9.17
										c-3.53,8.4-4.12,17.86-3.89,26.82c0.08,3.14,0.21,6.31,0.71,9.42c0.21,1.34,0.27,3.87,1.28,4.87
										c0.51,0.51,1.24,0.79,1.97,0.59c1.71-0.47,1.12-1.74,1.16-2.91c0.2-5.88-0.07-11.09,1.33-16.9
										c1.03-4.29,2.76-8.19,4.99-12.04c2.84-4.88,5.9-9.17,9.81-13.36c0.92-0.98,1.12-1.4,2.35-1.47c0.93-0.05,2.3,0.58,3.2,0.81
										c2,0.49,4,0.97,6.03,1.3c3.74,0.6,7.44,0.64,11.22,0.53c7.43-0.23,14.88-0.75,22.08-2.62c4.78-1.24,9.02-3.47,13.6-5.1
										c0.08-0.03,1.23-0.85,1.43-0.81c0.28,0.05,1.98,1.83,2.26,2.05c2.23,1.75,4.67,2.48,7.07,3.83
										c2.96,1.67,0.09-0.72,1.73,1.36c0.48,0.6,0.72,1.73,1.1,2.41c1.22,2.18,2.91,4.1,4.93,5.62c1.96,1.47,4.89,2.18,5.89,4.1
										c0.77,1.48,1.03,3.48,1.65,5.06c1.63,4.14,3.78,7.99,5.93,11.89c1.73,3.14,3.63,5.88,3.82,9.47
										c0.07,1.25-1.12,8.74,1.77,6.46c0.43-0.34,1.35-4.16,1.54-4.8c0.77-2.63,1.05-5.38,1.39-8.09
										C193.99,81.3,194.22,76.18,193.77,70.77"/>
								</g>
							</mask>
							<g class="st29">
								<g transform="translate(0.000000, 0.000000) ">
									<rect class="st27" width="264" height="280"/>
								</g>
							</g>
							<g transform="translate(62.000000, 85.000000)">
								<g id="Sunglasses" transform="translate(8.000000, 8.000000)">
									<g id="shades">
										<g>
											<path id="react-path-336" class="st18" d="M47.01,6.28c2.51,0.02,3.7,0.45,4.13,3.11c0.43,2.7,0.01,5.74-0.49,8.4
												c-0.76,4.06-2.03,8.04-4.98,11.01c-1.56,1.56-3.45,2.81-5.47,3.66c-1.07,0.45-2.2,0.78-3.33,1.03
												c-0.33,0.07-3.15,0.47-1.42,0.27c-4.04,0.47-8.42,0.45-11.8-2.17c-3.74-2.9-6.3-7.49-7.43-12.07
												c-0.66-2.68-2.04-9.08,0.49-11.22C19.59,5.85,47.01,6.28,47.01,6.28L47.01,6.28z"/>
										</g>
										<g>
											
												<linearGradient id="SVGID_3_" gradientUnits="userSpaceOnUse" x1="-236.7052" y1="434.805" x2="-236.7052" y2="434.1" gradientTransform="matrix(36.0807 0 0 -27.7325 8573.7627 12064.4922)">
												<stop  offset="0" style="stop-color:#FFFFFF;stop-opacity:0.5"/>
												<stop  offset="1" style="stop-color:#000000;stop-opacity:0.5"/>
											</linearGradient>
											<path class="st30" d="M47.01,6.28c2.51,0.02,3.7,0.45,4.13,3.11c0.43,2.7,0.01,5.74-0.49,8.4
												c-0.76,4.06-2.03,8.04-4.98,11.01c-1.56,1.56-3.45,2.81-5.47,3.66c-1.07,0.45-2.2,0.78-3.33,1.03
												c-0.33,0.07-3.15,0.47-1.42,0.27c-4.04,0.47-8.42,0.45-11.8-2.17c-3.74-2.9-6.3-7.49-7.43-12.07
												c-0.66-2.68-2.04-9.08,0.49-11.22C19.59,5.85,47.01,6.28,47.01,6.28L47.01,6.28z"/>
										</g>
									</g>
									<g>
										<g>
											<path id="react-path-337" class="st18" d="M78.92,6.27c-2.51,0.02-3.7,0.45-4.13,3.11c-0.43,2.7-0.01,5.74,0.49,8.4
												c0.76,4.06,2.03,8.04,4.98,11.01c1.56,1.56,3.45,2.81,5.47,3.66c1.07,0.45,2.2,0.78,3.33,1.03
												c0.33,0.07,3.15,0.47,1.42,0.27c4.04,0.47,8.42,0.45,11.8-2.17c3.74-2.9,6.3-7.49,7.43-12.07
												c0.66-2.68,2.04-9.08-0.49-11.22C106.33,5.84,78.92,6.27,78.92,6.27L78.92,6.27z"/>
										</g>
										<g>
											
												<linearGradient id="SVGID_4_" gradientUnits="userSpaceOnUse" x1="-236.7052" y1="434.805" x2="-236.7052" y2="433.805" gradientTransform="matrix(36.0806 0 0 -27.7325 8633.1084 12064.4902)">
												<stop  offset="0" style="stop-color:#FFFFFF;stop-opacity:0.5"/>
												<stop  offset="0.7051" style="stop-color:#000000;stop-opacity:0.5"/>
											</linearGradient>
											<path class="st31" d="M78.92,6.27c-2.51,0.02-3.7,0.45-4.13,3.11c-0.43,2.7-0.01,5.74,0.49,8.4
												c0.76,4.06,2.03,8.04,4.98,11.01c1.56,1.56,3.45,2.81,5.47,3.66c1.07,0.45,2.2,0.78,3.33,1.03
												c0.33,0.07,3.15,0.47,1.42,0.27c4.04,0.47,8.42,0.45,11.8-2.17c3.74-2.9,6.3-7.49,7.43-12.07
												c0.66-2.68,2.04-9.08-0.49-11.22C106.33,5.84,78.92,6.27,78.92,6.27L78.92,6.27z"/>
										</g>
									</g>
									<g id="Glasses">
										<path id="Frame" class="st32" d="M46.25,7.28c2.37,0.02,3.49,0.42,3.9,2.89c0.41,2.51,0.01,5.32-0.46,7.79
											c-0.72,3.77-1.92,7.46-4.71,10.21c-1.47,1.45-3.26,2.61-5.17,3.4c-1.01,0.42-2.08,0.72-3.15,0.95
											c-0.31,0.07-2.98,0.43-1.34,0.25c-3.82,0.44-7.96,0.42-11.15-2.01c-3.53-2.69-5.95-6.95-7.02-11.2
											c-0.62-2.48-1.93-8.42,0.46-10.41C20.35,6.87,46.25,7.28,46.25,7.28L46.25,7.28z M22.22,0.49
											c-5.44,0.19-9.07,1.14-11.75,6.58c-4.92,9.96,3.5,24.9,12.89,28.97c10.98,4.76,23.24-0.51,29.04-10.03
											c3.07-5.04,4.63-12.68,4.53-18.5c-0.13-7.43-5.32-7.63-11.41-7.47L22.22,0.49z"/>
										<path class="st32" d="M79.68,7.27c-2.37,0.02-3.49,0.42-3.9,2.89c-0.41,2.51-0.01,5.32,0.46,7.79
											c0.72,3.77,1.92,7.46,4.71,10.21c1.47,1.45,3.26,2.61,5.17,3.4c1.01,0.42,2.08,0.72,3.15,0.95
											c0.31,0.07,2.98,0.43,1.34,0.25c3.82,0.44,7.96,0.42,11.15-2.01c3.53-2.69,5.95-6.95,7.02-11.2
											c0.62-2.48,1.93-8.42-0.46-10.41C105.58,6.87,79.68,7.27,79.68,7.27L79.68,7.27z M103.71,0.49
											c5.44,0.19,9.07,1.14,11.75,6.58c4.92,9.96-3.5,24.9-12.89,28.97C91.6,40.8,79.34,35.53,73.53,26
											c-3.07-5.04-4.63-12.68-4.53-18.5c0.13-7.43,5.32-7.63,11.41-7.47L103.71,0.49z"/>
										<path class="st32" d="M13.2,4.93C9.79,5.12,5.89,5.16,2.69,6.64c-3.38,1.56-3.91,5.1,0.36,5.59
											c1.92,0.22,3.85-0.14,5.74-0.48c1.55-0.28,3.65-0.19,5.12-0.78C16.64,9.86,16.46,4.74,13.2,4.93"/>
										<path class="st32" d="M112.73,4.93c3.41,0.19,7.31,0.24,10.51,1.71c3.38,1.56,3.91,5.1-0.36,5.59
											c-1.92,0.22-3.85-0.14-5.74-0.48c-1.55-0.28-3.65-0.19-5.12-0.78C109.3,9.86,109.47,4.74,112.73,4.93"/>
										<path class="st32" d="M73.11,7.01c-1.95-2.3-7.02-3.63-10.22-3.63c-3.2,0-8.12,1.33-10.07,3.63
											c-0.98,1.16-1.01,2.71,0.69,3.44c2.12,0.91,4.01-0.74,5.7-1.6c2.17-1.1,5.5-0.98,7.51,0c1.71,0.83,3.59,2.5,5.7,1.6
											C74.12,9.72,74.09,8.17,73.11,7.01"/>
									</g>
								</g>
							</g>
						</g>
					</g>
				</g>
			</g>
		</g>
	</g>
</g>
</svg>
