<?xml version="1.0" encoding="utf-8"?>
<!-- Generator: Adobe Illustrator 23.0.2, SVG Export Plug-In . SVG Version: 6.00 Build 0)  -->
<svg version="1.1" id="Layer_1" xmlns="http://www.w3.org/2000/svg" xmlns:xlink="http://www.w3.org/1999/xlink" x="0px" y="0px"
	 viewBox="0 0 264 280" style="enable-background:new 0 0 264 280;" xml:space="preserve">
<style type="text/css">
	.st0{fill-rule:evenodd;clip-rule:evenodd;fill:url(#SVGID_1_);}
	.st1{filter:url(#Adobe_OpacityMaskFilter);}
	.st2{fill-rule:evenodd;clip-rule:evenodd;fill:#FFFFFF;}
	.st3{mask:url(#react-mask-4_1_);}
	.st4{fill-rule:evenodd;clip-rule:evenodd;fill:url(#SVGID_2_);}
	.st5{filter:url(#Adobe_OpacityMaskFilter_1_);}
	.st6{mask:url(#react-mask-5_1_);}
	.st7{fill-rule:evenodd;clip-rule:evenodd;fill:#D0C6AC;}
	.st8{filter:url(#Adobe_OpacityMaskFilter_2_);}
	.st9{mask:url(#react-mask-6_1_);}
	.st10{fill-rule:evenodd;clip-rule:evenodd;fill:#EDB98A;}
	.st11{filter:url(#Adobe_OpacityMaskFilter_3_);}
	.st12{mask:url(#react-mask-6_2_);fill-rule:evenodd;clip-rule:evenodd;fill-opacity:0.1;}
	.st13{fill-rule:evenodd;clip-rule:evenodd;fill:#E6E6E6;}
	.st14{filter:url(#Adobe_OpacityMaskFilter_4_);}
	.st15{mask:url(#react-mask-224_1_);}
	.st16{fill-rule:evenodd;clip-rule:evenodd;fill:#25557C;}
	.st17{fill-opacity:0.6;}
	.st18{fill-rule:evenodd;clip-rule:evenodd;fill-opacity:0.16;}
	.st19{fill-rule:evenodd;clip-rule:evenodd;fill-opacity:0.6;}
	.st20{filter:url(#Adobe_OpacityMaskFilter_5_);}
	.st21{mask:url(#react-mask-226_1_);}
	.st22{fill-rule:evenodd;clip-rule:evenodd;fill:#331B0C;}
	.st23{filter:url(#Adobe_OpacityMaskFilter_6_);}
	.st24{mask:url(#react-mask-229_1_);}
	.st25{fill-rule:evenodd;clip-rule:evenodd;fill:#2C1B18;}
	.st26{fill-rule:evenodd;clip-rule:evenodd;fill:#28354B;}
	.st27{filter:url(#Adobe_OpacityMaskFilter_7_);}
	.st28{mask:url(#react-mask-225_1_);}
	.st29{fill-rule:evenodd;clip-rule:evenodd;fill:#724133;}
</style>
<desc>Created with getavataaars.com</desc>
<g>
	<g transform="translate(-825.000000, -1100.000000)">
		<g transform="translate(825.000000, 1100.000000)">
			<g id="Circle" transform="translate(12.000000, 40.000000)">
				<g id="Circle-Background">
					<linearGradient id="SVGID_1_" gradientUnits="userSpaceOnUse" x1="52.1063" y1="123.233" x2="220.1063" y2="115.233">
						<stop  offset="0" style="stop-color:#EE6BFC"/>
						<stop  offset="1" style="stop-color:#820CC6"/>
					</linearGradient>
					<circle class="st0" cx="120" cy="120" r="120"/>
				</g>
				<defs>
					<filter id="Adobe_OpacityMaskFilter" filterUnits="userSpaceOnUse" x="0" y="0" width="240" height="240">
						<feColorMatrix  type="matrix" values="1 0 0 0 0  0 1 0 0 0  0 0 1 0 0  0 0 0 1 0"/>
					</filter>
				</defs>
				<mask maskUnits="userSpaceOnUse" x="0" y="0" width="240" height="240" id="react-mask-4_1_">
					<g class="st1">
						<circle id="react-path-1_1_" class="st2" cx="120" cy="120" r="120"/>
					</g>
				</mask>
				<g class="st3">
					<linearGradient id="SVGID_2_" gradientUnits="userSpaceOnUse" x1="52.1063" y1="123.233" x2="220.1063" y2="115.233">
						<stop  offset="0" style="stop-color:#EE6BFC"/>
						<stop  offset="1" style="stop-color:#820CC6"/>
					</linearGradient>
					<rect class="st4" width="240" height="240"/>
				</g>
			</g>
			<g id="Mask">
			</g>
			<defs>
				<filter id="Adobe_OpacityMaskFilter_1_" filterUnits="userSpaceOnUse" x="-1" y="0" width="297" height="316">
					<feColorMatrix  type="matrix" values="1 0 0 0 0  0 1 0 0 0  0 0 1 0 0  0 0 0 1 0"/>
				</filter>
			</defs>
			<mask maskUnits="userSpaceOnUse" x="-1" y="0" width="297" height="316" id="react-mask-5_1_">
				<g class="st5">
					<path id="react-path-2_1_" class="st2" d="M12,160c0,66.27,53.73,120,120,120s120-53.73,120-120h12V0H0v160H12z"/>
				</g>
			</mask>
			<g id="Avataaar" class="st6">
				<g id="Body" transform="translate(32.000000, 36.000000)">
					<g>
						<path class="st7" d="M124,144.61V163h4l0,0c39.76,0,72,32.24,72,72v9H0v-9c0-39.76,32.24-72,72-72l0,0h4v-18.39
							c-17.24-8.19-29.63-24.92-31.69-44.73C38.48,99.06,34,94.05,34,88V74c0-5.95,4.32-10.88,10-11.83V56l0,0
							c0-30.93,25.07-56,56-56l0,0l0,0c30.93,0,56,25.07,56,56v6.17c5.68,0.95,10,5.89,10,11.83v14c0,6.05-4.48,11.06-10.31,11.88
							C153.63,119.69,141.24,136.42,124,144.61z"/>
					</g>
					<defs>
						<filter id="Adobe_OpacityMaskFilter_2_" filterUnits="userSpaceOnUse" x="0" y="0" width="264" height="280">
							<feColorMatrix  type="matrix" values="1 0 0 0 0  0 1 0 0 0  0 0 1 0 0  0 0 0 1 0"/>
						</filter>
					</defs>
					<mask maskUnits="userSpaceOnUse" x="0" y="0" width="264" height="280" id="react-mask-6_1_">
						<g class="st8">
							<path id="react-path-3_1_" class="st2" d="M124,144.61V163h4l0,0c39.76,0,72,32.24,72,72v9H0v-9c0-39.76,32.24-72,72-72l0,0
								h4v-18.39c-17.24-8.19-29.63-24.92-31.69-44.73C38.48,99.06,34,94.05,34,88V74c0-5.95,4.32-10.88,10-11.83V56l0,0
								c0-30.93,25.07-56,56-56l0,0l0,0c30.93,0,56,25.07,56,56v6.17c5.68,0.95,10,5.89,10,11.83v14c0,6.05-4.48,11.06-10.31,11.88
								C153.63,119.69,141.24,136.42,124,144.61z"/>
						</g>
					</mask>
					<g class="st9">
						<g id="Color" transform="translate(0.000000, 0.000000)">
							<rect class="st10" width="264" height="280"/>
						</g>
					</g>
					<defs>
						<filter id="Adobe_OpacityMaskFilter_3_" filterUnits="userSpaceOnUse" x="44" y="79" width="112" height="79">
							<feColorMatrix  type="matrix" values="1 0 0 0 0  0 1 0 0 0  0 0 1 0 0  0 0 0 1 0"/>
						</filter>
					</defs>
					<mask maskUnits="userSpaceOnUse" x="44" y="79" width="112" height="79" id="react-mask-6_2_">
						<g class="st11">
							<path id="react-path-3_2_" class="st2" d="M124,144.61V163h4l0,0c39.76,0,72,32.24,72,72v9H0v-9c0-39.76,32.24-72,72-72l0,0
								h4v-18.39c-17.24-8.19-29.63-24.92-31.69-44.73C38.48,99.06,34,94.05,34,88V74c0-5.95,4.32-10.88,10-11.83V56l0,0
								c0-30.93,25.07-56,56-56l0,0l0,0c30.93,0,56,25.07,56,56v6.17c5.68,0.95,10,5.89,10,11.83v14c0,6.05-4.48,11.06-10.31,11.88
								C153.63,119.69,141.24,136.42,124,144.61z"/>
						</g>
					</mask>
					<path id="Neck-Shadow" class="st12" d="M156,79v23c0,30.93-25.07,56-56,56s-56-25.07-56-56V79v15c0,30.93,25.07,56,56,56
						s56-25.07,56-56V79z"/>
				</g>
				<g transform="translate(0.000000, 170.000000)">
					<g id="Clothes">
						<path class="st13" d="M171.32,29.94c34.39,5.43,60.68,35.2,60.68,71.12V110H32v-8.95c0-35.91,26.29-65.69,60.68-71.12
							c0.9,5.07,3.43,9.89,7.55,13.6l0,0l29.09,26.23c1.52,1.37,3.84,1.37,5.36,0l0,0l29.09-26.23c0.43-0.38,0.84-0.78,1.23-1.2
							C168.41,38.79,170.52,34.45,171.32,29.94z"/>
					</g>
					<defs>
						<filter id="Adobe_OpacityMaskFilter_4_" filterUnits="userSpaceOnUse" x="0" y="0" width="264" height="110">
							<feColorMatrix  type="matrix" values="1 0 0 0 0  0 1 0 0 0  0 0 1 0 0  0 0 0 1 0"/>
						</filter>
					</defs>
					<mask maskUnits="userSpaceOnUse" x="0" y="0" width="264" height="110" id="react-mask-224_1_">
						<g class="st14">
							<path id="react-path-223_1_" class="st2" d="M171.32,29.94c34.39,5.43,60.68,35.2,60.68,71.12V110H32v-8.95
								c0-35.91,26.29-65.69,60.68-71.12c0.9,5.07,3.43,9.89,7.55,13.6l0,0l29.09,26.23c1.52,1.37,3.84,1.37,5.36,0l0,0l29.09-26.23
								c0.43-0.38,0.84-0.78,1.23-1.2C168.41,38.79,170.52,34.45,171.32,29.94z"/>
						</g>
					</mask>
					<g class="st15">
						<rect class="st16" width="264" height="110"/>
					</g>
				</g>
				<g id="Face" transform="translate(76.000000, 82.000000)">
					<g transform="translate(2.000000, 52.000000)">
						<path id="Mouth" class="st17" d="M40,16c0,5.37,6.16,9,14,9s14-3.63,14-9c0-1.1-0.95-2-2-2c-1.29,0-1.87,0.91-2,2
							c-1.24,2.94-4.32,4.72-10,5c-5.68-0.28-8.76-2.06-10-5c-0.13-1.09-0.71-2-2-2C40.95,14,40,14.9,40,16z"/>
					</g>
					<g transform="translate(28.000000, 40.000000)">
						<path id="Nose" class="st18" d="M16,8c0,4.42,5.37,8,12,8l0,0c6.63,0,12-3.58,12-8"/>
					</g>
					<g transform="translate(0.000000, 8.000000)">
						<circle id="Eye" class="st19" cx="30" cy="22" r="6"/>
						<circle class="st19" cx="82" cy="22" r="6"/>
					</g>
					<g>
						<path id="Eye-Browse-Reddit" class="st19" d="M22.77,1.58l0.91-0.4c5.24-2.08,13.19-1.21,18.05,1.12
							c0.57,0.27,0.18,1.15-0.4,1.11C26.4,2.26,16.36,11.55,12.95,17.85c-0.1,0.19-0.41,0.21-0.48,0.03
							C10.16,12.56,16.91,3.9,22.77,1.58z"/>
						<path class="st19" d="M89.23,1.58l-0.91-0.4C83.08-0.91,75.14-0.03,70.28,2.3c-0.57,0.27-0.18,1.15,0.4,1.11
							c14.92-1.15,24.96,8.15,28.38,14.44c0.1,0.19,0.41,0.21,0.48,0.03C101.84,12.56,95.09,3.9,89.23,1.58z"/>
					</g>
				</g>
				<g id="Top">
					<defs>
						<filter id="Adobe_OpacityMaskFilter_5_" filterUnits="userSpaceOnUse" x="-1" y="0" width="281" height="316">
							<feColorMatrix  type="matrix" values="1 0 0 0 0  0 1 0 0 0  0 0 1 0 0  0 0 0 1 0"/>
						</filter>
					</defs>
					<mask maskUnits="userSpaceOnUse" x="-1" y="0" width="281" height="316" id="react-mask-226_1_">
						<g class="st20">
							<rect id="react-path-228_1_" class="st2" width="264" height="280"/>
						</g>
					</mask>
					<g class="st21">
						<g transform="translate(-1.000000, 0.000000)">
							<g transform="translate(49.000000, 72.000000)">
								<g id="Lite-Beard">
									<path class="st22" d="M101.43,98.17c-2.51,2.29-5.19,3.33-8.58,2.6c-0.58-0.12-2.96-4.54-8.85-4.54
										c-5.9,0-8.27,4.41-8.85,4.54c-3.38,0.72-6.06-0.31-8.58-2.6c-4.73-4.31-8.65-10.26-6.29-16.75
										c1.23-3.38,3.23-7.1,6.87-8.17c3.89-1.15,9.35,0,13.26-0.79C81.68,72.2,83.07,71.75,84,71c0.93,0.75,2.32,1.2,3.58,1.46
										c3.92,0.79,9.38-0.36,13.26,0.79c3.64,1.08,5.64,4.79,6.87,8.17C110.08,87.91,106.15,93.86,101.43,98.17 M140.08,26
										c-3.41,8.4-2.09,18.86-2.72,27.68c-0.51,7.17-2.02,17.91-8.38,22.54c-3.25,2.37-9.18,6.35-13.43,5.24
										c-2.93-0.76-3.24-9.16-7.09-12.3c-4.36-3.56-9.81-5.13-15.31-4.89c-2.37,0.1-7.17,0.08-9.15,1.9
										c-1.98-1.82-6.78-1.8-9.15-1.9c-5.49-0.24-10.94,1.32-15.31,4.89c-3.85,3.14-4.16,11.54-7.09,12.3
										c-4.25,1.11-10.18-2.87-13.43-5.24c-6.36-4.63-7.87-15.37-8.38-22.54C30.01,44.86,31.33,34.4,27.92,26
										c-1.66,0-0.56,16.13-0.56,16.13v20.36c0.03,15.29,9.58,38.17,30.75,46.91C63.29,111.53,75.02,115,84,115
										s20.71-3.14,25.89-5.28c21.17-8.74,30.72-31.95,30.75-47.24V42.13C140.65,42.13,141.74,26,140.08,26"/>
								</g>
								<defs>
									<filter id="Adobe_OpacityMaskFilter_6_" filterUnits="userSpaceOnUse" x="-32" y="0" width="264" height="244">
										<feColorMatrix  type="matrix" values="1 0 0 0 0  0 1 0 0 0  0 0 1 0 0  0 0 0 1 0"/>
									</filter>
								</defs>
								<mask maskUnits="userSpaceOnUse" x="-32" y="0" width="264" height="244" id="react-mask-229_1_">
									<g class="st23">
										<path id="react-path-230_1_" class="st2" d="M101.43,98.17c-2.51,2.29-5.19,3.33-8.58,2.6c-0.58-0.12-2.96-4.54-8.85-4.54
											c-5.9,0-8.27,4.41-8.85,4.54c-3.38,0.72-6.06-0.31-8.58-2.6c-4.73-4.31-8.65-10.26-6.29-16.75
											c1.23-3.38,3.23-7.1,6.87-8.17c3.89-1.15,9.35,0,13.26-0.79C81.68,72.2,83.07,71.75,84,71c0.93,0.75,2.32,1.2,3.58,1.46
											c3.92,0.79,9.38-0.36,13.26,0.79c3.64,1.08,5.64,4.79,6.87,8.17C110.08,87.91,106.15,93.86,101.43,98.17 M140.08,26
											c-3.41,8.4-2.09,18.86-2.72,27.68c-0.51,7.17-2.02,17.91-8.38,22.54c-3.25,2.37-9.18,6.35-13.43,5.24
											c-2.93-0.76-3.24-9.16-7.09-12.3c-4.36-3.56-9.81-5.13-15.31-4.89c-2.37,0.1-7.17,0.08-9.15,1.9
											c-1.98-1.82-6.78-1.8-9.15-1.9c-5.49-0.24-10.94,1.32-15.31,4.89c-3.85,3.14-4.16,11.54-7.09,12.3
											c-4.25,1.11-10.18-2.87-13.43-5.24c-6.36-4.63-7.87-15.37-8.38-22.54C30.01,44.86,31.33,34.4,27.92,26
											c-1.66,0-0.56,16.13-0.56,16.13v20.36c0.03,15.29,9.58,38.17,30.75,46.91C63.29,111.53,75.02,115,84,115
											s20.71-3.14,25.89-5.28c21.17-8.74,30.72-31.95,30.75-47.24V42.13C140.65,42.13,141.74,26,140.08,26"/>
									</g>
								</mask>
								<g class="st24">
									<g transform="translate(-32.000000, 0.000000)">
										<rect class="st25" width="264" height="244"/>
									</g>
								</g>
							</g>
							<g id="Short-Hair">
								<path class="st26" d="M114.94,28.34c-0.99,0.22-1.95,0.45-2.9,0.69c-15.09,3.81-24.02,14.62-31.68,30.62
									c-3.76,7.85-5.99,17.14-6.33,25.83c-0.13,3.41,0.33,6.93,1.24,10.22c0.34,1.21,2.16,5.39,2.65,2.01
									c0.17-1.12-0.44-2.68-0.5-3.87c-0.08-1.57,0.01-3.16,0.11-4.72c0.2-2.93,0.72-5.8,1.65-8.59c1.33-3.99,3.02-8.31,5.6-11.68
									c6.4-8.33,10.98-25.64,48.21-27.18c37.24-1.53,48.75,25.79,52.18,31.63c4.07,6.91,2.19,15.41,3.44,22.9
									c0.47,2.85,1.55,2.79,2.13,0.24c1-4.33,1.47-8.83,1.15-13.28c-0.72-10.05-4.41-36.45-24.59-48.15
									c-5.44-3.15-10.87-5.32-16.19-6.72c3.06-2.97,4.88-6.72,4.88-10.78C156,7.84,145.7,0,133,0s-23,7.84-23,17.5
									C110,21.59,111.85,25.36,114.94,28.34z"/>
							</g>
							<defs>
								<filter id="Adobe_OpacityMaskFilter_7_" filterUnits="userSpaceOnUse" x="0" y="0" width="264" height="280">
									<feColorMatrix  type="matrix" values="1 0 0 0 0  0 1 0 0 0  0 0 1 0 0  0 0 0 1 0"/>
								</filter>
							</defs>
							<mask maskUnits="userSpaceOnUse" x="0" y="0" width="264" height="280" id="react-mask-225_1_">
								<g class="st27">
									<path id="react-path-227_1_" class="st2" d="M114.94,28.34c-0.99,0.22-1.95,0.45-2.9,0.69
										c-15.09,3.81-24.02,14.62-31.68,30.62c-3.76,7.85-5.99,17.14-6.33,25.83c-0.13,3.41,0.33,6.93,1.24,10.22
										c0.34,1.21,2.16,5.39,2.65,2.01c0.17-1.12-0.44-2.68-0.5-3.87c-0.08-1.57,0.01-3.16,0.11-4.72c0.2-2.93,0.72-5.8,1.65-8.59
										c1.33-3.99,3.02-8.31,5.6-11.68c6.4-8.33,10.98-25.64,48.21-27.18c37.24-1.53,48.75,25.79,52.18,31.63
										c4.07,6.91,2.19,15.41,3.44,22.9c0.47,2.85,1.55,2.79,2.13,0.24c1-4.33,1.47-8.83,1.15-13.28
										c-0.72-10.05-4.41-36.45-24.59-48.15c-5.44-3.15-10.87-5.32-16.19-6.72c3.06-2.97,4.88-6.72,4.88-10.78
										C156,7.84,145.7,0,133,0s-23,7.84-23,17.5C110,21.59,111.85,25.36,114.94,28.34z"/>
								</g>
							</mask>
							<g class="st28">
								<g transform="translate(0.000000, 0.000000) ">
									<rect class="st29" width="264" height="280"/>
								</g>
							</g>
						</g>
					</g>
				</g>
			</g>
		</g>
	</g>
</g>
</svg>
