<?xml version="1.0" encoding="utf-8"?>
<!-- Generator: Adobe Illustrator 23.0.2, SVG Export Plug-In . SVG Version: 6.00 Build 0)  -->
<svg version="1.1" id="Layer_1" xmlns="http://www.w3.org/2000/svg" xmlns:xlink="http://www.w3.org/1999/xlink" x="0px" y="0px"
	 viewBox="0 0 264 280" style="enable-background:new 0 0 264 280;" xml:space="preserve">
<style type="text/css">
	.st0{fill-rule:evenodd;clip-rule:evenodd;fill:url(#SVGID_1_);}
	.st1{filter:url(#Adobe_OpacityMaskFilter);}
	.st2{fill-rule:evenodd;clip-rule:evenodd;fill:#FFFFFF;}
	.st3{mask:url(#react-mask-4_1_);}
	.st4{fill-rule:evenodd;clip-rule:evenodd;fill:url(#SVGID_2_);}
	.st5{filter:url(#Adobe_OpacityMaskFilter_1_);}
	.st6{mask:url(#react-mask-5_1_);}
	.st7{fill-rule:evenodd;clip-rule:evenodd;fill:#D0C6AC;}
	.st8{filter:url(#Adobe_OpacityMaskFilter_2_);}
	.st9{mask:url(#react-mask-6_1_);}
	.st10{fill-rule:evenodd;clip-rule:evenodd;fill:#D08B5B;}
	.st11{filter:url(#Adobe_OpacityMaskFilter_3_);}
	.st12{mask:url(#react-mask-6_2_);fill-rule:evenodd;clip-rule:evenodd;fill-opacity:0.1;}
	.st13{fill-rule:evenodd;clip-rule:evenodd;fill:#E6E6E6;}
	.st14{filter:url(#Adobe_OpacityMaskFilter_4_);}
	.st15{mask:url(#react-mask-86_1_);}
	.st16{fill-rule:evenodd;clip-rule:evenodd;fill:#FFAFB9;}
	.st17{fill-rule:evenodd;clip-rule:evenodd;fill-opacity:0.7;}
	.st18{fill-rule:evenodd;clip-rule:evenodd;fill-opacity:0.16;}
	.st19{fill-rule:evenodd;clip-rule:evenodd;fill-opacity:0.6;}
	.st20{fill-opacity:0.6;}
	.st21{filter:url(#Adobe_OpacityMaskFilter_5_);}
	.st22{mask:url(#react-mask-90_1_);}
	.st23{fill-rule:evenodd;clip-rule:evenodd;fill:#331B0C;}
	.st24{filter:url(#Adobe_OpacityMaskFilter_6_);}
	.st25{mask:url(#react-mask-94_1_);}
	.st26{fill-rule:evenodd;clip-rule:evenodd;fill:#A55728;}
	.st27{fill-rule:evenodd;clip-rule:evenodd;fill:#28354B;}
	.st28{filter:url(#Adobe_OpacityMaskFilter_7_);}
	.st29{mask:url(#react-mask-91_1_);}
	.st30{fill-rule:evenodd;clip-rule:evenodd;fill:#2C1B18;}
	.st31{fill:#252C2F;}
</style>
<desc>Created with getavataaars.com</desc>
<g>
	<g transform="translate(-825.000000, -1100.000000)">
		<g transform="translate(825.000000, 1100.000000)">
			<g id="Circle" transform="translate(12.000000, 40.000000)">
				<g id="Circle-Background">
					<linearGradient id="SVGID_1_" gradientUnits="userSpaceOnUse" x1="128.7834" y1="19.6185" x2="121.7834" y2="99.6185">
						<stop  offset="0" style="stop-color:#F9210B"/>
						<stop  offset="1" style="stop-color:#FFD008"/>
					</linearGradient>
					<circle class="st0" cx="120" cy="120" r="120"/>
				</g>
				<defs>
					<filter id="Adobe_OpacityMaskFilter" filterUnits="userSpaceOnUse" x="0" y="0" width="240" height="240">
						<feColorMatrix  type="matrix" values="1 0 0 0 0  0 1 0 0 0  0 0 1 0 0  0 0 0 1 0"/>
					</filter>
				</defs>
				<mask maskUnits="userSpaceOnUse" x="0" y="0" width="240" height="240" id="react-mask-4_1_">
					<g class="st1">
						<circle id="react-path-1_1_" class="st2" cx="120" cy="120" r="120"/>
					</g>
				</mask>
				<g class="st3">
					<linearGradient id="SVGID_2_" gradientUnits="userSpaceOnUse" x1="128.7834" y1="19.6185" x2="121.7834" y2="99.6185">
						<stop  offset="0" style="stop-color:#F9210B"/>
						<stop  offset="1" style="stop-color:#FFD008"/>
					</linearGradient>
					<rect class="st4" width="240" height="240"/>
				</g>
			</g>
			<g id="Mask">
			</g>
			<defs>
				<filter id="Adobe_OpacityMaskFilter_1_" filterUnits="userSpaceOnUse" x="0" y="34" width="338" height="282">
					<feColorMatrix  type="matrix" values="1 0 0 0 0  0 1 0 0 0  0 0 1 0 0  0 0 0 1 0"/>
				</filter>
			</defs>
			<mask maskUnits="userSpaceOnUse" x="0" y="34" width="338" height="282" id="react-mask-5_1_">
				<g class="st5">
					<path id="react-path-2_1_" class="st2" d="M12,160c0,66.27,53.73,120,120,120s120-53.73,120-120h12V0H0v160H12z"/>
				</g>
			</mask>
			<g id="Avataaar" class="st6">
				<g id="Body" transform="translate(32.000000, 36.000000)">
					<g>
						<path class="st7" d="M124,144.61V163h4l0,0c39.76,0,72,32.24,72,72v9H0v-9c0-39.76,32.24-72,72-72l0,0h4v-18.39
							c-17.24-8.19-29.63-24.92-31.69-44.73C38.48,99.06,34,94.05,34,88V74c0-5.95,4.32-10.88,10-11.83V56l0,0
							c0-30.93,25.07-56,56-56l0,0l0,0c30.93,0,56,25.07,56,56v6.17c5.68,0.95,10,5.89,10,11.83v14c0,6.05-4.48,11.06-10.31,11.88
							C153.63,119.69,141.24,136.42,124,144.61z"/>
					</g>
					<defs>
						<filter id="Adobe_OpacityMaskFilter_2_" filterUnits="userSpaceOnUse" x="0" y="0" width="264" height="280">
							<feColorMatrix  type="matrix" values="1 0 0 0 0  0 1 0 0 0  0 0 1 0 0  0 0 0 1 0"/>
						</filter>
					</defs>
					<mask maskUnits="userSpaceOnUse" x="0" y="0" width="264" height="280" id="react-mask-6_1_">
						<g class="st8">
							<path id="react-path-3_1_" class="st2" d="M124,144.61V163h4l0,0c39.76,0,72,32.24,72,72v9H0v-9c0-39.76,32.24-72,72-72l0,0
								h4v-18.39c-17.24-8.19-29.63-24.92-31.69-44.73C38.48,99.06,34,94.05,34,88V74c0-5.95,4.32-10.88,10-11.83V56l0,0
								c0-30.93,25.07-56,56-56l0,0l0,0c30.93,0,56,25.07,56,56v6.17c5.68,0.95,10,5.89,10,11.83v14c0,6.05-4.48,11.06-10.31,11.88
								C153.63,119.69,141.24,136.42,124,144.61z"/>
						</g>
					</mask>
					<g class="st9">
						<g id="Color" transform="translate(0.000000, 0.000000)">
							<rect class="st10" width="264" height="280"/>
						</g>
					</g>
					<defs>
						<filter id="Adobe_OpacityMaskFilter_3_" filterUnits="userSpaceOnUse" x="44" y="79" width="112" height="79">
							<feColorMatrix  type="matrix" values="1 0 0 0 0  0 1 0 0 0  0 0 1 0 0  0 0 0 1 0"/>
						</filter>
					</defs>
					<mask maskUnits="userSpaceOnUse" x="44" y="79" width="112" height="79" id="react-mask-6_2_">
						<g class="st11">
							<path id="react-path-3_2_" class="st2" d="M124,144.61V163h4l0,0c39.76,0,72,32.24,72,72v9H0v-9c0-39.76,32.24-72,72-72l0,0
								h4v-18.39c-17.24-8.19-29.63-24.92-31.69-44.73C38.48,99.06,34,94.05,34,88V74c0-5.95,4.32-10.88,10-11.83V56l0,0
								c0-30.93,25.07-56,56-56l0,0l0,0c30.93,0,56,25.07,56,56v6.17c5.68,0.95,10,5.89,10,11.83v14c0,6.05-4.48,11.06-10.31,11.88
								C153.63,119.69,141.24,136.42,124,144.61z"/>
						</g>
					</mask>
					<path id="Neck-Shadow" class="st12" d="M156,79v23c0,30.93-25.07,56-56,56s-56-25.07-56-56V79v15c0,30.93,25.07,56,56,56
						s56-25.07,56-56V79z"/>
				</g>
				<g transform="translate(0.000000, 170.000000)">
					<g id="Clothes">
						<path class="st13" d="M171.32,29.94c34.39,5.43,60.68,35.2,60.68,71.12V110H32v-8.95c0-35.91,26.29-65.69,60.68-71.12
							c0.9,5.07,3.43,9.89,7.55,13.6l0,0l29.09,26.23c1.52,1.37,3.84,1.37,5.36,0l0,0l29.09-26.23c0.43-0.38,0.84-0.78,1.23-1.2
							C168.41,38.79,170.52,34.45,171.32,29.94z"/>
					</g>
					<defs>
						<filter id="Adobe_OpacityMaskFilter_4_" filterUnits="userSpaceOnUse" x="0" y="0" width="264" height="110">
							<feColorMatrix  type="matrix" values="1 0 0 0 0  0 1 0 0 0  0 0 1 0 0  0 0 0 1 0"/>
						</filter>
					</defs>
					<mask maskUnits="userSpaceOnUse" x="0" y="0" width="264" height="110" id="react-mask-86_1_">
						<g class="st14">
							<path id="react-path-85_1_" class="st2" d="M171.32,29.94c34.39,5.43,60.68,35.2,60.68,71.12V110H32v-8.95
								c0-35.91,26.29-65.69,60.68-71.12c0.9,5.07,3.43,9.89,7.55,13.6l0,0l29.09,26.23c1.52,1.37,3.84,1.37,5.36,0l0,0l29.09-26.23
								c0.43-0.38,0.84-0.78,1.23-1.2C168.41,38.79,170.52,34.45,171.32,29.94z"/>
						</g>
					</mask>
					<g class="st15">
						<rect class="st16" width="264" height="110"/>
					</g>
				</g>
				<g id="Face" transform="translate(76.000000, 82.000000)">
					<g transform="translate(2.000000, 52.000000)">
						<path class="st17" d="M45,18h18c1.66,0,3,1.34,3,3l0,0c0,1.66-1.34,3-3,3H45c-1.66,0-3-1.34-3-3l0,0C42,19.34,43.34,18,45,18z
							"/>
					</g>
					<g transform="translate(28.000000, 40.000000)">
						<path id="Nose" class="st18" d="M16,8c0,4.42,5.37,8,12,8l0,0c6.63,0,12-3.58,12-8"/>
					</g>
					<g transform="translate(0.000000, 8.000000)">
						<circle id="Eye" class="st19" cx="30" cy="22" r="6"/>
						<circle class="st19" cx="82" cy="22" r="6"/>
					</g>
					<g>
						<g id="I-Browse" transform="translate(12.000000, 0.000000)">
							<path id="Eyebrow" class="st20" d="M3.98,17.13C5.47,7.6,18.06,1.11,27.16,5.3c1,0.46,2.19,0.02,2.65-0.98
								s0.02-2.19-0.98-2.65C17.35-3.62,1.94,4.33,0.02,16.51c-0.17,1.09,0.57,2.11,1.67,2.29S3.8,18.22,3.98,17.13z"/>
							<path class="st20" d="M84.02,17.13C82.53,7.6,69.94,1.11,60.84,5.3c-1,0.46-2.19,0.02-2.65-0.98s-0.02-2.19,0.98-2.65
								c11.49-5.29,26.9,2.66,28.81,14.84c0.17,1.09-0.57,2.11-1.67,2.29S84.2,18.22,84.02,17.13z"/>
						</g>
					</g>
				</g>
				<g id="Top">
					<defs>
						<filter id="Adobe_OpacityMaskFilter_5_" filterUnits="userSpaceOnUse" x="16" y="34" width="322" height="282">
							<feColorMatrix  type="matrix" values="1 0 0 0 0  0 1 0 0 0  0 0 1 0 0  0 0 0 1 0"/>
						</filter>
					</defs>
					<mask maskUnits="userSpaceOnUse" x="16" y="34" width="322" height="282" id="react-mask-90_1_">
						<g class="st21">
							<rect id="react-path-92_1_" class="st2" width="264" height="280"/>
						</g>
					</mask>
					<g class="st22">
						<g transform="translate(-1.000000, 0.000000)">
							<g transform="translate(49.000000, 72.000000)">
								<g id="Lite-Beard">
									<path class="st23" d="M101.43,98.17c-2.51,2.29-5.19,3.33-8.58,2.6c-0.58-0.12-2.96-4.54-8.85-4.54
										c-5.9,0-8.27,4.41-8.85,4.54c-3.38,0.72-6.06-0.31-8.58-2.6c-4.73-4.31-8.65-10.26-6.29-16.75
										c1.23-3.38,3.23-7.1,6.87-8.17c3.89-1.15,9.35,0,13.26-0.79C81.68,72.2,83.07,71.75,84,71c0.93,0.75,2.32,1.2,3.58,1.46
										c3.92,0.79,9.38-0.36,13.26,0.79c3.64,1.08,5.64,4.79,6.87,8.17C110.08,87.91,106.15,93.86,101.43,98.17 M140.08,26
										c-3.41,8.4-2.09,18.86-2.72,27.68c-0.51,7.17-2.02,17.91-8.38,22.54c-3.25,2.37-9.18,6.35-13.43,5.24
										c-2.93-0.76-3.24-9.16-7.09-12.3c-4.36-3.56-9.81-5.13-15.31-4.89c-2.37,0.1-7.17,0.08-9.15,1.9
										c-1.98-1.82-6.78-1.8-9.15-1.9c-5.49-0.24-10.94,1.32-15.31,4.89c-3.85,3.14-4.16,11.54-7.09,12.3
										c-4.25,1.11-10.18-2.87-13.43-5.24c-6.36-4.63-7.87-15.37-8.38-22.54C30.01,44.86,31.33,34.4,27.92,26
										c-1.66,0-0.56,16.13-0.56,16.13v20.36c0.03,15.29,9.58,38.17,30.75,46.91C63.29,111.53,75.02,115,84,115
										s20.71-3.14,25.89-5.28c21.17-8.74,30.72-31.95,30.75-47.24V42.13C140.65,42.13,141.74,26,140.08,26"/>
								</g>
								<defs>
									<filter id="Adobe_OpacityMaskFilter_6_" filterUnits="userSpaceOnUse" x="-32" y="0" width="264" height="244">
										<feColorMatrix  type="matrix" values="1 0 0 0 0  0 1 0 0 0  0 0 1 0 0  0 0 0 1 0"/>
									</filter>
								</defs>
								<mask maskUnits="userSpaceOnUse" x="-32" y="0" width="264" height="244" id="react-mask-94_1_">
									<g class="st24">
										<path id="react-path-95_1_" class="st2" d="M101.43,98.17c-2.51,2.29-5.19,3.33-8.58,2.6c-0.58-0.12-2.96-4.54-8.85-4.54
											c-5.9,0-8.27,4.41-8.85,4.54c-3.38,0.72-6.06-0.31-8.58-2.6c-4.73-4.31-8.65-10.26-6.29-16.75
											c1.23-3.38,3.23-7.1,6.87-8.17c3.89-1.15,9.35,0,13.26-0.79C81.68,72.2,83.07,71.75,84,71c0.93,0.75,2.32,1.2,3.58,1.46
											c3.92,0.79,9.38-0.36,13.26,0.79c3.64,1.08,5.64,4.79,6.87,8.17C110.08,87.91,106.15,93.86,101.43,98.17 M140.08,26
											c-3.41,8.4-2.09,18.86-2.72,27.68c-0.51,7.17-2.02,17.91-8.38,22.54c-3.25,2.37-9.18,6.35-13.43,5.24
											c-2.93-0.76-3.24-9.16-7.09-12.3c-4.36-3.56-9.81-5.13-15.31-4.89c-2.37,0.1-7.17,0.08-9.15,1.9
											c-1.98-1.82-6.78-1.8-9.15-1.9c-5.49-0.24-10.94,1.32-15.31,4.89c-3.85,3.14-4.16,11.54-7.09,12.3
											c-4.25,1.11-10.18-2.87-13.43-5.24c-6.36-4.63-7.87-15.37-8.38-22.54C30.01,44.86,31.33,34.4,27.92,26
											c-1.66,0-0.56,16.13-0.56,16.13v20.36c0.03,15.29,9.58,38.17,30.75,46.91C63.29,111.53,75.02,115,84,115
											s20.71-3.14,25.89-5.28c21.17-8.74,30.72-31.95,30.75-47.24V42.13C140.65,42.13,141.74,26,140.08,26"/>
									</g>
								</mask>
								<g class="st25">
									<g transform="translate(-32.000000, 0.000000)">
										<rect class="st26" width="264" height="244"/>
									</g>
								</g>
							</g>
							<g id="Hair" transform="translate(75.000000, 34.000000)">
								<g id="Caesar">
									<path class="st27" d="M82.02,24.38c-7.03-0.69-15.36-1.13-23.71-1.13C39.01,23.23,19.62,25.48,16,28
										C6.3,35.25,2.54,62.45,3,64c-0.33,1.22-1.65,1.49-2,0C0.28,53.7,1,1.73,58,1s57.72,52.7,57,63c-0.35,1.49-1.67,1.22-2,0
										c0.46-1.55-3.3-28.75-13-36c-1.76-1.22-7.25-2.39-14.64-3.26L89,16L82.02,24.38z"/>
								</g>
								<defs>
									<filter id="Adobe_OpacityMaskFilter_7_" filterUnits="userSpaceOnUse" x="0" y="0" width="264" height="280">
										<feColorMatrix  type="matrix" values="1 0 0 0 0  0 1 0 0 0  0 0 1 0 0  0 0 0 1 0"/>
									</filter>
								</defs>
								<mask maskUnits="userSpaceOnUse" x="0" y="0" width="264" height="280" id="react-mask-91_1_">
									<g class="st28">
										<path id="react-path-93_1_" class="st2" d="M82.02,24.38c-7.03-0.69-15.36-1.13-23.71-1.13C39.01,23.23,19.62,25.48,16,28
											C6.3,35.25,2.54,62.45,3,64c-0.33,1.22-1.65,1.49-2,0C0.28,53.7,1,1.73,58,1s57.72,52.7,57,63c-0.35,1.49-1.67,1.22-2,0
											c0.46-1.55-3.3-28.75-13-36c-1.76-1.22-7.25-2.39-14.64-3.26L89,16L82.02,24.38z"/>
									</g>
								</mask>
								<g class="st29">
									<g transform="translate(0.000000, 0.000000) ">
										<rect class="st30" width="264" height="280"/>
									</g>
								</g>
							</g>
							<g transform="translate(62.000000, 85.000000)">
								<g id="Wayfarers" transform="translate(6.000000, 7.000000)">
									<path id="Left" class="st31" d="M34,41h-2.76C17.31,41,9,33.34,9,20.5C9,10.13,10.82,0,32.53,0h2.94
										C57.18,0,59,10.13,59,20.5C59,32.57,48.72,41,34,41z M32.39,6C13,6,13,12.84,13,21.5C13,28.57,16.12,37,30.97,37H34
										c12.36,0,21-6.37,21-15.5C55,12.84,55,6,35.61,6H32.39z"/>
									<path id="Right" class="st31" d="M96,41h-2.76C79.31,41,71,33.34,71,20.5C71,10.13,72.82,0,94.53,0h2.94
										C119.18,0,121,10.13,121,20.5C121,32.57,110.72,41,96,41z M94.39,6C75,6,75,12.84,75,21.5C75,28.57,78.12,37,92.97,37H96
										c12.36,0,21-6.37,21-15.5C117,12.84,117,6,97.61,6H94.39z"/>
									<path id="Stuff" class="st31" d="M2.95,5.77C3.65,5.1,11.21,0,32.5,0c17.85,0,21.63,1.85,27.35,4.65l0.42,0.21
										c0.4,0.14,2.43,0.83,4.81,0.91c2.17-0.09,4.02-0.68,4.56-0.87C76.17,1.72,82.56,0,97.5,0c21.29,0,28.85,5.1,29.55,5.77
										c1.63,0,2.95,1.29,2.95,2.89v2.89c0,1.6-1.32,2.89-2.95,2.89c0,0-6.9,0-6.9,2.89s-1.96-4.18-1.96-5.77V8.73
										c-3.6-1.38-10.05-3.95-20.68-3.95c-11.84,0-17.74,2.1-22.8,4.18l0.06,0.14l0,1.99l-2.22,5.35l-2.74-1.08
										c-0.24-0.1-0.77-0.27-1.5-0.45c-2.04-0.5-4.14-0.66-5.99-0.28c-0.68,0.14-1.31,0.35-1.89,0.63l-2.64,1.29l-2.64-5.16
										l0.12-2.29l0.08-0.19c-4.36-2.03-8.39-4.12-22.82-4.12c-10.63,0-17.08,2.57-20.68,3.95v2.81c0,1.6-2.95,8.66-2.95,5.77
										s-5.91-2.89-5.91-2.89C1.32,14.43,0,13.14,0,11.54V8.66C0,7.06,1.32,5.77,2.95,5.77z"/>
								</g>
							</g>
						</g>
					</g>
				</g>
			</g>
		</g>
	</g>
</g>
</svg>
