<?xml version="1.0" encoding="utf-8"?>
<!-- Generator: Adobe Illustrator 23.0.2, SVG Export Plug-In . SVG Version: 6.00 Build 0)  -->
<svg version="1.1" id="Layer_1" xmlns="http://www.w3.org/2000/svg" xmlns:xlink="http://www.w3.org/1999/xlink" x="0px" y="0px"
	 viewBox="0 0 264 280" style="enable-background:new 0 0 264 280;" xml:space="preserve">
<style type="text/css">
	.st0{fill-rule:evenodd;clip-rule:evenodd;fill:url(#SVGID_1_);}
	.st1{filter:url(#Adobe_OpacityMaskFilter);}
	.st2{fill-rule:evenodd;clip-rule:evenodd;fill:#FFFFFF;}
	.st3{mask:url(#react-mask-4_1_);}
	.st4{fill-rule:evenodd;clip-rule:evenodd;fill:url(#SVGID_2_);}
	.st5{filter:url(#Adobe_OpacityMaskFilter_1_);}
	.st6{mask:url(#react-mask-5_1_);}
	.st7{fill-rule:evenodd;clip-rule:evenodd;fill:#D0C6AC;}
	.st8{filter:url(#Adobe_OpacityMaskFilter_2_);}
	.st9{mask:url(#react-mask-6_1_);}
	.st10{fill-rule:evenodd;clip-rule:evenodd;fill:#EDB98A;}
	.st11{filter:url(#Adobe_OpacityMaskFilter_3_);}
	.st12{mask:url(#react-mask-6_2_);fill-rule:evenodd;clip-rule:evenodd;fill-opacity:0.1;}
	.st13{fill-rule:evenodd;clip-rule:evenodd;fill:#E6E6E6;}
	.st14{filter:url(#Adobe_OpacityMaskFilter_4_);}
	.st15{mask:url(#react-mask-8_1_);}
	.st16{fill-rule:evenodd;clip-rule:evenodd;fill:#262E33;}
	.st17{filter:url(#Adobe_OpacityMaskFilter_5_);}
	.st18{opacity:0.6;mask:url(#react-mask-8_2_);}
	.st19{fill-rule:evenodd;clip-rule:evenodd;fill-opacity:0.16;}
	.st20{fill-rule:evenodd;clip-rule:evenodd;fill:#3A4C5A;}
	.st21{fill-rule:evenodd;clip-rule:evenodd;fill:#2F4351;}
	.st22{fill-rule:evenodd;clip-rule:evenodd;fill-opacity:0.7;}
	.st23{filter:url(#Adobe_OpacityMaskFilter_6_);}
	.st24{mask:url(#react-mask-41_1_);fill-rule:evenodd;clip-rule:evenodd;fill-opacity:0.7;}
	.st25{filter:url(#Adobe_OpacityMaskFilter_7_);}
	.st26{mask:url(#react-mask-42_1_);fill-rule:evenodd;clip-rule:evenodd;fill-opacity:0.7;}
	.st27{fill-rule:evenodd;clip-rule:evenodd;fill-opacity:0.6;}
	.st28{filter:url(#Adobe_OpacityMaskFilter_8_);}
	.st29{mask:url(#react-mask-15_1_);}
	.st30{fill-rule:evenodd;clip-rule:evenodd;fill:#28354B;}
	.st31{filter:url(#Adobe_OpacityMaskFilter_9_);}
	.st32{mask:url(#react-mask-14_1_);}
	.st33{fill-rule:evenodd;clip-rule:evenodd;fill:#D6B370;}
	.st34{fill-rule:evenodd;clip-rule:evenodd;}
	.st35{fill-rule:evenodd;clip-rule:evenodd;fill:#252C2F;}
</style>
<desc>Created with getavataaars.com</desc>
<g>
	<g transform="translate(-825.000000, -1100.000000)">
		<g transform="translate(825.000000, 1100.000000)">
			<g id="Circle" transform="translate(12.000000, 40.000000)">
				<g id="Circle-Background">
					<linearGradient id="SVGID_1_" gradientUnits="userSpaceOnUse" x1="0" y1="120" x2="240" y2="120">
						<stop  offset="0.0509" style="stop-color:#FF2C2C"/>
						<stop  offset="1" style="stop-color:#F464D9"/>
					</linearGradient>
					<circle class="st0" cx="120" cy="120" r="120"/>
				</g>
				<defs>
					<filter id="Adobe_OpacityMaskFilter" filterUnits="userSpaceOnUse" x="0" y="0" width="240" height="240">
						<feColorMatrix  type="matrix" values="1 0 0 0 0  0 1 0 0 0  0 0 1 0 0  0 0 0 1 0"/>
					</filter>
				</defs>
				<mask maskUnits="userSpaceOnUse" x="0" y="0" width="240" height="240" id="react-mask-4_1_">
					<g class="st1">
						<circle id="react-path-1_1_" class="st2" cx="120" cy="120" r="120"/>
					</g>
				</mask>
				<g class="st3">
					<linearGradient id="SVGID_2_" gradientUnits="userSpaceOnUse" x1="0" y1="120" x2="240" y2="120">
						<stop  offset="0.0509" style="stop-color:#FF2C2C"/>
						<stop  offset="1" style="stop-color:#F464D9"/>
					</linearGradient>
					<rect class="st4" width="240" height="240"/>
				</g>
			</g>
			<g id="Mask">
			</g>
			<defs>
				<filter id="Adobe_OpacityMaskFilter_1_" filterUnits="userSpaceOnUse" x="-1" y="0" width="297" height="316">
					<feColorMatrix  type="matrix" values="1 0 0 0 0  0 1 0 0 0  0 0 1 0 0  0 0 0 1 0"/>
				</filter>
			</defs>
			<mask maskUnits="userSpaceOnUse" x="-1" y="0" width="297" height="316" id="react-mask-5_1_">
				<g class="st5">
					<path id="react-path-2_1_" class="st2" d="M12,160c0,66.27,53.73,120,120,120s120-53.73,120-120h12V0H0v160H12z"/>
				</g>
			</mask>
			<g id="Avataaar" class="st6">
				<g id="Body" transform="translate(32.000000, 36.000000)">
					<g>
						<path class="st7" d="M124,144.61V163h4l0,0c39.76,0,72,32.24,72,72v9H0v-9c0-39.76,32.24-72,72-72l0,0h4v-18.39
							c-17.24-8.19-29.63-24.92-31.69-44.73C38.48,99.06,34,94.05,34,88V74c0-5.95,4.32-10.88,10-11.83V56l0,0
							c0-30.93,25.07-56,56-56l0,0l0,0c30.93,0,56,25.07,56,56v6.17c5.68,0.95,10,5.89,10,11.83v14c0,6.05-4.48,11.06-10.31,11.88
							C153.63,119.69,141.24,136.42,124,144.61z"/>
					</g>
					<defs>
						<filter id="Adobe_OpacityMaskFilter_2_" filterUnits="userSpaceOnUse" x="0" y="0" width="264" height="280">
							<feColorMatrix  type="matrix" values="1 0 0 0 0  0 1 0 0 0  0 0 1 0 0  0 0 0 1 0"/>
						</filter>
					</defs>
					<mask maskUnits="userSpaceOnUse" x="0" y="0" width="264" height="280" id="react-mask-6_1_">
						<g class="st8">
							<path id="react-path-3_1_" class="st2" d="M124,144.61V163h4l0,0c39.76,0,72,32.24,72,72v9H0v-9c0-39.76,32.24-72,72-72l0,0
								h4v-18.39c-17.24-8.19-29.63-24.92-31.69-44.73C38.48,99.06,34,94.05,34,88V74c0-5.95,4.32-10.88,10-11.83V56l0,0
								c0-30.93,25.07-56,56-56l0,0l0,0c30.93,0,56,25.07,56,56v6.17c5.68,0.95,10,5.89,10,11.83v14c0,6.05-4.48,11.06-10.31,11.88
								C153.63,119.69,141.24,136.42,124,144.61z"/>
						</g>
					</mask>
					<g class="st9">
						<g id="Color" transform="translate(0.000000, 0.000000)">
							<rect class="st10" width="264" height="280"/>
						</g>
					</g>
					<defs>
						<filter id="Adobe_OpacityMaskFilter_3_" filterUnits="userSpaceOnUse" x="44" y="79" width="112" height="79">
							<feColorMatrix  type="matrix" values="1 0 0 0 0  0 1 0 0 0  0 0 1 0 0  0 0 0 1 0"/>
						</filter>
					</defs>
					<mask maskUnits="userSpaceOnUse" x="44" y="79" width="112" height="79" id="react-mask-6_2_">
						<g class="st11">
							<path id="react-path-3_2_" class="st2" d="M124,144.61V163h4l0,0c39.76,0,72,32.24,72,72v9H0v-9c0-39.76,32.24-72,72-72l0,0
								h4v-18.39c-17.24-8.19-29.63-24.92-31.69-44.73C38.48,99.06,34,94.05,34,88V74c0-5.95,4.32-10.88,10-11.83V56l0,0
								c0-30.93,25.07-56,56-56l0,0l0,0c30.93,0,56,25.07,56,56v6.17c5.68,0.95,10,5.89,10,11.83v14c0,6.05-4.48,11.06-10.31,11.88
								C153.63,119.69,141.24,136.42,124,144.61z"/>
						</g>
					</mask>
					<path id="Neck-Shadow" class="st12" d="M156,79v23c0,30.93-25.07,56-56,56s-56-25.07-56-56V79v15c0,30.93,25.07,56,56,56
						s56-25.07,56-56V79z"/>
				</g>
				<g transform="translate(0.000000, 170.000000)">
					<g id="Shirt" transform="translate(32.000000, 29.000000)">
						<g id="Clothes">
							<path class="st13" d="M133.96,0.29c36.98,3.03,66.04,34,66.04,71.76V81H0v-8.95C0,33.95,29.59,2.76,67.05,0.22
								C67.02,0.59,67,0.97,67,1.35c0,11.86,15,21.48,33.5,21.48S134,13.21,134,1.35C134,0.99,133.99,0.64,133.96,0.29z"/>
						</g>
						<defs>
							<filter id="Adobe_OpacityMaskFilter_4_" filterUnits="userSpaceOnUse" x="-32" y="-29" width="264" height="110">
								<feColorMatrix  type="matrix" values="1 0 0 0 0  0 1 0 0 0  0 0 1 0 0  0 0 0 1 0"/>
							</filter>
						</defs>
						<mask maskUnits="userSpaceOnUse" x="-32" y="-29" width="264" height="110" id="react-mask-8_1_">
							<g class="st14">
								<path id="react-path-7_1_" class="st2" d="M133.96,0.29c36.98,3.03,66.04,34,66.04,71.76V81H0v-8.95
									C0,33.95,29.59,2.76,67.05,0.22C67.02,0.59,67,0.97,67,1.35c0,11.86,15,21.48,33.5,21.48S134,13.21,134,1.35
									C134,0.99,133.99,0.64,133.96,0.29z"/>
							</g>
						</mask>
						<g class="st15">
							<g transform="translate(-32.000000, -29.000000)">
								<rect class="st16" width="264" height="110"/>
							</g>
						</g>
						<defs>
							<filter id="Adobe_OpacityMaskFilter_5_" filterUnits="userSpaceOnUse" x="60.86" y="-24.07" width="79.27" height="53.83">
								<feColorMatrix  type="matrix" values="1 0 0 0 0  0 1 0 0 0  0 0 1 0 0  0 0 0 1 0"/>
							</filter>
						</defs>
						<mask maskUnits="userSpaceOnUse" x="60.86" y="-24.07" width="79.27" height="53.83" id="react-mask-8_2_">
							<g class="st17">
								<path id="react-path-7_2_" class="st2" d="M133.96,0.29c36.98,3.03,66.04,34,66.04,71.76V81H0v-8.95
									C0,33.95,29.59,2.76,67.05,0.22C67.02,0.59,67,0.97,67,1.35c0,11.86,15,21.48,33.5,21.48S134,13.21,134,1.35
									C134,0.99,133.99,0.64,133.96,0.29z"/>
							</g>
						</mask>
						<g id="Shadowy" class="st18">
							<g transform="translate(60.000000, -25.000000)">
								<ellipse class="st19" cx="40.5" cy="27.85" rx="39.64" ry="26.91"/>
							</g>
						</g>
					</g>
					<g id="Blazer" transform="translate(32.000000, 28.000000)">
						<path id="Saco" class="st20" d="M68.78,1.12C30.51,2.8,0,34.36,0,73.05l0,0V82h69.36C65.96,69.92,64,55.71,64,40.5
							C64,26.17,65.74,12.73,68.78,1.12z M131.64,82H200v-8.95c0-38.34-29.98-69.69-67.77-71.88c3.04,11.6,4.77,25.02,4.77,39.33
							C137,55.71,135.04,69.92,131.64,82z"/>
						<path id="Pocket-hanky" class="st13" d="M149,58l9.56-7.17l0,0c1.44-1.08,3.43-1.06,4.86,0.04L170,56L149,58z"/>
						<path id="Wing" class="st21" d="M69,0c-4,19.33-2.33,46.67,5,82H58L44,46l6-9l-6-6L63,1C65.03,0.37,67.03,0.04,69,0z"/>
						<path class="st21" d="M131,0c4,19.33,2.33,46.67-5,82h16l14-36l-6-9l6-6L137,1C134.97,0.37,132.97,0.04,131,0z"/>
					</g>
				</g>
				<g id="Face" transform="translate(76.000000, 82.000000)">
					<g transform="translate(2.000000, 52.000000)">
						<path id="Mouth" class="st22" d="M40,15c0,7.73,6.27,14,14,14l0,0c7.73,0,14-6.27,14-14"/>
					</g>
					<g transform="translate(28.000000, 40.000000)">
						<path id="Nose" class="st19" d="M16,8c0,4.42,5.37,8,12,8l0,0c6.63,0,12-3.58,12-8"/>
					</g>
					<g transform="translate(0.000000, 8.000000)">
						<g id="Eye" transform="translate(16.000000, 13.000000)">
							<g id="The-white-stuff">
								<path class="st2" d="M14,14.05c9.61,0,14,4.45,14-2.49S21.73,0,14,0S0,4.62,0,11.56S4.39,14.05,14,14.05z"/>
							</g>
							<defs>
								<filter id="Adobe_OpacityMaskFilter_6_" filterUnits="userSpaceOnUse" x="8" y="4" width="12" height="12">
									<feColorMatrix  type="matrix" values="1 0 0 0 0  0 1 0 0 0  0 0 1 0 0  0 0 0 1 0"/>
								</filter>
							</defs>
							<mask maskUnits="userSpaceOnUse" x="8" y="4" width="12" height="12" id="react-mask-41_1_">
								<g class="st23">
									<path id="react-path-39_1_" class="st2" d="M14,14.05c9.61,0,14,4.45,14-2.49S21.73,0,14,0S0,4.62,0,11.56
										S4.39,14.05,14,14.05z"/>
								</g>
							</mask>
							<circle class="st24" cx="14" cy="10" r="6"/>
						</g>
						<g transform="translate(68.000000, 13.000000)">
							<g id="Eyeball-Mask">
								<path class="st2" d="M14,14.05c9.61,0,14,4.45,14-2.49S21.73,0,14,0S0,4.62,0,11.56S4.39,14.05,14,14.05z"/>
							</g>
							<defs>
								<filter id="Adobe_OpacityMaskFilter_7_" filterUnits="userSpaceOnUse" x="8" y="4" width="12" height="12">
									<feColorMatrix  type="matrix" values="1 0 0 0 0  0 1 0 0 0  0 0 1 0 0  0 0 0 1 0"/>
								</filter>
							</defs>
							<mask maskUnits="userSpaceOnUse" x="8" y="4" width="12" height="12" id="react-mask-42_1_">
								<g class="st25">
									<path id="react-path-40_1_" class="st2" d="M14,14.05c9.61,0,14,4.45,14-2.49S21.73,0,14,0S0,4.62,0,11.56
										S4.39,14.05,14,14.05z"/>
								</g>
							</mask>
							<circle class="st26" cx="14" cy="10" r="6"/>
						</g>
					</g>
					<g>
						<path id="Eyebrow" class="st27" d="M26.55,6.15c-5.81,0.27-15.2,4.49-14.95,10.34c0.01,0.19,0.29,0.28,0.43,0.13
							c2.75-2.96,22.32-5.95,29.2-4.37c0.63,0.15,1.11-0.48,0.71-0.93C38.51,7.48,31.75,5.9,26.55,6.15"/>
						<path class="st27" d="M86.45,6.15c5.81,0.27,15.2,4.49,14.95,10.34c-0.01,0.19-0.29,0.28-0.43,0.13
							c-2.75-2.96-22.32-5.95-29.2-4.37c-0.63,0.15-1.11-0.48-0.71-0.93C74.49,7.48,81.25,5.9,86.45,6.15"/>
					</g>
				</g>
				<g id="Top">
					<defs>
						<filter id="Adobe_OpacityMaskFilter_8_" filterUnits="userSpaceOnUse" x="-1" y="0" width="264" height="280">
							<feColorMatrix  type="matrix" values="1 0 0 0 0  0 1 0 0 0  0 0 1 0 0  0 0 0 1 0"/>
						</filter>
					</defs>
					<mask maskUnits="userSpaceOnUse" x="-1" y="0" width="264" height="280" id="react-mask-15_1_">
						<g class="st28">
							<rect id="react-path-17_1_" class="st2" width="264" height="280"/>
						</g>
					</mask>
					<g class="st29">
						<g transform="translate(-1.000000, 0.000000)">
							<g id="Short-Hair">
								<path class="st30" d="M94.25,52.02c0.12-0.05-0.18-0.08-0.92-0.06C94.23,51.96,94.53,51.98,94.25,52.02 M86.12,36.3
									C86.11,36.28,86.13,36.45,86.12,36.3 M193.77,70.77c-0.26-3.32-0.73-6.61-1.52-9.85c-0.62-2.58-1.48-5.03-2.49-7.49
									c-0.61-1.48-2.03-3.52-2.2-5.13c-0.16-1.58,1.07-3.33,1.33-5.16c0.26-1.79,0.21-3.67-0.16-5.44
									c-0.83-4.02-3.59-7.76-7.86-8.81c-0.95-0.23-2.96,0.05-3.64-0.5c-0.77-0.64-1.31-2.8-2.01-3.67
									c-1.99-2.48-5.09-4.07-8.37-3.51c-2.41,0.41-1.03,0.91-2.83-0.51c-1-0.79-1.76-1.99-2.73-2.85
									c-1.47-1.28-3.15-2.38-4.89-3.28c-4.56-2.36-9.75-4.07-14.84-4.91c-9.29-1.52-19.2-0.2-28.2,2.22
									c-4.48,1.2-8.99,2.73-13.15,4.74c-1.78,0.86-2.81,1.58-4.67,1.81c-2.93,0.36-5.41,0.34-8.18,1.58
									c-8.54,3.82-12.38,12.69-9.06,21.17c0.67,1.71,1.57,3.21,2.82,4.58c1.52,1.68,2.07,1.35,0.76,3.28
									c-1.96,2.89-3.61,5.97-4.95,9.17c-3.53,8.4-4.12,17.86-3.89,26.82c0.08,3.14,0.21,6.31,0.71,9.42
									c0.21,1.34,0.27,3.87,1.28,4.87c0.51,0.51,1.24,0.79,1.97,0.59c1.71-0.47,1.12-1.74,1.16-2.91
									c0.2-5.88-0.07-11.09,1.33-16.9c1.03-4.29,2.76-8.19,4.99-12.04c2.84-4.88,5.9-9.17,9.81-13.36
									c0.92-0.98,1.12-1.4,2.35-1.47c0.93-0.05,2.3,0.58,3.2,0.81c2,0.49,4,0.97,6.03,1.3c3.74,0.6,7.44,0.64,11.22,0.53
									c7.43-0.23,14.88-0.75,22.08-2.62c4.78-1.24,9.02-3.47,13.6-5.1c0.08-0.03,1.23-0.85,1.43-0.81
									c0.28,0.05,1.98,1.83,2.26,2.05c2.23,1.75,4.67,2.48,7.07,3.83c2.96,1.67,0.09-0.72,1.73,1.36c0.48,0.6,0.72,1.73,1.1,2.41
									c1.22,2.18,2.91,4.1,4.93,5.62c1.96,1.47,4.89,2.18,5.89,4.1c0.77,1.48,1.03,3.48,1.65,5.06c1.63,4.14,3.78,7.99,5.93,11.89
									c1.73,3.14,3.63,5.88,3.82,9.47c0.07,1.25-1.12,8.74,1.77,6.46c0.43-0.34,1.35-4.16,1.54-4.8c0.77-2.63,1.05-5.38,1.39-8.09
									C193.99,81.3,194.22,76.18,193.77,70.77"/>
							</g>
							<defs>
								<filter id="Adobe_OpacityMaskFilter_9_" filterUnits="userSpaceOnUse" x="0" y="0" width="264" height="280">
									<feColorMatrix  type="matrix" values="1 0 0 0 0  0 1 0 0 0  0 0 1 0 0  0 0 0 1 0"/>
								</filter>
							</defs>
							<mask maskUnits="userSpaceOnUse" x="0" y="0" width="264" height="280" id="react-mask-14_1_">
								<g class="st31">
									<path id="react-path-16_1_" class="st2" d="M94.25,52.02c0.12-0.05-0.18-0.08-0.92-0.06
										C94.23,51.96,94.53,51.98,94.25,52.02 M86.12,36.3C86.11,36.28,86.13,36.45,86.12,36.3 M193.77,70.77
										c-0.26-3.32-0.73-6.61-1.52-9.85c-0.62-2.58-1.48-5.03-2.49-7.49c-0.61-1.48-2.03-3.52-2.2-5.13
										c-0.16-1.58,1.07-3.33,1.33-5.16c0.26-1.79,0.21-3.67-0.16-5.44c-0.83-4.02-3.59-7.76-7.86-8.81
										c-0.95-0.23-2.96,0.05-3.64-0.5c-0.77-0.64-1.31-2.8-2.01-3.67c-1.99-2.48-5.09-4.07-8.37-3.51
										c-2.41,0.41-1.03,0.91-2.83-0.51c-1-0.79-1.76-1.99-2.73-2.85c-1.47-1.28-3.15-2.38-4.89-3.28
										c-4.56-2.36-9.75-4.07-14.84-4.91c-9.29-1.52-19.2-0.2-28.2,2.22c-4.48,1.2-8.99,2.73-13.15,4.74
										c-1.78,0.86-2.81,1.58-4.67,1.81c-2.93,0.36-5.41,0.34-8.18,1.58c-8.54,3.82-12.38,12.69-9.06,21.17
										c0.67,1.71,1.57,3.21,2.82,4.58c1.52,1.68,2.07,1.35,0.76,3.28c-1.96,2.89-3.61,5.97-4.95,9.17
										c-3.53,8.4-4.12,17.86-3.89,26.82c0.08,3.14,0.21,6.31,0.71,9.42c0.21,1.34,0.27,3.87,1.28,4.87
										c0.51,0.51,1.24,0.79,1.97,0.59c1.71-0.47,1.12-1.74,1.16-2.91c0.2-5.88-0.07-11.09,1.33-16.9
										c1.03-4.29,2.76-8.19,4.99-12.04c2.84-4.88,5.9-9.17,9.81-13.36c0.92-0.98,1.12-1.4,2.35-1.47c0.93-0.05,2.3,0.58,3.2,0.81
										c2,0.49,4,0.97,6.03,1.3c3.74,0.6,7.44,0.64,11.22,0.53c7.43-0.23,14.88-0.75,22.08-2.62c4.78-1.24,9.02-3.47,13.6-5.1
										c0.08-0.03,1.23-0.85,1.43-0.81c0.28,0.05,1.98,1.83,2.26,2.05c2.23,1.75,4.67,2.48,7.07,3.83
										c2.96,1.67,0.09-0.72,1.73,1.36c0.48,0.6,0.72,1.73,1.1,2.41c1.22,2.18,2.91,4.1,4.93,5.62c1.96,1.47,4.89,2.18,5.89,4.1
										c0.77,1.48,1.03,3.48,1.65,5.06c1.63,4.14,3.78,7.99,5.93,11.89c1.73,3.14,3.63,5.88,3.82,9.47
										c0.07,1.25-1.12,8.74,1.77,6.46c0.43-0.34,1.35-4.16,1.54-4.8c0.77-2.63,1.05-5.38,1.39-8.09
										C193.99,81.3,194.22,76.18,193.77,70.77"/>
								</g>
							</mask>
							<g class="st32">
								<g transform="translate(0.000000, 0.000000) ">
									<rect class="st33" width="264" height="280"/>
								</g>
							</g>
							<g transform="translate(62.000000, 85.000000)">
								<g id="Lennon-Glasses">
									<g>
										<path id="react-path-18" class="st34" d="M80.46,16.39C84.38,8.46,92.55,3,102,3c8.92,0,16.7,4.87,20.84,12.09
											c0.21-0.06,0.43-0.09,0.66-0.09h8c1.38,0,2.5,1.12,2.5,2.5s-1.12,2.5-2.5,2.5h-6.54c0.67,2.21,1.04,4.56,1.04,7
											c0,13.25-10.75,24-24,24S78,40.25,78,27c0-1.42,0.12-2.81,0.36-4.17c-0.08-4.38-3.45-7.83-7.5-7.83
											c-3.74,0-6.89,2.94-7.42,6.83C63.81,23.5,64,25.23,64,27c0,13.25-10.75,24-24,24S16,40.25,16,27c0-2.44,0.36-4.79,1.04-7
											H10.5C9.12,20,8,18.88,8,17.5S9.12,15,10.5,15l0,0h8c0.23,0,0.45,0.03,0.66,0.09C23.3,7.87,31.08,3,40,3
											c9.35,0,17.45,5.35,21.42,13.15c2.08-3.12,5.53-5.15,9.45-5.15C74.87,11,78.41,13.14,80.46,16.39z M40,47
											c11.05,0,20-8.95,20-20S51.05,7,40,7s-20,8.95-20,20S28.95,47,40,47z M102,47c11.05,0,20-8.95,20-20s-8.95-20-20-20
											s-20,8.95-20,20S90.95,47,102,47z"/>
									</g>
									<g>
										<path class="st35" d="M80.46,16.39C84.38,8.46,92.55,3,102,3c8.92,0,16.7,4.87,20.84,12.09c0.21-0.06,0.43-0.09,0.66-0.09
											h8c1.38,0,2.5,1.12,2.5,2.5s-1.12,2.5-2.5,2.5h-6.54c0.67,2.21,1.04,4.56,1.04,7c0,13.25-10.75,24-24,24S78,40.25,78,27
											c0-1.42,0.12-2.81,0.36-4.17c-0.08-4.38-3.45-7.83-7.5-7.83c-3.74,0-6.89,2.94-7.42,6.83C63.81,23.5,64,25.23,64,27
											c0,13.25-10.75,24-24,24S16,40.25,16,27c0-2.44,0.36-4.79,1.04-7H10.5C9.12,20,8,18.88,8,17.5S9.12,15,10.5,15l0,0h8
											c0.23,0,0.45,0.03,0.66,0.09C23.3,7.87,31.08,3,40,3c9.35,0,17.45,5.35,21.42,13.15c2.08-3.12,5.53-5.15,9.45-5.15
											C74.87,11,78.41,13.14,80.46,16.39z M40,47c11.05,0,20-8.95,20-20S51.05,7,40,7s-20,8.95-20,20S28.95,47,40,47z M102,47
											c11.05,0,20-8.95,20-20s-8.95-20-20-20s-20,8.95-20,20S90.95,47,102,47z"/>
									</g>
								</g>
							</g>
						</g>
					</g>
				</g>
			</g>
		</g>
	</g>
</g>
</svg>
