<?xml version="1.0" encoding="utf-8"?>
<!-- Generator: Adobe Illustrator 23.0.2, SVG Export Plug-In . SVG Version: 6.00 Build 0)  -->
<svg version="1.1" id="Layer_1" xmlns="http://www.w3.org/2000/svg" xmlns:xlink="http://www.w3.org/1999/xlink" x="0px" y="0px"
	 viewBox="0 0 264 280" style="enable-background:new 0 0 264 280;" xml:space="preserve">
<style type="text/css">
	.st0{fill-rule:evenodd;clip-rule:evenodd;fill:url(#SVGID_1_);}
	.st1{filter:url(#Adobe_OpacityMaskFilter);}
	.st2{fill-rule:evenodd;clip-rule:evenodd;fill:#FFFFFF;}
	.st3{mask:url(#react-mask-4_1_);}
	.st4{fill-rule:evenodd;clip-rule:evenodd;fill:url(#SVGID_2_);}
	.st5{filter:url(#Adobe_OpacityMaskFilter_1_);}
	.st6{mask:url(#react-mask-5_1_);}
	.st7{fill-rule:evenodd;clip-rule:evenodd;fill:#D0C6AC;}
	.st8{filter:url(#Adobe_OpacityMaskFilter_2_);}
	.st9{mask:url(#react-mask-6_1_);}
	.st10{fill-rule:evenodd;clip-rule:evenodd;fill:#EDB98A;}
	.st11{filter:url(#Adobe_OpacityMaskFilter_3_);}
	.st12{mask:url(#react-mask-6_2_);fill-rule:evenodd;clip-rule:evenodd;fill-opacity:0.1;}
	.st13{fill-rule:evenodd;clip-rule:evenodd;fill:#E6E6E6;}
	.st14{filter:url(#Adobe_OpacityMaskFilter_4_);}
	.st15{mask:url(#react-mask-766_1_);}
	.st16{fill-rule:evenodd;clip-rule:evenodd;fill:#262E33;}
	.st17{fill-rule:evenodd;clip-rule:evenodd;fill-opacity:0.7;}
	.st18{fill-rule:evenodd;clip-rule:evenodd;fill-opacity:0.16;}
	.st19{fill-rule:evenodd;clip-rule:evenodd;fill-opacity:0.6;}
	.st20{filter:url(#Adobe_OpacityMaskFilter_5_);}
	.st21{mask:url(#react-mask-768_1_);}
	.st22{filter:url(#Adobe_OpacityMaskFilter_6_);}
	.st23{mask:url(#react-mask-769_1_);fill-rule:evenodd;clip-rule:evenodd;fill:#1F333C;}
	.st24{filter:url(#Adobe_OpacityMaskFilter_7_);}
	.st25{mask:url(#react-mask-769_2_);fill-rule:evenodd;clip-rule:evenodd;fill:#1F333C;}
	.st26{filter:url(#Adobe_OpacityMaskFilter_8_);}
	.st27{mask:url(#react-mask-769_3_);fill-rule:evenodd;clip-rule:evenodd;fill:#15232A;}
	.st28{fill-rule:evenodd;clip-rule:evenodd;fill:#331B0C;}
	.st29{filter:url(#Adobe_OpacityMaskFilter_9_);}
	.st30{mask:url(#react-mask-772_1_);}
	.st31{fill-rule:evenodd;clip-rule:evenodd;fill:#D6B370;}
	.st32{fill-rule:evenodd;clip-rule:evenodd;fill:#D6EAF2;}
</style>
<desc>Created with getavataaars.com</desc>
<g>
	<g transform="translate(-825.000000, -1100.000000)">
		<g transform="translate(825.000000, 1100.000000)">
			<g id="Circle" transform="translate(12.000000, 40.000000)">
				<g id="Circle-Background">
					<linearGradient id="SVGID_1_" gradientUnits="userSpaceOnUse" x1="121.2937" y1="80.7569" x2="118.2937" y2="171.7569">
						<stop  offset="0" style="stop-color:#1931BC"/>
						<stop  offset="1" style="stop-color:#73D8D8"/>
					</linearGradient>
					<circle class="st0" cx="120" cy="120" r="120"/>
				</g>
				<defs>
					<filter id="Adobe_OpacityMaskFilter" filterUnits="userSpaceOnUse" x="0" y="0" width="240" height="240">
						<feColorMatrix  type="matrix" values="1 0 0 0 0  0 1 0 0 0  0 0 1 0 0  0 0 0 1 0"/>
					</filter>
				</defs>
				<mask maskUnits="userSpaceOnUse" x="0" y="0" width="240" height="240" id="react-mask-4_1_">
					<g class="st1">
						<circle id="react-path-1_1_" class="st2" cx="120" cy="120" r="120"/>
					</g>
				</mask>
				<g class="st3">
					<linearGradient id="SVGID_2_" gradientUnits="userSpaceOnUse" x1="121.2937" y1="80.7569" x2="118.2937" y2="171.7569">
						<stop  offset="0" style="stop-color:#1931BC"/>
						<stop  offset="1" style="stop-color:#73D8D8"/>
					</linearGradient>
					<rect class="st4" width="240" height="240"/>
				</g>
			</g>
			<g id="Mask">
			</g>
			<defs>
				<filter id="Adobe_OpacityMaskFilter_1_" filterUnits="userSpaceOnUse" x="0" y="2" width="296" height="314">
					<feColorMatrix  type="matrix" values="1 0 0 0 0  0 1 0 0 0  0 0 1 0 0  0 0 0 1 0"/>
				</filter>
			</defs>
			<mask maskUnits="userSpaceOnUse" x="0" y="2" width="296" height="314" id="react-mask-5_1_">
				<g class="st5">
					<path id="react-path-2_1_" class="st2" d="M12,160c0,66.27,53.73,120,120,120s120-53.73,120-120h12V0H0v160H12z"/>
				</g>
			</mask>
			<g id="Avataaar" class="st6">
				<g id="Body" transform="translate(32.000000, 36.000000)">
					<g>
						<path class="st7" d="M124,144.61V163h4l0,0c39.76,0,72,32.24,72,72v9H0v-9c0-39.76,32.24-72,72-72l0,0h4v-18.39
							c-17.24-8.19-29.63-24.92-31.69-44.73C38.48,99.06,34,94.05,34,88V74c0-5.95,4.32-10.88,10-11.83V56l0,0
							c0-30.93,25.07-56,56-56l0,0l0,0c30.93,0,56,25.07,56,56v6.17c5.68,0.95,10,5.89,10,11.83v14c0,6.05-4.48,11.06-10.31,11.88
							C153.63,119.69,141.24,136.42,124,144.61z"/>
					</g>
					<defs>
						<filter id="Adobe_OpacityMaskFilter_2_" filterUnits="userSpaceOnUse" x="0" y="0" width="264" height="280">
							<feColorMatrix  type="matrix" values="1 0 0 0 0  0 1 0 0 0  0 0 1 0 0  0 0 0 1 0"/>
						</filter>
					</defs>
					<mask maskUnits="userSpaceOnUse" x="0" y="0" width="264" height="280" id="react-mask-6_1_">
						<g class="st8">
							<path id="react-path-3_1_" class="st2" d="M124,144.61V163h4l0,0c39.76,0,72,32.24,72,72v9H0v-9c0-39.76,32.24-72,72-72l0,0
								h4v-18.39c-17.24-8.19-29.63-24.92-31.69-44.73C38.48,99.06,34,94.05,34,88V74c0-5.95,4.32-10.88,10-11.83V56l0,0
								c0-30.93,25.07-56,56-56l0,0l0,0c30.93,0,56,25.07,56,56v6.17c5.68,0.95,10,5.89,10,11.83v14c0,6.05-4.48,11.06-10.31,11.88
								C153.63,119.69,141.24,136.42,124,144.61z"/>
						</g>
					</mask>
					<g class="st9">
						<g id="Color" transform="translate(0.000000, 0.000000)">
							<rect class="st10" width="264" height="280"/>
						</g>
					</g>
					<defs>
						<filter id="Adobe_OpacityMaskFilter_3_" filterUnits="userSpaceOnUse" x="44" y="79" width="112" height="79">
							<feColorMatrix  type="matrix" values="1 0 0 0 0  0 1 0 0 0  0 0 1 0 0  0 0 0 1 0"/>
						</filter>
					</defs>
					<mask maskUnits="userSpaceOnUse" x="44" y="79" width="112" height="79" id="react-mask-6_2_">
						<g class="st11">
							<path id="react-path-3_2_" class="st2" d="M124,144.61V163h4l0,0c39.76,0,72,32.24,72,72v9H0v-9c0-39.76,32.24-72,72-72l0,0
								h4v-18.39c-17.24-8.19-29.63-24.92-31.69-44.73C38.48,99.06,34,94.05,34,88V74c0-5.95,4.32-10.88,10-11.83V56l0,0
								c0-30.93,25.07-56,56-56l0,0l0,0c30.93,0,56,25.07,56,56v6.17c5.68,0.95,10,5.89,10,11.83v14c0,6.05-4.48,11.06-10.31,11.88
								C153.63,119.69,141.24,136.42,124,144.61z"/>
						</g>
					</mask>
					<path id="Neck-Shadow" class="st12" d="M156,79v23c0,30.93-25.07,56-56,56s-56-25.07-56-56V79v15c0,30.93,25.07,56,56,56
						s56-25.07,56-56V79z"/>
				</g>
				<g transform="translate(0.000000, 170.000000)">
					<g id="Clothes">
						<path class="st13" d="M181.54,32.33C210.78,41.49,232,68.79,232,101.05V110H32v-8.95C32,68.4,53.74,40.82,83.53,32
							C83.18,33.42,83,34.87,83,36.35c0,16.28,22.16,29.48,49.5,29.48S182,52.63,182,36.35C182,34.98,181.84,33.64,181.54,32.33z"/>
					</g>
					<defs>
						<filter id="Adobe_OpacityMaskFilter_4_" filterUnits="userSpaceOnUse" x="0" y="0" width="264" height="110">
							<feColorMatrix  type="matrix" values="1 0 0 0 0  0 1 0 0 0  0 0 1 0 0  0 0 0 1 0"/>
						</filter>
					</defs>
					<mask maskUnits="userSpaceOnUse" x="0" y="0" width="264" height="110" id="react-mask-766_1_">
						<g class="st14">
							<path id="react-path-765_1_" class="st2" d="M181.54,32.33C210.78,41.49,232,68.79,232,101.05V110H32v-8.95
								C32,68.4,53.74,40.82,83.53,32C83.18,33.42,83,34.87,83,36.35c0,16.28,22.16,29.48,49.5,29.48S182,52.63,182,36.35
								C182,34.98,181.84,33.64,181.54,32.33z"/>
						</g>
					</mask>
					<g class="st15">
						<rect class="st16" width="264" height="110"/>
					</g>
				</g>
				<g id="Face" transform="translate(76.000000, 82.000000)">
					<g transform="translate(2.000000, 52.000000)">
						<path class="st17" d="M45,18h18c1.66,0,3,1.34,3,3l0,0c0,1.66-1.34,3-3,3H45c-1.66,0-3-1.34-3-3l0,0C42,19.34,43.34,18,45,18z
							"/>
					</g>
					<g transform="translate(28.000000, 40.000000)">
						<path id="Nose" class="st18" d="M16,8c0,4.42,5.37,8,12,8l0,0c6.63,0,12-3.58,12-8"/>
					</g>
					<g transform="translate(0.000000, 8.000000)">
						<circle id="Eye" class="st19" cx="30" cy="22" r="6"/>
						<circle class="st19" cx="82" cy="22" r="6"/>
					</g>
					<g>
						<path id="Eye-Browse-Reddit" class="st19" d="M22.77,1.58l0.91-0.4c5.24-2.08,13.19-1.21,18.05,1.12
							c0.57,0.27,0.18,1.15-0.4,1.11C26.4,2.26,16.36,11.55,12.95,17.85c-0.1,0.19-0.41,0.21-0.48,0.03
							C10.16,12.56,16.91,3.9,22.77,1.58z"/>
						<path class="st19" d="M89.23,1.58l-0.91-0.4C83.08-0.91,75.14-0.03,70.28,2.3c-0.57,0.27-0.18,1.15,0.4,1.11
							c14.92-1.15,24.96,8.15,28.38,14.44c0.1,0.19,0.41,0.21,0.48,0.03C101.84,12.56,95.09,3.9,89.23,1.58z"/>
					</g>
				</g>
				<g id="Top">
					<defs>
						<filter id="Adobe_OpacityMaskFilter_5_" filterUnits="userSpaceOnUse" x="10" y="2" width="270" height="314">
							<feColorMatrix  type="matrix" values="1 0 0 0 0  0 1 0 0 0  0 0 1 0 0  0 0 0 1 0"/>
						</filter>
					</defs>
					<mask maskUnits="userSpaceOnUse" x="10" y="2" width="270" height="314" id="react-mask-768_1_">
						<g class="st20">
							<rect id="react-path-771_1_" class="st2" width="264" height="280"/>
						</g>
					</mask>
					<g class="st21">
						<g transform="translate(-1.000000, 0.000000)">
							<g id="Hat" transform="translate(1.000000, 0.000000)">
								<g id="Mask-Hair">
								</g>
								<defs>
									<filter id="Adobe_OpacityMaskFilter_6_" filterUnits="userSpaceOnUse" x="75" y="2" width="115" height="73">
										<feColorMatrix  type="matrix" values="1 0 0 0 0  0 1 0 0 0  0 0 1 0 0  0 0 0 1 0"/>
									</filter>
								</defs>
								<mask maskUnits="userSpaceOnUse" x="75" y="2" width="115" height="73" id="react-mask-769_1_">
									<g class="st22">
										<path id="react-path-770_1_" class="st2" d="M156,180.61c17.53-8.33,30.05-25.5,31.79-45.74
											C193.57,134,198,129.02,198,123v-13c0-5.95-4.32-10.88-10-11.83V92c0-7.95-1.65-15.5-4.64-22.35
											C173.43,53,89.31,53.8,80.71,69.49C77.68,76.38,76,83.99,76,92v6.17c-5.68,0.95-10,5.89-10,11.83v13
											c0,6.02,4.43,11,10.21,11.87c1.74,20.25,14.26,37.42,31.79,45.74V199h-4l0,0c-39.76,0-72,32.24-72,72v9h200v-9
											c0-39.76-32.24-72-72-72h-4V180.61z M0,0h264v280H0V0z"/>
									</g>
								</mask>
								<path class="st23" d="M123.18,2h18.64l0,0c18.79,0,35.05,13.08,39.07,31.44L190,75H75l9.11-41.56l0,0
									C88.13,15.08,104.39,2,123.18,2z"/>
								<defs>
									<filter id="Adobe_OpacityMaskFilter_7_" filterUnits="userSpaceOnUse" x="10" y="30" width="244" height="115">
										<feColorMatrix  type="matrix" values="1 0 0 0 0  0 1 0 0 0  0 0 1 0 0  0 0 0 1 0"/>
									</filter>
								</defs>
								<mask maskUnits="userSpaceOnUse" x="10" y="30" width="244" height="115" id="react-mask-769_2_">
									<g class="st24">
										<path id="react-path-770_2_" class="st2" d="M156,180.61c17.53-8.33,30.05-25.5,31.79-45.74
											C193.57,134,198,129.02,198,123v-13c0-5.95-4.32-10.88-10-11.83V92c0-7.95-1.65-15.5-4.64-22.35
											C173.43,53,89.31,53.8,80.71,69.49C77.68,76.38,76,83.99,76,92v6.17c-5.68,0.95-10,5.89-10,11.83v13
											c0,6.02,4.43,11,10.21,11.87c1.74,20.25,14.26,37.42,31.79,45.74V199h-4l0,0c-39.76,0-72,32.24-72,72v9h200v-9
											c0-39.76-32.24-72-72-72h-4V180.61z M0,0h264v280H0V0z"/>
									</g>
								</mask>
								<ellipse id="Hipster" class="st25" cx="132" cy="87.5" rx="122" ry="57.5"/>
								<defs>
									<filter id="Adobe_OpacityMaskFilter_8_" filterUnits="userSpaceOnUse" x="70" y="57" width="124" height="50">
										<feColorMatrix  type="matrix" values="1 0 0 0 0  0 1 0 0 0  0 0 1 0 0  0 0 0 1 0"/>
									</filter>
								</defs>
								<mask maskUnits="userSpaceOnUse" x="70" y="57" width="124" height="50" id="react-mask-769_3_">
									<g class="st26">
										<path id="react-path-770_3_" class="st2" d="M156,180.61c17.53-8.33,30.05-25.5,31.79-45.74
											C193.57,134,198,129.02,198,123v-13c0-5.95-4.32-10.88-10-11.83V92c0-7.95-1.65-15.5-4.64-22.35
											C173.43,53,89.31,53.8,80.71,69.49C77.68,76.38,76,83.99,76,92v6.17c-5.68,0.95-10,5.89-10,11.83v13
											c0,6.02,4.43,11,10.21,11.87c1.74,20.25,14.26,37.42,31.79,45.74V199h-4l0,0c-39.76,0-72,32.24-72,72v9h200v-9
											c0-39.76-32.24-72-72-72h-4V180.61z M0,0h264v280H0V0z"/>
									</g>
								</mask>
								<ellipse id="Very" class="st27" cx="132" cy="82" rx="62" ry="25"/>
							</g>
							<g transform="translate(49.000000, 72.000000)">
								<g id="Lite-Beard">
									<path class="st28" d="M101.43,98.17c-2.51,2.29-5.19,3.33-8.58,2.6c-0.58-0.12-2.96-4.54-8.85-4.54
										c-5.9,0-8.27,4.41-8.85,4.54c-3.38,0.72-6.06-0.31-8.58-2.6c-4.73-4.31-8.65-10.26-6.29-16.75
										c1.23-3.38,3.23-7.1,6.87-8.17c3.89-1.15,9.35,0,13.26-0.79C81.68,72.2,83.07,71.75,84,71c0.93,0.75,2.32,1.2,3.58,1.46
										c3.92,0.79,9.38-0.36,13.26,0.79c3.64,1.08,5.64,4.79,6.87,8.17C110.08,87.91,106.15,93.86,101.43,98.17 M140.08,26
										c-3.41,8.4-2.09,18.86-2.72,27.68c-0.51,7.17-2.02,17.91-8.38,22.54c-3.25,2.37-9.18,6.35-13.43,5.24
										c-2.93-0.76-3.24-9.16-7.09-12.3c-4.36-3.56-9.81-5.13-15.31-4.89c-2.37,0.1-7.17,0.08-9.15,1.9
										c-1.98-1.82-6.78-1.8-9.15-1.9c-5.49-0.24-10.94,1.32-15.31,4.89c-3.85,3.14-4.16,11.54-7.09,12.3
										c-4.25,1.11-10.18-2.87-13.43-5.24c-6.36-4.63-7.87-15.37-8.38-22.54C30.01,44.86,31.33,34.4,27.92,26
										c-1.66,0-0.56,16.13-0.56,16.13v20.36c0.03,15.29,9.58,38.17,30.75,46.91C63.29,111.53,75.02,115,84,115
										s20.71-3.14,25.89-5.28c21.17-8.74,30.72-31.95,30.75-47.24V42.13C140.65,42.13,141.74,26,140.08,26"/>
								</g>
								<defs>
									<filter id="Adobe_OpacityMaskFilter_9_" filterUnits="userSpaceOnUse" x="-32" y="0" width="264" height="244">
										<feColorMatrix  type="matrix" values="1 0 0 0 0  0 1 0 0 0  0 0 1 0 0  0 0 0 1 0"/>
									</filter>
								</defs>
								<mask maskUnits="userSpaceOnUse" x="-32" y="0" width="264" height="244" id="react-mask-772_1_">
									<g class="st29">
										<path id="react-path-773_1_" class="st2" d="M101.43,98.17c-2.51,2.29-5.19,3.33-8.58,2.6c-0.58-0.12-2.96-4.54-8.85-4.54
											c-5.9,0-8.27,4.41-8.85,4.54c-3.38,0.72-6.06-0.31-8.58-2.6c-4.73-4.31-8.65-10.26-6.29-16.75
											c1.23-3.38,3.23-7.1,6.87-8.17c3.89-1.15,9.35,0,13.26-0.79C81.68,72.2,83.07,71.75,84,71c0.93,0.75,2.32,1.2,3.58,1.46
											c3.92,0.79,9.38-0.36,13.26,0.79c3.64,1.08,5.64,4.79,6.87,8.17C110.08,87.91,106.15,93.86,101.43,98.17 M140.08,26
											c-3.41,8.4-2.09,18.86-2.72,27.68c-0.51,7.17-2.02,17.91-8.38,22.54c-3.25,2.37-9.18,6.35-13.43,5.24
											c-2.93-0.76-3.24-9.16-7.09-12.3c-4.36-3.56-9.81-5.13-15.31-4.89c-2.37,0.1-7.17,0.08-9.15,1.9
											c-1.98-1.82-6.78-1.8-9.15-1.9c-5.49-0.24-10.94,1.32-15.31,4.89c-3.85,3.14-4.16,11.54-7.09,12.3
											c-4.25,1.11-10.18-2.87-13.43-5.24c-6.36-4.63-7.87-15.37-8.38-22.54C30.01,44.86,31.33,34.4,27.92,26
											c-1.66,0-0.56,16.13-0.56,16.13v20.36c0.03,15.29,9.58,38.17,30.75,46.91C63.29,111.53,75.02,115,84,115
											s20.71-3.14,25.89-5.28c21.17-8.74,30.72-31.95,30.75-47.24V42.13C140.65,42.13,141.74,26,140.08,26"/>
									</g>
								</mask>
								<g class="st30">
									<g transform="translate(-32.000000, 0.000000)">
										<rect class="st31" width="264" height="244"/>
									</g>
								</g>
							</g>
							<g transform="translate(62.000000, 85.000000)">
								<g id="Glasses" transform="translate(8.000000, 8.000000)">
									<path id="Frame-Stuff" class="st32" d="M46.25,7.28c2.37,0.02,3.49,0.42,3.9,2.89c0.41,2.51,0.01,5.32-0.46,7.79
										c-0.72,3.77-1.92,7.46-4.71,10.21c-1.47,1.45-3.26,2.61-5.17,3.4c-1.01,0.42-2.08,0.72-3.15,0.95
										c-0.31,0.07-2.98,0.43-1.34,0.25c-3.82,0.44-7.96,0.42-11.15-2.01c-3.53-2.69-5.95-6.95-7.02-11.2
										c-0.62-2.48-1.93-8.42,0.46-10.41C20.35,6.87,46.25,7.28,46.25,7.28L46.25,7.28z M22.22,0.49
										c-5.44,0.19-9.07,1.14-11.75,6.58c-4.92,9.96,3.5,24.9,12.89,28.97c10.98,4.76,23.24-0.51,29.04-10.03
										c3.07-5.04,4.63-12.68,4.53-18.5c-0.13-7.43-5.32-7.63-11.41-7.47L22.22,0.49z"/>
									<path class="st32" d="M79.68,7.27c-2.37,0.02-3.49,0.42-3.9,2.89c-0.41,2.51-0.01,5.32,0.46,7.79
										c0.72,3.77,1.92,7.46,4.71,10.21c1.47,1.45,3.26,2.61,5.17,3.4c1.01,0.42,2.08,0.72,3.15,0.95
										c0.31,0.07,2.98,0.43,1.34,0.25c3.82,0.44,7.96,0.42,11.15-2.01c3.53-2.69,5.95-6.95,7.02-11.2
										c0.62-2.48,1.93-8.42-0.46-10.41C105.58,6.87,79.68,7.27,79.68,7.27L79.68,7.27z M103.71,0.49
										c5.44,0.19,9.07,1.14,11.75,6.58c4.92,9.96-3.5,24.9-12.89,28.97C91.6,40.8,79.34,35.53,73.53,26
										c-3.07-5.04-4.63-12.68-4.53-18.5c0.13-7.43,5.32-7.63,11.41-7.47L103.71,0.49z"/>
									<path class="st32" d="M13.2,4.93C9.79,5.12,5.89,5.16,2.69,6.64c-3.38,1.56-3.91,5.1,0.36,5.59
										c1.92,0.22,3.85-0.14,5.74-0.48c1.55-0.28,3.65-0.19,5.12-0.78C16.64,9.86,16.46,4.74,13.2,4.93"/>
									<path class="st32" d="M112.73,4.93c3.41,0.19,7.31,0.24,10.51,1.71c3.38,1.56,3.91,5.1-0.36,5.59
										c-1.92,0.22-3.85-0.14-5.74-0.48c-1.55-0.28-3.65-0.19-5.12-0.78C109.3,9.86,109.47,4.74,112.73,4.93"/>
									<path class="st32" d="M73.11,7.01c-1.95-2.3-7.02-3.63-10.22-3.63c-3.2,0-8.12,1.33-10.07,3.63
										c-0.98,1.16-1.01,2.71,0.69,3.44c2.12,0.91,4.01-0.74,5.7-1.6c2.17-1.1,5.5-0.98,7.51,0c1.71,0.83,3.59,2.5,5.7,1.6
										C74.12,9.72,74.09,8.17,73.11,7.01"/>
								</g>
							</g>
						</g>
					</g>
				</g>
			</g>
		</g>
	</g>
</g>
</svg>
